<svg id="co2-inside-cloud" xmlns="http://www.w3.org/2000/svg" width="34.925" height="28.3" viewBox="0 0 34.925 28.3">
  <g id="Group_2634" data-name="Group 2634">
    <path id="Path_11772" data-name="Path 11772" d="M30.556,51.522A11.662,11.662,0,0,0,7.885,49.971a10.145,10.145,0,0,0,2.259,20.035H24.781a10.144,10.144,0,0,0,5.775-18.484ZM14.034,55.015,13.7,56.321a.3.3,0,0,1-.41.2,3.25,3.25,0,0,0-1.265-.246,1.9,1.9,0,0,0-2.019,2.1,1.867,1.867,0,0,0,2.029,2.073,3.792,3.792,0,0,0,1.259-.216.3.3,0,0,1,.409.223l.248,1.285a.3.3,0,0,1-.162.328,4.945,4.945,0,0,1-2,.345,3.776,3.776,0,0,1-4.113-3.94,4,4,0,0,1,4.275-4.167,4.52,4.52,0,0,1,1.931.358A.3.3,0,0,1,14.034,55.015Zm4.189,7.417A3.7,3.7,0,0,1,14.5,58.427a3.812,3.812,0,0,1,3.843-4.113A3.668,3.668,0,0,1,22.1,58.3C22.1,60.809,20.578,62.432,18.224,62.432Zm9.028,1.6a.3.3,0,0,1-.3.3H23.262a.3.3,0,0,1-.3-.3v-.736a.3.3,0,0,1,.1-.224l.672-.608c1.077-.963,1.591-1.506,1.6-1.991,0-.3-.181-.449-.553-.449a1.553,1.553,0,0,0-.928.37.3.3,0,0,1-.465-.129l-.344-.872a.3.3,0,0,1,.1-.352,3.183,3.183,0,0,1,1.885-.6,1.908,1.908,0,0,1,2.126,1.934,3.347,3.347,0,0,1-1.36,2.352h1.154a.3.3,0,0,1,.3.3v1h0Z" transform="translate(0 -41.706)" fill="#203541"/>
    <path id="Path_11773" data-name="Path 11773" d="M213.485,224.488c-1.076,0-1.457,1.169-1.457,2.17,0,1.292.576,2.127,1.468,2.127,1.068,0,1.446-1.169,1.446-2.17C214.943,225.556,214.492,224.488,213.485,224.488Z" transform="translate(-195.186 -209.969)" fill="#203541"/>
  </g>
</svg>
