<svg width="48" height="36" viewBox="0 0 48 36" fill="none" xmlns="http://www.w3.org/2000/svg">
<path d="M27.6781 18.3703C27.6719 17.3047 28.1547 16.5016 29.1297 15.9094C28.5844 15.1281 27.7594 14.6984 26.6719 14.6156C25.6422 14.5344 24.5156 15.2156 24.1031 15.2156C23.6672 15.2156 22.6703 14.6438 21.8859 14.6438C20.2672 14.6688 18.5469 15.9344 18.5469 18.5094C18.5469 19.2703 18.6859 20.0563 18.9641 20.8656C19.3359 21.9313 20.6766 24.5422 22.075 24.5C22.8062 24.4828 23.3234 23.9812 24.275 23.9812C25.1984 23.9812 25.6766 24.5 26.4922 24.5C27.9031 24.4797 29.1156 22.1063 29.4688 21.0375C27.5766 20.1453 27.6781 18.425 27.6781 18.3703ZM26.0359 13.6047C26.8281 12.6641 26.7563 11.8078 26.7328 11.5C26.0328 11.5406 25.2234 11.9766 24.7625 12.5125C24.2547 13.0875 23.9562 13.7984 24.0203 14.6C24.7766 14.6578 25.4672 14.2687 26.0359 13.6047Z" fill="white"/>
<rect x="0.5" y="0.5" width="47" height="35" rx="5.5" stroke="white"/>
</svg>
