<svg width="408" height="88" viewBox="0 0 408 88" fill="none" xmlns="http://www.w3.org/2000/svg">
<path d="M131 85C131 82.7909 132.791 81 135 81H274C276.209 81 278 82.7909 278 85V88H131V85Z" fill="#3A3A3A"/>
<path d="M9.522 14.892V34.764C9.522 36.9413 10.0893 38.6127 11.224 39.778C12.3587 40.9127 13.9533 41.48 16.008 41.48C18.0933 41.48 19.7033 40.9127 20.838 39.778C21.9727 38.6127 22.54 36.9413 22.54 34.764V14.892H29.026V34.718C29.026 37.4473 28.428 39.7627 27.232 41.664C26.0667 43.5347 24.4873 44.9453 22.494 45.896C20.5313 46.8467 18.3387 47.322 15.916 47.322C13.524 47.322 11.3467 46.8467 9.384 45.896C7.452 44.9453 5.91867 43.5347 4.784 41.664C3.64933 39.7627 3.082 37.4473 3.082 34.718V14.892H9.522ZM41.6882 25.196C42.5162 24.0307 43.6509 23.0647 45.0922 22.298C46.5642 21.5007 48.2356 21.102 50.1062 21.102C52.2836 21.102 54.2462 21.6387 55.9942 22.712C57.7729 23.7853 59.1682 25.3187 60.1802 27.312C61.2229 29.2747 61.7442 31.5593 61.7442 34.166C61.7442 36.7727 61.2229 39.088 60.1802 41.112C59.1682 43.1053 57.7729 44.654 55.9942 45.758C54.2462 46.862 52.2836 47.414 50.1062 47.414C48.2356 47.414 46.5796 47.0307 45.1382 46.264C43.7276 45.4973 42.5776 44.5313 41.6882 43.366V59.144H35.2482V21.516H41.6882V25.196ZM55.1662 34.166C55.1662 32.6327 54.8442 31.314 54.2002 30.21C53.5869 29.0753 52.7589 28.2167 51.7162 27.634C50.7042 27.0513 49.6002 26.76 48.4042 26.76C47.2389 26.76 46.1349 27.0667 45.0922 27.68C44.0802 28.2627 43.2522 29.1213 42.6082 30.256C41.9949 31.3907 41.6882 32.7247 41.6882 34.258C41.6882 35.7913 41.9949 37.1253 42.6082 38.26C43.2522 39.3947 44.0802 40.2687 45.0922 40.882C46.1349 41.4647 47.2389 41.756 48.4042 41.756C49.6002 41.756 50.7042 41.4493 51.7162 40.836C52.7589 40.2227 53.5869 39.3487 54.2002 38.214C54.8442 37.0793 55.1662 35.73 55.1662 34.166ZM64.768 34.258C64.768 31.6207 65.3047 29.3207 66.378 27.358C67.4513 25.3647 68.9387 23.8313 70.84 22.758C72.7413 21.654 74.9187 21.102 77.372 21.102C80.5307 21.102 83.1373 21.8993 85.192 23.494C87.2773 25.058 88.6727 27.266 89.378 30.118H82.432C82.064 29.014 81.4353 28.1553 80.546 27.542C79.6873 26.898 78.614 26.576 77.326 26.576C75.486 26.576 74.0293 27.2507 72.956 28.6C71.8827 29.9187 71.346 31.8047 71.346 34.258C71.346 36.6807 71.8827 38.5667 72.956 39.916C74.0293 41.2347 75.486 41.894 77.326 41.894C79.9327 41.894 81.6347 40.7287 82.432 38.398H89.378C88.6727 41.158 87.2773 43.3507 85.192 44.976C83.1067 46.6013 80.5 47.414 77.372 47.414C74.9187 47.414 72.7413 46.8773 70.84 45.804C68.9387 44.7 67.4513 43.1667 66.378 41.204C65.3047 39.2107 64.768 36.8953 64.768 34.258ZM105.412 47.414C102.959 47.414 100.751 46.8773 98.7879 45.804C96.8252 44.7 95.2765 43.1513 94.1419 41.158C93.0379 39.1647 92.4859 36.8647 92.4859 34.258C92.4859 31.6513 93.0532 29.3513 94.1879 27.358C95.3532 25.3647 96.9325 23.8313 98.9259 22.758C100.919 21.654 103.143 21.102 105.596 21.102C108.049 21.102 110.273 21.654 112.266 22.758C114.259 23.8313 115.823 25.3647 116.958 27.358C118.123 29.3513 118.706 31.6513 118.706 34.258C118.706 36.8647 118.108 39.1647 116.912 41.158C115.747 43.1513 114.152 44.7 112.128 45.804C110.135 46.8773 107.896 47.414 105.412 47.414ZM105.412 41.802C106.577 41.802 107.666 41.526 108.678 40.974C109.721 40.3913 110.549 39.5327 111.162 38.398C111.775 37.2633 112.082 35.8833 112.082 34.258C112.082 31.8353 111.438 29.98 110.15 28.692C108.893 27.3733 107.344 26.714 105.504 26.714C103.664 26.714 102.115 27.3733 100.858 28.692C99.6312 29.98 99.0179 31.8353 99.0179 34.258C99.0179 36.6807 99.6159 38.5513 100.812 39.87C102.039 41.158 103.572 41.802 105.412 41.802ZM155.078 21.148C158.206 21.148 160.721 22.114 162.622 24.046C164.554 25.9473 165.52 28.6153 165.52 32.05V47H159.08V32.924C159.08 30.9307 158.574 29.4127 157.562 28.37C156.55 27.2967 155.17 26.76 153.422 26.76C151.674 26.76 150.279 27.2967 149.236 28.37C148.224 29.4127 147.718 30.9307 147.718 32.924V47H141.278V32.924C141.278 30.9307 140.772 29.4127 139.76 28.37C138.748 27.2967 137.368 26.76 135.62 26.76C133.841 26.76 132.431 27.2967 131.388 28.37C130.376 29.4127 129.87 30.9307 129.87 32.924V47H123.43V21.516H129.87V24.598C130.698 23.5247 131.756 22.6813 133.044 22.068C134.363 21.4547 135.804 21.148 137.368 21.148C139.361 21.148 141.14 21.5773 142.704 22.436C144.268 23.264 145.479 24.46 146.338 26.024C147.166 24.552 148.362 23.3713 149.926 22.482C151.521 21.5927 153.238 21.148 155.078 21.148ZM174.897 18.48C173.762 18.48 172.812 18.1273 172.045 17.422C171.309 16.686 170.941 15.7813 170.941 14.708C170.941 13.6347 171.309 12.7453 172.045 12.04C172.812 11.304 173.762 10.936 174.897 10.936C176.032 10.936 176.967 11.304 177.703 12.04C178.47 12.7453 178.853 13.6347 178.853 14.708C178.853 15.7813 178.47 16.686 177.703 17.422C176.967 18.1273 176.032 18.48 174.897 18.48ZM178.071 21.516V47H171.631V21.516H178.071ZM198.556 21.148C201.592 21.148 204.045 22.114 205.916 24.046C207.786 25.9473 208.722 28.6153 208.722 32.05V47H202.282V32.924C202.282 30.9 201.776 29.3513 200.764 28.278C199.752 27.174 198.372 26.622 196.624 26.622C194.845 26.622 193.434 27.174 192.392 28.278C191.38 29.3513 190.874 30.9 190.874 32.924V47H184.434V21.516H190.874V24.69C191.732 23.586 192.821 22.7273 194.14 22.114C195.489 21.47 196.961 21.148 198.556 21.148ZM224.828 21.102C226.729 21.102 228.401 21.4853 229.842 22.252C231.283 22.988 232.418 23.954 233.246 25.15V21.516H239.732V47.184C239.732 49.5453 239.257 51.646 238.306 53.486C237.355 55.3567 235.929 56.8287 234.028 57.902C232.127 59.006 229.827 59.558 227.128 59.558C223.509 59.558 220.535 58.7147 218.204 57.028C215.904 55.3413 214.601 53.0413 214.294 50.128H220.688C221.025 51.2933 221.746 52.2133 222.85 52.888C223.985 53.5933 225.349 53.946 226.944 53.946C228.815 53.946 230.333 53.3787 231.498 52.244C232.663 51.14 233.246 49.4533 233.246 47.184V43.228C232.418 44.424 231.268 45.4207 229.796 46.218C228.355 47.0153 226.699 47.414 224.828 47.414C222.681 47.414 220.719 46.862 218.94 45.758C217.161 44.654 215.751 43.1053 214.708 41.112C213.696 39.088 213.19 36.7727 213.19 34.166C213.19 31.59 213.696 29.3053 214.708 27.312C215.751 25.3187 217.146 23.7853 218.894 22.712C220.673 21.6387 222.651 21.102 224.828 21.102ZM233.246 34.258C233.246 32.694 232.939 31.36 232.326 30.256C231.713 29.1213 230.885 28.2627 229.842 27.68C228.799 27.0667 227.68 26.76 226.484 26.76C225.288 26.76 224.184 27.0513 223.172 27.634C222.16 28.2167 221.332 29.0753 220.688 30.21C220.075 31.314 219.768 32.6327 219.768 34.166C219.768 35.6993 220.075 37.0487 220.688 38.214C221.332 39.3487 222.16 40.2227 223.172 40.836C224.215 41.4493 225.319 41.756 226.484 41.756C227.68 41.756 228.799 41.4647 229.842 40.882C230.885 40.2687 231.713 39.41 232.326 38.306C232.939 37.1713 233.246 35.822 233.246 34.258ZM263.423 20.09V28.14H274.233V33.246H263.423V41.756H275.613V47H256.983V14.846H275.613V20.09H263.423ZM292.091 41.066L298.531 21.516H305.385L295.955 47H288.135L278.751 21.516H285.651L292.091 41.066ZM332.692 33.706C332.692 34.626 332.631 35.454 332.508 36.19H313.878C314.031 38.03 314.675 39.4713 315.81 40.514C316.945 41.5567 318.34 42.078 319.996 42.078C322.388 42.078 324.09 41.0507 325.102 38.996H332.048C331.312 41.4493 329.901 43.4733 327.816 45.068C325.731 46.632 323.17 47.414 320.134 47.414C317.681 47.414 315.473 46.8773 313.51 45.804C311.578 44.7 310.06 43.1513 308.956 41.158C307.883 39.1647 307.346 36.8647 307.346 34.258C307.346 31.6207 307.883 29.3053 308.956 27.312C310.029 25.3187 311.532 23.7853 313.464 22.712C315.396 21.6387 317.619 21.102 320.134 21.102C322.557 21.102 324.719 21.6233 326.62 22.666C328.552 23.7087 330.039 25.196 331.082 27.128C332.155 29.0293 332.692 31.222 332.692 33.706ZM326.022 31.866C325.991 30.21 325.393 28.8913 324.228 27.91C323.063 26.898 321.637 26.392 319.95 26.392C318.355 26.392 317.006 26.8827 315.902 27.864C314.829 28.8147 314.169 30.1487 313.924 31.866H326.022ZM351.515 21.148C354.551 21.148 357.004 22.114 358.875 24.046C360.745 25.9473 361.681 28.6153 361.681 32.05V47H355.241V32.924C355.241 30.9 354.735 29.3513 353.723 28.278C352.711 27.174 351.331 26.622 349.583 26.622C347.804 26.622 346.393 27.174 345.351 28.278C344.339 29.3513 343.833 30.9 343.833 32.924V47H337.393V21.516H343.833V24.69C344.691 23.586 345.78 22.7273 347.099 22.114C348.448 21.47 349.92 21.148 351.515 21.148ZM375.303 26.806V39.134C375.303 39.9927 375.502 40.6213 375.901 41.02C376.33 41.388 377.036 41.572 378.017 41.572H381.007V47H376.959C371.531 47 368.817 44.3627 368.817 39.088V26.806H365.781V21.516H368.817V15.214H375.303V21.516H381.007V26.806H375.303ZM395.391 47.414C393.306 47.414 391.435 47.046 389.779 46.31C388.123 45.5433 386.804 44.516 385.823 43.228C384.872 41.94 384.351 40.514 384.259 38.95H390.745C390.868 39.9313 391.343 40.744 392.171 41.388C393.03 42.032 394.088 42.354 395.345 42.354C396.572 42.354 397.522 42.1087 398.197 41.618C398.902 41.1273 399.255 40.4987 399.255 39.732C399.255 38.904 398.826 38.2907 397.967 37.892C397.139 37.4627 395.805 37.0027 393.965 36.512C392.064 36.052 390.5 35.5767 389.273 35.086C388.077 34.5953 387.034 33.844 386.145 32.832C385.286 31.82 384.857 30.4553 384.857 28.738C384.857 27.3273 385.256 26.0393 386.053 24.874C386.881 23.7087 388.046 22.7887 389.549 22.114C391.082 21.4393 392.876 21.102 394.931 21.102C397.967 21.102 400.39 21.8687 402.199 23.402C404.008 24.9047 405.005 26.944 405.189 29.52H399.025C398.933 28.508 398.504 27.7107 397.737 27.128C397.001 26.5147 396.004 26.208 394.747 26.208C393.582 26.208 392.677 26.4227 392.033 26.852C391.42 27.2813 391.113 27.8793 391.113 28.646C391.113 29.5047 391.542 30.164 392.401 30.624C393.26 31.0533 394.594 31.498 396.403 31.958C398.243 32.418 399.761 32.8933 400.957 33.384C402.153 33.8747 403.18 34.6413 404.039 35.684C404.928 36.696 405.388 38.0453 405.419 39.732C405.419 41.204 405.005 42.5227 404.177 43.688C403.38 44.8533 402.214 45.7733 400.681 46.448C399.178 47.092 397.415 47.414 395.391 47.414Z" fill="#3A3A3A"/>
</svg>
