<svg width="82" height="58" viewBox="0 0 82 58" fill="none" xmlns="http://www.w3.org/2000/svg">
<path d="M71.9232 1.90833C73.0553 0.884095 74.5417 0.305176 76.1405 0.305176C77.9899 9.0854 79.5369 18.8008 80.4616 29.3326C81.3604 39.5898 81.5332 49.142 81.2653 57.848L79.3467 57.8628C78.3615 57.8702 77.4455 57.4398 76.9702 56.7421C74.2738 52.8381 70.2898 48.0212 64.4824 43.2192C55.9612 36.1683 47.1204 32.1307 41.1055 29.8819L71.9232 1.90833Z" fill="url(#paint0_linear_200_3296)"/>
<path d="M56.6631 37.5931L76.1338 0.282715C74.535 0.282715 73.0053 0.861634 71.8732 1.88587L41.0469 29.8668C45.2037 31.2473 50.8556 33.5927 56.6631 37.5931Z" fill="url(#paint1_linear_200_3296)"/>
<path d="M71.8723 1.88583L41.046 29.8668C36.8891 31.2473 31.2372 33.5926 25.4297 37.6005L35.152 56.2297C35.6619 57.2094 36.7508 57.8329 37.9521 57.8329H41.046H44.1398C45.3324 57.8329 46.4213 57.2094 46.9398 56.2297L56.6622 37.6005L76.1328 0.29011C74.5341 0.282688 73.0044 0.861599 71.8723 1.88583Z" fill="url(#paint2_linear_200_3296)"/>
<path d="M71.8732 1.88583L41.0469 29.8668V55.0274C41.0469 56.5786 42.4296 57.8329 44.1407 57.8329C45.3333 57.8329 46.4222 57.2094 46.9408 56.2297L56.6631 37.6005L76.1338 0.29011C74.535 0.282688 73.0053 0.861599 71.8732 1.88583Z" fill="url(#paint3_linear_200_3296)"/>
<path d="M10.2189 1.88587C9.08682 0.861634 7.60039 0.282715 6.0016 0.282715C4.1522 9.06294 2.60526 18.7784 1.68056 29.3102C0.78178 39.5674 0.608931 49.1195 0.876836 57.8255L2.79538 57.8404C3.78058 57.8478 4.69664 57.4173 5.17196 56.7196C7.86829 52.8157 11.8523 47.9988 17.6598 43.1967C26.1809 36.1458 35.0217 32.1083 41.0366 29.8594L10.2189 1.88587Z" fill="url(#paint4_linear_200_3296)"/>
<path opacity="0.81" d="M41.0449 29.8668L10.279 1.88587C9.85556 1.49993 9.38024 1.1808 8.87036 0.928448C8.6543 0.82454 8.43826 0.728035 8.21356 0.653815C8.07529 0.609283 7.94566 0.564756 7.80738 0.520224C7.76417 0.50538 7.71232 0.497967 7.66911 0.483123C7.57404 0.460857 7.47898 0.438594 7.38391 0.416328C6.96045 0.327264 6.5197 0.282715 6.07031 0.282715L25.4545 37.5931C27.4768 36.3017 29.7929 34.9583 32.4201 33.6298C35.4794 32.086 38.4004 30.854 41.0449 29.8668Z" fill="url(#paint5_linear_200_3296)"/>
<defs>
<linearGradient id="paint0_linear_200_3296" x1="75.1898" y1="28.2721" x2="51.0262" y2="16.3304" gradientUnits="userSpaceOnUse">
<stop stop-color="#00A87D"/>
<stop offset="0.128" stop-color="#009570"/>
<stop offset="0.3856" stop-color="#00654F"/>
<stop offset="0.5153" stop-color="#004A3D"/>
</linearGradient>
<linearGradient id="paint1_linear_200_3296" x1="76.3329" y1="22.8602" x2="62.0556" y2="15.222" gradientUnits="userSpaceOnUse">
<stop stop-color="#007D58"/>
<stop offset="0.9969" stop-color="#004A3D"/>
</linearGradient>
<linearGradient id="paint2_linear_200_3296" x1="58.6694" y1="30.9773" x2="49.2516" y2="20.0368" gradientUnits="userSpaceOnUse">
<stop offset="0.2046" stop-color="#00A87D"/>
<stop offset="0.3497" stop-color="#00A379"/>
<stop offset="0.526" stop-color="#00946F"/>
<stop offset="0.7182" stop-color="#007B5F"/>
<stop offset="0.9207" stop-color="#005948"/>
<stop offset="1" stop-color="#004A3D"/>
</linearGradient>
<linearGradient id="paint3_linear_200_3296" x1="50.1358" y1="33.5534" x2="86.1073" y2="-41.8919" gradientUnits="userSpaceOnUse">
<stop stop-color="#00A87D" stop-opacity="0"/>
<stop offset="0.445" stop-color="#54DCBD"/>
</linearGradient>
<linearGradient id="paint4_linear_200_3296" x1="24.6954" y1="49.2262" x2="-9.34862" y2="-17.3131" gradientUnits="userSpaceOnUse">
<stop offset="0.1599" stop-color="#00A87D"/>
<stop offset="0.4457" stop-color="#006D55"/>
<stop offset="0.6333" stop-color="#004A3D"/>
</linearGradient>
<linearGradient id="paint5_linear_200_3296" x1="29.7656" y1="36.7792" x2="15.6816" y2="-30.0253" gradientUnits="userSpaceOnUse">
<stop stop-color="#00A87D" stop-opacity="0"/>
<stop offset="0.4252" stop-color="#52DCBD"/>
</linearGradient>
</defs>
</svg>
