<svg width="350" height="304" viewBox="0 0 350 304" fill="none" xmlns="http://www.w3.org/2000/svg">
<g opacity="0.15" filter="url(#filter0_f_163_38310)">
<ellipse cx="175.293" cy="249.33" rx="119.665" ry="18.3671" fill="black"/>
</g>
<path d="M294.589 30.7198C298.896 35.0271 300.054 42.3988 298.042 52.4256C296.039 62.4079 290.942 74.7463 283.157 88.6341C267.594 116.397 241.408 150.147 208.277 183.278C175.147 216.408 141.397 242.594 113.634 258.157C99.7461 265.942 87.4076 271.04 77.4254 273.043C67.3986 275.055 60.0269 273.896 55.7196 269.589C51.4123 265.282 50.254 257.91 52.266 247.883C54.269 237.901 59.3668 225.563 67.1518 211.675C82.7148 183.912 108.901 150.162 142.031 117.031C175.161 83.9007 208.911 57.715 236.674 42.152C250.562 34.367 262.901 29.2693 272.883 27.2662C282.91 25.2542 290.282 26.4126 294.589 30.7198Z" stroke="#B4D4CC" stroke-width="2"/>
<circle cx="273" cy="102" r="14" fill="url(#paint0_radial_163_38310)"/>
<circle cx="68.9998" cy="207" r="9" fill="url(#paint1_radial_163_38310)"/>
<circle cx="140.228" cy="115.194" r="81.2607" fill="url(#paint2_radial_163_38310)"/>
<circle cx="140.228" cy="115.194" r="81.2607" fill="url(#paint3_radial_163_38310)"/>
<circle cx="140.228" cy="115.194" r="69.0159" fill="url(#paint4_linear_163_38310)" fill-opacity="0.5"/>
<path opacity="0.81" fill-rule="evenodd" clip-rule="evenodd" d="M106.038 87.6703C106.016 87.67 105.994 87.6699 105.971 87.6699C104.185 96.0816 102.691 105.389 101.797 115.479C100.929 125.306 100.762 134.457 101.021 142.798L102.874 142.812C103.826 142.819 104.711 142.407 105.17 141.738C107.774 137.998 111.623 133.383 117.232 128.783C119.737 126.727 122.27 124.939 124.747 123.385L124.759 123.408C124.752 123.412 124.745 123.417 124.739 123.422L134.13 141.269C134.623 142.208 135.674 142.805 136.835 142.805H139.823H142.809H142.812C143.964 142.805 145.016 142.208 145.516 141.269L154.908 123.422L154.924 123.391C157.408 124.949 159.949 126.742 162.462 128.804C168.072 133.404 171.92 138.019 174.525 141.759C174.984 142.428 175.868 142.84 176.82 142.833L178.674 142.819C178.932 134.478 178.765 125.327 177.897 115.5C177.004 105.41 175.509 96.1027 173.723 87.691L173.708 87.691L173.715 87.6771H173.713L173.71 87.677L173.709 87.677L173.713 87.6699C172.361 87.6699 171.061 88.0946 170.025 88.8581C169.876 88.9672 169.734 89.0831 169.597 89.2058L139.821 116.012L110.103 89.2058C109.694 88.836 109.235 88.5303 108.743 88.2886C108.534 88.189 108.325 88.0966 108.108 88.0254C108.041 88.0041 107.977 87.9828 107.912 87.9614C107.847 87.9401 107.783 87.9188 107.716 87.8975C107.695 87.8904 107.672 87.885 107.649 87.8797C107.626 87.8744 107.603 87.869 107.582 87.8619L107.307 87.7979C106.898 87.7126 106.472 87.6699 106.038 87.6699L106.038 87.6703ZM139.806 116.018C139.811 116.017 139.816 116.015 139.821 116.013V116.013C139.816 116.015 139.811 116.016 139.806 116.018Z" fill="#7CD2BC"/>
<path d="M164.718 148.722C164.718 143.115 169.263 138.57 174.87 138.57H281.466C287.073 138.57 291.618 143.115 291.618 148.722V255.318C291.618 260.925 287.073 265.47 281.466 265.47H174.87C169.263 265.47 164.718 260.925 164.718 255.318V148.722Z" fill="url(#paint5_radial_163_38310)"/>
<path d="M169.17 152.462C169.17 147.249 173.396 143.023 178.61 143.023H277.725C282.939 143.023 287.165 147.249 287.165 152.462V251.578C287.165 256.791 282.939 261.018 277.725 261.018H178.61C173.396 261.018 169.17 256.791 169.17 251.578V152.462Z" fill="url(#paint6_radial_163_38310)"/>
<path d="M224.005 217.792L221.162 208.757H208.574L205.782 217.792H198.98L210.858 182.362H219.183L230.959 217.792H224.005ZM214.97 188.453H214.716L210.198 203.021H219.538L214.97 188.453Z" fill="#08866A"/>
<path d="M251.105 213.376H250.851C250.614 214.053 250.292 214.696 249.886 215.305C249.514 215.881 249.023 216.405 248.414 216.879C247.839 217.353 247.128 217.725 246.282 217.996C245.47 218.266 244.523 218.402 243.44 218.402C240.699 218.402 238.601 217.505 237.145 215.711C235.69 213.918 234.963 211.363 234.963 208.047V191.296H241.46V207.387C241.46 209.214 241.815 210.618 242.526 211.6C243.237 212.547 244.37 213.021 245.927 213.021C246.57 213.021 247.196 212.936 247.805 212.767C248.448 212.598 249.006 212.344 249.48 212.006C249.954 211.634 250.343 211.194 250.648 210.686C250.952 210.145 251.105 209.519 251.105 208.808V191.296H257.602V217.792H251.105V213.376Z" fill="#08866A"/>
<path d="M217.235 236.348H217.179C217.095 236.822 216.83 237.223 216.383 237.548C215.946 237.865 215.359 238.023 214.624 238.023C214.047 238.023 213.512 237.916 213.019 237.702C212.535 237.488 212.112 237.171 211.749 236.753C211.395 236.325 211.116 235.799 210.911 235.175C210.706 234.552 210.604 233.831 210.604 233.012C210.604 232.193 210.706 231.471 210.911 230.848C211.125 230.215 211.423 229.685 211.804 229.257C212.186 228.829 212.642 228.503 213.172 228.279C213.703 228.056 214.294 227.944 214.945 227.944C215.82 227.944 216.565 228.135 217.179 228.517C217.793 228.898 218.277 229.447 218.63 230.164L217.137 231.043C216.96 230.625 216.695 230.276 216.341 229.996C215.997 229.717 215.532 229.578 214.945 229.578C214.219 229.578 213.638 229.801 213.2 230.248C212.772 230.685 212.558 231.337 212.558 232.202V233.765C212.558 234.622 212.777 235.273 213.214 235.72C213.652 236.166 214.238 236.39 214.973 236.39C215.262 236.39 215.532 236.357 215.783 236.292C216.034 236.218 216.253 236.11 216.439 235.971C216.625 235.831 216.774 235.659 216.886 235.454C216.997 235.25 217.053 235.008 217.053 234.729V234.1H215.141V232.551H218.826V237.855H217.235V236.348Z" fill="#70B6A6"/>
<path d="M225.693 238.023C225.05 238.023 224.469 237.916 223.948 237.702C223.426 237.488 222.98 237.167 222.608 236.739C222.245 236.311 221.961 235.785 221.756 235.161C221.551 234.538 221.449 233.812 221.449 232.984C221.449 232.165 221.551 231.444 221.756 230.82C221.961 230.187 222.245 229.657 222.608 229.229C222.98 228.801 223.426 228.48 223.948 228.266C224.469 228.051 225.05 227.944 225.693 227.944C226.335 227.944 226.916 228.051 227.437 228.266C227.959 228.48 228.405 228.801 228.777 229.229C229.15 229.657 229.434 230.187 229.629 230.82C229.834 231.444 229.936 232.165 229.936 232.984C229.936 233.812 229.834 234.538 229.629 235.161C229.434 235.785 229.15 236.311 228.777 236.739C228.405 237.167 227.959 237.488 227.437 237.702C226.916 237.916 226.335 238.023 225.693 238.023ZM225.693 236.39C226.39 236.39 226.944 236.157 227.354 235.692C227.772 235.226 227.982 234.575 227.982 233.737V232.23C227.982 231.392 227.772 230.741 227.354 230.276C226.944 229.81 226.39 229.578 225.693 229.578C224.995 229.578 224.436 229.81 224.017 230.276C223.608 230.741 223.403 231.392 223.403 232.23V233.737C223.403 234.575 223.608 235.226 224.017 235.692C224.436 236.157 224.995 236.39 225.693 236.39Z" fill="#70B6A6"/>
<path d="M232.713 237.855V228.112H234.555V236.222H238.394V237.855H232.713Z" fill="#70B6A6"/>
<path d="M240.899 228.112H244.445C245.078 228.112 245.65 228.214 246.162 228.419C246.683 228.624 247.125 228.931 247.488 229.34C247.86 229.741 248.144 230.248 248.34 230.862C248.544 231.467 248.647 232.174 248.647 232.984C248.647 233.793 248.544 234.505 248.34 235.119C248.144 235.724 247.86 236.231 247.488 236.641C247.125 237.041 246.683 237.344 246.162 237.548C245.65 237.753 245.078 237.855 244.445 237.855H240.899V228.112ZM244.445 236.222C245.134 236.222 245.678 236.022 246.078 235.622C246.488 235.212 246.692 234.589 246.692 233.751V232.216C246.692 231.378 246.488 230.76 246.078 230.359C245.678 229.95 245.134 229.745 244.445 229.745H242.742V236.222H244.445Z" fill="#70B6A6"/>
<path d="M181.277 165.789L185.594 155.289H181.312V157.563H179.323V153.388H187.921V155.395L183.728 165.789H181.277Z" fill="#70B6A6"/>
<path d="M198.538 158.043C198.538 158.931 198.402 159.772 198.13 160.565C197.869 161.347 197.526 162.07 197.099 162.733C196.673 163.384 196.193 163.971 195.66 164.492C195.139 165.001 194.618 165.433 194.097 165.789H190.935C191.657 165.267 192.308 164.764 192.889 164.278C193.469 163.793 193.973 163.301 194.399 162.804C194.837 162.306 195.192 161.791 195.465 161.258C195.749 160.713 195.962 160.127 196.104 159.499L195.962 159.464C195.844 159.701 195.702 159.932 195.536 160.157C195.382 160.382 195.192 160.577 194.967 160.743C194.742 160.909 194.482 161.045 194.186 161.152C193.89 161.246 193.546 161.294 193.155 161.294C192.634 161.294 192.154 161.205 191.716 161.027C191.278 160.85 190.893 160.595 190.561 160.263C190.242 159.92 189.987 159.517 189.798 159.055C189.62 158.581 189.531 158.048 189.531 157.456C189.531 156.829 189.638 156.254 189.851 155.733C190.064 155.212 190.366 154.762 190.757 154.383C191.148 154.004 191.616 153.708 192.16 153.494C192.717 153.281 193.339 153.175 194.026 153.175C194.736 153.175 195.37 153.293 195.927 153.53C196.483 153.755 196.957 154.081 197.348 154.507C197.739 154.922 198.035 155.431 198.236 156.035C198.438 156.627 198.538 157.296 198.538 158.043ZM194.026 159.482C194.689 159.482 195.204 159.304 195.571 158.949C195.939 158.581 196.122 158.06 196.122 157.385V157.119C196.122 156.444 195.939 155.928 195.571 155.573C195.204 155.206 194.689 155.022 194.026 155.022C193.374 155.022 192.859 155.206 192.48 155.573C192.113 155.928 191.929 156.444 191.929 157.119V157.385C191.929 158.06 192.113 158.581 192.48 158.949C192.859 159.304 193.374 159.482 194.026 159.482Z" fill="#70B6A6"/>
<defs>
<filter id="filter0_f_163_38310" x="19.6282" y="194.962" width="311.329" height="108.734" filterUnits="userSpaceOnUse" color-interpolation-filters="sRGB">
<feFlood flood-opacity="0" result="BackgroundImageFix"/>
<feBlend mode="normal" in="SourceGraphic" in2="BackgroundImageFix" result="shape"/>
<feGaussianBlur stdDeviation="18" result="effect1_foregroundBlur_163_38310"/>
</filter>
<radialGradient id="paint0_radial_163_38310" cx="0" cy="0" r="1" gradientUnits="userSpaceOnUse" gradientTransform="translate(273 88) rotate(90) scale(28)">
<stop stop-color="#EFFFFB"/>
<stop offset="0.348958" stop-color="#E4EFEC"/>
<stop offset="0.840438" stop-color="#A1CABF"/>
<stop offset="1" stop-color="#50B399"/>
</radialGradient>
<radialGradient id="paint1_radial_163_38310" cx="0" cy="0" r="1" gradientUnits="userSpaceOnUse" gradientTransform="translate(68.9998 198) rotate(90) scale(18)">
<stop stop-color="#EFFFFB"/>
<stop offset="0.348958" stop-color="#E4EFEC"/>
<stop offset="0.840438" stop-color="#A1CABF"/>
<stop offset="1" stop-color="#50B399"/>
</radialGradient>
<radialGradient id="paint2_radial_163_38310" cx="0" cy="0" r="1" gradientUnits="userSpaceOnUse" gradientTransform="translate(140.228 33.933) rotate(90) scale(162.521)">
<stop stop-color="#EFFFFB"/>
<stop offset="0.348958" stop-color="#E4EFEC"/>
<stop offset="0.840438" stop-color="#A1CABF"/>
<stop offset="1" stop-color="#50B399"/>
</radialGradient>
<radialGradient id="paint3_radial_163_38310" cx="0" cy="0" r="1" gradientUnits="userSpaceOnUse" gradientTransform="translate(140.228 33.933) rotate(90) scale(162.521)">
<stop stop-color="#00D79F"/>
<stop offset="0.348958" stop-color="#00AC80"/>
<stop offset="0.840438" stop-color="#005C47"/>
<stop offset="1" stop-color="#014A3D"/>
</radialGradient>
<linearGradient id="paint4_linear_163_38310" x1="209.244" y1="184.21" x2="71.2122" y2="46.1777" gradientUnits="userSpaceOnUse">
<stop stop-color="#00D79F"/>
<stop offset="1" stop-color="#007C5C"/>
</linearGradient>
<radialGradient id="paint5_radial_163_38310" cx="0" cy="0" r="1" gradientUnits="userSpaceOnUse" gradientTransform="translate(228.168 138.57) rotate(90) scale(126.9)">
<stop stop-color="#BEE1DA"/>
<stop offset="1" stop-color="#82B5A9"/>
</radialGradient>
<radialGradient id="paint6_radial_163_38310" cx="0" cy="0" r="1" gradientUnits="userSpaceOnUse" gradientTransform="translate(228.168 143.023) rotate(90) scale(117.995)">
<stop stop-color="#EDFBF8"/>
<stop offset="0.800227" stop-color="#B0D2CA"/>
<stop offset="1" stop-color="#92C1B6"/>
</radialGradient>
</defs>
</svg>
