<svg width="64" height="65" viewBox="0 0 64 65" fill="none" xmlns="http://www.w3.org/2000/svg">
<circle cx="32" cy="32.3203" r="32" fill="#08866A"/>
<path fill-rule="evenodd" clip-rule="evenodd" d="M18.1074 21.3205C18.0982 21.3204 18.089 21.3203 18.0798 21.3203C17.3458 24.7503 16.7317 28.5457 16.3647 32.6601C16.008 36.6671 15.9394 40.3987 16.0457 43.7998L16.8072 43.8056C17.1983 43.8085 17.5619 43.6403 17.7505 43.3678C18.8208 41.8426 20.4021 39.9609 22.7072 38.0849C23.7365 37.2467 24.7775 36.5175 25.7951 35.8838L25.7999 35.8929C25.797 35.8948 25.7942 35.8968 25.7913 35.8987L29.6503 43.1763C29.8527 43.559 30.285 43.8026 30.7618 43.8026H31.9898H33.2174H33.2178C33.6912 43.8026 34.1234 43.559 34.3292 43.1763L38.1882 35.8987L38.1948 35.8863C39.2156 36.5214 40.2601 37.2527 41.2927 38.0936C43.5978 39.9696 45.1792 41.8513 46.2496 43.3764C46.4381 43.649 46.8016 43.8171 47.1926 43.8142L47.9544 43.8085C48.0605 40.4074 47.9921 36.6758 47.6352 32.6688C47.2684 28.5544 46.6541 24.759 45.9201 21.329L45.9134 21.329L45.9165 21.3231H45.9162L45.9152 21.3231L45.9147 21.3231L45.9162 21.3203C45.4562 21.3203 45.0109 21.4391 44.6294 21.6567C44.4845 21.7393 44.3487 21.8363 44.2249 21.9465L31.9895 32.8774L19.7779 21.9466C19.6098 21.7958 19.4211 21.6712 19.2188 21.5726C19.133 21.532 19.0473 21.4943 18.9581 21.4653C18.9306 21.4566 18.904 21.4479 18.8775 21.4392C18.8509 21.4305 18.8243 21.4218 18.7969 21.4131C18.7883 21.4102 18.7788 21.408 18.7694 21.4058C18.76 21.4037 18.7505 21.4015 18.742 21.3986L18.6288 21.3725C18.4607 21.3377 18.2857 21.3203 18.1074 21.3203L18.1074 21.3205ZM31.9888 32.8778L31.9893 32.8776V32.8776C31.9892 32.8777 31.989 32.8778 31.9888 32.8778Z" fill="#F0F9F6"/>
</svg>
