<svg width="48" height="36" viewBox="0 0 48 36" fill="none" xmlns="http://www.w3.org/2000/svg">
<path d="M24.636 17.744L26.6073 15.7727L20.24 12.194C19.818 11.966 19.4227 11.934 19.076 12.1833L24.636 17.744ZM26.9433 20.052L28.9927 18.8993C29.3927 18.6753 29.612 18.358 29.612 18.006C29.612 17.6547 29.3927 17.3367 28.9933 17.1127L27.138 16.0707L25.0493 18.1587L26.9433 20.052ZM18.7333 12.668C18.6907 12.7993 18.6667 12.946 18.6667 13.1067V22.91C18.6667 23.164 18.7227 23.3827 18.824 23.5567L24.222 18.158L18.7333 12.668ZM24.636 18.5713L19.268 23.94C19.3707 23.9793 19.4813 24 19.598 24C19.806 24 20.0227 23.9387 20.2433 23.816L26.4133 20.3513L24.636 18.5713Z" fill="white"/>
<rect x="0.5" y="0.5" width="47" height="35" rx="5.5" stroke="white"/>
</svg>
