<svg width="734" height="316" viewBox="0 0 734 316" fill="none" xmlns="http://www.w3.org/2000/svg">
<g clip-path="url(#clip0_3_24)">
<rect width="734" height="316" fill="white"/>
<path d="M734 0H0V328H734V0Z" fill="#00231B"/>
<mask id="mask0_3_24" style="mask-type:alpha" maskUnits="userSpaceOnUse" x="0" y="0" width="734" height="316">
<path d="M734 0H0V316H734V0Z" fill="#00231B"/>
</mask>
<g mask="url(#mask0_3_24)">
</g>
<path d="M333.216 7.11505L328.722 -12.7836L321.692 -32.7696L312.155 -52.4825L300.211 -71.548L286.026 -89.5885L269.833 -106.244L251.93 -121.182L232.655 -134.118L212.388 -144.819L191.529 -153.122L170.475 -158.93L149.609 -162.216L129.294 -163.014" stroke="#024231"/>
<path d="M334.333 56.6282L334.766 37.2433L332.673 17.0636L327.964 -3.59976L320.593 -24.3994L310.593 -44.9551L298.066 -64.8676L283.185 -83.7374L266.204 -101.179L247.438 -116.837L227.248 -130.407L206.046 -141.641L184.249 -150.364L162.287 -156.475L140.566 -159.944L119.463 -160.814L99.3143 -159.187L80.4031 -155.215" stroke="#024231"/>
<path d="M328.502 87.0126L331.337 68.3493L331.723 48.5597L329.506 27.9146L324.586 6.72682L316.916 -14.6418L306.528 -35.7991L293.525 -56.3285L278.094 -75.812L260.497 -93.8454L241.066 -110.057L220.186 -124.124L198.282 -135.788L175.8 -144.865L153.179 -151.248L130.846 -154.907L109.194 -155.886L88.5683 -154.293L69.259 -150.288L51.4993 -144.072" stroke="#024231"/>
<path d="M310.623 132.416L317.763 116.584L322.828 99.199L325.597 80.4256L325.876 60.4778L323.506 39.6232L318.383 18.1814L310.461 -3.48191L299.772 -24.9644L286.426 -45.8432L270.613 -65.6898L252.608 -84.0886L232.75 -100.656L211.438 -115.06L189.109 -127.034L166.22 -136.384L143.227 -143L120.566 -146.851L98.6312 -147.981L77.778 -146.499L58.2959 -142.567L40.4206 -136.392L24.3266 -128.205L10.1328 -118.252" stroke="#024231"/>
<path d="M293.578 158.167L302.425 144.18L309.423 128.512L314.333 111.275L316.94 92.6283L317.046 72.782L314.494 52.0004L309.181 30.6014L301.066 8.95031L290.184 -12.5525L276.645 -33.4842L260.65 -53.4121L242.47 -71.919L222.453 -88.6181L201.005 -103.173L178.563 -115.312L155.59 -124.84L132.545 -131.642L109.861 -135.683L87.9368 -137.003L67.1258 -135.71L47.7146 -131.965L29.9374 -125.97L13.9647 -117.957L-0.0883186 -108.172L-12.157 -96.8672" stroke="#024231"/>
<path d="M272.874 180.808L283.031 168.884L291.578 155.234L298.281 139.918L302.911 123.047L305.256 104.77L305.124 85.2976L302.371 64.884L296.893 43.8425L288.661 22.5267L277.708 1.33079L264.152 -19.3306L248.191 -39.0328L230.101 -57.3652L210.225 -73.9466L188.965 -88.4438L166.753 -100.587L144.042 -110.18L121.287 -117.104L98.9141 -121.322L77.3126 -122.865L56.8294 -121.837L37.7454 -118.389L20.2886 -112.717L4.62563 -105.045L-9.13165 -95.6104L-20.9214 -84.661L-30.7245 -72.4399" stroke="#024231"/>
<path d="M249.266 199.729L260.302 189.956L269.971 178.475L278.047 165.315L284.307 150.539L288.533 134.247L290.526 116.592L290.107 97.7704L287.143 78.0296L281.541 57.6669L273.28 37.0238L262.403 16.4762L249.024 -3.57664L233.344 -22.7295L215.629 -40.5878L196.214 -56.7842L175.485 -70.9971L153.863 -82.9638L131.785 -92.4907L109.68 -99.459L87.9628 -103.823L67.0081 -105.611L47.1461 -104.909L28.6513 -101.861L11.7421 -96.6461L-3.42031 -89.4744L-16.7271 -80.5729L-28.1177 -70.1749L-37.5722 -58.513L-45.1052 -45.8123" stroke="#024231"/>
<path d="M211.111 220.562L223.556 214.511L235.052 206.851L245.402 197.563L254.404 186.647L261.85 174.129L267.531 160.075L271.249 144.582L272.818 127.793L272.08 109.898L268.917 91.1283L263.254 71.7657L255.077 52.1329L244.435 32.5749L231.446 13.4701L216.304 -4.80599L199.264 -21.8832L180.641 -37.4181L160.802 -51.1074L140.139 -62.702L119.06 -72.0154L97.9712 -78.9286L77.2581 -83.3924L57.276 -85.4219L38.3334 -85.0917L20.6909 -82.5249L4.55656 -77.8838L-9.91485 -71.3589L-22.617 -63.1572L-33.4893 -53.4962L-42.5096 -42.5913L-49.6883 -30.6542L-55.0617 -17.8861" stroke="#024231"/>
<path d="M184.272 229.179L196.6 224.988L208.154 219.318L218.766 212.133L228.254 203.42L236.432 193.185L243.11 181.458L248.1 168.303L251.225 153.814L252.324 138.13L251.261 121.425L247.937 103.916L242.297 85.8643L234.337 67.5608L224.114 49.3239L211.743 31.4936L197.405 14.4128L181.34 -1.58283L163.841 -16.1807L145.239 -29.1037L125.895 -40.1214L106.177 -49.0584L86.4596 -55.7995L67.0911 -60.2908L48.3978 -62.5359L30.6637 -62.5919L14.1312 -60.5619L-1.00525 -56.5839L-14.5978 -50.8246L-26.5429 -43.4679L-36.7792 -34.7073L-45.2803 -24.7392L-52.0503 -13.7567L-57.118 -1.9458L-60.5321 10.5183L-62.3549 23.4728" stroke="#024231"/>
<path d="M145.02 234.87L157.37 233.612L169.241 231.063L180.489 227.181L190.973 221.927L200.531 215.28L209.004 207.231L216.224 197.79L222.025 186.997L226.245 174.908L228.732 161.622L229.349 147.263L227.99 131.996L224.575 116.017L219.069 99.5568L211.478 82.8786L201.864 66.2621L190.338 50.0088L177.069 34.4183L162.275 19.7856L146.212 6.38641L129.178 -5.53342L111.488 -15.7679L93.4708 -24.1571L75.4516 -30.5917L57.7444 -35.0144L40.6361 -37.4185L24.3835 -37.8433L9.20565 -36.3681L-4.718 -33.1066L-17.2487 -28.1965L-28.2872 -21.7946L-37.7695 -14.0681L-45.6649 -5.18872L-51.9693 4.67168L-56.7026 15.3466L-59.9016 26.6765L-61.6193 38.5115L-61.9165 50.712L-60.8639 63.1526" stroke="#024231"/>
<path d="M107.982 232.959L119.718 234.02L131.196 233.992L142.299 232.825L152.915 230.484L162.912 226.927L172.165 222.135L180.531 216.088L187.87 208.79L194.036 200.256L198.894 190.529L202.303 179.67L204.144 167.766L204.31 154.935L202.716 141.326L199.311 127.11L194.071 112.493L187.017 97.695L178.211 82.9602L167.758 68.5445L155.808 54.7016L142.551 41.6801L128.207 29.7153L113.032 19.018L97.2948 9.76528L81.2727 2.09846L65.2445 -3.88228L49.4783 -8.11945L34.2219 -10.5965L19.6984 -11.3363L6.10148 -10.3953L-6.40771 -7.86008L-17.7017 -3.84L-27.6857 1.53873L-36.2953 8.13752L-43.494 15.8121L-49.27 24.4154L-53.632 33.8025L-56.6057 43.8344L-58.2312 54.3765L-58.5569 65.3004L-57.6414 76.4929L-55.547 87.8419L-52.3388 99.248" stroke="#024231"/>
<path d="M64.4422 221.435L75.0739 225.019L85.6915 227.757L96.2137 229.6L106.553 230.508L116.612 230.437L126.295 229.352L135.493 227.224L144.095 224.023L151.99 219.739L159.06 214.365L165.186 207.908L170.249 200.394L174.137 191.862L176.744 182.377L177.98 172.02L177.76 160.894L176.031 149.131L172.758 136.875L167.937 124.301L161.596 111.592L153.792 98.9508L144.621 86.582L134.213 74.6922L122.723 63.4875L110.338 53.1568L97.2642 43.873L83.7229 35.7841L69.94 29.0074L56.1434 23.6323L42.5524 19.7141L29.3734 17.2752L16.7937 16.308L4.97835 16.776L-5.93249 18.6188L-15.8247 21.7556L-24.6099 26.0897L-32.2252 31.5119L-38.6299 37.9099L-43.8044 45.1595L-47.7469 53.1446L-50.4715 61.7439L-52.0044 70.8411L-52.3816 80.3282L-51.6476 90.1018L-49.853 100.059L-47.0519 110.111L-43.3012 120.173L-38.6602 130.162L-33.1884 140.009L-26.9464 149.641" stroke="#024231"/>
<path d="M53.871 217.046L64.4371 221.431" stroke="#024231"/>
<path d="M57.0629 216.56L66.1793 219.616L75.2508 221.929L84.2046 223.462L92.9611 224.18L101.435 224.051L109.542 223.051L117.189 221.157L124.286 218.354L130.739 214.639L136.45 210.014L141.328 204.495L145.282 198.11L148.225 190.901L150.084 182.924L150.792 174.254L150.294 164.982L148.557 155.214L145.564 145.072L141.322 134.695L135.86 124.228L129.237 113.828L121.533 103.658L112.847 93.8739L103.313 84.6391L93.0687 76.0948L82.2804 68.3778L71.116 61.6037L59.7532 55.8703L48.3674 51.2486L37.1313 47.7895L26.2077 45.5172L15.7466 44.438L5.88248 44.5295L-3.26748 45.755L-11.6056 48.0597L-19.0532 51.3765L-25.5502 55.6242L-31.0551 60.7174L-35.5421 66.5629L-39.0009 73.0684L-41.4338 80.1351L-42.855 87.6711L-43.2878 95.5854L-42.7626 103.786L-41.3168 112.188L-38.9926 120.712L-35.8351 129.281L-31.8931 137.823L-27.2172 146.269L-21.8592 154.556L-15.8722 162.62L-9.31015 170.406L-2.22826 177.861L5.31812 184.93L13.2718 191.563L21.5751 197.714L30.1685 203.333L38.9903 208.375L47.9773 212.8L57.0629 216.56Z" stroke="#024231"/>
<path d="M50.2303 208.916L57.6271 211.365L64.9615 213.194L72.1659 214.377L79.1751 214.885L85.9208 214.7L92.3265 213.804L98.3259 212.186L103.842 209.841L108.806 206.77L113.144 202.986L116.788 198.506L119.673 193.36L121.746 187.586L122.949 181.237L123.243 174.373L122.601 167.069L121 159.409L118.44 151.486L114.935 143.404L110.514 135.274L105.224 127.207L99.1267 119.324L92.3041 111.739L84.8499 104.564L76.8712 97.9106L68.4827 91.8683L59.8098 86.529L50.9804 81.9643L42.1219 78.2268L33.3608 75.3629L24.8177 73.3956L16.6056 72.335L8.82721 72.1744L1.57443 72.8915L-5.07391 74.4567L-11.0516 76.8242L-16.3056 79.9439L-20.7961 83.7527L-24.4952 88.1875L-27.3865 93.1792L-29.4639 98.6562L-30.7304 104.548L-31.1978 110.779L-30.8841 117.281L-29.8136 123.986L-28.0161 130.823L-25.5246 137.727L-22.3767 144.641L-18.6117 151.501L-14.2722 158.25L-9.40203 164.837L-4.04729 171.207L1.74448 177.312L7.9247 183.107L14.443 188.543L21.2474 193.58L28.2844 198.173L35.4988 202.284L42.8338 205.878L50.2303 208.916Z" stroke="#024231"/>
<path d="M44.127 198.327L49.613 200.108L55.0301 201.414L60.3261 202.227L65.4493 202.53L70.3457 202.315L74.9659 201.569L79.2526 200.288L83.1596 198.48L86.6319 196.146L89.6245 193.303L92.093 189.968L93.9969 186.169L95.3012 181.94L95.9756 177.318L96.0001 172.355L95.3598 167.101L94.0494 161.618L92.0747 155.97L89.4476 150.23L86.1971 144.473L82.3533 138.772L77.9666 133.203L73.0906 127.847L67.7859 122.773L62.1275 118.054L56.1892 113.751L50.0533 109.922L43.803 106.617L37.523 103.875L31.2964 101.727L25.2045 100.197L19.3242 99.2903L13.7271 99.012L8.47795 99.3555L3.63479 100.3L-0.75186 101.827L-4.64013 103.902L-7.99586 106.489L-10.7934 109.55L-13.0142 113.038L-14.6473 116.905L-15.6889 121.104L-16.1412 125.581L-16.012 130.288L-15.3145 135.173L-14.0662 140.182L-12.2889 145.269L-10.0075 150.383L-7.25065 155.478L-4.04911 160.506L-0.436541 165.427L3.55169 170.195L7.87801 174.767L12.503 179.111L17.3858 183.182L22.4837 186.95L27.7531 190.378L33.1481 193.437L38.6221 196.096L44.127 198.327Z" stroke="#024231"/>
<path d="M38.9504 184.71L42.3511 185.783L45.6941 186.55L48.9458 187.005L52.0722 187.135L55.0408 186.939L57.8183 186.416L60.374 185.564L62.6764 184.389L64.7 182.901L66.4168 181.109L67.8063 179.03L68.8426 176.682L69.5154 174.089L69.8075 171.276L69.7142 168.276L69.2269 165.118L68.3512 161.841L67.0911 158.482L65.46 155.082L63.4747 151.677L61.1529 148.318L58.5263 145.04L55.6244 141.886L52.482 138.894L49.138 136.105L45.6351 133.553L42.0167 131.268L38.3283 129.281L34.6158 127.61L30.9252 126.277L27.3013 125.295L23.7876 124.673L20.4256 124.415L17.2533 124.521L14.3059 124.984L11.6151 125.797L9.20832 126.943L7.10918 128.405L5.33673 130.164L3.90621 132.195L2.82819 134.473L2.10937 136.969L1.75281 139.656L1.75707 142.499L2.11791 145.473L2.82718 148.539L3.8741 151.671L5.24472 154.834L6.92267 157.998L8.88918 161.132L11.123 164.205L13.6013 167.189L16.2992 170.054L19.1903 172.774L22.2468 175.324L25.4394 177.678L28.7379 179.814L32.1107 181.71L35.5258 183.348L38.9504 184.71Z" stroke="#024231"/>
<path d="M34.9009 168.073L36.0654 168.426L37.2052 168.671L38.3078 168.805L39.3615 168.827L40.3548 168.735L41.2765 168.532L42.1169 168.217L42.866 167.794L43.5157 167.266L44.0579 166.64L44.4867 165.922L44.7965 165.12L44.9834 164.242L45.0448 163.295L44.9793 162.293L44.7874 161.244L44.4704 160.163L44.0317 159.059L43.4759 157.945L42.8089 156.836L42.0381 155.742L41.1719 154.677L40.2205 153.653L39.1943 152.682L38.1051 151.773L36.9655 150.938L35.7887 150.188L34.5878 149.529L33.3769 148.971L32.1696 148.517L30.9799 148.173L29.821 147.944L28.7058 147.832L27.6471 147.837L26.6564 147.958L25.7444 148.194L24.9209 148.543L24.1948 148.999L23.5735 149.556L23.0636 150.208L22.6696 150.95L22.3959 151.769L22.2446 152.659L22.2166 153.608L22.312 154.608L22.529 155.645L22.8651 156.712L23.3163 157.793L23.8773 158.878L24.5418 159.958L25.3027 161.02L26.152 162.053L27.0804 163.045L28.0784 163.986L29.1351 164.868L30.2397 165.679L31.3807 166.412L32.5459 167.061L33.7235 167.616L34.9009 168.073Z" stroke="#024231"/>
<path d="M60.6937 219.342L53.5677 213.101L47.0758 203.997L41.4104 191.905L36.7724 176.773L33.3592 158.657" stroke="#024231"/>
<path d="M70.5981 222.675L61.8558 215.865L53.5468 206.119L45.8806 193.335L39.0783 177.489L33.3653 158.659" stroke="#024231"/>
<path d="M90.8947 229.626L80.4561 225.189L70.0679 217.924L59.9285 207.674L50.2644 194.354L41.3196 177.973L33.3511 158.641" stroke="#024231"/>
<path d="M102.13 231.618L90.2162 226.897L78.1679 219.297L66.1976 208.684L54.5535 194.998L43.5075 178.271L33.3511 158.653" stroke="#024231"/>
<path d="M126.104 234.768L113.203 232.61L99.7954 227.718L86.0798 219.915L72.2903 209.093L58.7001 195.214L45.615 178.343L33.3612 158.657" stroke="#024231"/>
<path d="M138.213 234.748L123.985 232.563L109.074 227.618L93.6986 219.757L78.1154 208.886L62.6336 194.998L47.5913 178.186L33.3531 158.657" stroke="#024231"/>
<path d="M164.503 233.061L149.97 233.536L134.404 231.437L117.992 226.574L100.974 218.801L83.6439 208.056L66.3419 194.35L49.4464 177.806L33.3592 158.655" stroke="#024231"/>
<path d="M176.937 230.399L161.236 231.079L144.332 229.187L126.434 224.545L107.811 217.027L88.7962 206.585L69.7672 193.261L51.144 177.196L33.3633 158.643" stroke="#024231"/>
<path d="M204.061 223.041L188.733 226.372L171.868 227.368L153.636 225.817L134.282 221.55L114.111 214.456L93.4932 204.51L72.853 191.767L52.6482 176.394L33.349 158.655" stroke="#024231"/>
<path d="M230.554 211.375L216.088 217.163L199.778 220.893L181.757 222.328L162.228 221.259L141.468 217.529L119.824 211.042L97.7132 201.782L75.5979 189.83L53.9765 175.359L33.3529 158.643" stroke="#024231"/>
<path d="M255.564 195.543L242.421 203.514L227.163 209.745L209.882 213.981L190.732 215.984L169.953 215.552L147.86 212.531L124.847 206.837L101.37 198.467L77.9406 187.511L55.0902 174.148L33.3508 158.655" stroke="#024231"/>
<path d="M266.881 185.564L253.144 193.976L237.109 200.737L218.884 205.593L198.656 208.304L176.698 208.666L153.37 206.536L129.109 201.829L104.424 194.551L79.8607 184.793L55.9879 172.741L33.357 158.659" stroke="#024231"/>
<path d="M288.62 163.654L276.824 173.835L262.508 182.753L245.725 190.139L226.606 195.732L205.369 199.293L182.326 200.62L157.884 199.561L132.53 196.039L106.813 190.055L81.3237 181.698L56.6526 171.144L33.3651 158.649" stroke="#024231"/>
<path d="M306.845 138.371L297.332 149.812L285.146 160.407L270.28 169.892L252.795 177.995L232.848 184.45L210.694 189.011L186.689 191.47L161.285 191.673L135.017 189.529L108.477 185.037L82.2865 178.271L57.0547 169.396L33.357 158.645" stroke="#024231"/>
<path d="M320.924 110.487L313.941 122.604L304.209 134.305L291.653 145.345L276.274 155.46L258.15 164.374L237.468 171.815L214.52 177.526L189.702 181.288L163.518 182.932L136.543 182.359L109.408 179.546L82.7601 174.552L57.2214 167.518L33.3651 158.651" stroke="#024231"/>
<path d="M330.331 80.9562L326.004 93.1038L318.931 105.26L308.982 117.216L296.082 128.73L280.243 139.534L261.566 149.35L240.264 157.897L216.667 164.903L191.218 170.132L164.461 173.396L137.014 174.573L109.536 173.615L82.6907 170.556L57.1097 165.508L33.3508 158.645" stroke="#024231"/>
<path d="M333.175 62.4411L328.829 74.3629L321.643 86.5269L311.481 98.7317L298.275 110.741L282.044 122.291L262.915 133.093L241.133 142.857L217.066 151.293L191.194 158.141L164.101 163.189L136.437 166.28L108.885 167.337L82.1218 166.356L56.7662 163.415L33.363 158.653" stroke="#024231"/>
<path d="M335.288 31.8127L333.58 42.8121L329.157 54.4514L321.83 66.5853L311.462 79.0255L297.992 91.5447L281.456 103.886L262.001 115.749L239.904 126.83L215.566 136.817L189.506 145.42L162.337 152.393L134.737 157.543L107.4 160.746L80.9984 161.963L56.1443 161.226L33.3508 158.641" stroke="#024231"/>
<path d="M333.256 11.9643L331.438 22.3775L326.877 33.6772L319.382 45.7395L308.819 58.3994L295.142 71.4394L278.396 84.6008L258.76 97.5839L236.534 110.063L212.149 121.7L186.157 132.174L159.194 141.189L131.949 148.51L105.123 153.967L79.3749 157.47L55.2931 159.009L33.3589 158.649" stroke="#024231"/>
<path d="M328.177 -16.9201L328.653 -8.34684L326.621 1.4178L321.852 12.3247L314.161 24.2795L303.421 37.1368L289.597 50.695L272.756 64.6979L253.096 78.8374L230.944 92.7715L206.759 106.131L181.106 118.552L154.644 129.695L128.056 139.269L102.041 147.053L77.2336 152.902L54.1901 156.76L33.3589 158.648" stroke="#024231"/>
<path d="M321.33 -36.419L321.448 -28.7682L319.096 -19.6994L314.051 -9.22792L306.136 2.58276L295.237 15.6113L281.337 29.6736L264.522 44.5183L245.01 59.8305L223.148 75.2442L199.414 90.3632L174.388 104.777L148.721 118.091L123.099 129.962L98.1888 140.106L74.6045 148.327L52.8592 154.514L33.3586 158.648" stroke="#024231"/>
<path d="M312.046 -55.6313L311.666 -48.9288L308.884 -40.5862L303.494 -30.5825L295.329 -18.9491L284.296 -5.77933L270.396 8.75984L253.734 24.4246L234.546 40.8957L213.199 57.7852L190.174 74.6601L166.054 91.0676L141.48 106.556L117.118 120.722L93.6049 133.224L71.5104 143.802L51.3076 152.3L33.3531 158.649" stroke="#024231"/>
<path d="M299.368 -78.1947L300.438 -74.1983L299.427 -68.4451L296.115 -60.8392L290.312 -51.323L281.877 -39.8942L270.737 -26.6179L256.913 -11.6406L240.534 4.80237L221.848 22.3863L201.233 40.7057L179.168 59.2938L156.226 77.6509L133.032 95.2694L110.212 111.687L88.3634 126.497L68.0097 139.385L49.5742 150.138L33.3633 158.648" stroke="#024231"/>
<path d="M286.426 -94.6655L286.633 -91.7542L284.865 -86.924L280.928 -80.0438L274.656 -71.02L265.934 -59.8173L254.717 -46.4714L241.048 -31.1079L225.076 -13.9514L207.063 4.67084L187.385 24.3371L166.517 44.5504L145.009 64.7627L123.453 84.4219L102.433 102.998L82.4955 120.027L64.1088 135.138L47.6411 148.062L33.3511 158.649" stroke="#024231"/>
<path d="M271.676 -109.852L270.891 -107.955L268.26 -103.995L263.616 -97.8081L256.826 -89.2675L247.809 -78.3048L236.548 -64.9283L223.11 -49.2422L207.661 -31.4583L190.472 -11.9032L171.919 8.98993L152.457 30.6939L132.61 52.6277L112.92 74.1851L93.924 94.7857L76.1122 113.902L59.8878 131.111L45.5657 146.093L33.3511 158.65" stroke="#024231"/>
<path d="M255.381 -123.461L253.498 -122.48L249.916 -119.313L244.506 -113.766L237.167 -105.684L227.854 -94.9682L216.58 -81.6014L203.441 -65.6658L188.618 -47.3592L172.389 -27.0047L155.117 -5.04264L137.238 17.9824L119.235 41.4566L101.604 64.7295L84.8177 87.1731L69.3038 108.209L55.4068 127.358L43.3763 144.251L33.3673 158.647" stroke="#024231"/>
<path d="M237.807 -135.24L234.75 -135.053L230.158 -132.58L223.939 -127.602L216.034 -119.94L206.431 -109.472L195.18 -96.1542L182.398 -80.0494L168.286 -61.3397L153.124 -40.339L137.258 -17.4908L121.098 6.65002L105.082 31.4453L89.6515 56.2144L75.2182 80.2859L62.1382 103.034L50.6898 123.934L41.0653 142.566L33.3653 158.649" stroke="#024231"/>
<path d="M219.298 -144.991L215.022 -145.457L209.388 -143.56L202.346 -139.066L193.874 -131.777L183.997 -121.548L172.801 -108.318L160.428 -92.1293L147.089 -73.1469L133.067 -51.6721L118.692 -28.1433L104.341 -3.11832L90.4074 22.7521L77.2723 48.7648L65.2811 74.2167L54.7238 98.4447L45.8107 120.874L38.6721 141.052L33.3572 158.648" stroke="#024231"/>
<path d="M194.715 -153.529L188.037 -152.08L180.176 -147.975L171.153 -141L161.029 -130.999L149.92 -117.893L137.991 -101.706L125.468 -82.5856L112.63 -60.8183L99.7893 -36.828L87.2925 -11.1669L75.4822 15.5103L64.6837 42.4925L55.1795 69.0521L47.1864 94.4998L40.8513 118.224L36.244 139.729L33.3612 158.648" stroke="#024231"/>
<path d="M174.194 -159.176L166.499 -158.043L157.852 -154.225L148.309 -147.505L137.968 -137.715L126.974 -124.765L115.515 -108.663L103.826 -89.5396L92.1827 -67.6607L80.8827 -43.4326L70.2367 -17.3935L60.5438 9.8143L52.0747 37.4773L45.047 64.858L39.6146 91.2486L35.86 116.011L33.7938 138.611L33.3612 158.649" stroke="#024231"/>
<path d="M153.837 -162.37L145.174 -161.419L135.787 -157.789L125.769 -151.26L115.251 -141.662L104.399 -128.896L93.4224 -112.958L82.5648 -93.9611L72.0977 -72.1494L62.3028 -47.9048L53.4627 -21.7397L45.835 5.71798L39.6383 33.7691L35.0331 61.6801L32.1132 88.7292L30.9006 114.258L31.3503 137.71L33.3572 158.648" stroke="#024231"/>
<path d="M124.438 -162.25L114.381 -158.708L103.945 -152.309L93.2863 -142.882L82.5995 -130.325L72.1058 -114.622L62.0587 -95.8713L52.7226 -74.2911L44.3682 -50.2377L37.2511 -24.1924L31.5941 3.24495L27.5701 31.3977L25.2895 59.5446L24.7924 86.9637L26.0461 112.99L28.9529 137.04L33.3593 158.648" stroke="#024231"/>
<path d="M104.609 -160.631L93.9586 -157.09L83.1683 -150.762L72.4142 -141.485L61.9103 -129.155L51.8917 -113.751L42.615 -95.352L34.3445 -74.154L27.338 -50.4825L21.83 -24.7849L18.0139 2.37811L16.0263 30.3582L15.9353 58.4539L17.7346 85.9627L21.3437 112.211L26.6167 136.602L33.3551 158.647" stroke="#024231"/>
<path d="M74.8242 -153.089L63.7433 -146.78L52.9387 -137.633L42.6324 -125.545L33.0715 -110.491L24.5158 -92.5355L17.2275 -71.8518L11.4552 -48.7312L7.41798 -23.5823L5.28653 3.0726L5.16949 30.6238L7.10185 58.4024L11.0395 85.7242L16.8618 111.926L24.3813 136.402L33.3571 158.647" stroke="#024231"/>
<path d="M57.201 -146.902L45.9025 -140.567L35.087 -131.529L24.989 -119.694L15.8616 -105.031L7.9672 -87.5942L1.5661 -67.5328L-3.0993 -45.105L-5.82114 -20.6837L-6.44366 5.25582L-4.87784 32.1485L-1.11311 59.3622L4.77883 86.241L12.6458 112.134L22.2651 136.443L33.3588 158.649" stroke="#024231"/>
<path d="M29.8177 -132.354L19.031 -123.409L9.14801 -111.831L0.425484 -97.59L-6.87281 -80.7293L-12.4884 -61.3779L-16.1827 -39.7632L-17.7542 -16.2159L-17.0561 8.83143L-14.0106 34.8604L-8.62167 61.2836L-0.979237 87.479L8.74166 112.821L20.2911 136.72L33.3594 158.65" stroke="#024231"/>
<path d="M4.88874 -113.518L-4.77607 -102.199L-13.1256 -88.401L-19.8962 -72.1586L-24.8306 -53.5829L-27.6926 -32.8728L-28.2833 -10.3213L-26.458 13.6854L-22.1437 38.6778L-15.3497 64.1133L-6.17529 89.4107L5.19147 113.972L18.4815 137.225L33.3598 158.648" stroke="#024231"/>
<path d="M-16.7205 -91.0457L-24.7307 -77.7019L-31.0424 -62.1052L-35.3997 -44.3518L-37.567 -24.6138L-37.3443 -3.14761L-34.5858 19.7026L-29.2155 43.5143L-21.241 67.7912L-10.7615 91.9973L2.03011 115.571L16.8546 137.958L33.3598 158.652" stroke="#024231"/>
<path d="M-34.3719 -65.7361L-40.2919 -50.7998L-44.1726 -33.8957L-45.7776 -15.1745L-44.9046 5.13893L-41.4018 26.7413L-35.1856 49.2542L-26.2548 72.2345L-14.7016 95.1823L-0.714084 117.58L15.4266 138.899L33.3582 158.648" stroke="#024231"/>
<path d="M-42.0598 -52.7292L-47.6529 -38.455L-51.1521 -22.4127L-52.3209 -4.73325L-50.9516 14.3864L-46.8853 34.6785L-40.0263 55.8071L-30.3598 77.3731L-17.963 98.9248L-3.0129 119.978L14.2157 140.044L33.3599 158.649" stroke="#024231"/>
<path d="M-53.1691 -25.2814L-56.3758 -10.0992L-57.2245 6.53071L-55.5037 24.4347L-51.0441 43.3773L-43.7358 63.0588L-33.546 83.1228L-20.5328 103.16L-4.85409 122.73L13.2293 141.373L33.3602 158.649" stroke="#024231"/>
<path d="M-59.896 2.86325L-60.5326 18.4499L-58.5931 35.1341L-53.898 52.7063L-46.3219 70.9022L-35.8114 89.401L-22.4013 107.833L-6.22551 125.798L12.4757 142.876L33.3596 158.649" stroke="#024231"/>
<path d="M-62.3018 30.8575L-60.2645 46.3322L-55.4792 62.5323L-47.8039 79.2227L-37.1636 96.1119L-23.5671 112.871L-7.12066 129.134L11.9619 144.518L33.3578 158.639" stroke="#024231"/>
<path d="M-62.5964 43.6413L-60.5713 57.9289L-55.8278 72.7697L-48.2081 87.9494L-37.6165 103.207L-24.0336 118.245L-7.53573 132.73L11.6939 146.316L33.3601 158.651" stroke="#024231"/>
<path d="M-59.5814 69.7575L-54.9985 83.2629L-47.5771 96.9432L-37.1988 110.562L-23.8178 123.848L-7.47905 136.502L11.6681 148.204L33.3586 158.641" stroke="#024231"/>
<path d="M-57.3606 81.7487L-53.0473 93.9514L-45.9526 106.158L-35.9396 118.147L-22.9367 129.671L-6.95692 140.453L11.8847 150.21L33.3598 158.655" stroke="#024231"/>
<path d="M-50.0322 104.694L-43.3814 115.456L-33.8733 125.836L-21.4122 135.599L-5.98107 144.495L12.3404 152.261L33.3604 158.645" stroke="#024231"/>
<path d="M-46.0176 115.446L-39.9166 124.807L-31.0407 133.605L-19.2733 141.625L-4.56863 148.631L13.0276 154.385L33.3608 158.657" stroke="#024231"/>
<path d="M-35.6132 134.083L-27.4862 141.343L-16.5522 147.647L-2.74029 152.777L13.9361 156.511L33.359 158.645" stroke="#024231"/>
<path d="M-30.5238 143.249L-23.2522 149.015L-13.2804 153.643L-0.515574 156.921L15.0583 158.649L33.3592 158.641" stroke="#024231"/>
<path d="M-24.707 152.232L-18.3879 156.557L-9.49672 159.557L2.07811 161.026L16.3793 160.775L33.3586 158.643" stroke="#024231"/>
<path d="M-18.2178 160.972L-12.9405 163.913L-5.23847 165.337L5.01531 165.049L17.8868 162.866L33.359 158.647" stroke="#024231"/>
<path d="M-11.1149 169.406L-6.96171 171.024L-0.548045 170.939L8.26507 168.955L19.5634 164.905L33.3588 158.657" stroke="#024231"/>
<path d="M-3.45544 177.454L-0.501752 177.816L4.5328 176.292L11.7968 172.686L21.3929 166.841L33.3592 158.647" stroke="#024231"/>
<path d="M4.70184 185.096L6.38571 184.273L9.95866 181.383L15.5763 176.241L23.3559 168.693L33.3594 158.649" stroke="#024231"/>
<path d="M13.298 192.271L13.6472 190.334L15.6842 186.163L19.5694 179.576L25.4331 170.431L33.3598 158.655" stroke="#024231"/>
<path d="M22.272 198.916L21.2269 195.945L21.6606 190.582L23.7383 182.653L27.6028 172.026L33.3594 158.653" stroke="#024231"/>
<path d="M31.563 204.993L29.068 201.067L27.8393 194.608L28.0461 185.448L29.8438 173.471L33.3588 158.651" stroke="#024231"/>
<path d="M41.1079 210.461L37.1128 205.666L34.1698 198.216L32.4545 187.944L32.1345 174.76L33.3586 158.657" stroke="#024231"/>
<path d="M50.8418 215.237L45.3013 209.67L40.601 201.335L36.9238 190.084L34.4527 175.845L33.3596 158.639" stroke="#024231"/>
<path d="M60.6937 219.342L53.5677 213.101L47.0758 203.997L41.4104 191.905L36.7724 176.773L33.3592 158.657" stroke="#024231"/>
</g>
<defs>
<clipPath id="clip0_3_24">
<rect width="734" height="316" fill="white"/>
</clipPath>
</defs>
</svg>
