<svg width="177" height="62" viewBox="0 0 177 62" fill="none" xmlns="http://www.w3.org/2000/svg">
<path d="M0 8C0 3.58172 3.58172 0 8 0H169C173.418 0 177 3.58172 177 8V54C177 58.4183 173.418 62 169 62H8C3.58172 62 0 58.4183 0 54V8Z" fill="#1C5B52"/>
<path d="M40.808 28.4C40.5547 27.9333 40.188 27.58 39.708 27.34C39.2414 27.0867 38.688 26.96 38.048 26.96C36.9414 26.96 36.0547 27.3267 35.388 28.06C34.7214 28.78 34.388 29.7467 34.388 30.96C34.388 32.2533 34.7347 33.2667 35.428 34C36.1347 34.72 37.1014 35.08 38.328 35.08C39.168 35.08 39.8747 34.8667 40.448 34.44C41.0347 34.0133 41.4614 33.4 41.728 32.6H37.388V30.08H44.828V33.26C44.5747 34.1133 44.1414 34.9067 43.528 35.64C42.928 36.3733 42.1614 36.9667 41.228 37.42C40.2947 37.8733 39.2414 38.1 38.068 38.1C36.6814 38.1 35.4414 37.8 34.348 37.2C33.268 36.5867 32.4214 35.74 31.808 34.66C31.208 33.58 30.908 32.3467 30.908 30.96C30.908 29.5733 31.208 28.34 31.808 27.26C32.4214 26.1667 33.268 25.32 34.348 24.72C35.428 24.1067 36.6614 23.8 38.048 23.8C39.728 23.8 41.1414 24.2067 42.288 25.02C43.448 25.8333 44.2147 26.96 44.588 28.4H40.808ZM57.2424 32.24C57.2424 32.56 57.2224 32.8933 57.1824 33.24H49.4424C49.4958 33.9333 49.7158 34.4667 50.1024 34.84C50.5024 35.2 50.9891 35.38 51.5624 35.38C52.4158 35.38 53.0091 35.02 53.3424 34.3H56.9824C56.7958 35.0333 56.4558 35.6933 55.9624 36.28C55.4824 36.8667 54.8758 37.3267 54.1424 37.66C53.4091 37.9933 52.5891 38.16 51.6824 38.16C50.5891 38.16 49.6158 37.9267 48.7624 37.46C47.9091 36.9933 47.2424 36.3267 46.7624 35.46C46.2824 34.5933 46.0424 33.58 46.0424 32.42C46.0424 31.26 46.2758 30.2467 46.7424 29.38C47.2224 28.5133 47.8891 27.8467 48.7424 27.38C49.5958 26.9133 50.5758 26.68 51.6824 26.68C52.7624 26.68 53.7224 26.9067 54.5624 27.36C55.4024 27.8133 56.0558 28.46 56.5224 29.3C57.0024 30.14 57.2424 31.12 57.2424 32.24ZM53.7424 31.34C53.7424 30.7533 53.5424 30.2867 53.1424 29.94C52.7424 29.5933 52.2424 29.42 51.6424 29.42C51.0691 29.42 50.5824 29.5867 50.1824 29.92C49.7958 30.2533 49.5558 30.7267 49.4624 31.34H53.7424ZM65.2666 35.1V38H63.5266C62.2866 38 61.32 37.7 60.6266 37.1C59.9333 36.4867 59.5866 35.4933 59.5866 34.12V29.68H58.2266V26.84H59.5866V24.12H63.0066V26.84H65.2466V29.68H63.0066V34.16C63.0066 34.4933 63.0866 34.7333 63.2466 34.88C63.4066 35.0267 63.6733 35.1 64.0466 35.1H65.2666ZM76.4899 38.14C75.4633 38.14 74.5433 37.9733 73.7299 37.64C72.9166 37.3067 72.2633 36.8133 71.7699 36.16C71.2899 35.5067 71.0366 34.72 71.0099 33.8H74.6499C74.7033 34.32 74.8833 34.72 75.1899 35C75.4966 35.2667 75.8966 35.4 76.3899 35.4C76.8966 35.4 77.2966 35.2867 77.5899 35.06C77.8833 34.82 78.0299 34.4933 78.0299 34.08C78.0299 33.7333 77.9099 33.4467 77.6699 33.22C77.4433 32.9933 77.1566 32.8067 76.8099 32.66C76.4766 32.5133 75.9966 32.3467 75.3699 32.16C74.4633 31.88 73.7233 31.6 73.1499 31.32C72.5766 31.04 72.0833 30.6267 71.6699 30.08C71.2566 29.5333 71.0499 28.82 71.0499 27.94C71.0499 26.6333 71.5233 25.6133 72.4699 24.88C73.4166 24.1333 74.6499 23.76 76.1699 23.76C77.7166 23.76 78.9633 24.1333 79.9099 24.88C80.8566 25.6133 81.3633 26.64 81.4299 27.96H77.7299C77.7033 27.5067 77.5366 27.1533 77.2299 26.9C76.9233 26.6333 76.5299 26.5 76.0499 26.5C75.6366 26.5 75.3033 26.6133 75.0499 26.84C74.7966 27.0533 74.6699 27.3667 74.6699 27.78C74.6699 28.2333 74.8833 28.5867 75.3099 28.84C75.7366 29.0933 76.4033 29.3667 77.3099 29.66C78.2166 29.9667 78.9499 30.26 79.5099 30.54C80.0833 30.82 80.5766 31.2267 80.9899 31.76C81.4033 32.2933 81.6099 32.98 81.6099 33.82C81.6099 34.62 81.4033 35.3467 80.9899 36C80.5899 36.6533 80.0033 37.1733 79.2299 37.56C78.4566 37.9467 77.5433 38.14 76.4899 38.14ZM89.9346 35.1V38H88.1946C86.9546 38 85.9879 37.7 85.2946 37.1C84.6013 36.4867 84.2546 35.4933 84.2546 34.12V29.68H82.8946V26.84H84.2546V24.12H87.6746V26.84H89.9146V29.68H87.6746V34.16C87.6746 34.4933 87.7546 34.7333 87.9146 34.88C88.0746 35.0267 88.3413 35.1 88.7146 35.1H89.9346ZM91.1596 32.4C91.1596 31.2533 91.3729 30.2467 91.7996 29.38C92.2396 28.5133 92.8329 27.8467 93.5796 27.38C94.3263 26.9133 95.1596 26.68 96.0796 26.68C96.8663 26.68 97.5529 26.84 98.1396 27.16C98.7396 27.48 99.1996 27.9 99.5196 28.42V26.84H102.94V38H99.5196V36.42C99.1863 36.94 98.7196 37.36 98.1196 37.68C97.5329 38 96.8463 38.16 96.0596 38.16C95.1529 38.16 94.3263 37.9267 93.5796 37.46C92.8329 36.98 92.2396 36.3067 91.7996 35.44C91.3729 34.56 91.1596 33.5467 91.1596 32.4ZM99.5196 32.42C99.5196 31.5667 99.2796 30.8933 98.7996 30.4C98.3329 29.9067 97.7596 29.66 97.0796 29.66C96.3996 29.66 95.8196 29.9067 95.3396 30.4C94.8729 30.88 94.6396 31.5467 94.6396 32.4C94.6396 33.2533 94.8729 33.9333 95.3396 34.44C95.8196 34.9333 96.3996 35.18 97.0796 35.18C97.7596 35.18 98.3329 34.9333 98.7996 34.44C99.2796 33.9467 99.5196 33.2733 99.5196 32.42ZM108.834 28.7C109.234 28.0867 109.734 27.6067 110.334 27.26C110.934 26.9 111.6 26.72 112.334 26.72V30.34H111.394C110.54 30.34 109.9 30.5267 109.474 30.9C109.047 31.26 108.834 31.9 108.834 32.82V38H105.414V26.84H108.834V28.7ZM120.189 35.1V38H118.449C117.209 38 116.242 37.7 115.549 37.1C114.855 36.4867 114.509 35.4933 114.509 34.12V29.68H113.149V26.84H114.509V24.12H117.929V26.84H120.169V29.68H117.929V34.16C117.929 34.4933 118.009 34.7333 118.169 34.88C118.329 35.0267 118.595 35.1 118.969 35.1H120.189ZM132.614 32.24C132.614 32.56 132.594 32.8933 132.554 33.24H124.814C124.867 33.9333 125.087 34.4667 125.474 34.84C125.874 35.2 126.36 35.38 126.934 35.38C127.787 35.38 128.38 35.02 128.714 34.3H132.354C132.167 35.0333 131.827 35.6933 131.334 36.28C130.854 36.8667 130.247 37.3267 129.514 37.66C128.78 37.9933 127.96 38.16 127.054 38.16C125.96 38.16 124.987 37.9267 124.134 37.46C123.28 36.9933 122.614 36.3267 122.134 35.46C121.654 34.5933 121.414 33.58 121.414 32.42C121.414 31.26 121.647 30.2467 122.114 29.38C122.594 28.5133 123.26 27.8467 124.114 27.38C124.967 26.9133 125.947 26.68 127.054 26.68C128.134 26.68 129.094 26.9067 129.934 27.36C130.774 27.8133 131.427 28.46 131.894 29.3C132.374 30.14 132.614 31.12 132.614 32.24ZM129.114 31.34C129.114 30.7533 128.914 30.2867 128.514 29.94C128.114 29.5933 127.614 29.42 127.014 29.42C126.44 29.42 125.954 29.5867 125.554 29.92C125.167 30.2533 124.927 30.7267 124.834 31.34H129.114ZM133.738 32.4C133.738 31.2533 133.951 30.2467 134.378 29.38C134.818 28.5133 135.411 27.8467 136.158 27.38C136.904 26.9133 137.738 26.68 138.658 26.68C139.391 26.68 140.058 26.8333 140.658 27.14C141.271 27.4467 141.751 27.86 142.098 28.38V23.2H145.518V38H142.098V36.4C141.778 36.9333 141.318 37.36 140.718 37.68C140.131 38 139.444 38.16 138.658 38.16C137.738 38.16 136.904 37.9267 136.158 37.46C135.411 36.98 134.818 36.3067 134.378 35.44C133.951 34.56 133.738 33.5467 133.738 32.4ZM142.098 32.42C142.098 31.5667 141.858 30.8933 141.378 30.4C140.911 29.9067 140.338 29.66 139.658 29.66C138.978 29.66 138.398 29.9067 137.918 30.4C137.451 30.88 137.218 31.5467 137.218 32.4C137.218 33.2533 137.451 33.9333 137.918 34.44C138.398 34.9333 138.978 35.18 139.658 35.18C140.338 35.18 140.911 34.9333 141.378 34.44C141.858 33.9467 142.098 33.2733 142.098 32.42Z" fill="white"/>
</svg>
