<svg width="228" height="48" viewBox="0 0 228 48" fill="none" xmlns="http://www.w3.org/2000/svg">
<path d="M16.734 35L9.65 22.488H6.614V35H0.174V2.892H12.226C14.71 2.892 16.826 3.33667 18.574 4.226C20.322 5.08467 21.6253 6.26533 22.484 7.768C23.3733 9.24 23.818 10.896 23.818 12.736C23.818 14.852 23.2047 16.7687 21.978 18.486C20.7513 20.1727 18.9267 21.338 16.504 21.982L24.186 35H16.734ZM6.614 17.658H11.996C13.744 17.658 15.0473 17.244 15.906 16.416C16.7647 15.5573 17.194 14.3767 17.194 12.874C17.194 11.402 16.7647 10.2673 15.906 9.47C15.0473 8.642 13.744 8.228 11.996 8.228H6.614V17.658ZM40.9588 35.414C38.5054 35.414 36.2974 34.8773 34.3348 33.804C32.3721 32.7 30.8234 31.1513 29.6888 29.158C28.5848 27.1647 28.0328 24.8647 28.0328 22.258C28.0328 19.6513 28.6001 17.3513 29.7348 15.358C30.9001 13.3647 32.4794 11.8313 34.4728 10.758C36.4661 9.654 38.6894 9.102 41.1428 9.102C43.5961 9.102 45.8194 9.654 47.8128 10.758C49.8061 11.8313 51.3701 13.3647 52.5048 15.358C53.6701 17.3513 54.2528 19.6513 54.2528 22.258C54.2528 24.8647 53.6548 27.1647 52.4587 29.158C51.2934 31.1513 49.6988 32.7 47.6748 33.804C45.6814 34.8773 43.4428 35.414 40.9588 35.414ZM40.9588 29.802C42.1241 29.802 43.2128 29.526 44.2248 28.974C45.2674 28.3913 46.0954 27.5327 46.7088 26.398C47.3221 25.2633 47.6288 23.8833 47.6288 22.258C47.6288 19.8353 46.9848 17.98 45.6968 16.692C44.4394 15.3733 42.8908 14.714 41.0508 14.714C39.2108 14.714 37.6621 15.3733 36.4048 16.692C35.1781 17.98 34.5648 19.8353 34.5648 22.258C34.5648 24.6807 35.1628 26.5513 36.3588 27.87C37.5854 29.158 39.1188 29.802 40.9588 29.802ZM57.3207 22.166C57.3207 19.59 57.8267 17.3053 58.8387 15.312C59.8814 13.3187 61.2767 11.7853 63.0247 10.712C64.8034 9.63867 66.7814 9.102 68.9587 9.102C70.8601 9.102 72.5161 9.48533 73.9267 10.252C75.3681 11.0187 76.5181 11.9847 77.3767 13.15V9.516H83.8627V35H77.3767V31.274C76.5487 32.47 75.3987 33.4667 73.9267 34.264C72.4854 35.0307 70.8141 35.414 68.9127 35.414C66.7661 35.414 64.8034 34.862 63.0247 33.758C61.2767 32.654 59.8814 31.1053 58.8387 29.112C57.8267 27.088 57.3207 24.7727 57.3207 22.166ZM77.3767 22.258C77.3767 20.694 77.0701 19.36 76.4567 18.256C75.8434 17.1213 75.0154 16.2627 73.9727 15.68C72.9301 15.0667 71.8107 14.76 70.6147 14.76C69.4187 14.76 68.3147 15.0513 67.3027 15.634C66.2907 16.2167 65.4627 17.0753 64.8187 18.21C64.2054 19.314 63.8987 20.6327 63.8987 22.166C63.8987 23.6993 64.2054 25.0487 64.8187 26.214C65.4627 27.3487 66.2907 28.2227 67.3027 28.836C68.3454 29.4493 69.4494 29.756 70.6147 29.756C71.8107 29.756 72.9301 29.4647 73.9727 28.882C75.0154 28.2687 75.8434 27.41 76.4567 26.306C77.0701 25.1713 77.3767 23.822 77.3767 22.258ZM88.4965 22.166C88.4965 19.59 89.0025 17.3053 90.0145 15.312C91.0572 13.3187 92.4678 11.7853 94.2465 10.712C96.0252 9.63867 98.0032 9.102 100.181 9.102C101.837 9.102 103.416 9.47 104.919 10.206C106.421 10.9113 107.617 11.862 108.507 13.058V0.96H115.039V35H108.507V31.228C107.709 32.4853 106.59 33.4973 105.149 34.264C103.707 35.0307 102.036 35.414 100.135 35.414C97.9878 35.414 96.0252 34.862 94.2465 33.758C92.4678 32.654 91.0572 31.1053 90.0145 29.112C89.0025 27.088 88.4965 24.7727 88.4965 22.166ZM108.553 22.258C108.553 20.694 108.246 19.36 107.633 18.256C107.019 17.1213 106.191 16.2627 105.149 15.68C104.106 15.0667 102.987 14.76 101.791 14.76C100.595 14.76 99.4905 15.0513 98.4785 15.634C97.4665 16.2167 96.6385 17.0753 95.9945 18.21C95.3812 19.314 95.0745 20.6327 95.0745 22.166C95.0745 23.6993 95.3812 25.0487 95.9945 26.214C96.6385 27.3487 97.4665 28.2227 98.4785 28.836C99.5212 29.4493 100.625 29.756 101.791 29.756C102.987 29.756 104.106 29.4647 105.149 28.882C106.191 28.2687 107.019 27.41 107.633 26.306C108.246 25.1713 108.553 23.822 108.553 22.258ZM152.976 9.148C156.104 9.148 158.619 10.114 160.52 12.046C162.452 13.9473 163.418 16.6153 163.418 20.05V35H156.978V20.924C156.978 18.9307 156.472 17.4127 155.46 16.37C154.448 15.2967 153.068 14.76 151.32 14.76C149.572 14.76 148.177 15.2967 147.134 16.37C146.122 17.4127 145.616 18.9307 145.616 20.924V35H139.176V20.924C139.176 18.9307 138.67 17.4127 137.658 16.37C136.646 15.2967 135.266 14.76 133.518 14.76C131.74 14.76 130.329 15.2967 129.286 16.37C128.274 17.4127 127.768 18.9307 127.768 20.924V35H121.328V9.516H127.768V12.598C128.596 11.5247 129.654 10.6813 130.942 10.068C132.261 9.45466 133.702 9.148 135.266 9.148C137.26 9.148 139.038 9.57733 140.602 10.436C142.166 11.264 143.378 12.46 144.236 14.024C145.064 12.552 146.26 11.3713 147.824 10.482C149.419 9.59266 151.136 9.148 152.976 9.148ZM167.873 22.166C167.873 19.59 168.379 17.3053 169.391 15.312C170.434 13.3187 171.829 11.7853 173.577 10.712C175.356 9.63867 177.334 9.102 179.511 9.102C181.413 9.102 183.069 9.48533 184.479 10.252C185.921 11.0187 187.071 11.9847 187.929 13.15V9.516H194.415V35H187.929V31.274C187.101 32.47 185.951 33.4667 184.479 34.264C183.038 35.0307 181.367 35.414 179.465 35.414C177.319 35.414 175.356 34.862 173.577 33.758C171.829 32.654 170.434 31.1053 169.391 29.112C168.379 27.088 167.873 24.7727 167.873 22.166ZM187.929 22.258C187.929 20.694 187.623 19.36 187.009 18.256C186.396 17.1213 185.568 16.2627 184.525 15.68C183.483 15.0667 182.363 14.76 181.167 14.76C179.971 14.76 178.867 15.0513 177.855 15.634C176.843 16.2167 176.015 17.0753 175.371 18.21C174.758 19.314 174.451 20.6327 174.451 22.166C174.451 23.6993 174.758 25.0487 175.371 26.214C176.015 27.3487 176.843 28.2227 177.855 28.836C178.898 29.4493 180.002 29.756 181.167 29.756C182.363 29.756 183.483 29.4647 184.525 28.882C185.568 28.2687 186.396 27.41 187.009 26.306C187.623 25.1713 187.929 23.822 187.929 22.258ZM207.145 13.196C207.973 12.0307 209.108 11.0647 210.549 10.298C212.021 9.50067 213.693 9.102 215.563 9.102C217.741 9.102 219.703 9.63867 221.451 10.712C223.23 11.7853 224.625 13.3187 225.637 15.312C226.68 17.2747 227.201 19.5593 227.201 22.166C227.201 24.7727 226.68 27.088 225.637 29.112C224.625 31.1053 223.23 32.654 221.451 33.758C219.703 34.862 217.741 35.414 215.563 35.414C213.693 35.414 212.037 35.0307 210.595 34.264C209.185 33.4973 208.035 32.5313 207.145 31.366V47.144H200.705V9.516H207.145V13.196ZM220.623 22.166C220.623 20.6327 220.301 19.314 219.657 18.21C219.044 17.0753 218.216 16.2167 217.173 15.634C216.161 15.0513 215.057 14.76 213.861 14.76C212.696 14.76 211.592 15.0667 210.549 15.68C209.537 16.2627 208.709 17.1213 208.065 18.256C207.452 19.3907 207.145 20.7247 207.145 22.258C207.145 23.7913 207.452 25.1253 208.065 26.26C208.709 27.3947 209.537 28.2687 210.549 28.882C211.592 29.4647 212.696 29.756 213.861 29.756C215.057 29.756 216.161 29.4493 217.173 28.836C218.216 28.2227 219.044 27.3487 219.657 26.214C220.301 25.0793 220.623 23.73 220.623 22.166Z" fill="#3A3A3A"/>
</svg>
