<svg width="578" height="284" viewBox="0 0 578 284" fill="none" xmlns="http://www.w3.org/2000/svg">
<path d="M31.2 17.1V22.75H21.9V52H14.9V22.75H5.6V17.1H31.2ZM51.9074 23.9C54.0074 23.9 55.8741 24.3667 57.5074 25.3C59.1408 26.2 60.4074 27.55 61.3074 29.35C62.2408 31.1167 62.7074 33.25 62.7074 35.75V52H55.7074V36.7C55.7074 34.5 55.1574 32.8167 54.0574 31.65C52.9574 30.45 51.4574 29.85 49.5574 29.85C47.6241 29.85 46.0908 30.45 44.9574 31.65C43.8574 32.8167 43.3074 34.5 43.3074 36.7V52H36.3074V15H43.3074V27.75C44.2074 26.55 45.4074 25.6167 46.9074 24.95C48.4074 24.25 50.0741 23.9 51.9074 23.9ZM95.1141 37.55C95.1141 38.55 95.0474 39.45 94.9141 40.25H74.6641C74.8307 42.25 75.5307 43.8167 76.7641 44.95C77.9974 46.0833 79.5141 46.65 81.3141 46.65C83.9141 46.65 85.7641 45.5333 86.8641 43.3H94.4141C93.6141 45.9667 92.0807 48.1667 89.8141 49.9C87.5474 51.6 84.7641 52.45 81.4641 52.45C78.7974 52.45 76.3974 51.8667 74.2641 50.7C72.1641 49.5 70.5141 47.8167 69.3141 45.65C68.1474 43.4833 67.5641 40.9833 67.5641 38.15C67.5641 35.2833 68.1474 32.7667 69.3141 30.6C70.4807 28.4333 72.1141 26.7667 74.2141 25.6C76.3141 24.4333 78.7307 23.85 81.4641 23.85C84.0974 23.85 86.4474 24.4167 88.5141 25.55C90.6141 26.6833 92.2307 28.3 93.3641 30.4C94.5307 32.4667 95.1141 34.85 95.1141 37.55ZM87.8641 35.55C87.8307 33.75 87.1807 32.3167 85.9141 31.25C84.6474 30.15 83.0974 29.6 81.2641 29.6C79.5307 29.6 78.0641 30.1333 76.8641 31.2C75.6974 32.2333 74.9807 33.6833 74.7141 35.55H87.8641ZM119.138 17.1V52H112.138V17.1H119.138ZM141.404 23.9C144.704 23.9 147.37 24.95 149.404 27.05C151.437 29.1167 152.454 32.0167 152.454 35.75V52H145.454V36.7C145.454 34.5 144.904 32.8167 143.804 31.65C142.704 30.45 141.204 29.85 139.304 29.85C137.37 29.85 135.837 30.45 134.704 31.65C133.604 32.8167 133.054 34.5 133.054 36.7V52H126.054V24.3H133.054V27.75C133.987 26.55 135.17 25.6167 136.604 24.95C138.07 24.25 139.67 23.9 141.404 23.9ZM167.26 30.05V43.45C167.26 44.3833 167.477 45.0667 167.91 45.5C168.377 45.9 169.143 46.1 170.21 46.1H173.46V52H169.06C163.16 52 160.21 49.1333 160.21 43.4V30.05H156.91V24.3H160.21V17.45H167.26V24.3H173.46V30.05H167.26ZM204.245 37.55C204.245 38.55 204.178 39.45 204.045 40.25H183.795C183.962 42.25 184.662 43.8167 185.895 44.95C187.128 46.0833 188.645 46.65 190.445 46.65C193.045 46.65 194.895 45.5333 195.995 43.3H203.545C202.745 45.9667 201.212 48.1667 198.945 49.9C196.678 51.6 193.895 52.45 190.595 52.45C187.928 52.45 185.528 51.8667 183.395 50.7C181.295 49.5 179.645 47.8167 178.445 45.65C177.278 43.4833 176.695 40.9833 176.695 38.15C176.695 35.2833 177.278 32.7667 178.445 30.6C179.612 28.4333 181.245 26.7667 183.345 25.6C185.445 24.4333 187.862 23.85 190.595 23.85C193.228 23.85 195.578 24.4167 197.645 25.55C199.745 26.6833 201.362 28.3 202.495 30.4C203.662 32.4667 204.245 34.85 204.245 37.55ZM196.995 35.55C196.962 33.75 196.312 32.3167 195.045 31.25C193.778 30.15 192.228 29.6 190.395 29.6C188.662 29.6 187.195 30.1333 185.995 31.2C184.828 32.2333 184.112 33.6833 183.845 35.55H196.995ZM216.354 28.6C217.254 27.1333 218.421 25.9833 219.854 25.15C221.321 24.3167 222.988 23.9 224.854 23.9V31.25H223.004C220.804 31.25 219.138 31.7667 218.004 32.8C216.904 33.8333 216.354 35.6333 216.354 38.2V52H209.354V24.3H216.354V28.6ZM244.919 23.9C248.219 23.9 250.886 24.95 252.919 27.05C254.952 29.1167 255.969 32.0167 255.969 35.75V52H248.969V36.7C248.969 34.5 248.419 32.8167 247.319 31.65C246.219 30.45 244.719 29.85 242.819 29.85C240.886 29.85 239.352 30.45 238.219 31.65C237.119 32.8167 236.569 34.5 236.569 36.7V52H229.569V24.3H236.569V27.75C237.502 26.55 238.686 25.6167 240.119 24.95C241.586 24.25 243.186 23.9 244.919 23.9ZM288.376 37.55C288.376 38.55 288.309 39.45 288.176 40.25H267.926C268.092 42.25 268.792 43.8167 270.026 44.95C271.259 46.0833 272.776 46.65 274.576 46.65C277.176 46.65 279.026 45.5333 280.126 43.3H287.676C286.876 45.9667 285.342 48.1667 283.076 49.9C280.809 51.6 278.026 52.45 274.726 52.45C272.059 52.45 269.659 51.8667 267.526 50.7C265.426 49.5 263.776 47.8167 262.576 45.65C261.409 43.4833 260.826 40.9833 260.826 38.15C260.826 35.2833 261.409 32.7667 262.576 30.6C263.742 28.4333 265.376 26.7667 267.476 25.6C269.576 24.4333 271.992 23.85 274.726 23.85C277.359 23.85 279.709 24.4167 281.776 25.55C283.876 26.6833 285.492 28.3 286.626 30.4C287.792 32.4667 288.376 34.85 288.376 37.55ZM281.126 35.55C281.092 33.75 280.442 32.3167 279.176 31.25C277.909 30.15 276.359 29.6 274.526 29.6C272.792 29.6 271.326 30.1333 270.126 31.2C268.959 32.2333 268.242 33.6833 267.976 35.55H281.126ZM301.635 30.05V43.45C301.635 44.3833 301.852 45.0667 302.285 45.5C302.752 45.9 303.518 46.1 304.585 46.1H307.835V52H303.435C297.535 52 294.585 49.1333 294.585 43.4V30.05H291.285V24.3H294.585V17.45H301.635V24.3H307.835V30.05H301.635ZM337.084 52.45C334.417 52.45 332.017 51.8667 329.884 50.7C327.751 49.5 326.067 47.8167 324.834 45.65C323.634 43.4833 323.034 40.9833 323.034 38.15C323.034 35.3167 323.651 32.8167 324.884 30.65C326.151 28.4833 327.867 26.8167 330.034 25.65C332.201 24.45 334.617 23.85 337.284 23.85C339.951 23.85 342.367 24.45 344.534 25.65C346.701 26.8167 348.401 28.4833 349.634 30.65C350.901 32.8167 351.534 35.3167 351.534 38.15C351.534 40.9833 350.884 43.4833 349.584 45.65C348.317 47.8167 346.584 49.5 344.384 50.7C342.217 51.8667 339.784 52.45 337.084 52.45ZM337.084 46.35C338.351 46.35 339.534 46.05 340.634 45.45C341.767 44.8167 342.667 43.8833 343.334 42.65C344.001 41.4167 344.334 39.9167 344.334 38.15C344.334 35.5167 343.634 33.5 342.234 32.1C340.867 30.6667 339.184 29.95 337.184 29.95C335.184 29.95 333.501 30.6667 332.134 32.1C330.801 33.5 330.134 35.5167 330.134 38.15C330.134 40.7833 330.784 42.8167 332.084 44.25C333.417 45.65 335.084 46.35 337.084 46.35ZM369.369 30.05H364.519V52H357.419V30.05H354.269V24.3H357.419V22.9C357.419 19.5 358.385 17 360.319 15.4C362.252 13.8 365.169 13.05 369.069 13.15V19.05C367.369 19.0167 366.185 19.3 365.519 19.9C364.852 20.5 364.519 21.5833 364.519 23.15V24.3H369.369V30.05ZM417.169 17.1L404.369 52H395.869L383.069 17.1H390.569L400.169 44.85L409.719 17.1H417.169ZM419.566 38.05C419.566 35.25 420.116 32.7667 421.216 30.6C422.349 28.4333 423.866 26.7667 425.766 25.6C427.699 24.4333 429.849 23.85 432.216 23.85C434.283 23.85 436.083 24.2667 437.616 25.1C439.183 25.9333 440.433 26.9833 441.366 28.25V24.3H448.416V52H441.366V47.95C440.466 49.25 439.216 50.3333 437.616 51.2C436.049 52.0333 434.233 52.45 432.166 52.45C429.833 52.45 427.699 51.85 425.766 50.65C423.866 49.45 422.349 47.7667 421.216 45.6C420.116 43.4 419.566 40.8833 419.566 38.05ZM441.366 38.15C441.366 36.45 441.033 35 440.366 33.8C439.699 32.5667 438.799 31.6333 437.666 31C436.533 30.3333 435.316 30 434.016 30C432.716 30 431.516 30.3167 430.416 30.95C429.316 31.5833 428.416 32.5167 427.716 33.75C427.049 34.95 426.716 36.3833 426.716 38.05C426.716 39.7167 427.049 41.1833 427.716 42.45C428.416 43.6833 429.316 44.6333 430.416 45.3C431.549 45.9667 432.749 46.3 434.016 46.3C435.316 46.3 436.533 45.9833 437.666 45.35C438.799 44.6833 439.699 43.75 440.366 42.55C441.033 41.3167 441.366 39.85 441.366 38.15ZM462.253 15V52H455.253V15H462.253ZM495.319 24.3V52H488.269V48.5C487.369 49.7 486.185 50.65 484.719 51.35C483.285 52.0167 481.719 52.35 480.019 52.35C477.852 52.35 475.935 51.9 474.269 51C472.602 50.0667 471.285 48.7167 470.319 46.95C469.385 45.15 468.919 43.0167 468.919 40.55V24.3H475.919V39.55C475.919 41.75 476.469 43.45 477.569 44.65C478.669 45.8167 480.169 46.4 482.069 46.4C484.002 46.4 485.519 45.8167 486.619 44.65C487.719 43.45 488.269 41.75 488.269 39.55V24.3H495.319ZM527.975 37.55C527.975 38.55 527.909 39.45 527.775 40.25H507.525C507.692 42.25 508.392 43.8167 509.625 44.95C510.859 46.0833 512.375 46.65 514.175 46.65C516.775 46.65 518.625 45.5333 519.725 43.3H527.275C526.475 45.9667 524.942 48.1667 522.675 49.9C520.409 51.6 517.625 52.45 514.325 52.45C511.659 52.45 509.259 51.8667 507.125 50.7C505.025 49.5 503.375 47.8167 502.175 45.65C501.009 43.4833 500.425 40.9833 500.425 38.15C500.425 35.2833 501.009 32.7667 502.175 30.6C503.342 28.4333 504.975 26.7667 507.075 25.6C509.175 24.4333 511.592 23.85 514.325 23.85C516.959 23.85 519.309 24.4167 521.375 25.55C523.475 26.6833 525.092 28.3 526.225 30.4C527.392 32.4667 527.975 34.85 527.975 37.55ZM520.725 35.55C520.692 33.75 520.042 32.3167 518.775 31.25C517.509 30.15 515.959 29.6 514.125 29.6C512.392 29.6 510.925 30.1333 509.725 31.2C508.559 32.2333 507.842 33.6833 507.575 35.55H520.725ZM11 89C9.76667 89 8.73333 88.6167 7.9 87.85C7.1 87.05 6.7 86.0667 6.7 84.9C6.7 83.7333 7.1 82.7667 7.9 82C8.73333 81.2 9.76667 80.8 11 80.8C12.2333 80.8 13.25 81.2 14.05 82C14.8833 82.7667 15.3 83.7333 15.3 84.9C15.3 86.0667 14.8833 87.05 14.05 87.85C13.25 88.6167 12.2333 89 11 89ZM14.45 92.3V120H7.45V92.3H14.45ZM31.966 120.45C29.6993 120.45 27.666 120.05 25.866 119.25C24.066 118.417 22.6327 117.3 21.566 115.9C20.5327 114.5 19.966 112.95 19.866 111.25H26.916C27.0493 112.317 27.566 113.2 28.466 113.9C29.3993 114.6 30.5493 114.95 31.916 114.95C33.2493 114.95 34.2827 114.683 35.016 114.15C35.7827 113.617 36.166 112.933 36.166 112.1C36.166 111.2 35.6993 110.533 34.766 110.1C33.866 109.633 32.416 109.133 30.416 108.6C28.3493 108.1 26.6493 107.583 25.316 107.05C24.016 106.517 22.8827 105.7 21.916 104.6C20.9827 103.5 20.516 102.017 20.516 100.15C20.516 98.6167 20.9493 97.2167 21.816 95.95C22.716 94.6833 23.9827 93.6833 25.616 92.95C27.2827 92.2167 29.2327 91.85 31.466 91.85C34.766 91.85 37.3993 92.6833 39.366 94.35C41.3327 95.9833 42.416 98.2 42.616 101H35.916C35.816 99.9 35.3494 99.0333 34.516 98.4C33.716 97.7333 32.6327 97.4 31.266 97.4C29.9993 97.4 29.016 97.6333 28.316 98.1C27.6493 98.5667 27.316 99.2167 27.316 100.05C27.316 100.983 27.7827 101.7 28.716 102.2C29.6493 102.667 31.0993 103.15 33.066 103.65C35.066 104.15 36.716 104.667 38.016 105.2C39.316 105.733 40.4327 106.567 41.366 107.7C42.3327 108.8 42.8327 110.267 42.866 112.1C42.866 113.7 42.416 115.133 41.516 116.4C40.6493 117.667 39.3827 118.667 37.716 119.4C36.0827 120.1 34.166 120.45 31.966 120.45ZM89.4762 85.1V120H82.4762V105.15H67.5262V120H60.5262V85.1H67.5262V99.45H82.4762V85.1H89.4762ZM122.116 105.55C122.116 106.55 122.049 107.45 121.916 108.25H101.666C101.833 110.25 102.533 111.817 103.766 112.95C104.999 114.083 106.516 114.65 108.316 114.65C110.916 114.65 112.766 113.533 113.866 111.3H121.416C120.616 113.967 119.083 116.167 116.816 117.9C114.549 119.6 111.766 120.45 108.466 120.45C105.799 120.45 103.399 119.867 101.266 118.7C99.166 117.5 97.516 115.817 96.316 113.65C95.1493 111.483 94.566 108.983 94.566 106.15C94.566 103.283 95.1493 100.767 96.316 98.6C97.4827 96.4333 99.116 94.7667 101.216 93.6C103.316 92.4333 105.733 91.85 108.466 91.85C111.099 91.85 113.449 92.4167 115.516 93.55C117.616 94.6833 119.233 96.3 120.366 98.4C121.533 100.467 122.116 102.85 122.116 105.55ZM114.866 103.55C114.833 101.75 114.183 100.317 112.916 99.25C111.649 98.15 110.099 97.6 108.266 97.6C106.533 97.6 105.066 98.1333 103.866 99.2C102.699 100.233 101.983 101.683 101.716 103.55H114.866ZM134.225 96.6C135.125 95.1333 136.292 93.9833 137.725 93.15C139.192 92.3167 140.859 91.9 142.725 91.9V99.25H140.875C138.675 99.25 137.009 99.7667 135.875 100.8C134.775 101.833 134.225 103.633 134.225 106.2V120H127.225V92.3H134.225V96.6ZM173.19 105.55C173.19 106.55 173.124 107.45 172.99 108.25H152.74C152.907 110.25 153.607 111.817 154.84 112.95C156.074 114.083 157.59 114.65 159.39 114.65C161.99 114.65 163.84 113.533 164.94 111.3H172.49C171.69 113.967 170.157 116.167 167.89 117.9C165.624 119.6 162.84 120.45 159.54 120.45C156.874 120.45 154.474 119.867 152.34 118.7C150.24 117.5 148.59 115.817 147.39 113.65C146.224 111.483 145.64 108.983 145.64 106.15C145.64 103.283 146.224 100.767 147.39 98.6C148.557 96.4333 150.19 94.7667 152.29 93.6C154.39 92.4333 156.807 91.85 159.54 91.85C162.174 91.85 164.524 92.4167 166.59 93.55C168.69 94.6833 170.307 96.3 171.44 98.4C172.607 100.467 173.19 102.85 173.19 105.55ZM165.94 103.55C165.907 101.75 165.257 100.317 163.99 99.25C162.724 98.15 161.174 97.6 159.34 97.6C157.607 97.6 156.14 98.1333 154.94 99.2C153.774 100.233 153.057 101.683 152.79 103.55H165.94ZM181.4 120.35C180.133 120.35 179.083 119.967 178.25 119.2C177.45 118.4 177.05 117.417 177.05 116.25C177.05 115.083 177.45 114.117 178.25 113.35C179.083 112.55 180.133 112.15 181.4 112.15C182.633 112.15 183.65 112.55 184.45 113.35C185.25 114.117 185.65 115.083 185.65 116.25C185.65 117.417 185.25 118.4 184.45 119.2C183.65 119.967 182.633 120.35 181.4 120.35Z" fill="#3A3A3A"/>
<path d="M18.816 163.392V180H16.632V167.616L11.112 180H9.576L4.032 167.592V180H1.848V163.392H4.2L10.344 177.12L16.488 163.392H18.816ZM21.7039 173.376C21.7039 172.032 21.9759 170.856 22.5199 169.848C23.0639 168.824 23.8079 168.032 24.7519 167.472C25.7119 166.912 26.7759 166.632 27.9439 166.632C29.0959 166.632 30.0959 166.88 30.9439 167.376C31.7919 167.872 32.4239 168.496 32.8399 169.248V166.848H35.0479V180H32.8399V177.552C32.4079 178.32 31.7599 178.96 30.8959 179.472C30.0479 179.968 29.0559 180.216 27.9199 180.216C26.7519 180.216 25.6959 179.928 24.7519 179.352C23.8079 178.776 23.0639 177.968 22.5199 176.928C21.9759 175.888 21.7039 174.704 21.7039 173.376ZM32.8399 173.4C32.8399 172.408 32.6399 171.544 32.2399 170.808C31.8399 170.072 31.2959 169.512 30.6079 169.128C29.9359 168.728 29.1919 168.528 28.3759 168.528C27.5599 168.528 26.8159 168.72 26.1439 169.104C25.4719 169.488 24.9359 170.048 24.5359 170.784C24.1359 171.52 23.9359 172.384 23.9359 173.376C23.9359 174.384 24.1359 175.264 24.5359 176.016C24.9359 176.752 25.4719 177.32 26.1439 177.72C26.8159 178.104 27.5599 178.296 28.3759 178.296C29.1919 178.296 29.9359 178.104 30.6079 177.72C31.2959 177.32 31.8399 176.752 32.2399 176.016C32.6399 175.264 32.8399 174.392 32.8399 173.4ZM40.9226 168.984C41.3066 168.232 41.8506 167.648 42.5546 167.232C43.2746 166.816 44.1466 166.608 45.1706 166.608V168.864H44.5946C42.1466 168.864 40.9226 170.192 40.9226 172.848V180H38.7386V166.848H40.9226V168.984ZM52.5878 177.984L56.6678 166.848H58.9958L53.8358 180H51.2918L46.1318 166.848H48.4838L52.5878 177.984ZM73.1449 172.92C73.1449 173.336 73.1209 173.776 73.0729 174.24H62.5609C62.6409 175.536 63.0809 176.552 63.8809 177.288C64.6969 178.008 65.6809 178.368 66.8329 178.368C67.7769 178.368 68.5609 178.152 69.1849 177.72C69.8249 177.272 70.2729 176.68 70.5289 175.944H72.8809C72.5289 177.208 71.8249 178.24 70.7689 179.04C69.7129 179.824 68.4009 180.216 66.8329 180.216C65.5849 180.216 64.4649 179.936 63.4729 179.376C62.4969 178.816 61.7289 178.024 61.1689 177C60.6089 175.96 60.3289 174.76 60.3289 173.4C60.3289 172.04 60.6009 170.848 61.1449 169.824C61.6889 168.8 62.4489 168.016 63.4249 167.472C64.4169 166.912 65.5529 166.632 66.8329 166.632C68.0809 166.632 69.1849 166.904 70.1449 167.448C71.1049 167.992 71.8409 168.744 72.3529 169.704C72.8809 170.648 73.1449 171.72 73.1449 172.92ZM70.8889 172.464C70.8889 171.632 70.7049 170.92 70.3369 170.328C69.9689 169.72 69.4649 169.264 68.8249 168.96C68.2009 168.64 67.5049 168.48 66.7369 168.48C65.6329 168.48 64.6889 168.832 63.9049 169.536C63.1369 170.24 62.6969 171.216 62.5849 172.464H70.8889ZM78.2117 162.24V180H76.0277V162.24H78.2117ZM84.1179 162.24V180H81.9339V162.24H84.1179ZM99.8402 172.92C99.8402 173.336 99.8162 173.776 99.7682 174.24H89.2562C89.3362 175.536 89.7762 176.552 90.5762 177.288C91.3922 178.008 92.3762 178.368 93.5282 178.368C94.4722 178.368 95.2562 178.152 95.8802 177.72C96.5202 177.272 96.9682 176.68 97.2242 175.944H99.5762C99.2242 177.208 98.5202 178.24 97.4642 179.04C96.4082 179.824 95.0962 180.216 93.5282 180.216C92.2802 180.216 91.1602 179.936 90.1682 179.376C89.1922 178.816 88.4242 178.024 87.8642 177C87.3042 175.96 87.0242 174.76 87.0242 173.4C87.0242 172.04 87.2962 170.848 87.8402 169.824C88.3842 168.8 89.1442 168.016 90.1202 167.472C91.1122 166.912 92.2482 166.632 93.5282 166.632C94.7762 166.632 95.8802 166.904 96.8402 167.448C97.8002 167.992 98.5362 168.744 99.0482 169.704C99.5762 170.648 99.8402 171.72 99.8402 172.92ZM97.5842 172.464C97.5842 171.632 97.4002 170.92 97.0322 170.328C96.6642 169.72 96.1602 169.264 95.5202 168.96C94.8962 168.64 94.2002 168.48 93.4322 168.48C92.3282 168.48 91.3842 168.832 90.6002 169.536C89.8322 170.24 89.3922 171.216 89.2802 172.464H97.5842ZM109.587 180L106.467 175.104L103.467 180H101.187L105.435 173.472L101.187 166.848H103.659L106.779 171.72L109.755 166.848H112.035L107.811 173.352L112.059 180H109.587ZM119.79 173.376C119.79 172.032 120.062 170.856 120.606 169.848C121.15 168.824 121.894 168.032 122.838 167.472C123.798 166.912 124.862 166.632 126.03 166.632C127.182 166.632 128.182 166.88 129.03 167.376C129.878 167.872 130.51 168.496 130.926 169.248V166.848H133.134V180H130.926V177.552C130.494 178.32 129.846 178.96 128.982 179.472C128.134 179.968 127.142 180.216 126.006 180.216C124.838 180.216 123.782 179.928 122.838 179.352C121.894 178.776 121.15 177.968 120.606 176.928C120.062 175.888 119.79 174.704 119.79 173.376ZM130.926 173.4C130.926 172.408 130.726 171.544 130.326 170.808C129.926 170.072 129.382 169.512 128.694 169.128C128.022 168.728 127.278 168.528 126.462 168.528C125.646 168.528 124.902 168.72 124.23 169.104C123.558 169.488 123.022 170.048 122.622 170.784C122.222 171.52 122.022 172.384 122.022 173.376C122.022 174.384 122.222 175.264 122.622 176.016C123.022 176.752 123.558 177.32 124.23 177.72C124.902 178.104 125.646 178.296 126.462 178.296C127.278 178.296 128.022 178.104 128.694 177.72C129.382 177.32 129.926 176.752 130.326 176.016C130.726 175.264 130.926 174.392 130.926 173.4ZM137.953 164.712C137.537 164.712 137.185 164.568 136.897 164.28C136.609 163.992 136.465 163.64 136.465 163.224C136.465 162.808 136.609 162.456 136.897 162.168C137.185 161.88 137.537 161.736 137.953 161.736C138.353 161.736 138.689 161.88 138.961 162.168C139.249 162.456 139.393 162.808 139.393 163.224C139.393 163.64 139.249 163.992 138.961 164.28C138.689 164.568 138.353 164.712 137.953 164.712ZM139.009 166.848V180H136.825V166.848H139.009ZM158.547 166.608C159.571 166.608 160.483 166.824 161.283 167.256C162.083 167.672 162.715 168.304 163.179 169.152C163.643 170 163.875 171.032 163.875 172.248V180H161.715V172.56C161.715 171.248 161.387 170.248 160.731 169.56C160.091 168.856 159.219 168.504 158.115 168.504C156.979 168.504 156.075 168.872 155.403 169.608C154.731 170.328 154.395 171.376 154.395 172.752V180H152.235V172.56C152.235 171.248 151.907 170.248 151.251 169.56C150.611 168.856 149.739 168.504 148.635 168.504C147.499 168.504 146.595 168.872 145.923 169.608C145.251 170.328 144.915 171.376 144.915 172.752V180H142.731V166.848H144.915V168.744C145.347 168.056 145.923 167.528 146.643 167.16C147.379 166.792 148.187 166.608 149.067 166.608C150.171 166.608 151.147 166.856 151.995 167.352C152.843 167.848 153.475 168.576 153.891 169.536C154.259 168.608 154.867 167.888 155.715 167.376C156.563 166.864 157.507 166.608 158.547 166.608ZM172.113 180.216C171.105 180.216 170.201 180.048 169.401 179.712C168.601 179.36 167.969 178.88 167.505 178.272C167.041 177.648 166.785 176.936 166.737 176.136H168.993C169.057 176.792 169.361 177.328 169.905 177.744C170.465 178.16 171.193 178.368 172.089 178.368C172.921 178.368 173.577 178.184 174.057 177.816C174.537 177.448 174.777 176.984 174.777 176.424C174.777 175.848 174.521 175.424 174.009 175.152C173.497 174.864 172.705 174.584 171.633 174.312C170.657 174.056 169.857 173.8 169.233 173.544C168.625 173.272 168.097 172.88 167.649 172.368C167.217 171.84 167.001 171.152 167.001 170.304C167.001 169.632 167.201 169.016 167.601 168.456C168.001 167.896 168.569 167.456 169.305 167.136C170.041 166.8 170.881 166.632 171.825 166.632C173.281 166.632 174.457 167 175.353 167.736C176.249 168.472 176.729 169.48 176.793 170.76H174.609C174.561 170.072 174.281 169.52 173.769 169.104C173.273 168.688 172.601 168.48 171.753 168.48C170.969 168.48 170.345 168.648 169.881 168.984C169.417 169.32 169.185 169.76 169.185 170.304C169.185 170.736 169.321 171.096 169.593 171.384C169.881 171.656 170.233 171.88 170.649 172.056C171.081 172.216 171.673 172.4 172.425 172.608C173.369 172.864 174.137 173.12 174.729 173.376C175.321 173.616 175.825 173.984 176.241 174.48C176.673 174.976 176.897 175.624 176.913 176.424C176.913 177.144 176.713 177.792 176.313 178.368C175.913 178.944 175.345 179.4 174.609 179.736C173.889 180.056 173.057 180.216 172.113 180.216ZM189.059 168.648V176.4C189.059 177.04 189.195 177.496 189.467 177.768C189.739 178.024 190.211 178.152 190.883 178.152H192.491V180H190.523C189.307 180 188.395 179.72 187.787 179.16C187.179 178.6 186.875 177.68 186.875 176.4V168.648H185.171V166.848H186.875V163.536H189.059V166.848H192.491V168.648H189.059ZM200.873 180.216C199.641 180.216 198.521 179.936 197.513 179.376C196.521 178.816 195.737 178.024 195.161 177C194.601 175.96 194.321 174.76 194.321 173.4C194.321 172.056 194.609 170.872 195.185 169.848C195.777 168.808 196.577 168.016 197.585 167.472C198.593 166.912 199.721 166.632 200.969 166.632C202.217 166.632 203.345 166.912 204.353 167.472C205.361 168.016 206.153 168.8 206.729 169.824C207.321 170.848 207.617 172.04 207.617 173.4C207.617 174.76 207.313 175.96 206.705 177C206.113 178.024 205.305 178.816 204.281 179.376C203.257 179.936 202.121 180.216 200.873 180.216ZM200.873 178.296C201.657 178.296 202.393 178.112 203.081 177.744C203.769 177.376 204.321 176.824 204.737 176.088C205.169 175.352 205.385 174.456 205.385 173.4C205.385 172.344 205.177 171.448 204.761 170.712C204.345 169.976 203.801 169.432 203.129 169.08C202.457 168.712 201.729 168.528 200.945 168.528C200.145 168.528 199.409 168.712 198.737 169.08C198.081 169.432 197.553 169.976 197.153 170.712C196.753 171.448 196.553 172.344 196.553 173.4C196.553 174.472 196.745 175.376 197.129 176.112C197.529 176.848 198.057 177.4 198.713 177.768C199.369 178.12 200.089 178.296 200.873 178.296ZM219.071 169.296C219.519 168.512 220.175 167.872 221.039 167.376C221.903 166.88 222.887 166.632 223.991 166.632C225.175 166.632 226.239 166.912 227.183 167.472C228.127 168.032 228.871 168.824 229.415 169.848C229.959 170.856 230.231 172.032 230.231 173.376C230.231 174.704 229.959 175.888 229.415 176.928C228.871 177.968 228.119 178.776 227.159 179.352C226.215 179.928 225.159 180.216 223.991 180.216C222.855 180.216 221.855 179.968 220.991 179.472C220.143 178.976 219.503 178.344 219.071 177.576V180H216.887V162.24H219.071V169.296ZM227.999 173.376C227.999 172.384 227.799 171.52 227.399 170.784C226.999 170.048 226.455 169.488 225.767 169.104C225.095 168.72 224.351 168.528 223.535 168.528C222.735 168.528 221.991 168.728 221.303 169.128C220.631 169.512 220.087 170.08 219.671 170.832C219.271 171.568 219.071 172.424 219.071 173.4C219.071 174.392 219.271 175.264 219.671 176.016C220.087 176.752 220.631 177.32 221.303 177.72C221.991 178.104 222.735 178.296 223.535 178.296C224.351 178.296 225.095 178.104 225.767 177.72C226.455 177.32 226.999 176.752 227.399 176.016C227.799 175.264 227.999 174.384 227.999 173.376ZM244.77 166.848V180H242.586V178.056C242.17 178.728 241.586 179.256 240.834 179.64C240.098 180.008 239.282 180.192 238.386 180.192C237.362 180.192 236.442 179.984 235.626 179.568C234.81 179.136 234.162 178.496 233.682 177.648C233.218 176.8 232.986 175.768 232.986 174.552V166.848H235.146V174.264C235.146 175.56 235.474 176.56 236.13 177.264C236.786 177.952 237.682 178.296 238.818 178.296C239.986 178.296 240.906 177.936 241.578 177.216C242.25 176.496 242.586 175.448 242.586 174.072V166.848H244.77ZM249.585 164.712C249.169 164.712 248.817 164.568 248.529 164.28C248.241 163.992 248.097 163.64 248.097 163.224C248.097 162.808 248.241 162.456 248.529 162.168C248.817 161.88 249.169 161.736 249.585 161.736C249.985 161.736 250.321 161.88 250.593 162.168C250.881 162.456 251.025 162.808 251.025 163.224C251.025 163.64 250.881 163.992 250.593 164.28C250.321 164.568 249.985 164.712 249.585 164.712ZM250.641 166.848V180H248.457V166.848H250.641ZM256.548 162.24V180H254.364V162.24H256.548ZM259.454 173.376C259.454 172.032 259.726 170.856 260.27 169.848C260.814 168.824 261.558 168.032 262.502 167.472C263.462 166.912 264.534 166.632 265.718 166.632C266.742 166.632 267.694 166.872 268.574 167.352C269.454 167.816 270.126 168.432 270.59 169.2V162.24H272.798V180H270.59V177.528C270.158 178.312 269.518 178.96 268.67 179.472C267.822 179.968 266.83 180.216 265.694 180.216C264.526 180.216 263.462 179.928 262.502 179.352C261.558 178.776 260.814 177.968 260.27 176.928C259.726 175.888 259.454 174.704 259.454 173.376ZM270.59 173.4C270.59 172.408 270.39 171.544 269.99 170.808C269.59 170.072 269.046 169.512 268.358 169.128C267.686 168.728 266.942 168.528 266.126 168.528C265.31 168.528 264.566 168.72 263.894 169.104C263.222 169.488 262.686 170.048 262.286 170.784C261.886 171.52 261.686 172.384 261.686 173.376C261.686 174.384 261.886 175.264 262.286 176.016C262.686 176.752 263.222 177.32 263.894 177.72C264.566 178.104 265.31 178.296 266.126 178.296C266.942 178.296 267.686 178.104 268.358 177.72C269.046 177.32 269.59 176.752 269.99 176.016C270.39 175.264 270.59 174.392 270.59 173.4ZM282.071 173.376C282.071 172.032 282.343 170.856 282.887 169.848C283.431 168.824 284.175 168.032 285.119 167.472C286.079 166.912 287.143 166.632 288.311 166.632C289.463 166.632 290.463 166.88 291.311 167.376C292.159 167.872 292.791 168.496 293.207 169.248V166.848H295.415V180H293.207V177.552C292.775 178.32 292.127 178.96 291.263 179.472C290.415 179.968 289.423 180.216 288.287 180.216C287.119 180.216 286.063 179.928 285.119 179.352C284.175 178.776 283.431 177.968 282.887 176.928C282.343 175.888 282.071 174.704 282.071 173.376ZM293.207 173.4C293.207 172.408 293.007 171.544 292.607 170.808C292.207 170.072 291.663 169.512 290.975 169.128C290.303 168.728 289.559 168.528 288.743 168.528C287.927 168.528 287.183 168.72 286.511 169.104C285.839 169.488 285.303 170.048 284.903 170.784C284.503 171.52 284.303 172.384 284.303 173.376C284.303 174.384 284.503 175.264 284.903 176.016C285.303 176.752 285.839 177.32 286.511 177.72C287.183 178.104 287.927 178.296 288.743 178.296C289.559 178.296 290.303 178.104 290.975 177.72C291.663 177.32 292.207 176.752 292.607 176.016C293.007 175.264 293.207 174.392 293.207 173.4ZM305.514 166.608C307.114 166.608 308.41 167.096 309.402 168.072C310.394 169.032 310.89 170.424 310.89 172.248V180H308.73V172.56C308.73 171.248 308.402 170.248 307.746 169.56C307.09 168.856 306.194 168.504 305.058 168.504C303.906 168.504 302.986 168.864 302.298 169.584C301.626 170.304 301.29 171.352 301.29 172.728V180H299.106V166.848H301.29V168.72C301.722 168.048 302.306 167.528 303.042 167.16C303.794 166.792 304.618 166.608 305.514 166.608ZM321.984 164.712C321.568 164.712 321.216 164.568 320.928 164.28C320.64 163.992 320.496 163.64 320.496 163.224C320.496 162.808 320.64 162.456 320.928 162.168C321.216 161.88 321.568 161.736 321.984 161.736C322.384 161.736 322.72 161.88 322.992 162.168C323.28 162.456 323.424 162.808 323.424 163.224C323.424 163.64 323.28 163.992 322.992 164.28C322.72 164.568 322.384 164.712 321.984 164.712ZM323.04 166.848V180H320.856V166.848H323.04ZM333.17 166.608C334.77 166.608 336.066 167.096 337.058 168.072C338.05 169.032 338.546 170.424 338.546 172.248V180H336.386V172.56C336.386 171.248 336.058 170.248 335.402 169.56C334.746 168.856 333.85 168.504 332.714 168.504C331.562 168.504 330.642 168.864 329.954 169.584C329.282 170.304 328.946 171.352 328.946 172.728V180H326.762V166.848H328.946V168.72C329.378 168.048 329.962 167.528 330.698 167.16C331.45 166.792 332.274 166.608 333.17 166.608ZM344.778 168.648V176.4C344.778 177.04 344.914 177.496 345.186 177.768C345.458 178.024 345.93 178.152 346.602 178.152H348.21V180H346.242C345.026 180 344.114 179.72 343.506 179.16C342.898 178.6 342.594 177.68 342.594 176.4V168.648H340.89V166.848H342.594V163.536H344.778V166.848H348.21V168.648H344.778ZM362.856 172.92C362.856 173.336 362.832 173.776 362.784 174.24H352.272C352.352 175.536 352.792 176.552 353.592 177.288C354.408 178.008 355.392 178.368 356.544 178.368C357.488 178.368 358.272 178.152 358.896 177.72C359.536 177.272 359.984 176.68 360.24 175.944H362.592C362.24 177.208 361.536 178.24 360.48 179.04C359.424 179.824 358.112 180.216 356.544 180.216C355.296 180.216 354.176 179.936 353.184 179.376C352.208 178.816 351.44 178.024 350.88 177C350.32 175.96 350.04 174.76 350.04 173.4C350.04 172.04 350.312 170.848 350.856 169.824C351.4 168.8 352.16 168.016 353.136 167.472C354.128 166.912 355.264 166.632 356.544 166.632C357.792 166.632 358.896 166.904 359.856 167.448C360.816 167.992 361.552 168.744 362.064 169.704C362.592 170.648 362.856 171.72 362.856 172.92ZM360.6 172.464C360.6 171.632 360.416 170.92 360.048 170.328C359.68 169.72 359.176 169.264 358.536 168.96C357.912 168.64 357.216 168.48 356.448 168.48C355.344 168.48 354.4 168.832 353.616 169.536C352.848 170.24 352.408 171.216 352.296 172.464H360.6ZM367.923 168.984C368.307 168.232 368.851 167.648 369.555 167.232C370.275 166.816 371.147 166.608 372.171 166.608V168.864H371.595C369.147 168.864 367.923 170.192 367.923 172.848V180H365.739V166.848H367.923V168.984ZM381.1 166.608C382.7 166.608 383.996 167.096 384.988 168.072C385.98 169.032 386.476 170.424 386.476 172.248V180H384.316V172.56C384.316 171.248 383.988 170.248 383.332 169.56C382.676 168.856 381.78 168.504 380.644 168.504C379.492 168.504 378.572 168.864 377.884 169.584C377.212 170.304 376.876 171.352 376.876 172.728V180H374.692V166.848H376.876V168.72C377.308 168.048 377.892 167.528 378.628 167.16C379.38 166.792 380.204 166.608 381.1 166.608ZM402.043 172.92C402.043 173.336 402.019 173.776 401.971 174.24H391.459C391.539 175.536 391.979 176.552 392.779 177.288C393.595 178.008 394.579 178.368 395.731 178.368C396.675 178.368 397.459 178.152 398.083 177.72C398.723 177.272 399.171 176.68 399.427 175.944H401.779C401.427 177.208 400.723 178.24 399.667 179.04C398.611 179.824 397.299 180.216 395.731 180.216C394.483 180.216 393.363 179.936 392.371 179.376C391.395 178.816 390.627 178.024 390.067 177C389.507 175.96 389.227 174.76 389.227 173.4C389.227 172.04 389.499 170.848 390.043 169.824C390.587 168.8 391.347 168.016 392.323 167.472C393.315 166.912 394.451 166.632 395.731 166.632C396.979 166.632 398.083 166.904 399.043 167.448C400.003 167.992 400.739 168.744 401.251 169.704C401.779 170.648 402.043 171.72 402.043 172.92ZM399.787 172.464C399.787 171.632 399.603 170.92 399.235 170.328C398.867 169.72 398.363 169.264 397.723 168.96C397.099 168.64 396.403 168.48 395.635 168.48C394.531 168.48 393.587 168.832 392.803 169.536C392.035 170.24 391.595 171.216 391.483 172.464H399.787ZM407.59 168.648V176.4C407.59 177.04 407.726 177.496 407.998 177.768C408.27 178.024 408.742 178.152 409.414 178.152H411.022V180H409.054C407.838 180 406.926 179.72 406.318 179.16C405.71 178.6 405.406 177.68 405.406 176.4V168.648H403.702V166.848H405.406V163.536H407.59V166.848H411.022V168.648H407.59ZM425.803 180.216C424.571 180.216 423.451 179.936 422.443 179.376C421.451 178.816 420.667 178.024 420.091 177C419.531 175.96 419.251 174.76 419.251 173.4C419.251 172.056 419.539 170.872 420.115 169.848C420.707 168.808 421.507 168.016 422.515 167.472C423.523 166.912 424.651 166.632 425.899 166.632C427.147 166.632 428.275 166.912 429.283 167.472C430.291 168.016 431.083 168.8 431.659 169.824C432.251 170.848 432.547 172.04 432.547 173.4C432.547 174.76 432.243 175.96 431.635 177C431.043 178.024 430.235 178.816 429.211 179.376C428.187 179.936 427.051 180.216 425.803 180.216ZM425.803 178.296C426.587 178.296 427.323 178.112 428.011 177.744C428.699 177.376 429.251 176.824 429.667 176.088C430.099 175.352 430.315 174.456 430.315 173.4C430.315 172.344 430.107 171.448 429.691 170.712C429.275 169.976 428.731 169.432 428.059 169.08C427.387 168.712 426.659 168.528 425.875 168.528C425.075 168.528 424.339 168.712 423.667 169.08C423.011 169.432 422.483 169.976 422.083 170.712C421.683 171.448 421.483 172.344 421.483 173.4C421.483 174.472 421.675 175.376 422.059 176.112C422.459 176.848 422.987 177.4 423.643 177.768C424.299 178.12 425.019 178.296 425.803 178.296ZM440.77 168.648H438.01V180H435.826V168.648H434.122V166.848H435.826V165.912C435.826 164.44 436.202 163.368 436.954 162.696C437.722 162.008 438.946 161.664 440.626 161.664V163.488C439.666 163.488 438.986 163.68 438.586 164.064C438.202 164.432 438.01 165.048 438.01 165.912V166.848H440.77V168.648ZM454.611 177.984L458.691 166.848H461.019L455.859 180H453.315L448.155 166.848H450.507L454.611 177.984ZM462.352 173.376C462.352 172.032 462.624 170.856 463.168 169.848C463.712 168.824 464.456 168.032 465.4 167.472C466.36 166.912 467.424 166.632 468.592 166.632C469.744 166.632 470.744 166.88 471.592 167.376C472.44 167.872 473.072 168.496 473.488 169.248V166.848H475.696V180H473.488V177.552C473.056 178.32 472.408 178.96 471.544 179.472C470.696 179.968 469.704 180.216 468.568 180.216C467.4 180.216 466.344 179.928 465.4 179.352C464.456 178.776 463.712 177.968 463.168 176.928C462.624 175.888 462.352 174.704 462.352 173.376ZM473.488 173.4C473.488 172.408 473.288 171.544 472.888 170.808C472.488 170.072 471.944 169.512 471.256 169.128C470.584 168.728 469.84 168.528 469.024 168.528C468.208 168.528 467.464 168.72 466.792 169.104C466.12 169.488 465.584 170.048 465.184 170.784C464.784 171.52 464.584 172.384 464.584 173.376C464.584 174.384 464.784 175.264 465.184 176.016C465.584 176.752 466.12 177.32 466.792 177.72C467.464 178.104 468.208 178.296 469.024 178.296C469.84 178.296 470.584 178.104 471.256 177.72C471.944 177.32 472.488 176.752 472.888 176.016C473.288 175.264 473.488 174.392 473.488 173.4ZM481.571 162.24V180H479.387V162.24H481.571ZM496.957 166.848V180H494.773V178.056C494.357 178.728 493.773 179.256 493.021 179.64C492.285 180.008 491.469 180.192 490.573 180.192C489.549 180.192 488.629 179.984 487.813 179.568C486.997 179.136 486.349 178.496 485.869 177.648C485.405 176.8 485.173 175.768 485.173 174.552V166.848H487.333V174.264C487.333 175.56 487.661 176.56 488.317 177.264C488.973 177.952 489.869 178.296 491.005 178.296C492.173 178.296 493.093 177.936 493.765 177.216C494.437 176.496 494.773 175.448 494.773 174.072V166.848H496.957ZM512.645 172.92C512.645 173.336 512.621 173.776 512.573 174.24H502.061C502.141 175.536 502.581 176.552 503.381 177.288C504.197 178.008 505.181 178.368 506.333 178.368C507.277 178.368 508.061 178.152 508.685 177.72C509.325 177.272 509.773 176.68 510.029 175.944H512.381C512.029 177.208 511.325 178.24 510.269 179.04C509.213 179.824 507.901 180.216 506.333 180.216C505.085 180.216 503.965 179.936 502.973 179.376C501.997 178.816 501.229 178.024 500.669 177C500.109 175.96 499.829 174.76 499.829 173.4C499.829 172.04 500.101 170.848 500.645 169.824C501.189 168.8 501.949 168.016 502.925 167.472C503.917 166.912 505.053 166.632 506.333 166.632C507.581 166.632 508.685 166.904 509.645 167.448C510.605 167.992 511.341 168.744 511.853 169.704C512.381 170.648 512.645 171.72 512.645 172.92ZM510.389 172.464C510.389 171.632 510.205 170.92 509.837 170.328C509.469 169.72 508.965 169.264 508.325 168.96C507.701 168.64 507.005 168.48 506.237 168.48C505.133 168.48 504.189 168.832 503.405 169.536C502.637 170.24 502.197 171.216 502.085 172.464H510.389ZM19.368 198.848L15.264 212H13.008L9.84 201.56L6.672 212H4.416L0.288 198.848H2.52L5.544 209.888L8.808 198.848H11.04L14.232 209.912L17.208 198.848H19.368ZM28.0635 198.608C29.0555 198.608 29.9515 198.824 30.7515 199.256C31.5515 199.672 32.1755 200.304 32.6235 201.152C33.0875 202 33.3195 203.032 33.3195 204.248V212H31.1595V204.56C31.1595 203.248 30.8315 202.248 30.1755 201.56C29.5195 200.856 28.6235 200.504 27.4875 200.504C26.3355 200.504 25.4155 200.864 24.7275 201.584C24.0555 202.304 23.7195 203.352 23.7195 204.728V212H21.5355V194.24H23.7195V200.72C24.1515 200.048 24.7435 199.528 25.4955 199.16C26.2635 198.792 27.1195 198.608 28.0635 198.608ZM48.8871 204.92C48.8871 205.336 48.8631 205.776 48.8151 206.24H38.3031C38.3831 207.536 38.8231 208.552 39.6231 209.288C40.4391 210.008 41.4231 210.368 42.5751 210.368C43.5191 210.368 44.3031 210.152 44.9271 209.72C45.5671 209.272 46.0151 208.68 46.2711 207.944H48.6231C48.2711 209.208 47.5671 210.24 46.5111 211.04C45.4551 211.824 44.1431 212.216 42.5751 212.216C41.3271 212.216 40.2071 211.936 39.2151 211.376C38.2391 210.816 37.4711 210.024 36.9111 209C36.3511 207.96 36.0711 206.76 36.0711 205.4C36.0711 204.04 36.3431 202.848 36.8871 201.824C37.4311 200.8 38.1911 200.016 39.1671 199.472C40.1591 198.912 41.2951 198.632 42.5751 198.632C43.8231 198.632 44.9271 198.904 45.8871 199.448C46.8471 199.992 47.5831 200.744 48.0951 201.704C48.6231 202.648 48.8871 203.72 48.8871 204.92ZM46.6311 204.464C46.6311 203.632 46.4471 202.92 46.0791 202.328C45.7111 201.72 45.2071 201.264 44.5671 200.96C43.9431 200.64 43.2471 200.48 42.4791 200.48C41.3751 200.48 40.4311 200.832 39.6471 201.536C38.8791 202.24 38.4391 203.216 38.3271 204.464H46.6311ZM53.9539 200.984C54.3379 200.232 54.8819 199.648 55.5859 199.232C56.3059 198.816 57.1779 198.608 58.2019 198.608V200.864H57.6259C55.1779 200.864 53.9539 202.192 53.9539 204.848V212H51.7699V198.848H53.9539V200.984ZM72.723 204.92C72.723 205.336 72.699 205.776 72.651 206.24H62.139C62.219 207.536 62.659 208.552 63.459 209.288C64.275 210.008 65.259 210.368 66.411 210.368C67.355 210.368 68.139 210.152 68.763 209.72C69.403 209.272 69.851 208.68 70.107 207.944H72.459C72.107 209.208 71.403 210.24 70.347 211.04C69.291 211.824 67.979 212.216 66.411 212.216C65.163 212.216 64.043 211.936 63.051 211.376C62.075 210.816 61.307 210.024 60.747 209C60.187 207.96 59.907 206.76 59.907 205.4C59.907 204.04 60.179 202.848 60.723 201.824C61.267 200.8 62.027 200.016 63.003 199.472C63.995 198.912 65.131 198.632 66.411 198.632C67.659 198.632 68.763 198.904 69.723 199.448C70.683 199.992 71.419 200.744 71.931 201.704C72.459 202.648 72.723 203.72 72.723 204.92ZM70.467 204.464C70.467 203.632 70.283 202.92 69.915 202.328C69.547 201.72 69.043 201.264 68.403 200.96C67.779 200.64 67.083 200.48 66.315 200.48C65.211 200.48 64.267 200.832 63.483 201.536C62.715 202.24 62.275 203.216 62.163 204.464H70.467ZM84.6683 200.648V208.4C84.6683 209.04 84.8043 209.496 85.0763 209.768C85.3483 210.024 85.8203 210.152 86.4922 210.152H88.1003V212H86.1323C84.9163 212 84.0043 211.72 83.3963 211.16C82.7883 210.6 82.4843 209.68 82.4843 208.4V200.648H80.7803V198.848H82.4843V195.536H84.6683V198.848H88.1003V200.648H84.6683ZM97.2744 198.608C98.2664 198.608 99.1624 198.824 99.9624 199.256C100.762 199.672 101.386 200.304 101.834 201.152C102.298 202 102.53 203.032 102.53 204.248V212H100.37V204.56C100.37 203.248 100.042 202.248 99.3864 201.56C98.7304 200.856 97.8344 200.504 96.6984 200.504C95.5464 200.504 94.6264 200.864 93.9384 201.584C93.2664 202.304 92.9304 203.352 92.9304 204.728V212H90.7464V194.24H92.9304V200.72C93.3624 200.048 93.9544 199.528 94.7064 199.16C95.4744 198.792 96.3304 198.608 97.2744 198.608ZM118.098 204.92C118.098 205.336 118.074 205.776 118.026 206.24H107.514C107.594 207.536 108.034 208.552 108.834 209.288C109.65 210.008 110.634 210.368 111.786 210.368C112.73 210.368 113.514 210.152 114.138 209.72C114.778 209.272 115.226 208.68 115.482 207.944H117.834C117.482 209.208 116.778 210.24 115.722 211.04C114.666 211.824 113.354 212.216 111.786 212.216C110.538 212.216 109.418 211.936 108.426 211.376C107.45 210.816 106.682 210.024 106.122 209C105.562 207.96 105.282 206.76 105.282 205.4C105.282 204.04 105.554 202.848 106.098 201.824C106.642 200.8 107.402 200.016 108.378 199.472C109.37 198.912 110.506 198.632 111.786 198.632C113.034 198.632 114.138 198.904 115.098 199.448C116.058 199.992 116.794 200.744 117.306 201.704C117.834 202.648 118.098 203.72 118.098 204.92ZM115.842 204.464C115.842 203.632 115.658 202.92 115.29 202.328C114.922 201.72 114.418 201.264 113.778 200.96C113.154 200.64 112.458 200.48 111.69 200.48C110.586 200.48 109.642 200.832 108.858 201.536C108.09 202.24 107.65 203.216 107.538 204.464H115.842ZM139.379 204.92C139.379 205.336 139.355 205.776 139.307 206.24H128.795C128.875 207.536 129.315 208.552 130.115 209.288C130.931 210.008 131.915 210.368 133.067 210.368C134.011 210.368 134.795 210.152 135.419 209.72C136.059 209.272 136.507 208.68 136.763 207.944H139.115C138.763 209.208 138.059 210.24 137.003 211.04C135.947 211.824 134.635 212.216 133.067 212.216C131.819 212.216 130.699 211.936 129.707 211.376C128.731 210.816 127.963 210.024 127.403 209C126.843 207.96 126.563 206.76 126.563 205.4C126.563 204.04 126.835 202.848 127.379 201.824C127.923 200.8 128.683 200.016 129.659 199.472C130.651 198.912 131.787 198.632 133.067 198.632C134.315 198.632 135.419 198.904 136.379 199.448C137.339 199.992 138.075 200.744 138.587 201.704C139.115 202.648 139.379 203.72 139.379 204.92ZM137.123 204.464C137.123 203.632 136.939 202.92 136.571 202.328C136.203 201.72 135.699 201.264 135.059 200.96C134.435 200.64 133.739 200.48 132.971 200.48C131.867 200.48 130.923 200.832 130.139 201.536C129.371 202.24 128.931 203.216 128.819 204.464H137.123ZM148.67 198.608C150.27 198.608 151.566 199.096 152.558 200.072C153.55 201.032 154.046 202.424 154.046 204.248V212H151.886V204.56C151.886 203.248 151.558 202.248 150.902 201.56C150.246 200.856 149.35 200.504 148.214 200.504C147.062 200.504 146.142 200.864 145.454 201.584C144.782 202.304 144.446 203.352 144.446 204.728V212H142.262V198.848H144.446V200.72C144.878 200.048 145.462 199.528 146.198 199.16C146.95 198.792 147.774 198.608 148.67 198.608ZM160.278 200.648V208.4C160.278 209.04 160.414 209.496 160.686 209.768C160.958 210.024 161.43 210.152 162.102 210.152H163.71V212H161.742C160.526 212 159.614 211.72 159.006 211.16C158.398 210.6 158.094 209.68 158.094 208.4V200.648H156.39V198.848H158.094V195.536H160.278V198.848H163.71V200.648H160.278ZM168.54 200.984C168.924 200.232 169.468 199.648 170.172 199.232C170.892 198.816 171.764 198.608 172.788 198.608V200.864H172.212C169.764 200.864 168.54 202.192 168.54 204.848V212H166.356V198.848H168.54V200.984ZM186.637 198.848L178.717 218.192H176.461L179.053 211.856L173.749 198.848H176.173L180.301 209.504L184.381 198.848H186.637ZM197.415 201.296C197.863 200.512 198.519 199.872 199.383 199.376C200.247 198.88 201.231 198.632 202.335 198.632C203.519 198.632 204.583 198.912 205.527 199.472C206.471 200.032 207.215 200.824 207.759 201.848C208.303 202.856 208.575 204.032 208.575 205.376C208.575 206.704 208.303 207.888 207.759 208.928C207.215 209.968 206.463 210.776 205.503 211.352C204.559 211.928 203.503 212.216 202.335 212.216C201.199 212.216 200.199 211.968 199.335 211.472C198.487 210.976 197.847 210.344 197.415 209.576V212H195.231V194.24H197.415V201.296ZM206.343 205.376C206.343 204.384 206.143 203.52 205.743 202.784C205.343 202.048 204.799 201.488 204.111 201.104C203.439 200.72 202.695 200.528 201.879 200.528C201.079 200.528 200.335 200.728 199.647 201.128C198.975 201.512 198.431 202.08 198.015 202.832C197.615 203.568 197.415 204.424 197.415 205.4C197.415 206.392 197.615 207.264 198.015 208.016C198.431 208.752 198.975 209.32 199.647 209.72C200.335 210.104 201.079 210.296 201.879 210.296C202.695 210.296 203.439 210.104 204.111 209.72C204.799 209.32 205.343 208.752 205.743 208.016C206.143 207.264 206.343 206.384 206.343 205.376ZM210.634 205.376C210.634 204.032 210.906 202.856 211.45 201.848C211.994 200.824 212.738 200.032 213.682 199.472C214.642 198.912 215.706 198.632 216.874 198.632C218.026 198.632 219.026 198.88 219.874 199.376C220.722 199.872 221.354 200.496 221.77 201.248V198.848H223.978V212H221.77V209.552C221.338 210.32 220.69 210.96 219.826 211.472C218.978 211.968 217.986 212.216 216.85 212.216C215.682 212.216 214.626 211.928 213.682 211.352C212.738 210.776 211.994 209.968 211.45 208.928C210.906 207.888 210.634 206.704 210.634 205.376ZM221.77 205.4C221.77 204.408 221.57 203.544 221.17 202.808C220.77 202.072 220.226 201.512 219.538 201.128C218.866 200.728 218.122 200.528 217.306 200.528C216.49 200.528 215.746 200.72 215.074 201.104C214.402 201.488 213.866 202.048 213.466 202.784C213.066 203.52 212.866 204.384 212.866 205.376C212.866 206.384 213.066 207.264 213.466 208.016C213.866 208.752 214.402 209.32 215.074 209.72C215.746 210.104 216.49 210.296 217.306 210.296C218.122 210.296 218.866 210.104 219.538 209.72C220.226 209.32 220.77 208.752 221.17 208.016C221.57 207.264 221.77 206.392 221.77 205.4ZM229.852 200.984C230.236 200.232 230.78 199.648 231.484 199.232C232.204 198.816 233.076 198.608 234.1 198.608V200.864H233.524C231.076 200.864 229.852 202.192 229.852 204.848V212H227.668V198.848H229.852V200.984ZM238.805 200.984C239.189 200.232 239.733 199.648 240.437 199.232C241.157 198.816 242.029 198.608 243.053 198.608V200.864H242.477C240.029 200.864 238.805 202.192 238.805 204.848V212H236.621V198.848H238.805V200.984ZM246.703 196.712C246.287 196.712 245.935 196.568 245.647 196.28C245.359 195.992 245.215 195.64 245.215 195.224C245.215 194.808 245.359 194.456 245.647 194.168C245.935 193.88 246.287 193.736 246.703 193.736C247.103 193.736 247.439 193.88 247.711 194.168C247.999 194.456 248.143 194.808 248.143 195.224C248.143 195.64 247.999 195.992 247.711 196.28C247.439 196.568 247.103 196.712 246.703 196.712ZM247.759 198.848V212H245.575V198.848H247.759ZM263.481 204.92C263.481 205.336 263.457 205.776 263.409 206.24H252.897C252.977 207.536 253.417 208.552 254.217 209.288C255.033 210.008 256.017 210.368 257.169 210.368C258.113 210.368 258.897 210.152 259.521 209.72C260.161 209.272 260.609 208.68 260.865 207.944H263.217C262.865 209.208 262.161 210.24 261.105 211.04C260.049 211.824 258.737 212.216 257.169 212.216C255.921 212.216 254.801 211.936 253.809 211.376C252.833 210.816 252.065 210.024 251.505 209C250.945 207.96 250.665 206.76 250.665 205.4C250.665 204.04 250.937 202.848 251.481 201.824C252.025 200.8 252.785 200.016 253.761 199.472C254.753 198.912 255.889 198.632 257.169 198.632C258.417 198.632 259.521 198.904 260.481 199.448C261.441 199.992 262.177 200.744 262.689 201.704C263.217 202.648 263.481 203.72 263.481 204.92ZM261.225 204.464C261.225 203.632 261.041 202.92 260.673 202.328C260.305 201.72 259.801 201.264 259.161 200.96C258.537 200.64 257.841 200.48 257.073 200.48C255.969 200.48 255.025 200.832 254.241 201.536C253.473 202.24 253.033 203.216 252.921 204.464H261.225ZM268.548 200.984C268.932 200.232 269.476 199.648 270.18 199.232C270.9 198.816 271.772 198.608 272.796 198.608V200.864H272.22C269.772 200.864 268.548 202.192 268.548 204.848V212H266.364V198.848H268.548V200.984ZM279.973 212.216C278.965 212.216 278.061 212.048 277.261 211.712C276.461 211.36 275.829 210.88 275.365 210.272C274.901 209.648 274.645 208.936 274.597 208.136H276.853C276.917 208.792 277.221 209.328 277.765 209.744C278.325 210.16 279.053 210.368 279.949 210.368C280.781 210.368 281.437 210.184 281.917 209.816C282.397 209.448 282.637 208.984 282.637 208.424C282.637 207.848 282.381 207.424 281.869 207.152C281.357 206.864 280.565 206.584 279.493 206.312C278.517 206.056 277.717 205.8 277.093 205.544C276.485 205.272 275.957 204.88 275.509 204.368C275.077 203.84 274.861 203.152 274.861 202.304C274.861 201.632 275.061 201.016 275.461 200.456C275.861 199.896 276.429 199.456 277.165 199.136C277.901 198.8 278.741 198.632 279.685 198.632C281.141 198.632 282.317 199 283.213 199.736C284.109 200.472 284.589 201.48 284.653 202.76H282.469C282.421 202.072 282.141 201.52 281.629 201.104C281.133 200.688 280.461 200.48 279.613 200.48C278.829 200.48 278.205 200.648 277.741 200.984C277.277 201.32 277.045 201.76 277.045 202.304C277.045 202.736 277.181 203.096 277.453 203.384C277.741 203.656 278.093 203.88 278.509 204.056C278.941 204.216 279.533 204.4 280.285 204.608C281.229 204.864 281.997 205.12 282.589 205.376C283.181 205.616 283.685 205.984 284.101 206.48C284.533 206.976 284.757 207.624 284.773 208.424C284.773 209.144 284.573 209.792 284.173 210.368C283.773 210.944 283.205 211.4 282.469 211.736C281.749 212.056 280.917 212.216 279.973 212.216ZM293.438 205.376C293.438 204.032 293.71 202.856 294.254 201.848C294.798 200.824 295.542 200.032 296.486 199.472C297.446 198.912 298.51 198.632 299.678 198.632C300.83 198.632 301.83 198.88 302.678 199.376C303.526 199.872 304.158 200.496 304.574 201.248V198.848H306.782V212H304.574V209.552C304.142 210.32 303.494 210.96 302.63 211.472C301.782 211.968 300.79 212.216 299.654 212.216C298.486 212.216 297.43 211.928 296.486 211.352C295.542 210.776 294.798 209.968 294.254 208.928C293.71 207.888 293.438 206.704 293.438 205.376ZM304.574 205.4C304.574 204.408 304.374 203.544 303.974 202.808C303.574 202.072 303.03 201.512 302.342 201.128C301.67 200.728 300.926 200.528 300.11 200.528C299.294 200.528 298.55 200.72 297.878 201.104C297.206 201.488 296.67 202.048 296.27 202.784C295.87 203.52 295.67 204.384 295.67 205.376C295.67 206.384 295.87 207.264 296.27 208.016C296.67 208.752 297.206 209.32 297.878 209.72C298.55 210.104 299.294 210.296 300.11 210.296C300.926 210.296 301.67 210.104 302.342 209.72C303.03 209.32 303.574 208.752 303.974 208.016C304.374 207.264 304.574 206.392 304.574 205.4ZM312.657 200.984C313.041 200.232 313.585 199.648 314.289 199.232C315.009 198.816 315.881 198.608 316.905 198.608V200.864H316.329C313.881 200.864 312.657 202.192 312.657 204.848V212H310.473V198.848H312.657V200.984ZM331.426 204.92C331.426 205.336 331.402 205.776 331.354 206.24H320.842C320.922 207.536 321.362 208.552 322.162 209.288C322.978 210.008 323.962 210.368 325.114 210.368C326.058 210.368 326.842 210.152 327.466 209.72C328.106 209.272 328.554 208.68 328.81 207.944H331.162C330.81 209.208 330.106 210.24 329.05 211.04C327.994 211.824 326.682 212.216 325.114 212.216C323.866 212.216 322.746 211.936 321.754 211.376C320.778 210.816 320.01 210.024 319.45 209C318.89 207.96 318.61 206.76 318.61 205.4C318.61 204.04 318.882 202.848 319.426 201.824C319.97 200.8 320.73 200.016 321.706 199.472C322.698 198.912 323.834 198.632 325.114 198.632C326.362 198.632 327.466 198.904 328.426 199.448C329.386 199.992 330.122 200.744 330.634 201.704C331.162 202.648 331.426 203.72 331.426 204.92ZM329.17 204.464C329.17 203.632 328.986 202.92 328.618 202.328C328.25 201.72 327.746 201.264 327.106 200.96C326.482 200.64 325.786 200.48 325.018 200.48C323.914 200.48 322.97 200.832 322.186 201.536C321.418 202.24 320.978 203.216 320.866 204.464H329.17ZM347.115 198.608C348.715 198.608 350.011 199.096 351.003 200.072C351.995 201.032 352.491 202.424 352.491 204.248V212H350.331V204.56C350.331 203.248 350.003 202.248 349.347 201.56C348.691 200.856 347.795 200.504 346.659 200.504C345.507 200.504 344.587 200.864 343.899 201.584C343.227 202.304 342.891 203.352 342.891 204.728V212H340.707V198.848H342.891V200.72C343.323 200.048 343.907 199.528 344.643 199.16C345.395 198.792 346.219 198.608 347.115 198.608ZM361.795 212.216C360.563 212.216 359.443 211.936 358.435 211.376C357.443 210.816 356.659 210.024 356.083 209C355.523 207.96 355.243 206.76 355.243 205.4C355.243 204.056 355.531 202.872 356.107 201.848C356.699 200.808 357.499 200.016 358.507 199.472C359.515 198.912 360.643 198.632 361.891 198.632C363.139 198.632 364.267 198.912 365.275 199.472C366.283 200.016 367.075 200.8 367.651 201.824C368.243 202.848 368.539 204.04 368.539 205.4C368.539 206.76 368.235 207.96 367.627 209C367.035 210.024 366.227 210.816 365.203 211.376C364.179 211.936 363.043 212.216 361.795 212.216ZM361.795 210.296C362.579 210.296 363.315 210.112 364.003 209.744C364.691 209.376 365.243 208.824 365.659 208.088C366.091 207.352 366.307 206.456 366.307 205.4C366.307 204.344 366.099 203.448 365.683 202.712C365.267 201.976 364.723 201.432 364.051 201.08C363.379 200.712 362.651 200.528 361.867 200.528C361.067 200.528 360.331 200.712 359.659 201.08C359.003 201.432 358.475 201.976 358.075 202.712C357.675 203.448 357.475 204.344 357.475 205.4C357.475 206.472 357.667 207.376 358.051 208.112C358.451 208.848 358.979 209.4 359.635 209.768C360.291 210.12 361.011 210.296 361.795 210.296ZM377.819 198.608C379.419 198.608 380.715 199.096 381.707 200.072C382.699 201.032 383.195 202.424 383.195 204.248V212H381.035V204.56C381.035 203.248 380.707 202.248 380.051 201.56C379.395 200.856 378.499 200.504 377.363 200.504C376.211 200.504 375.291 200.864 374.603 201.584C373.931 202.304 373.595 203.352 373.595 204.728V212H371.411V198.848H373.595V200.72C374.027 200.048 374.611 199.528 375.347 199.16C376.099 198.792 376.923 198.608 377.819 198.608ZM395.882 202.28V204.128H386.306V202.28H395.882ZM411.981 204.92C411.981 205.336 411.957 205.776 411.909 206.24H401.397C401.477 207.536 401.917 208.552 402.717 209.288C403.533 210.008 404.517 210.368 405.669 210.368C406.613 210.368 407.397 210.152 408.021 209.72C408.661 209.272 409.109 208.68 409.365 207.944H411.717C411.365 209.208 410.661 210.24 409.605 211.04C408.549 211.824 407.237 212.216 405.669 212.216C404.421 212.216 403.301 211.936 402.309 211.376C401.333 210.816 400.565 210.024 400.005 209C399.445 207.96 399.165 206.76 399.165 205.4C399.165 204.04 399.437 202.848 399.981 201.824C400.525 200.8 401.285 200.016 402.261 199.472C403.253 198.912 404.389 198.632 405.669 198.632C406.917 198.632 408.021 198.904 408.981 199.448C409.941 199.992 410.677 200.744 411.189 201.704C411.717 202.648 411.981 203.72 411.981 204.92ZM409.725 204.464C409.725 203.632 409.541 202.92 409.173 202.328C408.805 201.72 408.301 201.264 407.661 200.96C407.037 200.64 406.341 200.48 405.573 200.48C404.469 200.48 403.525 200.832 402.741 201.536C401.973 202.24 401.533 203.216 401.421 204.464H409.725ZM421.728 212L418.608 207.104L415.608 212H413.328L417.576 205.472L413.328 198.848H415.8L418.92 203.72L421.896 198.848H424.176L419.952 205.352L424.2 212H421.728ZM427.476 196.712C427.06 196.712 426.708 196.568 426.42 196.28C426.132 195.992 425.988 195.64 425.988 195.224C425.988 194.808 426.132 194.456 426.42 194.168C426.708 193.88 427.06 193.736 427.476 193.736C427.876 193.736 428.212 193.88 428.484 194.168C428.772 194.456 428.916 194.808 428.916 195.224C428.916 195.64 428.772 195.992 428.484 196.28C428.212 196.568 427.876 196.712 427.476 196.712ZM428.532 198.848V212H426.348V198.848H428.532ZM436.91 212.216C435.902 212.216 434.998 212.048 434.198 211.712C433.398 211.36 432.766 210.88 432.302 210.272C431.838 209.648 431.582 208.936 431.534 208.136H433.79C433.854 208.792 434.158 209.328 434.702 209.744C435.262 210.16 435.99 210.368 436.886 210.368C437.718 210.368 438.374 210.184 438.854 209.816C439.334 209.448 439.574 208.984 439.574 208.424C439.574 207.848 439.318 207.424 438.806 207.152C438.294 206.864 437.502 206.584 436.43 206.312C435.454 206.056 434.654 205.8 434.03 205.544C433.422 205.272 432.894 204.88 432.446 204.368C432.014 203.84 431.798 203.152 431.798 202.304C431.798 201.632 431.998 201.016 432.398 200.456C432.798 199.896 433.366 199.456 434.102 199.136C434.838 198.8 435.678 198.632 436.622 198.632C438.078 198.632 439.254 199 440.15 199.736C441.046 200.472 441.526 201.48 441.59 202.76H439.406C439.358 202.072 439.078 201.52 438.566 201.104C438.07 200.688 437.398 200.48 436.55 200.48C435.766 200.48 435.142 200.648 434.678 200.984C434.214 201.32 433.982 201.76 433.982 202.304C433.982 202.736 434.118 203.096 434.39 203.384C434.678 203.656 435.03 203.88 435.446 204.056C435.878 204.216 436.47 204.4 437.222 204.608C438.166 204.864 438.934 205.12 439.526 205.376C440.118 205.616 440.622 205.984 441.038 206.48C441.47 206.976 441.694 207.624 441.71 208.424C441.71 209.144 441.51 209.792 441.11 210.368C440.71 210.944 440.142 211.4 439.406 211.736C438.686 212.056 437.854 212.216 436.91 212.216ZM447.457 200.648V208.4C447.457 209.04 447.593 209.496 447.865 209.768C448.137 210.024 448.609 210.152 449.281 210.152H450.889V212H448.921C447.705 212 446.793 211.72 446.185 211.16C445.577 210.6 445.273 209.68 445.273 208.4V200.648H443.569V198.848H445.273V195.536H447.457V198.848H450.889V200.648H447.457ZM465.536 204.92C465.536 205.336 465.512 205.776 465.464 206.24H454.952C455.032 207.536 455.472 208.552 456.272 209.288C457.088 210.008 458.072 210.368 459.224 210.368C460.168 210.368 460.952 210.152 461.576 209.72C462.216 209.272 462.664 208.68 462.92 207.944H465.272C464.92 209.208 464.216 210.24 463.16 211.04C462.104 211.824 460.792 212.216 459.224 212.216C457.976 212.216 456.856 211.936 455.864 211.376C454.888 210.816 454.12 210.024 453.56 209C453 207.96 452.72 206.76 452.72 205.4C452.72 204.04 452.992 202.848 453.536 201.824C454.08 200.8 454.84 200.016 455.816 199.472C456.808 198.912 457.944 198.632 459.224 198.632C460.472 198.632 461.576 198.904 462.536 199.448C463.496 199.992 464.232 200.744 464.744 201.704C465.272 202.648 465.536 203.72 465.536 204.92ZM463.28 204.464C463.28 203.632 463.096 202.92 462.728 202.328C462.36 201.72 461.856 201.264 461.216 200.96C460.592 200.64 459.896 200.48 459.128 200.48C458.024 200.48 457.08 200.832 456.296 201.536C455.528 202.24 455.088 203.216 454.976 204.464H463.28ZM474.826 198.608C476.426 198.608 477.722 199.096 478.714 200.072C479.706 201.032 480.202 202.424 480.202 204.248V212H478.042V204.56C478.042 203.248 477.714 202.248 477.058 201.56C476.402 200.856 475.506 200.504 474.37 200.504C473.218 200.504 472.298 200.864 471.61 201.584C470.938 202.304 470.602 203.352 470.602 204.728V212H468.418V198.848H470.602V200.72C471.034 200.048 471.618 199.528 472.354 199.16C473.106 198.792 473.93 198.608 474.826 198.608ZM486.434 200.648V208.4C486.434 209.04 486.57 209.496 486.842 209.768C487.114 210.024 487.586 210.152 488.258 210.152H489.866V212H487.898C486.682 212 485.77 211.72 485.162 211.16C484.554 210.6 484.25 209.68 484.25 208.4V200.648H482.546V198.848H484.25V195.536H486.434V198.848H489.866V200.648H486.434ZM498.095 205.376C498.095 204.032 498.367 202.856 498.911 201.848C499.455 200.824 500.199 200.032 501.143 199.472C502.103 198.912 503.167 198.632 504.335 198.632C505.487 198.632 506.487 198.88 507.335 199.376C508.183 199.872 508.815 200.496 509.231 201.248V198.848H511.439V212H509.231V209.552C508.799 210.32 508.151 210.96 507.287 211.472C506.439 211.968 505.447 212.216 504.311 212.216C503.143 212.216 502.087 211.928 501.143 211.352C500.199 210.776 499.455 209.968 498.911 208.928C498.367 207.888 498.095 206.704 498.095 205.376ZM509.231 205.4C509.231 204.408 509.031 203.544 508.631 202.808C508.231 202.072 507.687 201.512 506.999 201.128C506.327 200.728 505.583 200.528 504.767 200.528C503.951 200.528 503.207 200.72 502.535 201.104C501.863 201.488 501.327 202.048 500.927 202.784C500.527 203.52 500.327 204.384 500.327 205.376C500.327 206.384 500.527 207.264 500.927 208.016C501.327 208.752 501.863 209.32 502.535 209.72C503.207 210.104 503.951 210.296 504.767 210.296C505.583 210.296 506.327 210.104 506.999 209.72C507.687 209.32 508.231 208.752 508.631 208.016C509.031 207.264 509.231 206.392 509.231 205.4ZM521.537 198.608C523.137 198.608 524.433 199.096 525.425 200.072C526.417 201.032 526.913 202.424 526.913 204.248V212H524.753V204.56C524.753 203.248 524.425 202.248 523.769 201.56C523.113 200.856 522.217 200.504 521.081 200.504C519.929 200.504 519.009 200.864 518.321 201.584C517.649 202.304 517.313 203.352 517.313 204.728V212H515.129V198.848H517.313V200.72C517.745 200.048 518.329 199.528 519.065 199.16C519.817 198.792 520.641 198.608 521.537 198.608ZM529.665 205.376C529.665 204.032 529.937 202.856 530.481 201.848C531.025 200.824 531.769 200.032 532.713 199.472C533.673 198.912 534.745 198.632 535.929 198.632C536.953 198.632 537.905 198.872 538.785 199.352C539.665 199.816 540.337 200.432 540.801 201.2V194.24H543.009V212H540.801V209.528C540.369 210.312 539.729 210.96 538.881 211.472C538.033 211.968 537.041 212.216 535.905 212.216C534.737 212.216 533.673 211.928 532.713 211.352C531.769 210.776 531.025 209.968 530.481 208.928C529.937 207.888 529.665 206.704 529.665 205.376ZM540.801 205.4C540.801 204.408 540.601 203.544 540.201 202.808C539.801 202.072 539.257 201.512 538.569 201.128C537.897 200.728 537.153 200.528 536.337 200.528C535.521 200.528 534.777 200.72 534.105 201.104C533.433 201.488 532.897 202.048 532.497 202.784C532.097 203.52 531.897 204.384 531.897 205.376C531.897 206.384 532.097 207.264 532.497 208.016C532.897 208.752 533.433 209.32 534.105 209.72C534.777 210.104 535.521 210.296 536.337 210.296C537.153 210.296 537.897 210.104 538.569 209.72C539.257 209.32 539.801 208.752 540.201 208.016C540.601 207.264 540.801 206.392 540.801 205.4ZM4.512 232.648V240.4C4.512 241.04 4.648 241.496 4.92 241.768C5.192 242.024 5.664 242.152 6.336 242.152H7.944V244H5.976C4.76 244 3.848 243.72 3.24 243.16C2.632 242.6 2.328 241.68 2.328 240.4V232.648H0.624V230.848H2.328V227.536H4.512V230.848H7.944V232.648H4.512ZM17.1182 230.608C18.1102 230.608 19.0062 230.824 19.8062 231.256C20.6062 231.672 21.2302 232.304 21.6782 233.152C22.1422 234 22.3742 235.032 22.3742 236.248V244H20.2142V236.56C20.2142 235.248 19.8862 234.248 19.2302 233.56C18.5742 232.856 17.6782 232.504 16.5422 232.504C15.3902 232.504 14.4702 232.864 13.7822 233.584C13.1102 234.304 12.7742 235.352 12.7742 236.728V244H10.5902V226.24H12.7742V232.72C13.2062 232.048 13.7982 231.528 14.5502 231.16C15.3182 230.792 16.1742 230.608 17.1182 230.608ZM37.9418 236.92C37.9418 237.336 37.9178 237.776 37.8698 238.24H27.3578C27.4378 239.536 27.8778 240.552 28.6778 241.288C29.4938 242.008 30.4778 242.368 31.6298 242.368C32.5738 242.368 33.3578 242.152 33.9818 241.72C34.6218 241.272 35.0698 240.68 35.3258 239.944H37.6778C37.3258 241.208 36.6218 242.24 35.5658 243.04C34.5098 243.824 33.1978 244.216 31.6298 244.216C30.3818 244.216 29.2618 243.936 28.2698 243.376C27.2938 242.816 26.5258 242.024 25.9658 241C25.4058 239.96 25.1258 238.76 25.1258 237.4C25.1258 236.04 25.3978 234.848 25.9418 233.824C26.4858 232.8 27.2458 232.016 28.2218 231.472C29.2138 230.912 30.3498 230.632 31.6298 230.632C32.8778 230.632 33.9818 230.904 34.9418 231.448C35.9018 231.992 36.6378 232.744 37.1498 233.704C37.6778 234.648 37.9418 235.72 37.9418 236.92ZM35.6858 236.464C35.6858 235.632 35.5018 234.92 35.1338 234.328C34.7658 233.72 34.2618 233.264 33.6218 232.96C32.9978 232.64 32.3018 232.48 31.5338 232.48C30.4298 232.48 29.4858 232.832 28.7018 233.536C27.9338 234.24 27.4938 235.216 27.3818 236.464H35.6858ZM49.407 232.984C49.791 232.232 50.335 231.648 51.039 231.232C51.759 230.816 52.631 230.608 53.655 230.608V232.864H53.079C50.631 232.864 49.407 234.192 49.407 236.848V244H47.223V230.848H49.407V232.984ZM68.1761 236.92C68.1761 237.336 68.1521 237.776 68.1041 238.24H57.5921C57.6721 239.536 58.1121 240.552 58.9121 241.288C59.7281 242.008 60.7121 242.368 61.8641 242.368C62.8081 242.368 63.5921 242.152 64.2161 241.72C64.8561 241.272 65.3041 240.68 65.5601 239.944H67.9121C67.5601 241.208 66.8561 242.24 65.8001 243.04C64.7441 243.824 63.4321 244.216 61.8641 244.216C60.6161 244.216 59.4961 243.936 58.5041 243.376C57.5281 242.816 56.7601 242.024 56.2001 241C55.6401 239.96 55.3601 238.76 55.3601 237.4C55.3601 236.04 55.6321 234.848 56.1761 233.824C56.7201 232.8 57.4801 232.016 58.4561 231.472C59.4481 230.912 60.5841 230.632 61.8641 230.632C63.1121 230.632 64.2161 230.904 65.1761 231.448C66.1361 231.992 66.8721 232.744 67.3841 233.704C67.9121 234.648 68.1761 235.72 68.1761 236.92ZM65.9201 236.464C65.9201 235.632 65.7361 234.92 65.3681 234.328C65.0001 233.72 64.4961 233.264 63.8561 232.96C63.2321 232.64 62.5361 232.48 61.7681 232.48C60.6641 232.48 59.7201 232.832 58.9361 233.536C58.1681 234.24 57.7281 235.216 57.6161 236.464H65.9201ZM88.5789 230.848L84.4749 244H82.2189L79.0509 233.56L75.8829 244H73.6269L69.4989 230.848H71.7309L74.7549 241.888L78.0189 230.848H80.2509L83.4429 241.912L86.4189 230.848H88.5789ZM89.9304 237.376C89.9304 236.032 90.2024 234.856 90.7464 233.848C91.2904 232.824 92.0344 232.032 92.9784 231.472C93.9384 230.912 95.0024 230.632 96.1704 230.632C97.3224 230.632 98.3224 230.88 99.1704 231.376C100.018 231.872 100.65 232.496 101.066 233.248V230.848H103.274V244H101.066V241.552C100.634 242.32 99.9864 242.96 99.1224 243.472C98.2744 243.968 97.2824 244.216 96.1464 244.216C94.9784 244.216 93.9224 243.928 92.9784 243.352C92.0344 242.776 91.2904 241.968 90.7464 240.928C90.2024 239.888 89.9304 238.704 89.9304 237.376ZM101.066 237.4C101.066 236.408 100.866 235.544 100.466 234.808C100.066 234.072 99.5224 233.512 98.8344 233.128C98.1624 232.728 97.4184 232.528 96.6024 232.528C95.7864 232.528 95.0424 232.72 94.3704 233.104C93.6984 233.488 93.1624 234.048 92.7624 234.784C92.3624 235.52 92.1624 236.384 92.1624 237.376C92.1624 238.384 92.3624 239.264 92.7624 240.016C93.1624 240.752 93.6984 241.32 94.3704 241.72C95.0424 242.104 95.7864 242.296 96.6024 242.296C97.4184 242.296 98.1624 242.104 98.8344 241.72C99.5224 241.32 100.066 240.752 100.466 240.016C100.866 239.264 101.066 238.392 101.066 237.4ZM109.149 232.984C109.533 232.232 110.077 231.648 110.781 231.232C111.501 230.816 112.373 230.608 113.397 230.608V232.864H112.821C110.373 232.864 109.149 234.192 109.149 236.848V244H106.965V230.848H109.149V232.984ZM115.102 237.376C115.102 236.032 115.374 234.856 115.918 233.848C116.462 232.824 117.206 232.032 118.15 231.472C119.11 230.912 120.182 230.632 121.366 230.632C122.39 230.632 123.342 230.872 124.222 231.352C125.102 231.816 125.774 232.432 126.238 233.2V226.24H128.446V244H126.238V241.528C125.806 242.312 125.166 242.96 124.318 243.472C123.47 243.968 122.478 244.216 121.342 244.216C120.174 244.216 119.11 243.928 118.15 243.352C117.206 242.776 116.462 241.968 115.918 240.928C115.374 239.888 115.102 238.704 115.102 237.376ZM126.238 237.4C126.238 236.408 126.038 235.544 125.638 234.808C125.238 234.072 124.694 233.512 124.006 233.128C123.334 232.728 122.59 232.528 121.774 232.528C120.958 232.528 120.214 232.72 119.542 233.104C118.87 233.488 118.334 234.048 117.934 234.784C117.534 235.52 117.334 236.384 117.334 237.376C117.334 238.384 117.534 239.264 117.934 240.016C118.334 240.752 118.87 241.32 119.542 241.72C120.214 242.104 120.958 242.296 121.774 242.296C122.59 242.296 123.334 242.104 124.006 241.72C124.694 241.32 125.238 240.752 125.638 240.016C126.038 239.264 126.238 238.392 126.238 237.4ZM136.793 244.216C135.785 244.216 134.881 244.048 134.081 243.712C133.281 243.36 132.649 242.88 132.185 242.272C131.721 241.648 131.465 240.936 131.417 240.136H133.673C133.737 240.792 134.041 241.328 134.585 241.744C135.145 242.16 135.873 242.368 136.769 242.368C137.601 242.368 138.257 242.184 138.737 241.816C139.217 241.448 139.457 240.984 139.457 240.424C139.457 239.848 139.201 239.424 138.689 239.152C138.177 238.864 137.385 238.584 136.313 238.312C135.337 238.056 134.537 237.8 133.913 237.544C133.305 237.272 132.777 236.88 132.329 236.368C131.897 235.84 131.681 235.152 131.681 234.304C131.681 233.632 131.881 233.016 132.281 232.456C132.681 231.896 133.249 231.456 133.985 231.136C134.721 230.8 135.561 230.632 136.505 230.632C137.961 230.632 139.137 231 140.033 231.736C140.929 232.472 141.409 233.48 141.473 234.76H139.289C139.241 234.072 138.961 233.52 138.449 233.104C137.953 232.688 137.281 232.48 136.433 232.48C135.649 232.48 135.025 232.648 134.561 232.984C134.097 233.32 133.865 233.76 133.865 234.304C133.865 234.736 134.001 235.096 134.273 235.384C134.561 235.656 134.913 235.88 135.329 236.056C135.761 236.216 136.353 236.4 137.105 236.608C138.049 236.864 138.817 237.12 139.409 237.376C140.001 237.616 140.505 237.984 140.921 238.48C141.353 238.976 141.577 239.624 141.593 240.424C141.593 241.144 141.393 241.792 140.993 242.368C140.593 242.944 140.025 243.4 139.289 243.736C138.569 244.056 137.737 244.216 136.793 244.216ZM150.259 237.376C150.259 236.032 150.531 234.856 151.075 233.848C151.619 232.824 152.363 232.032 153.307 231.472C154.267 230.912 155.331 230.632 156.499 230.632C157.651 230.632 158.651 230.88 159.499 231.376C160.347 231.872 160.979 232.496 161.395 233.248V230.848H163.603V244H161.395V241.552C160.963 242.32 160.315 242.96 159.451 243.472C158.603 243.968 157.611 244.216 156.475 244.216C155.307 244.216 154.251 243.928 153.307 243.352C152.363 242.776 151.619 241.968 151.075 240.928C150.531 239.888 150.259 238.704 150.259 237.376ZM161.395 237.4C161.395 236.408 161.195 235.544 160.795 234.808C160.395 234.072 159.851 233.512 159.163 233.128C158.491 232.728 157.747 232.528 156.931 232.528C156.115 232.528 155.371 232.72 154.699 233.104C154.027 233.488 153.491 234.048 153.091 234.784C152.691 235.52 152.491 236.384 152.491 237.376C152.491 238.384 152.691 239.264 153.091 240.016C153.491 240.752 154.027 241.32 154.699 241.72C155.371 242.104 156.115 242.296 156.931 242.296C157.747 242.296 158.491 242.104 159.163 241.72C159.851 241.32 160.395 240.752 160.795 240.016C161.195 239.264 161.395 238.392 161.395 237.4ZM169.477 232.984C169.861 232.232 170.405 231.648 171.109 231.232C171.829 230.816 172.701 230.608 173.725 230.608V232.864H173.149C170.701 232.864 169.477 234.192 169.477 236.848V244H167.293V230.848H169.477V232.984ZM188.246 236.92C188.246 237.336 188.222 237.776 188.174 238.24H177.662C177.742 239.536 178.182 240.552 178.982 241.288C179.798 242.008 180.782 242.368 181.934 242.368C182.878 242.368 183.662 242.152 184.286 241.72C184.926 241.272 185.374 240.68 185.63 239.944H187.982C187.63 241.208 186.926 242.24 185.87 243.04C184.814 243.824 183.502 244.216 181.934 244.216C180.686 244.216 179.566 243.936 178.574 243.376C177.598 242.816 176.83 242.024 176.27 241C175.71 239.96 175.43 238.76 175.43 237.4C175.43 236.04 175.702 234.848 176.246 233.824C176.79 232.8 177.55 232.016 178.526 231.472C179.518 230.912 180.654 230.632 181.934 230.632C183.182 230.632 184.286 230.904 185.246 231.448C186.206 231.992 186.942 232.744 187.454 233.704C187.982 234.648 188.246 235.72 188.246 236.92ZM185.99 236.464C185.99 235.632 185.806 234.92 185.438 234.328C185.07 233.72 184.566 233.264 183.926 232.96C183.302 232.64 182.606 232.48 181.838 232.48C180.734 232.48 179.79 232.832 179.006 233.536C178.238 234.24 177.798 235.216 177.686 236.464H185.99ZM209.528 236.92C209.528 237.336 209.504 237.776 209.456 238.24H198.944C199.024 239.536 199.464 240.552 200.264 241.288C201.08 242.008 202.064 242.368 203.216 242.368C204.16 242.368 204.944 242.152 205.568 241.72C206.208 241.272 206.656 240.68 206.912 239.944H209.264C208.912 241.208 208.208 242.24 207.152 243.04C206.096 243.824 204.784 244.216 203.216 244.216C201.968 244.216 200.848 243.936 199.856 243.376C198.88 242.816 198.112 242.024 197.552 241C196.992 239.96 196.712 238.76 196.712 237.4C196.712 236.04 196.984 234.848 197.528 233.824C198.072 232.8 198.832 232.016 199.808 231.472C200.8 230.912 201.936 230.632 203.216 230.632C204.464 230.632 205.568 230.904 206.528 231.448C207.488 231.992 208.224 232.744 208.736 233.704C209.264 234.648 209.528 235.72 209.528 236.92ZM207.272 236.464C207.272 235.632 207.088 234.92 206.72 234.328C206.352 233.72 205.848 233.264 205.208 232.96C204.584 232.64 203.888 232.48 203.12 232.48C202.016 232.48 201.072 232.832 200.288 233.536C199.52 234.24 199.08 235.216 198.968 236.464H207.272ZM217.307 241.984L221.387 230.848H223.715L218.555 244H216.011L210.851 230.848H213.203L217.307 241.984ZM237.864 236.92C237.864 237.336 237.84 237.776 237.792 238.24H227.28C227.36 239.536 227.8 240.552 228.6 241.288C229.416 242.008 230.4 242.368 231.552 242.368C232.496 242.368 233.28 242.152 233.904 241.72C234.544 241.272 234.992 240.68 235.248 239.944H237.6C237.248 241.208 236.544 242.24 235.488 243.04C234.432 243.824 233.12 244.216 231.552 244.216C230.304 244.216 229.184 243.936 228.192 243.376C227.216 242.816 226.448 242.024 225.888 241C225.328 239.96 225.048 238.76 225.048 237.4C225.048 236.04 225.32 234.848 225.864 233.824C226.408 232.8 227.168 232.016 228.144 231.472C229.136 230.912 230.272 230.632 231.552 230.632C232.8 230.632 233.904 230.904 234.864 231.448C235.824 231.992 236.56 232.744 237.072 233.704C237.6 234.648 237.864 235.72 237.864 236.92ZM235.608 236.464C235.608 235.632 235.424 234.92 235.056 234.328C234.688 233.72 234.184 233.264 233.544 232.96C232.92 232.64 232.224 232.48 231.456 232.48C230.352 232.48 229.408 232.832 228.624 233.536C227.856 234.24 227.416 235.216 227.304 236.464H235.608ZM242.93 232.984C243.314 232.232 243.858 231.648 244.562 231.232C245.282 230.816 246.154 230.608 247.178 230.608V232.864H246.602C244.154 232.864 242.93 234.192 242.93 236.848V244H240.746V230.848H242.93V232.984ZM258.82 234.28V236.128H249.244V234.28H258.82ZM264.046 228.712C263.63 228.712 263.278 228.568 262.99 228.28C262.702 227.992 262.558 227.64 262.558 227.224C262.558 226.808 262.702 226.456 262.99 226.168C263.278 225.88 263.63 225.736 264.046 225.736C264.446 225.736 264.782 225.88 265.054 226.168C265.342 226.456 265.486 226.808 265.486 227.224C265.486 227.64 265.342 227.992 265.054 228.28C264.782 228.568 264.446 228.712 264.046 228.712ZM265.102 230.848V244H262.918V230.848H265.102ZM275.233 230.608C276.833 230.608 278.129 231.096 279.121 232.072C280.113 233.032 280.609 234.424 280.609 236.248V244H278.449V236.56C278.449 235.248 278.121 234.248 277.465 233.56C276.809 232.856 275.913 232.504 274.777 232.504C273.625 232.504 272.705 232.864 272.017 233.584C271.345 234.304 271.009 235.352 271.009 236.728V244H268.825V230.848H271.009V232.72C271.441 232.048 272.025 231.528 272.761 231.16C273.513 230.792 274.337 230.608 275.233 230.608ZM283.36 237.4C283.36 236.04 283.632 234.856 284.176 233.848C284.72 232.824 285.472 232.032 286.432 231.472C287.408 230.912 288.52 230.632 289.768 230.632C291.384 230.632 292.712 231.024 293.752 231.808C294.808 232.592 295.504 233.68 295.84 235.072H293.488C293.264 234.272 292.824 233.64 292.168 233.176C291.528 232.712 290.728 232.48 289.768 232.48C288.52 232.48 287.512 232.912 286.744 233.776C285.976 234.624 285.592 235.832 285.592 237.4C285.592 238.984 285.976 240.208 286.744 241.072C287.512 241.936 288.52 242.368 289.768 242.368C290.728 242.368 291.528 242.144 292.168 241.696C292.808 241.248 293.248 240.608 293.488 239.776H295.84C295.488 241.12 294.784 242.2 293.728 243.016C292.672 243.816 291.352 244.216 289.768 244.216C288.52 244.216 287.408 243.936 286.432 243.376C285.472 242.816 284.72 242.024 284.176 241C283.632 239.976 283.36 238.776 283.36 237.4ZM300.938 232.984C301.322 232.232 301.866 231.648 302.57 231.232C303.29 230.816 304.162 230.608 305.186 230.608V232.864H304.61C302.162 232.864 300.938 234.192 300.938 236.848V244H298.754V230.848H300.938V232.984ZM319.707 236.92C319.707 237.336 319.683 237.776 319.635 238.24H309.123C309.203 239.536 309.643 240.552 310.443 241.288C311.259 242.008 312.243 242.368 313.395 242.368C314.339 242.368 315.123 242.152 315.747 241.72C316.387 241.272 316.835 240.68 317.091 239.944H319.443C319.091 241.208 318.387 242.24 317.331 243.04C316.275 243.824 314.963 244.216 313.395 244.216C312.147 244.216 311.027 243.936 310.035 243.376C309.059 242.816 308.291 242.024 307.731 241C307.171 239.96 306.891 238.76 306.891 237.4C306.891 236.04 307.163 234.848 307.707 233.824C308.251 232.8 309.011 232.016 309.987 231.472C310.979 230.912 312.115 230.632 313.395 230.632C314.643 230.632 315.747 230.904 316.707 231.448C317.667 231.992 318.403 232.744 318.915 233.704C319.443 234.648 319.707 235.72 319.707 236.92ZM317.451 236.464C317.451 235.632 317.267 234.92 316.899 234.328C316.531 233.72 316.027 233.264 315.387 232.96C314.763 232.64 314.067 232.48 313.299 232.48C312.195 232.48 311.251 232.832 310.467 233.536C309.699 234.24 309.259 235.216 309.147 236.464H317.451ZM321.774 237.376C321.774 236.032 322.046 234.856 322.59 233.848C323.134 232.824 323.878 232.032 324.822 231.472C325.782 230.912 326.846 230.632 328.014 230.632C329.166 230.632 330.166 230.88 331.014 231.376C331.862 231.872 332.494 232.496 332.91 233.248V230.848H335.118V244H332.91V241.552C332.478 242.32 331.83 242.96 330.966 243.472C330.118 243.968 329.126 244.216 327.99 244.216C326.822 244.216 325.766 243.928 324.822 243.352C323.878 242.776 323.134 241.968 322.59 240.928C322.046 239.888 321.774 238.704 321.774 237.376ZM332.91 237.4C332.91 236.408 332.71 235.544 332.31 234.808C331.91 234.072 331.366 233.512 330.678 233.128C330.006 232.728 329.262 232.528 328.446 232.528C327.63 232.528 326.886 232.72 326.214 233.104C325.542 233.488 325.006 234.048 324.606 234.784C324.206 235.52 324.006 236.384 324.006 237.376C324.006 238.384 324.206 239.264 324.606 240.016C325.006 240.752 325.542 241.32 326.214 241.72C326.886 242.104 327.63 242.296 328.446 242.296C329.262 242.296 330.006 242.104 330.678 241.72C331.366 241.32 331.91 240.752 332.31 240.016C332.71 239.264 332.91 238.392 332.91 237.4ZM343.465 244.216C342.457 244.216 341.553 244.048 340.753 243.712C339.953 243.36 339.321 242.88 338.857 242.272C338.393 241.648 338.137 240.936 338.089 240.136H340.345C340.409 240.792 340.713 241.328 341.257 241.744C341.817 242.16 342.545 242.368 343.441 242.368C344.273 242.368 344.929 242.184 345.409 241.816C345.889 241.448 346.129 240.984 346.129 240.424C346.129 239.848 345.873 239.424 345.361 239.152C344.849 238.864 344.057 238.584 342.985 238.312C342.009 238.056 341.209 237.8 340.585 237.544C339.977 237.272 339.449 236.88 339.001 236.368C338.569 235.84 338.353 235.152 338.353 234.304C338.353 233.632 338.553 233.016 338.953 232.456C339.353 231.896 339.921 231.456 340.657 231.136C341.393 230.8 342.233 230.632 343.177 230.632C344.633 230.632 345.809 231 346.705 231.736C347.601 232.472 348.081 233.48 348.145 234.76H345.961C345.913 234.072 345.633 233.52 345.121 233.104C344.625 232.688 343.953 232.48 343.105 232.48C342.321 232.48 341.697 232.648 341.233 232.984C340.769 233.32 340.537 233.76 340.537 234.304C340.537 234.736 340.673 235.096 340.945 235.384C341.233 235.656 341.585 235.88 342.001 236.056C342.433 236.216 343.025 236.4 343.777 236.608C344.721 236.864 345.489 237.12 346.081 237.376C346.673 237.616 347.177 237.984 347.593 238.48C348.025 238.976 348.249 239.624 348.265 240.424C348.265 241.144 348.065 241.792 347.665 242.368C347.265 242.944 346.697 243.4 345.961 243.736C345.241 244.056 344.409 244.216 343.465 244.216ZM352.476 228.712C352.06 228.712 351.708 228.568 351.42 228.28C351.132 227.992 350.988 227.64 350.988 227.224C350.988 226.808 351.132 226.456 351.42 226.168C351.708 225.88 352.06 225.736 352.476 225.736C352.876 225.736 353.212 225.88 353.484 226.168C353.772 226.456 353.916 226.808 353.916 227.224C353.916 227.64 353.772 227.992 353.484 228.28C353.212 228.568 352.876 228.712 352.476 228.712ZM353.532 230.848V244H351.348V230.848H353.532ZM363.662 230.608C365.262 230.608 366.558 231.096 367.55 232.072C368.542 233.032 369.038 234.424 369.038 236.248V244H366.878V236.56C366.878 235.248 366.55 234.248 365.894 233.56C365.238 232.856 364.342 232.504 363.206 232.504C362.054 232.504 361.134 232.864 360.446 233.584C359.774 234.304 359.438 235.352 359.438 236.728V244H357.254V230.848H359.438V232.72C359.87 232.048 360.454 231.528 361.19 231.16C361.942 230.792 362.766 230.608 363.662 230.608ZM378.03 230.632C379.166 230.632 380.158 230.88 381.006 231.376C381.87 231.872 382.51 232.496 382.926 233.248V230.848H385.134V244.288C385.134 245.488 384.878 246.552 384.366 247.48C383.854 248.424 383.118 249.16 382.158 249.688C381.214 250.216 380.11 250.48 378.846 250.48C377.118 250.48 375.678 250.072 374.526 249.256C373.374 248.44 372.694 247.328 372.486 245.92H374.646C374.886 246.72 375.382 247.36 376.134 247.84C376.886 248.336 377.79 248.584 378.846 248.584C380.046 248.584 381.022 248.208 381.774 247.456C382.542 246.704 382.926 245.648 382.926 244.288V241.528C382.494 242.296 381.854 242.936 381.006 243.448C380.158 243.96 379.166 244.216 378.03 244.216C376.862 244.216 375.798 243.928 374.838 243.352C373.894 242.776 373.15 241.968 372.606 240.928C372.062 239.888 371.79 238.704 371.79 237.376C371.79 236.032 372.062 234.856 372.606 233.848C373.15 232.824 373.894 232.032 374.838 231.472C375.798 230.912 376.862 230.632 378.03 230.632ZM382.926 237.4C382.926 236.408 382.726 235.544 382.326 234.808C381.926 234.072 381.382 233.512 380.694 233.128C380.022 232.728 379.278 232.528 378.462 232.528C377.646 232.528 376.902 232.72 376.23 233.104C375.558 233.488 375.022 234.048 374.622 234.784C374.222 235.52 374.022 236.384 374.022 237.376C374.022 238.384 374.222 239.264 374.622 240.016C375.022 240.752 375.558 241.32 376.23 241.72C376.902 242.104 377.646 242.296 378.462 242.296C379.278 242.296 380.022 242.104 380.694 241.72C381.382 241.32 381.926 240.752 382.326 240.016C382.726 239.264 382.926 238.392 382.926 237.4ZM389.521 244.144C389.105 244.144 388.753 244 388.465 243.712C388.177 243.424 388.033 243.072 388.033 242.656C388.033 242.24 388.177 241.888 388.465 241.6C388.753 241.312 389.105 241.168 389.521 241.168C389.921 241.168 390.257 241.312 390.529 241.6C390.817 241.888 390.961 242.24 390.961 242.656C390.961 243.072 390.817 243.424 390.529 243.712C390.257 244 389.921 244.144 389.521 244.144Z" fill="#3A3A3A"/>
</svg>
