<svg width="240" height="62" viewBox="0 0 240 62" fill="none" xmlns="http://www.w3.org/2000/svg">
<path d="M0 8C0 3.58172 3.58172 0 8 0H232C236.418 0 240 3.58172 240 8V54C240 58.4183 236.418 62 232 62H8.00001C3.58173 62 0 58.4183 0 54V8Z" fill="#1C5B52"/>
<path d="M33.9372 23.86L37.3972 34.5L40.8572 23.86H44.5172L39.5972 38H35.1772L30.2772 23.86H33.9372ZM45.5084 23.7C45.5084 23.18 45.6951 22.7533 46.0684 22.42C46.4418 22.0733 46.9351 21.9 47.5484 21.9C48.1618 21.9 48.6551 22.0733 49.0284 22.42C49.4018 22.7533 49.5884 23.18 49.5884 23.7C49.5884 24.2067 49.4018 24.6333 49.0284 24.98C48.6551 25.3133 48.1618 25.48 47.5484 25.48C46.9351 25.48 46.4418 25.3133 46.0684 24.98C45.6951 24.6333 45.5084 24.2067 45.5084 23.7ZM49.2484 26.84V38H45.8284V26.84H49.2484ZM62.2097 32.12C62.2097 32.4 62.1764 32.7067 62.1097 33.04H54.3697C54.4097 33.88 54.623 34.4867 55.0097 34.86C55.3964 35.22 55.8897 35.4 56.4897 35.4C56.9964 35.4 57.4164 35.2733 57.7497 35.02C58.083 34.7667 58.303 34.44 58.4097 34.04H62.0297C61.883 34.8267 61.563 35.5333 61.0697 36.16C60.5764 36.7733 59.9497 37.26 59.1897 37.62C58.4297 37.9667 57.583 38.14 56.6497 38.14C55.5564 38.14 54.583 37.9133 53.7297 37.46C52.8897 36.9933 52.2297 36.3267 51.7497 35.46C51.2697 34.5933 51.0297 33.58 51.0297 32.42C51.0297 31.2467 51.263 30.2333 51.7297 29.38C52.2097 28.5133 52.8764 27.8533 53.7297 27.4C54.583 26.9333 55.5564 26.7 56.6497 26.7C57.7564 26.7 58.7297 26.9267 59.5697 27.38C60.4097 27.8333 61.0564 28.4733 61.5097 29.3C61.9764 30.1133 62.2097 31.0533 62.2097 32.12ZM58.7497 31.6C58.763 30.8667 58.563 30.32 58.1497 29.96C57.7497 29.5867 57.2497 29.4 56.6497 29.4C56.023 29.4 55.503 29.5867 55.0897 29.96C54.6764 30.3333 54.443 30.88 54.3897 31.6H58.7497ZM80.3125 26.84L77.4525 38H73.6325L71.6125 30.52L69.5725 38H65.7525L62.8925 26.84H66.3125L67.7925 34.88L69.8725 26.84H73.5125L75.6525 34.9L77.1325 26.84H80.3125ZM104.775 23.86L101.395 38H97.155L94.895 28.54L92.615 38H88.375L84.995 23.86H88.715L90.535 34.1L93.015 23.86H96.755L99.235 34.1L101.075 23.86H104.775ZM113.651 26.72C114.931 26.72 115.944 27.1467 116.691 28C117.451 28.8533 117.831 30.0267 117.831 31.52V38H114.411V31.92C114.411 31.1733 114.211 30.5933 113.811 30.18C113.424 29.7533 112.904 29.54 112.251 29.54C111.557 29.54 111.004 29.76 110.591 30.2C110.191 30.64 109.991 31.2667 109.991 32.08V38H106.571V23.2H109.991V28.88C110.311 28.2133 110.784 27.6867 111.411 27.3C112.051 26.9133 112.797 26.72 113.651 26.72ZM119.766 23.7C119.766 23.18 119.953 22.7533 120.326 22.42C120.7 22.0733 121.193 21.9 121.806 21.9C122.42 21.9 122.913 22.0733 123.286 22.42C123.66 22.7533 123.846 23.18 123.846 23.7C123.846 24.2067 123.66 24.6333 123.286 24.98C122.913 25.3133 122.42 25.48 121.806 25.48C121.193 25.48 120.7 25.3133 120.326 24.98C119.953 24.6333 119.766 24.2067 119.766 23.7ZM123.506 26.84V38H120.086V26.84H123.506ZM132.188 35.06V38H130.648C129.341 38 128.321 37.68 127.588 37.04C126.868 36.3867 126.508 35.3133 126.508 33.82V29.72H125.008V26.84H126.508V24.1H129.928V26.84H132.168V29.72H129.928V33.88C129.928 34.32 130.014 34.6267 130.188 34.8C130.374 34.9733 130.681 35.06 131.108 35.06H132.188ZM144.71 32.12C144.71 32.4 144.676 32.7067 144.61 33.04H136.87C136.91 33.88 137.123 34.4867 137.51 34.86C137.896 35.22 138.39 35.4 138.99 35.4C139.496 35.4 139.916 35.2733 140.25 35.02C140.583 34.7667 140.803 34.44 140.91 34.04H144.53C144.383 34.8267 144.063 35.5333 143.57 36.16C143.076 36.7733 142.45 37.26 141.69 37.62C140.93 37.9667 140.083 38.14 139.15 38.14C138.056 38.14 137.083 37.9133 136.23 37.46C135.39 36.9933 134.73 36.3267 134.25 35.46C133.77 34.5933 133.53 33.58 133.53 32.42C133.53 31.2467 133.763 30.2333 134.23 29.38C134.71 28.5133 135.376 27.8533 136.23 27.4C137.083 26.9333 138.056 26.7 139.15 26.7C140.256 26.7 141.23 26.9267 142.07 27.38C142.91 27.8333 143.556 28.4733 144.01 29.3C144.476 30.1133 144.71 31.0533 144.71 32.12ZM141.25 31.6C141.263 30.8667 141.063 30.32 140.65 29.96C140.25 29.5867 139.75 29.4 139.15 29.4C138.523 29.4 138.003 29.5867 137.59 29.96C137.176 30.3333 136.943 30.88 136.89 31.6H141.25ZM153.916 33.04V38H150.496V23.86H156.036C157.716 23.86 158.996 24.28 159.876 25.12C160.756 25.9467 161.196 27.0667 161.196 28.48C161.196 29.36 160.996 30.1467 160.596 30.84C160.21 31.52 159.63 32.06 158.856 32.46C158.083 32.8467 157.143 33.04 156.036 33.04H153.916ZM155.656 30.3C157.03 30.3 157.716 29.6933 157.716 28.48C157.716 27.24 157.03 26.62 155.656 26.62H153.916V30.3H155.656ZM167.119 26.7C167.973 26.7 168.706 26.8933 169.319 27.28C169.933 27.6667 170.386 28.1933 170.679 28.86V26.84H174.079V38H170.679V35.98C170.386 36.6467 169.933 37.1733 169.319 37.56C168.706 37.9467 167.973 38.14 167.119 38.14C166.199 38.14 165.373 37.9133 164.639 37.46C163.919 36.9933 163.346 36.3267 162.919 35.46C162.506 34.5933 162.299 33.58 162.299 32.42C162.299 31.2467 162.506 30.2333 162.919 29.38C163.346 28.5133 163.919 27.8533 164.639 27.4C165.373 26.9333 166.199 26.7 167.119 26.7ZM168.219 29.7C167.486 29.7 166.893 29.94 166.439 30.42C165.999 30.9 165.779 31.5667 165.779 32.42C165.779 33.2733 165.999 33.94 166.439 34.42C166.893 34.9 167.486 35.14 168.219 35.14C168.939 35.14 169.526 34.8933 169.979 34.4C170.446 33.9067 170.679 33.2467 170.679 32.42C170.679 31.58 170.446 30.92 169.979 30.44C169.526 29.9467 168.939 29.7 168.219 29.7ZM183.394 26.7C184.314 26.7 185.134 26.9333 185.854 27.4C186.587 27.8533 187.161 28.5133 187.574 29.38C188.001 30.2333 188.214 31.2467 188.214 32.42C188.214 33.58 188.001 34.5933 187.574 35.46C187.161 36.3267 186.587 36.9933 185.854 37.46C185.134 37.9133 184.314 38.14 183.394 38.14C182.541 38.14 181.807 37.9467 181.194 37.56C180.581 37.1733 180.134 36.6467 179.854 35.98V43.32H176.434V26.84H179.854V28.86C180.134 28.1933 180.581 27.6667 181.194 27.28C181.807 26.8933 182.541 26.7 183.394 26.7ZM182.294 29.7C181.574 29.7 180.981 29.9467 180.514 30.44C180.061 30.92 179.834 31.58 179.834 32.42C179.834 33.2467 180.061 33.9067 180.514 34.4C180.981 34.8933 181.574 35.14 182.294 35.14C183.027 35.14 183.614 34.9 184.054 34.42C184.507 33.94 184.734 33.2733 184.734 32.42C184.734 31.5667 184.507 30.9 184.054 30.42C183.614 29.94 183.027 29.7 182.294 29.7ZM200.589 32.12C200.589 32.4 200.555 32.7067 200.489 33.04H192.749C192.789 33.88 193.002 34.4867 193.389 34.86C193.775 35.22 194.269 35.4 194.869 35.4C195.375 35.4 195.795 35.2733 196.129 35.02C196.462 34.7667 196.682 34.44 196.789 34.04H200.409C200.262 34.8267 199.942 35.5333 199.449 36.16C198.955 36.7733 198.329 37.26 197.569 37.62C196.809 37.9667 195.962 38.14 195.029 38.14C193.935 38.14 192.962 37.9133 192.109 37.46C191.269 36.9933 190.609 36.3267 190.129 35.46C189.649 34.5933 189.409 33.58 189.409 32.42C189.409 31.2467 189.642 30.2333 190.109 29.38C190.589 28.5133 191.255 27.8533 192.109 27.4C192.962 26.9333 193.935 26.7 195.029 26.7C196.135 26.7 197.109 26.9267 197.949 27.38C198.789 27.8333 199.435 28.4733 199.889 29.3C200.355 30.1133 200.589 31.0533 200.589 32.12ZM197.129 31.6C197.142 30.8667 196.942 30.32 196.529 29.96C196.129 29.5867 195.629 29.4 195.029 29.4C194.402 29.4 193.882 29.5867 193.469 29.96C193.055 30.3333 192.822 30.88 192.769 31.6H197.129ZM205.791 28.94C206.218 28.26 206.765 27.72 207.431 27.32C208.111 26.92 208.845 26.72 209.631 26.72V30.38H208.651C207.745 30.38 207.038 30.5733 206.531 30.96C206.038 31.3467 205.791 32 205.791 32.92V38H202.371V26.84H205.791V28.94Z" fill="white"/>
<path d="M8 2H232V-2H8V2ZM238 8V54H242V8H238ZM232 60H8.00001V64H232V60ZM2 54V8H-2V54H2ZM8.00001 60C4.6863 60 2 57.3137 2 54H-2C-2 59.5229 2.47716 64 8.00001 64V60ZM238 54C238 57.3137 235.314 60 232 60V64C237.523 64 242 59.5228 242 54H238ZM232 2C235.314 2 238 4.68629 238 8H242C242 2.47715 237.523 -2 232 -2V2ZM8 -2C2.47715 -2 -2 2.47715 -2 8H2C2 4.68629 4.68629 2 8 2V-2Z" fill="#1C5B52"/>
</svg>
