<svg width="486" height="119" viewBox="0 0 486 119" fill="none" xmlns="http://www.w3.org/2000/svg">
<path d="M31.65 1.7L19.7 24.65V37H12.6V24.65L0.6 1.7H8.7L16.2 17.15L23.7 1.7H31.65ZM48.2266 8.95C50.9266 8.95 53.3432 9.51666 55.4766 10.65C57.6432 11.7833 59.3432 13.4333 60.5766 15.6C61.8099 17.7333 62.4266 20.25 62.4266 23.15C62.4266 26.05 61.8099 28.5667 60.5766 30.7C59.3432 32.8333 57.6432 34.4833 55.4766 35.65C53.3432 36.7833 50.9266 37.35 48.2266 37.35C45.5266 37.35 43.0932 36.7833 40.9266 35.65C38.7932 34.4833 37.1099 32.8333 35.8766 30.7C34.6432 28.5667 34.0266 26.05 34.0266 23.15C34.0266 20.25 34.6432 17.7333 35.8766 15.6C37.1099 13.4333 38.7932 11.7833 40.9266 10.65C43.0932 9.51666 45.5266 8.95 48.2266 8.95ZM48.2266 15.05C46.2599 15.05 44.5932 15.75 43.2266 17.15C41.8599 18.5167 41.1766 20.5167 41.1766 23.15C41.1766 25.7833 41.8599 27.8 43.2266 29.2C44.5932 30.5667 46.2599 31.25 48.2266 31.25C50.1932 31.25 51.8599 30.5667 53.2266 29.2C54.5932 27.8 55.2766 25.7833 55.2766 23.15C55.2766 20.5167 54.5932 18.5167 53.2266 17.15C51.8599 15.75 50.1932 15.05 48.2266 15.05ZM93.909 9.3V37H86.859V31.4C86.1257 33.2667 84.909 34.7333 83.209 35.8C81.5423 36.8333 79.609 37.35 77.409 37.35C74.209 37.35 71.659 36.3 69.759 34.2C67.859 32.1 66.909 29.1667 66.909 25.4V9.3H73.909V24.6C73.909 26.8 74.4757 28.5167 75.609 29.75C76.7423 30.95 78.2757 31.55 80.209 31.55C82.2423 31.55 83.859 30.9 85.059 29.6C86.259 28.3 86.859 26.4333 86.859 24V9.3H93.909ZM107.369 14.6C108.402 12.8333 109.769 11.45 111.469 10.45C113.169 9.41667 115.069 8.9 117.169 8.9V16.45H115.119C109.952 16.45 107.369 18.85 107.369 23.65V37H100.319V9.3H107.369V14.6ZM142.81 8.95C145.143 8.95 147.143 9.5 148.81 10.6C150.476 11.7 151.66 13.1833 152.36 15.05V9.3H159.36V37.1C159.36 39.6667 158.843 41.9667 157.81 44C156.81 46.0667 155.293 47.6833 153.26 48.85C151.26 50.0167 148.826 50.6 145.96 50.6C141.96 50.6 138.726 49.65 136.26 47.75C133.793 45.85 132.293 43.2667 131.76 40H138.71C139.11 41.4 139.876 42.4833 141.01 43.25C142.176 44.05 143.66 44.45 145.46 44.45C147.526 44.45 149.193 43.8333 150.46 42.6C151.726 41.4 152.36 39.5667 152.36 37.1V31.2C151.66 33.0667 150.476 34.5667 148.81 35.7C147.143 36.8 145.143 37.35 142.81 37.35C140.476 37.35 138.376 36.7833 136.51 35.65C134.643 34.5167 133.176 32.8833 132.11 30.75C131.076 28.5833 130.56 26.05 130.56 23.15C130.56 20.25 131.076 17.7333 132.11 15.6C133.176 13.4333 134.643 11.7833 136.51 10.65C138.376 9.51666 140.476 8.95 142.81 8.95ZM145.01 15.1C142.81 15.1 141.043 15.8167 139.71 17.25C138.376 18.6833 137.71 20.65 137.71 23.15C137.71 25.65 138.376 27.6167 139.71 29.05C141.043 30.45 142.81 31.15 145.01 31.15C147.143 31.15 148.893 30.4333 150.26 29C151.66 27.5333 152.36 25.5833 152.36 23.15C152.36 20.6833 151.66 18.7333 150.26 17.3C148.893 15.8333 147.143 15.1 145.01 15.1ZM176.599 8.95C178.932 8.95 180.932 9.5 182.599 10.6C184.265 11.7 185.449 13.1833 186.149 15.05V9.3H193.149V37H186.149V31.2C185.449 33.0667 184.265 34.5667 182.599 35.7C180.932 36.8 178.932 37.35 176.599 37.35C174.265 37.35 172.165 36.7833 170.299 35.65C168.432 34.5167 166.965 32.8833 165.899 30.75C164.865 28.5833 164.349 26.05 164.349 23.15C164.349 20.25 164.865 17.7333 165.899 15.6C166.965 13.4333 168.432 11.7833 170.299 10.65C172.165 9.51666 174.265 8.95 176.599 8.95ZM178.799 15.1C176.599 15.1 174.832 15.8167 173.499 17.25C172.165 18.6833 171.499 20.65 171.499 23.15C171.499 25.65 172.165 27.6167 173.499 29.05C174.832 30.45 176.599 31.15 178.799 31.15C180.932 31.15 182.682 30.4333 184.049 29C185.449 27.5333 186.149 25.5833 186.149 23.15C186.149 20.6833 185.449 18.7333 184.049 17.3C182.682 15.8333 180.932 15.1 178.799 15.1ZM214.338 30.95V37H210.638C207.538 37 205.155 36.25 203.488 34.75C201.855 33.25 201.038 30.75 201.038 27.25V15.25H197.188V9.3H201.038V2.45H208.088V9.3H214.288V15.25H208.088V27.35C208.088 28.6833 208.355 29.6167 208.888 30.15C209.421 30.6833 210.321 30.95 211.588 30.95H214.338ZM245.461 22.1C245.461 22.8 245.378 23.6 245.211 24.5H224.911C225.011 26.9667 225.678 28.7833 226.911 29.95C228.144 31.1167 229.678 31.7 231.511 31.7C233.144 31.7 234.494 31.3 235.561 30.5C236.661 29.7 237.361 28.6167 237.661 27.25H245.111C244.744 29.1833 243.961 30.9167 242.761 32.45C241.561 33.9833 240.011 35.1833 238.111 36.05C236.244 36.9167 234.161 37.35 231.861 37.35C229.161 37.35 226.761 36.7833 224.661 35.65C222.561 34.4833 220.928 32.8333 219.761 30.7C218.594 28.5667 218.011 26.05 218.011 23.15C218.011 20.25 218.594 17.7333 219.761 15.6C220.928 13.4333 222.561 11.7833 224.661 10.65C226.761 9.51666 229.161 8.95 231.861 8.95C234.594 8.95 236.978 9.51666 239.011 10.65C241.078 11.7833 242.661 13.35 243.761 15.35C244.894 17.3167 245.461 19.5667 245.461 22.1ZM238.361 21.4C238.461 19.1333 237.861 17.4167 236.561 16.25C235.294 15.0833 233.728 14.5 231.861 14.5C229.961 14.5 228.361 15.0833 227.061 16.25C225.761 17.4167 225.044 19.1333 224.911 21.4H238.361ZM290.116 9.3L282.666 37H274.866L268.916 16.85L262.816 37H255.016L247.616 9.3H254.666L259.166 30.7L265.316 9.3H272.766L278.966 30.7L283.516 9.3H290.116ZM304.48 8.95C306.813 8.95 308.813 9.5 310.48 10.6C312.146 11.7 313.33 13.1833 314.03 15.05V9.3H321.03V37H314.03V31.2C313.33 33.0667 312.146 34.5667 310.48 35.7C308.813 36.8 306.813 37.35 304.48 37.35C302.146 37.35 300.046 36.7833 298.18 35.65C296.313 34.5167 294.846 32.8833 293.78 30.75C292.746 28.5833 292.23 26.05 292.23 23.15C292.23 20.25 292.746 17.7333 293.78 15.6C294.846 13.4333 296.313 11.7833 298.18 10.65C300.046 9.51666 302.146 8.95 304.48 8.95ZM306.68 15.1C304.48 15.1 302.713 15.8167 301.38 17.25C300.046 18.6833 299.38 20.65 299.38 23.15C299.38 25.65 300.046 27.6167 301.38 29.05C302.713 30.45 304.48 31.15 306.68 31.15C308.813 31.15 310.563 30.4333 311.93 29C313.33 27.5333 314.03 25.5833 314.03 23.15C314.03 20.6833 313.33 18.7333 311.93 17.3C310.563 15.8333 308.813 15.1 306.68 15.1ZM332.169 9.3L339.719 28.1L346.719 9.3H354.469L337.519 50.2H329.719L335.969 36.2L324.319 9.3H332.169ZM383.479 30.95V37H379.779C376.679 37 374.295 36.25 372.629 34.75C370.995 33.25 370.179 30.75 370.179 27.25V15.25H366.329V9.3H370.179V2.45H377.229V9.3H383.429V15.25H377.229V27.35C377.229 28.6833 377.495 29.6167 378.029 30.15C378.562 30.6833 379.462 30.95 380.729 30.95H383.479ZM401.352 8.95C404.052 8.95 406.468 9.51666 408.602 10.65C410.768 11.7833 412.468 13.4333 413.702 15.6C414.935 17.7333 415.552 20.25 415.552 23.15C415.552 26.05 414.935 28.5667 413.702 30.7C412.468 32.8333 410.768 34.4833 408.602 35.65C406.468 36.7833 404.052 37.35 401.352 37.35C398.652 37.35 396.218 36.7833 394.052 35.65C391.918 34.4833 390.235 32.8333 389.002 30.7C387.768 28.5667 387.152 26.05 387.152 23.15C387.152 20.25 387.768 17.7333 389.002 15.6C390.235 13.4333 391.918 11.7833 394.052 10.65C396.218 9.51666 398.652 8.95 401.352 8.95ZM401.352 15.05C399.385 15.05 397.718 15.75 396.352 17.15C394.985 18.5167 394.302 20.5167 394.302 23.15C394.302 25.7833 394.985 27.8 396.352 29.2C397.718 30.5667 399.385 31.25 401.352 31.25C403.318 31.25 404.985 30.5667 406.352 29.2C407.718 27.8 408.402 25.7833 408.402 23.15C408.402 20.5167 407.718 18.5167 406.352 17.15C404.985 15.75 403.318 15.05 401.352 15.05ZM442.273 8.95C444.606 8.95 446.606 9.5 448.273 10.6C449.939 11.7 451.123 13.1833 451.823 15.05V9.3H458.823V37H451.823V31.2C451.123 33.0667 449.939 34.5667 448.273 35.7C446.606 36.8 444.606 37.35 442.273 37.35C439.939 37.35 437.839 36.7833 435.973 35.65C434.106 34.5167 432.639 32.8833 431.573 30.75C430.539 28.5833 430.023 26.05 430.023 23.15C430.023 20.25 430.539 17.7333 431.573 15.6C432.639 13.4333 434.106 11.7833 435.973 10.65C437.839 9.51666 439.939 8.95 442.273 8.95ZM444.473 15.1C442.273 15.1 440.506 15.8167 439.173 17.25C437.839 18.6833 437.173 20.65 437.173 23.15C437.173 25.65 437.839 27.6167 439.173 29.05C440.506 30.45 442.273 31.15 444.473 31.15C446.606 31.15 448.356 30.4333 449.723 29C451.123 27.5333 451.823 25.5833 451.823 23.15C451.823 20.6833 451.123 18.7333 449.723 17.3C448.356 15.8333 446.606 15.1 444.473 15.1ZM472.262 -4.76837e-07V37H465.212V-4.76837e-07H472.262ZM485.689 -4.76837e-07V37H478.639V-4.76837e-07H485.689ZM18 98.95V105H14.3C11.2 105 8.81667 104.25 7.15 102.75C5.51667 101.25 4.7 98.75 4.7 95.25V83.25H0.85V77.3H4.7V70.45H11.75V77.3H17.95V83.25H11.75V95.35C11.75 96.6833 12.0167 97.6167 12.55 98.15C13.0833 98.6833 13.9833 98.95 15.25 98.95H18ZM39.573 76.9C42.773 76.9 45.323 77.95 47.223 80.05C49.123 82.15 50.073 85.1 50.073 88.9V105H43.073V89.7C43.073 87.5 42.5064 85.8 41.373 84.6C40.2397 83.3667 38.6897 82.75 36.723 82.75C34.723 82.75 33.123 83.4 31.923 84.7C30.723 86 30.123 87.8667 30.123 90.3V105H23.073V68H30.123V82.85C30.8564 80.9833 32.0564 79.5333 33.723 78.5C35.423 77.4333 37.373 76.9 39.573 76.9ZM55.4762 69.35C55.4762 68.2167 55.8762 67.3 56.6762 66.6C57.4762 65.8667 58.5262 65.5 59.8262 65.5C61.1262 65.5 62.1762 65.8667 62.9762 66.6C63.7762 67.3 64.1762 68.2167 64.1762 69.35C64.1762 70.45 63.7762 71.3667 62.9762 72.1C62.1762 72.8 61.1262 73.15 59.8262 73.15C58.5262 73.15 57.4762 72.8 56.6762 72.1C55.8762 71.3667 55.4762 70.45 55.4762 69.35ZM63.3262 77.3V105H56.2762V77.3H63.3262ZM86.2039 76.9C89.4039 76.9 91.9539 77.95 93.8539 80.05C95.7539 82.15 96.7039 85.1 96.7039 88.9V105H89.7039V89.7C89.7039 87.5 89.1372 85.8 88.0039 84.6C86.8706 83.3667 85.3206 82.75 83.3539 82.75C81.3539 82.75 79.7539 83.4 78.5539 84.7C77.3539 86 76.7539 87.8667 76.7539 90.3V105H69.7039V77.3H76.7539V82.85C77.4872 80.9833 78.6872 79.5333 80.3539 78.5C82.0539 77.4333 84.0039 76.9 86.2039 76.9ZM113.757 76.95C116.09 76.95 118.09 77.5 119.757 78.6C121.424 79.7 122.607 81.1833 123.307 83.05V77.3H130.307V105.1C130.307 107.667 129.79 109.967 128.757 112C127.757 114.067 126.24 115.683 124.207 116.85C122.207 118.017 119.774 118.6 116.907 118.6C112.907 118.6 109.674 117.65 107.207 115.75C104.74 113.85 103.24 111.267 102.707 108H109.657C110.057 109.4 110.824 110.483 111.957 111.25C113.124 112.05 114.607 112.45 116.407 112.45C118.474 112.45 120.14 111.833 121.407 110.6C122.674 109.4 123.307 107.567 123.307 105.1V99.2C122.607 101.067 121.424 102.567 119.757 103.7C118.09 104.8 116.09 105.35 113.757 105.35C111.424 105.35 109.324 104.783 107.457 103.65C105.59 102.517 104.124 100.883 103.057 98.75C102.024 96.5833 101.507 94.05 101.507 91.15C101.507 88.25 102.024 85.7333 103.057 83.6C104.124 81.4333 105.59 79.7833 107.457 78.65C109.324 77.5167 111.424 76.95 113.757 76.95ZM115.957 83.1C113.757 83.1 111.99 83.8167 110.657 85.25C109.324 86.6833 108.657 88.65 108.657 91.15C108.657 93.65 109.324 95.6167 110.657 97.05C111.99 98.45 113.757 99.15 115.957 99.15C118.09 99.15 119.84 98.4333 121.207 97C122.607 95.5333 123.307 93.5833 123.307 91.15C123.307 88.6833 122.607 86.7333 121.207 85.3C119.84 83.8333 118.09 83.1 115.957 83.1ZM146.246 76.95C149.613 76.95 152.313 77.8 154.346 79.5C156.379 81.2 157.646 83.4667 158.146 86.3H151.546C151.279 84.9667 150.679 83.9 149.746 83.1C148.813 82.3 147.596 81.9 146.096 81.9C144.896 81.9 143.963 82.1833 143.296 82.75C142.629 83.3167 142.296 84.0833 142.296 85.05C142.296 85.8167 142.563 86.4333 143.096 86.9C143.629 87.3667 144.296 87.7333 145.096 88C145.896 88.2667 147.046 88.5833 148.546 88.95C150.646 89.4167 152.346 89.9167 153.646 90.45C154.979 90.95 156.113 91.7667 157.046 92.9C158.013 94 158.496 95.5 158.496 97.4C158.496 99.7667 157.563 101.683 155.696 103.15C153.863 104.617 151.379 105.35 148.246 105.35C144.646 105.35 141.763 104.55 139.596 102.95C137.429 101.317 136.113 99 135.646 96H142.396C142.563 97.3667 143.163 98.45 144.196 99.25C145.229 100.017 146.579 100.4 148.246 100.4C149.446 100.4 150.363 100.117 150.996 99.55C151.629 98.95 151.946 98.1833 151.946 97.25C151.946 96.45 151.663 95.8 151.096 95.3C150.563 94.8 149.879 94.4167 149.046 94.15C148.246 93.8833 147.096 93.5667 145.596 93.2C143.529 92.7333 141.846 92.2667 140.546 91.8C139.279 91.3 138.179 90.5167 137.246 89.45C136.346 88.3833 135.896 86.9167 135.896 85.05C135.896 82.65 136.813 80.7 138.646 79.2C140.479 77.7 143.013 76.95 146.246 76.95ZM212.686 70.1V105H205.686V80.65L196.736 105H190.636L181.686 80.75V105H174.636V70.1H183.186L193.786 96.35L204.186 70.1H212.686ZM229.919 76.95C232.252 76.95 234.252 77.5 235.919 78.6C237.586 79.7 238.769 81.1833 239.469 83.05V77.3H246.469V105H239.469V99.2C238.769 101.067 237.586 102.567 235.919 103.7C234.252 104.8 232.252 105.35 229.919 105.35C227.586 105.35 225.486 104.783 223.619 103.65C221.752 102.517 220.286 100.883 219.219 98.75C218.186 96.5833 217.669 94.05 217.669 91.15C217.669 88.25 218.186 85.7333 219.219 83.6C220.286 81.4333 221.752 79.7833 223.619 78.65C225.486 77.5167 227.586 76.95 229.919 76.95ZM232.119 83.1C229.919 83.1 228.152 83.8167 226.819 85.25C225.486 86.6833 224.819 88.65 224.819 91.15C224.819 93.65 225.486 95.6167 226.819 97.05C228.152 98.45 229.919 99.15 232.119 99.15C234.252 99.15 236.002 98.4333 237.369 97C238.769 95.5333 239.469 93.5833 239.469 91.15C239.469 88.6833 238.769 86.7333 237.369 85.3C236.002 83.8333 234.252 83.1 232.119 83.1ZM259.908 82.6C260.942 80.8333 262.308 79.45 264.008 78.45C265.708 77.4167 267.608 76.9 269.708 76.9V84.45H267.658C262.492 84.45 259.908 86.85 259.908 91.65V105H252.858V77.3H259.908V82.6ZM285.66 97.95L292.66 77.3H300.16L289.91 105H281.31L271.06 77.3H278.61L285.66 97.95ZM330.129 90.1C330.129 90.8 330.046 91.6 329.879 92.5H309.579C309.679 94.9667 310.346 96.7833 311.579 97.95C312.812 99.1167 314.346 99.7 316.179 99.7C317.812 99.7 319.162 99.3 320.229 98.5C321.329 97.7 322.029 96.6167 322.329 95.25H329.779C329.412 97.1833 328.629 98.9167 327.429 100.45C326.229 101.983 324.679 103.183 322.779 104.05C320.912 104.917 318.829 105.35 316.529 105.35C313.829 105.35 311.429 104.783 309.329 103.65C307.229 102.483 305.596 100.833 304.429 98.7C303.262 96.5667 302.679 94.05 302.679 91.15C302.679 88.25 303.262 85.7333 304.429 83.6C305.596 81.4333 307.229 79.7833 309.329 78.65C311.429 77.5167 313.829 76.95 316.529 76.95C319.262 76.95 321.646 77.5167 323.679 78.65C325.746 79.7833 327.329 81.35 328.429 83.35C329.562 85.3167 330.129 87.5667 330.129 90.1ZM323.029 89.4C323.129 87.1333 322.529 85.4167 321.229 84.25C319.962 83.0833 318.396 82.5 316.529 82.5C314.629 82.5 313.029 83.0833 311.729 84.25C310.429 85.4167 309.712 87.1333 309.579 89.4H323.029ZM342.184 68V105H335.134V68H342.184ZM355.611 68V105H348.561V68H355.611ZM388.039 90.1C388.039 90.8 387.956 91.6 387.789 92.5H367.489C367.589 94.9667 368.256 96.7833 369.489 97.95C370.722 99.1167 372.256 99.7 374.089 99.7C375.722 99.7 377.072 99.3 378.139 98.5C379.239 97.7 379.939 96.6167 380.239 95.25H387.689C387.322 97.1833 386.539 98.9167 385.339 100.45C384.139 101.983 382.589 103.183 380.689 104.05C378.822 104.917 376.739 105.35 374.439 105.35C371.739 105.35 369.339 104.783 367.239 103.65C365.139 102.483 363.506 100.833 362.339 98.7C361.172 96.5667 360.589 94.05 360.589 91.15C360.589 88.25 361.172 85.7333 362.339 83.6C363.506 81.4333 365.139 79.7833 367.239 78.65C369.339 77.5167 371.739 76.95 374.439 76.95C377.172 76.95 379.556 77.5167 381.589 78.65C383.656 79.7833 385.239 81.35 386.339 83.35C387.472 85.3167 388.039 87.5667 388.039 90.1ZM380.939 89.4C381.039 87.1333 380.439 85.4167 379.139 84.25C377.872 83.0833 376.306 82.5 374.439 82.5C372.539 82.5 370.939 83.0833 369.639 84.25C368.339 85.4167 367.622 87.1333 367.489 89.4H380.939ZM409.894 105L403.594 96.1L398.294 105H390.544L399.694 90.55L390.344 77.3H398.244L404.394 86.05L409.694 77.3H417.444L408.144 91.35L417.794 105H409.894ZM427.263 97.65V105H419.663V97.65H427.263Z" fill="#3A3A3A"/>
</svg>
