<svg width="236" height="69" viewBox="0 0 236 69" fill="none" xmlns="http://www.w3.org/2000/svg">
<rect x="1" y="1" width="234" height="67" rx="7" fill="#1C5B52"/>
<path d="M75.7681 32.14C75.2268 31.0013 74.4428 30.124 73.4161 29.508C72.3895 28.8733 71.1948 28.556 69.8321 28.556C68.4695 28.556 67.2375 28.8733 66.1361 29.508C65.0535 30.124 64.1948 31.02 63.5601 32.196C62.9441 33.3533 62.6361 34.6973 62.6361 36.228C62.6361 37.7587 62.9441 39.1027 63.5601 40.26C64.1948 41.4173 65.0535 42.3133 66.1361 42.948C67.2375 43.564 68.4695 43.872 69.8321 43.872C71.7361 43.872 73.3041 43.3027 74.5361 42.164C75.7681 41.0253 76.4868 39.4853 76.6921 37.544H68.9081V35.472H79.4081V37.432C79.2588 39.0373 78.7548 40.512 77.8961 41.856C77.0375 43.1813 75.9081 44.236 74.5081 45.02C73.1081 45.7853 71.5495 46.168 69.8321 46.168C68.0215 46.168 66.3695 45.748 64.8761 44.908C63.3828 44.0493 62.1975 42.864 61.3201 41.352C60.4615 39.84 60.0321 38.132 60.0321 36.228C60.0321 34.324 60.4615 32.616 61.3201 31.104C62.1975 29.5733 63.3828 28.388 64.8761 27.548C66.3695 26.6893 68.0215 26.26 69.8321 26.26C71.9041 26.26 73.7335 26.7733 75.3201 27.8C76.9255 28.8267 78.0921 30.2733 78.8201 32.14H75.7681ZM89.4691 46.252C88.0318 46.252 86.7251 45.9253 85.5491 45.272C84.3918 44.6187 83.4771 43.6947 82.8051 42.5C82.1518 41.2867 81.8251 39.8867 81.8251 38.3C81.8251 36.732 82.1611 35.3507 82.8331 34.156C83.5238 32.9427 84.4571 32.0187 85.6331 31.384C86.8091 30.7307 88.1251 30.404 89.5811 30.404C91.0371 30.404 92.3531 30.7307 93.5291 31.384C94.7051 32.0187 95.6291 32.9333 96.3011 34.128C96.9918 35.3227 97.3371 36.7133 97.3371 38.3C97.3371 39.8867 96.9824 41.2867 96.2731 42.5C95.5824 43.6947 94.6398 44.6187 93.4451 45.272C92.2504 45.9253 90.9251 46.252 89.4691 46.252ZM89.4691 44.012C90.3838 44.012 91.2424 43.7973 92.0451 43.368C92.8478 42.9387 93.4918 42.2947 93.9771 41.436C94.4811 40.5773 94.7331 39.532 94.7331 38.3C94.7331 37.068 94.4904 36.0227 94.0051 35.164C93.5198 34.3053 92.8851 33.6707 92.1011 33.26C91.3171 32.8307 90.4678 32.616 89.5531 32.616C88.6198 32.616 87.7611 32.8307 86.9771 33.26C86.2118 33.6707 85.5958 34.3053 85.1291 35.164C84.6624 36.0227 84.4291 37.068 84.4291 38.3C84.4291 39.5507 84.6531 40.6053 85.1011 41.464C85.5678 42.3227 86.1838 42.9667 86.9491 43.396C87.7144 43.8067 88.5544 44.012 89.4691 44.012ZM107.379 46.252C105.942 46.252 104.635 45.9253 103.459 45.272C102.302 44.6187 101.387 43.6947 100.715 42.5C100.062 41.2867 99.7353 39.8867 99.7353 38.3C99.7353 36.732 100.071 35.3507 100.743 34.156C101.434 32.9427 102.367 32.0187 103.543 31.384C104.719 30.7307 106.035 30.404 107.491 30.404C108.947 30.404 110.263 30.7307 111.439 31.384C112.615 32.0187 113.539 32.9333 114.211 34.128C114.902 35.3227 115.247 36.7133 115.247 38.3C115.247 39.8867 114.893 41.2867 114.183 42.5C113.493 43.6947 112.55 44.6187 111.355 45.272C110.161 45.9253 108.835 46.252 107.379 46.252ZM107.379 44.012C108.294 44.012 109.153 43.7973 109.955 43.368C110.758 42.9387 111.402 42.2947 111.887 41.436C112.391 40.5773 112.643 39.532 112.643 38.3C112.643 37.068 112.401 36.0227 111.915 35.164C111.43 34.3053 110.795 33.6707 110.011 33.26C109.227 32.8307 108.378 32.616 107.463 32.616C106.53 32.616 105.671 32.8307 104.887 33.26C104.122 33.6707 103.506 34.3053 103.039 35.164C102.573 36.0227 102.339 37.068 102.339 38.3C102.339 39.5507 102.563 40.6053 103.011 41.464C103.478 42.3227 104.094 42.9667 104.859 43.396C105.625 43.8067 106.465 44.012 107.379 44.012ZM124.925 30.404C126.251 30.404 127.408 30.6933 128.397 31.272C129.405 31.8507 130.152 32.5787 130.637 33.456V30.656H133.213V46.336C133.213 47.736 132.915 48.9773 132.317 50.06C131.72 51.1613 130.861 52.02 129.741 52.636C128.64 53.252 127.352 53.56 125.877 53.56C123.861 53.56 122.181 53.084 120.837 52.132C119.493 51.18 118.7 49.8827 118.457 48.24H120.977C121.257 49.1733 121.836 49.92 122.713 50.48C123.591 51.0587 124.645 51.348 125.877 51.348C127.277 51.348 128.416 50.9093 129.293 50.032C130.189 49.1547 130.637 47.9227 130.637 46.336V43.116C130.133 44.012 129.387 44.7587 128.397 45.356C127.408 45.9533 126.251 46.252 124.925 46.252C123.563 46.252 122.321 45.916 121.201 45.244C120.1 44.572 119.232 43.6293 118.597 42.416C117.963 41.2027 117.645 39.8213 117.645 38.272C117.645 36.704 117.963 35.332 118.597 34.156C119.232 32.9613 120.1 32.0373 121.201 31.384C122.321 30.7307 123.563 30.404 124.925 30.404ZM130.637 38.3C130.637 37.1427 130.404 36.1347 129.937 35.276C129.471 34.4173 128.836 33.764 128.033 33.316C127.249 32.8493 126.381 32.616 125.429 32.616C124.477 32.616 123.609 32.84 122.825 33.288C122.041 33.736 121.416 34.3893 120.949 35.248C120.483 36.1067 120.249 37.1147 120.249 38.272C120.249 39.448 120.483 40.4747 120.949 41.352C121.416 42.2107 122.041 42.8733 122.825 43.34C123.609 43.788 124.477 44.012 125.429 44.012C126.381 44.012 127.249 43.788 128.033 43.34C128.836 42.8733 129.471 42.2107 129.937 41.352C130.404 40.4747 130.637 39.4573 130.637 38.3ZM140.067 25.28V46H137.519V25.28H140.067ZM158.41 37.74C158.41 38.2253 158.382 38.7387 158.326 39.28H146.062C146.155 40.792 146.669 41.9773 147.602 42.836C148.554 43.676 149.702 44.096 151.046 44.096C152.147 44.096 153.062 43.844 153.79 43.34C154.537 42.8173 155.059 42.1267 155.358 41.268H158.102C157.691 42.7427 156.87 43.9467 155.638 44.88C154.406 45.7947 152.875 46.252 151.046 46.252C149.59 46.252 148.283 45.9253 147.126 45.272C145.987 44.6187 145.091 43.6947 144.438 42.5C143.785 41.2867 143.458 39.8867 143.458 38.3C143.458 36.7133 143.775 35.3227 144.41 34.128C145.045 32.9333 145.931 32.0187 147.07 31.384C148.227 30.7307 149.553 30.404 151.046 30.404C152.502 30.404 153.79 30.7213 154.91 31.356C156.03 31.9907 156.889 32.868 157.486 33.988C158.102 35.0893 158.41 36.34 158.41 37.74ZM155.778 37.208C155.778 36.2373 155.563 35.4067 155.134 34.716C154.705 34.0067 154.117 33.4747 153.37 33.12C152.642 32.7467 151.83 32.56 150.934 32.56C149.646 32.56 148.545 32.9707 147.63 33.792C146.734 34.6133 146.221 35.752 146.09 37.208H155.778ZM168.309 37.06C168.669 36.4333 169.203 35.9133 169.909 35.5C170.629 35.0733 171.463 34.86 172.409 34.86C173.383 34.86 174.263 35.0933 175.049 35.56C175.849 36.0267 176.476 36.6867 176.929 37.54C177.383 38.38 177.609 39.36 177.609 40.48C177.609 41.5867 177.383 42.5733 176.929 43.44C176.476 44.3067 175.849 44.98 175.049 45.46C174.263 45.94 173.383 46.18 172.409 46.18C171.476 46.18 170.649 45.9733 169.929 45.56C169.223 45.1333 168.683 44.6067 168.309 43.98V51.2H166.489V35.04H168.309V37.06ZM175.749 40.48C175.749 39.6533 175.583 38.9333 175.249 38.32C174.916 37.7067 174.463 37.24 173.889 36.92C173.329 36.6 172.709 36.44 172.029 36.44C171.363 36.44 170.743 36.6067 170.169 36.94C169.609 37.26 169.156 37.7333 168.809 38.36C168.476 38.9733 168.309 39.6867 168.309 40.5C168.309 41.3267 168.476 42.0533 168.809 42.68C169.156 43.2933 169.609 43.7667 170.169 44.1C170.743 44.42 171.363 44.58 172.029 44.58C172.709 44.58 173.329 44.42 173.889 44.1C174.463 43.7667 174.916 43.2933 175.249 42.68C175.583 42.0533 175.749 41.32 175.749 40.48ZM181.825 31.2V46H180.005V31.2H181.825ZM184.247 40.48C184.247 39.36 184.473 38.38 184.927 37.54C185.38 36.6867 186 36.0267 186.787 35.56C187.587 35.0933 188.473 34.86 189.447 34.86C190.407 34.86 191.24 35.0667 191.947 35.48C192.653 35.8933 193.18 36.4133 193.527 37.04V35.04H195.367V46H193.527V43.96C193.167 44.6 192.627 45.1333 191.907 45.56C191.2 45.9733 190.373 46.18 189.427 46.18C188.453 46.18 187.573 45.94 186.787 45.46C186 44.98 185.38 44.3067 184.927 43.44C184.473 42.5733 184.247 41.5867 184.247 40.48ZM193.527 40.5C193.527 39.6733 193.36 38.9533 193.027 38.34C192.693 37.7267 192.24 37.26 191.667 36.94C191.107 36.6067 190.487 36.44 189.807 36.44C189.127 36.44 188.507 36.6 187.947 36.92C187.387 37.24 186.94 37.7067 186.607 38.32C186.273 38.9333 186.107 39.6533 186.107 40.48C186.107 41.32 186.273 42.0533 186.607 42.68C186.94 43.2933 187.387 43.7667 187.947 44.1C188.507 44.42 189.127 44.58 189.807 44.58C190.487 44.58 191.107 44.42 191.667 44.1C192.24 43.7667 192.693 43.2933 193.027 42.68C193.36 42.0533 193.527 41.3267 193.527 40.5ZM207.882 35.04L201.282 51.16H199.402L201.562 45.88L197.142 35.04H199.162L202.602 43.92L206.002 35.04H207.882Z" fill="white"/>
<path d="M68.4104 14.06C68.1784 13.572 67.8424 13.196 67.4024 12.932C66.9624 12.66 66.4504 12.524 65.8664 12.524C65.2824 12.524 64.7544 12.66 64.2824 12.932C63.8184 13.196 63.4504 13.58 63.1784 14.084C62.9144 14.58 62.7824 15.156 62.7824 15.812C62.7824 16.468 62.9144 17.044 63.1784 17.54C63.4504 18.036 63.8184 18.42 64.2824 18.692C64.7544 18.956 65.2824 19.088 65.8664 19.088C66.6824 19.088 67.3544 18.844 67.8824 18.356C68.4104 17.868 68.7184 17.208 68.8064 16.376H65.4704V15.488H69.9704V16.328C69.9064 17.016 69.6904 17.648 69.3224 18.224C68.9544 18.792 68.4704 19.244 67.8704 19.58C67.2704 19.908 66.6024 20.072 65.8664 20.072C65.0904 20.072 64.3824 19.892 63.7424 19.532C63.1024 19.164 62.5944 18.656 62.2184 18.008C61.8504 17.36 61.6664 16.628 61.6664 15.812C61.6664 14.996 61.8504 14.264 62.2184 13.616C62.5944 12.96 63.1024 12.452 63.7424 12.092C64.3824 11.724 65.0904 11.54 65.8664 11.54C66.7544 11.54 67.5384 11.76 68.2184 12.2C68.9064 12.64 69.4064 13.26 69.7184 14.06H68.4104ZM72.5062 12.524V15.32H75.5542V16.22H72.5062V19.1H75.9142V20H71.4142V11.624H75.9142V12.524H72.5062ZM82.7146 11.636V12.524H80.4346V20H79.3426V12.524H77.0506V11.636H82.7146ZM88.35 11.636V20H87.258V11.636H88.35ZM95.3591 11.636V12.524H93.0791V20H91.9871V12.524H89.6951V11.636H95.3591ZM103.695 20.084C102.919 20.084 102.211 19.904 101.571 19.544C100.931 19.176 100.423 18.668 100.047 18.02C99.6785 17.364 99.4945 16.628 99.4945 15.812C99.4945 14.996 99.6785 14.264 100.047 13.616C100.423 12.96 100.931 12.452 101.571 12.092C102.211 11.724 102.919 11.54 103.695 11.54C104.479 11.54 105.191 11.724 105.831 12.092C106.471 12.452 106.975 12.956 107.343 13.604C107.711 14.252 107.895 14.988 107.895 15.812C107.895 16.636 107.711 17.372 107.343 18.02C106.975 18.668 106.471 19.176 105.831 19.544C105.191 19.904 104.479 20.084 103.695 20.084ZM103.695 19.136C104.279 19.136 104.803 19 105.267 18.728C105.739 18.456 106.107 18.068 106.371 17.564C106.643 17.06 106.779 16.476 106.779 15.812C106.779 15.14 106.643 14.556 106.371 14.06C106.107 13.556 105.743 13.168 105.279 12.896C104.815 12.624 104.287 12.488 103.695 12.488C103.103 12.488 102.575 12.624 102.111 12.896C101.647 13.168 101.279 13.556 101.007 14.06C100.743 14.556 100.611 15.14 100.611 15.812C100.611 16.476 100.743 17.06 101.007 17.564C101.279 18.068 101.647 18.456 102.111 18.728C102.583 19 103.111 19.136 103.695 19.136ZM115.912 20H114.82L110.428 13.34V20H109.336V11.624H110.428L114.82 18.272V11.624H115.912V20Z" fill="white"/>
<rect x="1" y="1" width="234" height="67" rx="7" stroke="#1C5B52" stroke-width="2"/>
<g clip-path="url(#clip0_101_716)">
<path d="M44.334 40.3208C47.6561 38.6946 50.1745 37.4554 50.3916 37.3591C51.086 37.0299 51.8032 36.1585 50.3916 35.4817C49.9359 35.2688 47.4821 34.0683 44.334 32.52L39.9697 36.4493L44.334 40.3207V40.3208Z" fill="#FFD900"/>
<path d="M39.9695 36.4492L26.0732 48.9349C26.3994 48.9734 26.7677 48.8963 27.2018 48.6835C28.1133 48.2387 37.776 43.5344 44.3337 40.3216L39.9695 36.4492Z" fill="#F43249"/>
<path d="M39.9696 36.4493L44.3338 32.5393C44.3338 32.5393 28.1793 24.6797 27.2019 24.2158C26.8337 24.0213 26.421 23.9636 26.0518 24.0213L39.9696 36.4493Z" fill="#00EE76"/>
<path d="M39.9668 36.4492L26.049 24.0212C25.4842 24.1377 25.0068 24.5826 25.0068 25.4924V47.4637C25.0068 48.2964 25.3762 48.8962 26.0706 48.9541L39.9668 36.4492Z" fill="#00D3FF"/>
</g>
<defs>
<clipPath id="clip0_101_716">
<rect width="26.22" height="25" fill="white" transform="translate(25 24)"/>
</clipPath>
</defs>
</svg>
