<svg width="236" height="69" viewBox="0 0 236 69" fill="none" xmlns="http://www.w3.org/2000/svg">
<rect x="1" y="1" width="234" height="67" rx="7" fill="#1C5B52"/>
<path d="M80.4283 43.66H71.9163L70.3483 48H67.6603L74.7163 28.596H77.6563L84.6843 48H81.9963L80.4283 43.66ZM79.7003 41.588L76.1723 31.732L72.6443 41.588H79.7003ZM90.3075 35.484C90.8115 34.6067 91.5582 33.8787 92.5475 33.3C93.5555 32.7027 94.7222 32.404 96.0475 32.404C97.4102 32.404 98.6422 32.7307 99.7435 33.384C100.864 34.0373 101.741 34.9613 102.376 36.156C103.01 37.332 103.328 38.704 103.328 40.272C103.328 41.8213 103.01 43.2027 102.376 44.416C101.741 45.6293 100.864 46.572 99.7435 47.244C98.6422 47.916 97.4102 48.252 96.0475 48.252C94.7408 48.252 93.5835 47.9627 92.5755 47.384C91.5862 46.7867 90.8302 46.0493 90.3075 45.172V55.28H87.7595V32.656H90.3075V35.484ZM100.724 40.272C100.724 39.1147 100.49 38.1067 100.024 37.248C99.5568 36.3893 98.9222 35.736 98.1195 35.288C97.3355 34.84 96.4675 34.616 95.5155 34.616C94.5822 34.616 93.7142 34.8493 92.9115 35.316C92.1275 35.764 91.4928 36.4267 91.0075 37.304C90.5408 38.1627 90.3075 39.1613 90.3075 40.3C90.3075 41.4573 90.5408 42.4747 91.0075 43.352C91.4928 44.2107 92.1275 44.8733 92.9115 45.34C93.7142 45.788 94.5822 46.012 95.5155 46.012C96.4675 46.012 97.3355 45.788 98.1195 45.34C98.9222 44.8733 99.5568 44.2107 100.024 43.352C100.49 42.4747 100.724 41.448 100.724 40.272ZM109.229 35.484C109.733 34.6067 110.48 33.8787 111.469 33.3C112.477 32.7027 113.644 32.404 114.969 32.404C116.332 32.404 117.564 32.7307 118.665 33.384C119.785 34.0373 120.663 34.9613 121.297 36.156C121.932 37.332 122.249 38.704 122.249 40.272C122.249 41.8213 121.932 43.2027 121.297 44.416C120.663 45.6293 119.785 46.572 118.665 47.244C117.564 47.916 116.332 48.252 114.969 48.252C113.663 48.252 112.505 47.9627 111.497 47.384C110.508 46.7867 109.752 46.0493 109.229 45.172V55.28H106.681V32.656H109.229V35.484ZM119.645 40.272C119.645 39.1147 119.412 38.1067 118.945 37.248C118.479 36.3893 117.844 35.736 117.041 35.288C116.257 34.84 115.389 34.616 114.437 34.616C113.504 34.616 112.636 34.8493 111.833 35.316C111.049 35.764 110.415 36.4267 109.929 37.304C109.463 38.1627 109.229 39.1613 109.229 40.3C109.229 41.4573 109.463 42.4747 109.929 43.352C110.415 44.2107 111.049 44.8733 111.833 45.34C112.636 45.788 113.504 46.012 114.437 46.012C115.389 46.012 116.257 45.788 117.041 45.34C117.844 44.8733 118.479 44.2107 118.945 43.352C119.412 42.4747 119.645 41.448 119.645 40.272ZM139.256 48.196C137.968 48.196 136.811 47.972 135.784 47.524C134.776 47.0573 133.983 46.4227 133.404 45.62C132.825 44.7987 132.527 43.856 132.508 42.792H135.224C135.317 43.7067 135.691 44.4813 136.344 45.116C137.016 45.732 137.987 46.04 139.256 46.04C140.469 46.04 141.421 45.7413 142.112 45.144C142.821 44.528 143.176 43.744 143.176 42.792C143.176 42.0453 142.971 41.4387 142.56 40.972C142.149 40.5053 141.636 40.1507 141.02 39.908C140.404 39.6653 139.573 39.404 138.528 39.124C137.24 38.788 136.204 38.452 135.42 38.116C134.655 37.78 133.992 37.2573 133.432 36.548C132.891 35.82 132.62 34.8493 132.62 33.636C132.62 32.572 132.891 31.6293 133.432 30.808C133.973 29.9867 134.729 29.352 135.7 28.904C136.689 28.456 137.819 28.232 139.088 28.232C140.917 28.232 142.411 28.6893 143.568 29.604C144.744 30.5187 145.407 31.732 145.556 33.244H142.756C142.663 32.4973 142.271 31.844 141.58 31.284C140.889 30.7053 139.975 30.416 138.836 30.416C137.772 30.416 136.904 30.696 136.232 31.256C135.56 31.7973 135.224 32.5627 135.224 33.552C135.224 34.2613 135.42 34.84 135.812 35.288C136.223 35.736 136.717 36.0813 137.296 36.324C137.893 36.548 138.724 36.8093 139.788 37.108C141.076 37.4627 142.112 37.8173 142.896 38.172C143.68 38.508 144.352 39.04 144.912 39.768C145.472 40.4773 145.752 41.448 145.752 42.68C145.752 43.632 145.5 44.528 144.996 45.368C144.492 46.208 143.745 46.8893 142.756 47.412C141.767 47.9347 140.6 48.196 139.256 48.196ZM152.61 34.756V43.8C152.61 44.5467 152.768 45.0787 153.086 45.396C153.403 45.6947 153.954 45.844 154.738 45.844H156.614V48H154.318C152.899 48 151.835 47.6733 151.126 47.02C150.416 46.3667 150.062 45.2933 150.062 43.8V34.756H148.074V32.656H150.062V28.792H152.61V32.656H156.614V34.756H152.61ZM166.393 48.252C164.956 48.252 163.649 47.9253 162.473 47.272C161.316 46.6187 160.401 45.6947 159.729 44.5C159.076 43.2867 158.749 41.8867 158.749 40.3C158.749 38.732 159.085 37.3507 159.757 36.156C160.448 34.9427 161.381 34.0187 162.557 33.384C163.733 32.7307 165.049 32.404 166.505 32.404C167.961 32.404 169.277 32.7307 170.453 33.384C171.629 34.0187 172.553 34.9333 173.225 36.128C173.916 37.3227 174.261 38.7133 174.261 40.3C174.261 41.8867 173.906 43.2867 173.197 44.5C172.506 45.6947 171.564 46.6187 170.369 47.272C169.174 47.9253 167.849 48.252 166.393 48.252ZM166.393 46.012C167.308 46.012 168.166 45.7973 168.969 45.368C169.772 44.9387 170.416 44.2947 170.901 43.436C171.405 42.5773 171.657 41.532 171.657 40.3C171.657 39.068 171.414 38.0227 170.929 37.164C170.444 36.3053 169.809 35.6707 169.025 35.26C168.241 34.8307 167.392 34.616 166.477 34.616C165.544 34.616 164.685 34.8307 163.901 35.26C163.136 35.6707 162.52 36.3053 162.053 37.164C161.586 38.0227 161.353 39.068 161.353 40.3C161.353 41.5507 161.577 42.6053 162.025 43.464C162.492 44.3227 163.108 44.9667 163.873 45.396C164.638 45.8067 165.478 46.012 166.393 46.012ZM180.159 35.148C180.607 34.2707 181.242 33.5893 182.063 33.104C182.903 32.6187 183.92 32.376 185.115 32.376V35.008H184.443C181.587 35.008 180.159 36.5573 180.159 39.656V48H177.611V32.656H180.159V35.148ZM202.056 39.74C202.056 40.2253 202.028 40.7387 201.972 41.28H189.708C189.802 42.792 190.315 43.9773 191.248 44.836C192.2 45.676 193.348 46.096 194.692 46.096C195.794 46.096 196.708 45.844 197.436 45.34C198.183 44.8173 198.706 44.1267 199.004 43.268H201.748C201.338 44.7427 200.516 45.9467 199.284 46.88C198.052 47.7947 196.522 48.252 194.692 48.252C193.236 48.252 191.93 47.9253 190.772 47.272C189.634 46.6187 188.738 45.6947 188.084 44.5C187.431 43.2867 187.104 41.8867 187.104 40.3C187.104 38.7133 187.422 37.3227 188.056 36.128C188.691 34.9333 189.578 34.0187 190.716 33.384C191.874 32.7307 193.199 32.404 194.692 32.404C196.148 32.404 197.436 32.7213 198.556 33.356C199.676 33.9907 200.535 34.868 201.132 35.988C201.748 37.0893 202.056 38.34 202.056 39.74ZM199.424 39.208C199.424 38.2373 199.21 37.4067 198.78 36.716C198.351 36.0067 197.763 35.4747 197.016 35.12C196.288 34.7467 195.476 34.56 194.58 34.56C193.292 34.56 192.191 34.9707 191.276 35.792C190.38 36.6133 189.867 37.752 189.736 39.208H199.424Z" fill="white"/>
<path d="M74.6452 11.636C75.5572 11.636 76.3452 11.808 77.0092 12.152C77.6812 12.488 78.1932 12.972 78.5452 13.604C78.9052 14.236 79.0852 14.98 79.0852 15.836C79.0852 16.692 78.9052 17.436 78.5452 18.068C78.1932 18.692 77.6812 19.172 77.0092 19.508C76.3452 19.836 75.5572 20 74.6452 20H72.0412V11.636H74.6452ZM74.6452 19.1C75.7252 19.1 76.5492 18.816 77.1172 18.248C77.6852 17.672 77.9692 16.868 77.9692 15.836C77.9692 14.796 77.6812 13.984 77.1052 13.4C76.5372 12.816 75.7172 12.524 74.6452 12.524H73.1332V19.1H74.6452ZM83.3936 20.108C82.7776 20.108 82.2176 19.968 81.7136 19.688C81.2176 19.408 80.8256 19.012 80.5376 18.5C80.2576 17.98 80.1176 17.38 80.1176 16.7C80.1176 16.028 80.2616 15.436 80.5496 14.924C80.8456 14.404 81.2456 14.008 81.7496 13.736C82.2536 13.456 82.8176 13.316 83.4416 13.316C84.0656 13.316 84.6296 13.456 85.1336 13.736C85.6376 14.008 86.0336 14.4 86.3216 14.912C86.6176 15.424 86.7656 16.02 86.7656 16.7C86.7656 17.38 86.6136 17.98 86.3096 18.5C86.0136 19.012 85.6096 19.408 85.0976 19.688C84.5856 19.968 84.0176 20.108 83.3936 20.108ZM83.3936 19.148C83.7856 19.148 84.1536 19.056 84.4976 18.872C84.8416 18.688 85.1176 18.412 85.3256 18.044C85.5416 17.676 85.6496 17.228 85.6496 16.7C85.6496 16.172 85.5456 15.724 85.3376 15.356C85.1296 14.988 84.8576 14.716 84.5216 14.54C84.1856 14.356 83.8216 14.264 83.4296 14.264C83.0296 14.264 82.6616 14.356 82.3256 14.54C81.9976 14.716 81.7336 14.988 81.5336 15.356C81.3336 15.724 81.2336 16.172 81.2336 16.7C81.2336 17.236 81.3296 17.688 81.5216 18.056C81.7216 18.424 81.9856 18.7 82.3136 18.884C82.6416 19.06 83.0016 19.148 83.3936 19.148ZM96.9613 13.424L94.9093 20H93.7813L92.1973 14.78L90.6133 20H89.4853L87.4213 13.424H88.5373L90.0493 18.944L91.6813 13.424H92.7973L94.3933 18.956L95.8813 13.424H96.9613ZM101.249 13.304C102.049 13.304 102.697 13.548 103.193 14.036C103.689 14.516 103.937 15.212 103.937 16.124V20H102.857V16.28C102.857 15.624 102.693 15.124 102.365 14.78C102.037 14.428 101.589 14.252 101.021 14.252C100.445 14.252 99.9851 14.432 99.6411 14.792C99.3051 15.152 99.1371 15.676 99.1371 16.364V20H98.0451V13.424H99.1371V14.36C99.3531 14.024 99.6451 13.764 100.013 13.58C100.389 13.396 100.801 13.304 101.249 13.304ZM106.813 11.12V20H105.721V11.12H106.813ZM111.542 20.108C110.926 20.108 110.366 19.968 109.862 19.688C109.366 19.408 108.974 19.012 108.686 18.5C108.406 17.98 108.266 17.38 108.266 16.7C108.266 16.028 108.41 15.436 108.698 14.924C108.994 14.404 109.394 14.008 109.898 13.736C110.402 13.456 110.966 13.316 111.59 13.316C112.214 13.316 112.778 13.456 113.282 13.736C113.786 14.008 114.182 14.4 114.47 14.912C114.766 15.424 114.914 16.02 114.914 16.7C114.914 17.38 114.762 17.98 114.458 18.5C114.162 19.012 113.758 19.408 113.246 19.688C112.734 19.968 112.166 20.108 111.542 20.108ZM111.542 19.148C111.934 19.148 112.302 19.056 112.646 18.872C112.99 18.688 113.266 18.412 113.474 18.044C113.69 17.676 113.798 17.228 113.798 16.7C113.798 16.172 113.694 15.724 113.486 15.356C113.278 14.988 113.006 14.716 112.67 14.54C112.334 14.356 111.97 14.264 111.578 14.264C111.178 14.264 110.81 14.356 110.474 14.54C110.146 14.716 109.882 14.988 109.682 15.356C109.482 15.724 109.382 16.172 109.382 16.7C109.382 17.236 109.478 17.688 109.67 18.056C109.87 18.424 110.134 18.7 110.462 18.884C110.79 19.06 111.15 19.148 111.542 19.148ZM115.942 16.688C115.942 16.016 116.078 15.428 116.35 14.924C116.622 14.412 116.994 14.016 117.466 13.736C117.946 13.456 118.478 13.316 119.062 13.316C119.638 13.316 120.138 13.44 120.562 13.688C120.986 13.936 121.302 14.248 121.51 14.624V13.424H122.614V20H121.51V18.776C121.294 19.16 120.97 19.48 120.538 19.736C120.114 19.984 119.618 20.108 119.05 20.108C118.466 20.108 117.938 19.964 117.466 19.676C116.994 19.388 116.622 18.984 116.35 18.464C116.078 17.944 115.942 17.352 115.942 16.688ZM121.51 16.7C121.51 16.204 121.41 15.772 121.21 15.404C121.01 15.036 120.738 14.756 120.394 14.564C120.058 14.364 119.686 14.264 119.278 14.264C118.87 14.264 118.498 14.36 118.162 14.552C117.826 14.744 117.558 15.024 117.358 15.392C117.158 15.76 117.058 16.192 117.058 16.688C117.058 17.192 117.158 17.632 117.358 18.008C117.558 18.376 117.826 18.66 118.162 18.86C118.498 19.052 118.87 19.148 119.278 19.148C119.686 19.148 120.058 19.052 120.394 18.86C120.738 18.66 121.01 18.376 121.21 18.008C121.41 17.632 121.51 17.196 121.51 16.7ZM124.051 16.688C124.051 16.016 124.187 15.428 124.459 14.924C124.731 14.412 125.103 14.016 125.575 13.736C126.055 13.456 126.591 13.316 127.183 13.316C127.695 13.316 128.171 13.436 128.611 13.676C129.051 13.908 129.387 14.216 129.619 14.6V11.12H130.723V20H129.619V18.764C129.403 19.156 129.083 19.48 128.659 19.736C128.235 19.984 127.739 20.108 127.171 20.108C126.587 20.108 126.055 19.964 125.575 19.676C125.103 19.388 124.731 18.984 124.459 18.464C124.187 17.944 124.051 17.352 124.051 16.688ZM129.619 16.7C129.619 16.204 129.519 15.772 129.319 15.404C129.119 15.036 128.847 14.756 128.503 14.564C128.167 14.364 127.795 14.264 127.387 14.264C126.979 14.264 126.607 14.36 126.271 14.552C125.935 14.744 125.667 15.024 125.467 15.392C125.267 15.76 125.167 16.192 125.167 16.688C125.167 17.192 125.267 17.632 125.467 18.008C125.667 18.376 125.935 18.66 126.271 18.86C126.607 19.052 126.979 19.148 127.387 19.148C127.795 19.148 128.167 19.052 128.503 18.86C128.847 18.66 129.119 18.376 129.319 18.008C129.519 17.632 129.619 17.196 129.619 16.7ZM138.636 20.108C138.02 20.108 137.46 19.968 136.956 19.688C136.46 19.408 136.068 19.012 135.78 18.5C135.5 17.98 135.36 17.38 135.36 16.7C135.36 16.028 135.504 15.436 135.792 14.924C136.088 14.404 136.488 14.008 136.992 13.736C137.496 13.456 138.06 13.316 138.684 13.316C139.308 13.316 139.872 13.456 140.376 13.736C140.88 14.008 141.276 14.4 141.564 14.912C141.86 15.424 142.008 16.02 142.008 16.7C142.008 17.38 141.856 17.98 141.552 18.5C141.256 19.012 140.852 19.408 140.34 19.688C139.828 19.968 139.26 20.108 138.636 20.108ZM138.636 19.148C139.028 19.148 139.396 19.056 139.74 18.872C140.084 18.688 140.36 18.412 140.568 18.044C140.784 17.676 140.892 17.228 140.892 16.7C140.892 16.172 140.788 15.724 140.58 15.356C140.372 14.988 140.1 14.716 139.764 14.54C139.428 14.356 139.064 14.264 138.672 14.264C138.272 14.264 137.904 14.356 137.568 14.54C137.24 14.716 136.976 14.988 136.776 15.356C136.576 15.724 136.476 16.172 136.476 16.7C136.476 17.236 136.572 17.688 136.764 18.056C136.964 18.424 137.228 18.7 137.556 18.884C137.884 19.06 138.244 19.148 138.636 19.148ZM146.648 13.304C147.448 13.304 148.096 13.548 148.592 14.036C149.088 14.516 149.336 15.212 149.336 16.124V20H148.256V16.28C148.256 15.624 148.092 15.124 147.764 14.78C147.436 14.428 146.988 14.252 146.42 14.252C145.844 14.252 145.384 14.432 145.04 14.792C144.704 15.152 144.536 15.676 144.536 16.364V20H143.444V13.424H144.536V14.36C144.752 14.024 145.044 13.764 145.412 13.58C145.788 13.396 146.2 13.304 146.648 13.304ZM155.651 14.324V18.2C155.651 18.52 155.719 18.748 155.855 18.884C155.991 19.012 156.227 19.076 156.563 19.076H157.367V20H156.383C155.775 20 155.319 19.86 155.015 19.58C154.711 19.3 154.559 18.84 154.559 18.2V14.324H153.707V13.424H154.559V11.768H155.651V13.424H157.367V14.324H155.651ZM161.954 13.304C162.45 13.304 162.898 13.412 163.298 13.628C163.698 13.836 164.01 14.152 164.234 14.576C164.466 15 164.582 15.516 164.582 16.124V20H163.502V16.28C163.502 15.624 163.338 15.124 163.01 14.78C162.682 14.428 162.234 14.252 161.666 14.252C161.09 14.252 160.63 14.432 160.286 14.792C159.95 15.152 159.782 15.676 159.782 16.364V20H158.69V11.12H159.782V14.36C159.998 14.024 160.294 13.764 160.67 13.58C161.054 13.396 161.482 13.304 161.954 13.304ZM172.365 16.46C172.365 16.668 172.353 16.888 172.329 17.12H167.073C167.113 17.768 167.333 18.276 167.733 18.644C168.141 19.004 168.633 19.184 169.209 19.184C169.681 19.184 170.073 19.076 170.385 18.86C170.705 18.636 170.929 18.34 171.057 17.972H172.233C172.057 18.604 171.705 19.12 171.177 19.52C170.649 19.912 169.993 20.108 169.209 20.108C168.585 20.108 168.025 19.968 167.529 19.688C167.041 19.408 166.657 19.012 166.377 18.5C166.097 17.98 165.957 17.38 165.957 16.7C165.957 16.02 166.093 15.424 166.365 14.912C166.637 14.4 167.017 14.008 167.505 13.736C168.001 13.456 168.569 13.316 169.209 13.316C169.833 13.316 170.385 13.452 170.865 13.724C171.345 13.996 171.713 14.372 171.969 14.852C172.233 15.324 172.365 15.86 172.365 16.46ZM171.237 16.232C171.237 15.816 171.145 15.46 170.961 15.164C170.777 14.86 170.525 14.632 170.205 14.48C169.893 14.32 169.545 14.24 169.161 14.24C168.609 14.24 168.137 14.416 167.745 14.768C167.361 15.12 167.141 15.608 167.085 16.232H171.237Z" fill="white"/>
<rect x="1" y="1" width="234" height="67" rx="7" stroke="#1C5B52" stroke-width="2"/>
<path d="M52.7355 36.8795C52.7207 34.3486 53.8674 32.4412 56.183 31.0348C54.8879 29.1793 52.9285 28.1588 50.3457 27.9621C48.7925 27.8396 47.1466 28.4475 45.9012 28.9074C45.1857 29.1717 44.6024 29.3871 44.2449 29.3871C43.8027 29.3871 43.1175 29.1394 42.3324 28.8555C41.2792 28.4747 40.0464 28.0289 38.9791 28.0289C35.1346 28.0883 31.0488 31.0941 31.0488 37.2098C31.0488 39.017 31.3791 40.8836 32.0396 42.8059C32.9229 45.3367 36.1068 51.5377 39.4281 51.4375C40.2256 51.4188 40.9158 51.1575 41.6479 50.8803C42.5103 50.5539 43.4308 50.2055 44.6531 50.2055C45.7837 50.2055 46.6333 50.5329 47.4565 50.8501C48.2301 51.1483 48.9804 51.4375 49.9189 51.4375C53.2699 51.3893 56.1496 45.7523 56.9883 43.2141C52.6172 41.1531 52.7259 37.2314 52.7351 36.8989C52.7354 36.8896 52.7355 36.883 52.7355 36.8795ZM52.3422 46.7877C51.8115 47.5262 51.2771 48.1088 50.7873 48.4836C50.3977 48.7805 50.0971 48.9066 49.8967 48.9141C49.5627 48.9104 49.2398 48.8287 48.609 48.5875C48.5645 48.5689 48.5162 48.5504 48.4531 48.5281L48.2898 48.465C47.6441 48.2164 47.2582 48.0828 46.7646 47.9529C46.0744 47.7748 45.3879 47.6783 44.6531 47.6783C43.9035 47.6783 43.1984 47.7711 42.4971 47.9455C41.9812 48.0754 41.5471 48.2201 40.9125 48.4576C40.8922 48.4663 40.7203 48.5316 40.6088 48.5739C40.5775 48.5858 40.5511 48.5958 40.534 48.6023C40.4041 48.6506 40.3039 48.6877 40.2111 48.7211C39.8252 48.8547 39.5803 48.9104 39.3613 48.9141C39.3354 48.9141 39.3131 48.9104 39.2945 48.9066C39.2537 48.8992 39.2018 48.8844 39.1424 48.8584C38.9754 48.7916 38.775 48.6691 38.5486 48.4947C38.0291 48.0902 37.4576 47.4557 36.875 46.643C35.8545 45.2105 34.8896 43.3105 34.4258 41.9783C33.8543 40.3158 33.5723 38.7238 33.5723 37.2061C33.5723 34.9721 34.2328 33.2725 35.3684 32.1184C36.3443 31.1312 37.658 30.5783 38.9977 30.5486C39.2166 30.5523 39.5357 30.6043 39.9402 30.7156C40.2594 30.801 40.6082 30.916 41.0795 31.083C41.1543 31.1106 41.3264 31.1726 41.4802 31.2282C41.6163 31.2772 41.7382 31.3212 41.766 31.3316C42.0518 31.4355 42.267 31.5098 42.4785 31.5766C43.1539 31.7918 43.6771 31.9105 44.2449 31.9105C44.8201 31.9105 45.3137 31.7881 46.015 31.5469C46.1743 31.493 46.5872 31.3416 46.9265 31.2171C47.1486 31.1356 47.3391 31.0657 47.4066 31.0422C48.3566 30.7045 49.058 30.5227 49.6629 30.4781C49.841 30.4633 50.0006 30.4633 50.1527 30.4744C50.9951 30.5412 51.715 30.7082 52.3273 30.9865C50.932 32.5971 50.2121 34.5676 50.2158 36.8646C50.2047 37.4102 50.2492 38.041 50.4051 38.7869C50.6426 39.9187 51.0953 41.0395 51.8115 42.0896C52.357 42.8875 53.0324 43.6074 53.8414 44.2346C53.4146 45.1141 52.8914 46.0232 52.3422 46.7877ZM48.8354 25.5611C50.7027 23.3439 50.5485 21.3241 50.4917 20.5792L50.4904 20.5625C48.8279 20.659 46.9057 21.6943 45.8109 22.9672C44.6049 24.3328 43.8961 26.0213 44.0482 27.925C45.8443 28.0623 47.4846 27.1383 48.8354 25.5611Z" fill="white" fill-opacity="0.95"/>
<path d="M52.7355 36.8795C52.7207 34.3486 53.8674 32.4412 56.183 31.0348C54.8879 29.1793 52.9285 28.1588 50.3457 27.9621C48.7925 27.8396 47.1466 28.4475 45.9012 28.9074C45.1857 29.1717 44.6024 29.3871 44.2449 29.3871C43.8027 29.3871 43.1175 29.1394 42.3324 28.8555C41.2792 28.4747 40.0464 28.0289 38.9791 28.0289C35.1346 28.0883 31.0488 31.0941 31.0488 37.2098C31.0488 39.017 31.3791 40.8836 32.0396 42.8059C32.9229 45.3367 36.1068 51.5377 39.4281 51.4375C40.2256 51.4188 40.9158 51.1575 41.6479 50.8803C42.5103 50.5539 43.4308 50.2055 44.6531 50.2055C45.7837 50.2055 46.6333 50.5329 47.4565 50.8501C48.2301 51.1483 48.9804 51.4375 49.9189 51.4375C53.2699 51.3893 56.1496 45.7523 56.9883 43.2141C52.6172 41.1531 52.7259 37.2314 52.7351 36.8989C52.7354 36.8896 52.7355 36.883 52.7355 36.8795ZM52.3422 46.7877C51.8115 47.5262 51.2771 48.1088 50.7873 48.4836C50.3977 48.7805 50.0971 48.9066 49.8967 48.9141C49.5627 48.9104 49.2398 48.8287 48.609 48.5875C48.5645 48.5689 48.5162 48.5504 48.4531 48.5281L48.2898 48.465C47.6441 48.2164 47.2582 48.0828 46.7646 47.9529C46.0744 47.7748 45.3879 47.6783 44.6531 47.6783C43.9035 47.6783 43.1984 47.7711 42.4971 47.9455C41.9812 48.0754 41.5471 48.2201 40.9125 48.4576C40.8922 48.4663 40.7203 48.5316 40.6088 48.5739C40.5775 48.5858 40.5511 48.5958 40.534 48.6023C40.4041 48.6506 40.3039 48.6877 40.2111 48.7211C39.8252 48.8547 39.5803 48.9104 39.3613 48.9141C39.3354 48.9141 39.3131 48.9104 39.2945 48.9066C39.2537 48.8992 39.2018 48.8844 39.1424 48.8584C38.9754 48.7916 38.775 48.6691 38.5486 48.4947C38.0291 48.0902 37.4576 47.4557 36.875 46.643C35.8545 45.2105 34.8896 43.3105 34.4258 41.9783C33.8543 40.3158 33.5723 38.7238 33.5723 37.2061C33.5723 34.9721 34.2328 33.2725 35.3684 32.1184C36.3443 31.1312 37.658 30.5783 38.9977 30.5486C39.2166 30.5523 39.5357 30.6043 39.9402 30.7156C40.2594 30.801 40.6082 30.916 41.0795 31.083C41.1543 31.1106 41.3264 31.1726 41.4802 31.2282C41.6163 31.2772 41.7382 31.3212 41.766 31.3316C42.0518 31.4355 42.267 31.5098 42.4785 31.5766C43.1539 31.7918 43.6771 31.9105 44.2449 31.9105C44.8201 31.9105 45.3137 31.7881 46.015 31.5469C46.1743 31.493 46.5872 31.3416 46.9265 31.2171C47.1486 31.1356 47.3391 31.0657 47.4066 31.0422C48.3566 30.7045 49.058 30.5227 49.6629 30.4781C49.841 30.4633 50.0006 30.4633 50.1527 30.4744C50.9951 30.5412 51.715 30.7082 52.3273 30.9865C50.932 32.5971 50.2121 34.5676 50.2158 36.8646C50.2047 37.4102 50.2492 38.041 50.4051 38.7869C50.6426 39.9187 51.0953 41.0395 51.8115 42.0896C52.357 42.8875 53.0324 43.6074 53.8414 44.2346C53.4146 45.1141 52.8914 46.0232 52.3422 46.7877ZM48.8354 25.5611C50.7027 23.3439 50.5485 21.3241 50.4917 20.5792L50.4904 20.5625C48.8279 20.659 46.9057 21.6943 45.8109 22.9672C44.6049 24.3328 43.8961 26.0213 44.0482 27.925C45.8443 28.0623 47.4846 27.1383 48.8354 25.5611Z" stroke="white"/>
</svg>
