<svg width="147" height="83" viewBox="0 0 147 83" fill="none" xmlns="http://www.w3.org/2000/svg">
<path d="M9.61 30.9C9.61 27.7413 10.3153 24.92 11.726 22.436C13.1673 19.9213 15.1147 17.974 17.568 16.594C20.052 15.1833 22.8273 14.478 25.894 14.478C29.482 14.478 32.6253 15.398 35.324 17.238C38.0227 19.078 39.9087 21.6233 40.982 24.874H33.576C32.84 23.3407 31.7973 22.1907 30.448 21.424C29.1293 20.6573 27.596 20.274 25.848 20.274C23.9773 20.274 22.306 20.7187 20.834 21.608C19.3927 22.4667 18.258 23.6933 17.43 25.288C16.6327 26.8827 16.234 28.7533 16.234 30.9C16.234 33.016 16.6327 34.8867 17.43 36.512C18.258 38.1067 19.3927 39.3487 20.834 40.238C22.306 41.0967 23.9773 41.526 25.848 41.526C27.596 41.526 29.1293 41.1427 30.448 40.376C31.7973 39.5787 32.84 38.4133 33.576 36.88H40.982C39.9087 40.1613 38.0227 42.722 35.324 44.562C32.656 46.3713 29.5127 47.276 25.894 47.276C22.8273 47.276 20.052 46.586 17.568 45.206C15.1147 43.7953 13.1673 41.848 11.726 39.364C10.3153 36.88 9.61 34.0587 9.61 30.9ZM57.7986 47.414C55.3453 47.414 53.1373 46.8773 51.1746 45.804C49.2119 44.7 47.6633 43.1513 46.5286 41.158C45.4246 39.1647 44.8726 36.8647 44.8726 34.258C44.8726 31.6513 45.4399 29.3513 46.5746 27.358C47.7399 25.3647 49.3193 23.8313 51.3126 22.758C53.3059 21.654 55.5293 21.102 57.9826 21.102C60.4359 21.102 62.6593 21.654 64.6526 22.758C66.6459 23.8313 68.2099 25.3647 69.3446 27.358C70.5099 29.3513 71.0926 31.6513 71.0926 34.258C71.0926 36.8647 70.4946 39.1647 69.2986 41.158C68.1333 43.1513 66.5386 44.7 64.5146 45.804C62.5213 46.8773 60.2826 47.414 57.7986 47.414ZM57.7986 41.802C58.9639 41.802 60.0526 41.526 61.0646 40.974C62.1073 40.3913 62.9353 39.5327 63.5486 38.398C64.1619 37.2633 64.4686 35.8833 64.4686 34.258C64.4686 31.8353 63.8246 29.98 62.5366 28.692C61.2793 27.3733 59.7306 26.714 57.8906 26.714C56.0506 26.714 54.5019 27.3733 53.2446 28.692C52.0179 29.98 51.4046 31.8353 51.4046 34.258C51.4046 36.6807 52.0026 38.5513 53.1986 39.87C54.4253 41.158 55.9586 41.802 57.7986 41.802ZM79.0826 18.48C77.9479 18.48 76.9972 18.1273 76.2306 17.422C75.4946 16.686 75.1266 15.7813 75.1266 14.708C75.1266 13.6347 75.4946 12.7453 76.2306 12.04C76.9972 11.304 77.9479 10.936 79.0826 10.936C80.2172 10.936 81.1526 11.304 81.8886 12.04C82.6552 12.7453 83.0386 13.6347 83.0386 14.708C83.0386 15.7813 82.6552 16.686 81.8886 17.422C81.1526 18.1273 80.2172 18.48 79.0826 18.48ZM82.2566 21.516V47H75.8166V21.516H82.2566ZM102.741 21.148C105.777 21.148 108.231 22.114 110.101 24.046C111.972 25.9473 112.907 28.6153 112.907 32.05V47H106.467V32.924C106.467 30.9 105.961 29.3513 104.949 28.278C103.937 27.174 102.557 26.622 100.809 26.622C99.0306 26.622 97.62 27.174 96.5773 28.278C95.5653 29.3513 95.0593 30.9 95.0593 32.924V47H88.6193V21.516H95.0593V24.69C95.918 23.586 97.0066 22.7273 98.3253 22.114C99.6746 21.47 101.147 21.148 102.741 21.148ZM128.783 47.414C126.698 47.414 124.827 47.046 123.171 46.31C121.515 45.5433 120.197 44.516 119.215 43.228C118.265 41.94 117.743 40.514 117.651 38.95H124.137C124.26 39.9313 124.735 40.744 125.563 41.388C126.422 42.032 127.48 42.354 128.737 42.354C129.964 42.354 130.915 42.1087 131.589 41.618C132.295 41.1273 132.647 40.4987 132.647 39.732C132.647 38.904 132.218 38.2907 131.359 37.892C130.531 37.4627 129.197 37.0027 127.357 36.512C125.456 36.052 123.892 35.5767 122.665 35.086C121.469 34.5953 120.427 33.844 119.537 32.832C118.679 31.82 118.249 30.4553 118.249 28.738C118.249 27.3273 118.648 26.0393 119.445 24.874C120.273 23.7087 121.439 22.7887 122.941 22.114C124.475 21.4393 126.269 21.102 128.323 21.102C131.359 21.102 133.782 21.8687 135.591 23.402C137.401 24.9047 138.397 26.944 138.581 29.52H132.417C132.325 28.508 131.896 27.7107 131.129 27.128C130.393 26.5147 129.397 26.208 128.139 26.208C126.974 26.208 126.069 26.4227 125.425 26.852C124.812 27.2813 124.505 27.8793 124.505 28.646C124.505 29.5047 124.935 30.164 125.793 30.624C126.652 31.0533 127.986 31.498 129.795 31.958C131.635 32.418 133.153 32.8933 134.349 33.384C135.545 33.8747 136.573 34.6413 137.431 35.684C138.321 36.696 138.781 38.0453 138.811 39.732C138.811 41.204 138.397 42.5227 137.569 43.688C136.772 44.8533 135.607 45.7733 134.073 46.448C132.571 47.092 130.807 47.414 128.783 47.414Z" fill="#3A3A3A"/>
<path d="M0 80C0 77.7909 1.79086 76 4 76H143C145.209 76 147 77.7909 147 80V83H0V80Z" fill="#3A3A3A"/>
</svg>
