<svg width="440" height="541" viewBox="0 0 440 541" fill="none" xmlns="http://www.w3.org/2000/svg">
<g filter="url(#filter0_d_185_2267)">
<rect x="18" y="18" width="396" height="497" rx="8" fill="white"/>
<path d="M75.9 362.06V383H71.7V369.38L66.09 383H62.91L57.27 369.38V383H53.07V362.06H57.84L64.5 377.63L71.16 362.06H75.9ZM78.9724 374.63C78.9724 372.95 79.3024 371.46 79.9624 370.16C80.6424 368.86 81.5524 367.86 82.6924 367.16C83.8524 366.46 85.1424 366.11 86.5624 366.11C87.8024 366.11 88.8824 366.36 89.8024 366.86C90.7424 367.36 91.4924 367.99 92.0524 368.75V366.38H96.2824V383H92.0524V380.57C91.5124 381.35 90.7624 382 89.8024 382.52C88.8624 383.02 87.7724 383.27 86.5324 383.27C85.1324 383.27 83.8524 382.91 82.6924 382.19C81.5524 381.47 80.6424 380.46 79.9624 379.16C79.3024 377.84 78.9724 376.33 78.9724 374.63ZM92.0524 374.69C92.0524 373.67 91.8524 372.8 91.4524 372.08C91.0524 371.34 90.5124 370.78 89.8324 370.4C89.1524 370 88.4224 369.8 87.6424 369.8C86.8624 369.8 86.1424 369.99 85.4824 370.37C84.8224 370.75 84.2824 371.31 83.8624 372.05C83.4624 372.77 83.2624 373.63 83.2624 374.63C83.2624 375.63 83.4624 376.51 83.8624 377.27C84.2824 378.01 84.8224 378.58 85.4824 378.98C86.1624 379.38 86.8824 379.58 87.6424 379.58C88.4224 379.58 89.1524 379.39 89.8324 379.01C90.5124 378.61 91.0524 378.05 91.4524 377.33C91.8524 376.59 92.0524 375.71 92.0524 374.69ZM104.584 368.96C105.124 368.08 105.824 367.39 106.684 366.89C107.564 366.39 108.564 366.14 109.684 366.14V370.55H108.574C107.254 370.55 106.254 370.86 105.574 371.48C104.914 372.1 104.584 373.18 104.584 374.72V383H100.384V366.38H104.584V368.96ZM119.443 379.13L123.643 366.38H128.113L121.963 383H116.863L110.743 366.38H115.243L119.443 379.13ZM145.922 374.33C145.922 374.93 145.882 375.47 145.802 375.95H133.652C133.752 377.15 134.172 378.09 134.912 378.77C135.652 379.45 136.562 379.79 137.642 379.79C139.202 379.79 140.312 379.12 140.972 377.78H145.502C145.022 379.38 144.102 380.7 142.742 381.74C141.382 382.76 139.712 383.27 137.732 383.27C136.132 383.27 134.692 382.92 133.412 382.22C132.152 381.5 131.162 380.49 130.442 379.19C129.742 377.89 129.392 376.39 129.392 374.69C129.392 372.97 129.742 371.46 130.442 370.16C131.142 368.86 132.122 367.86 133.382 367.16C134.642 366.46 136.092 366.11 137.732 366.11C139.312 366.11 140.722 366.45 141.962 367.13C143.222 367.81 144.192 368.78 144.872 370.04C145.572 371.28 145.922 372.71 145.922 374.33ZM141.572 373.13C141.552 372.05 141.162 371.19 140.402 370.55C139.642 369.89 138.712 369.56 137.612 369.56C136.572 369.56 135.692 369.88 134.972 370.52C134.272 371.14 133.842 372.01 133.682 373.13H141.572ZM153.188 360.8V383H148.988V360.8H153.188ZM161.538 360.8V383H157.338V360.8H161.538ZM181.137 374.33C181.137 374.93 181.097 375.47 181.017 375.95H168.867C168.967 377.15 169.387 378.09 170.127 378.77C170.867 379.45 171.777 379.79 172.857 379.79C174.417 379.79 175.527 379.12 176.187 377.78H180.717C180.237 379.38 179.317 380.7 177.957 381.74C176.597 382.76 174.927 383.27 172.947 383.27C171.347 383.27 169.907 382.92 168.627 382.22C167.367 381.5 166.377 380.49 165.657 379.19C164.957 377.89 164.607 376.39 164.607 374.69C164.607 372.97 164.957 371.46 165.657 370.16C166.357 368.86 167.337 367.86 168.597 367.16C169.857 366.46 171.307 366.11 172.947 366.11C174.527 366.11 175.937 366.45 177.177 367.13C178.437 367.81 179.407 368.78 180.087 370.04C180.787 371.28 181.137 372.71 181.137 374.33ZM176.787 373.13C176.767 372.05 176.377 371.19 175.617 370.55C174.857 369.89 173.927 369.56 172.827 369.56C171.787 369.56 170.907 369.88 170.187 370.52C169.487 371.14 169.057 372.01 168.897 373.13H176.787ZM193.383 383L189.963 377.84L186.933 383H182.433L187.863 374.66L182.373 366.38H187.113L190.503 371.51L193.563 366.38H198.063L192.603 374.66L198.123 383H193.383ZM206.532 372.5C206.532 370.44 206.992 368.6 207.912 366.98C208.852 365.34 210.122 364.07 211.722 363.17C213.342 362.25 215.152 361.79 217.152 361.79C219.492 361.79 221.542 362.39 223.302 363.59C225.062 364.79 226.292 366.45 226.992 368.57H222.162C221.682 367.57 221.002 366.82 220.122 366.32C219.262 365.82 218.262 365.57 217.122 365.57C215.902 365.57 214.812 365.86 213.852 366.44C212.912 367 212.172 367.8 211.632 368.84C211.112 369.88 210.852 371.1 210.852 372.5C210.852 373.88 211.112 375.1 211.632 376.16C212.172 377.2 212.912 378.01 213.852 378.59C214.812 379.15 215.902 379.43 217.122 379.43C218.262 379.43 219.262 379.18 220.122 378.68C221.002 378.16 221.682 377.4 222.162 376.4H226.992C226.292 378.54 225.062 380.21 223.302 381.41C221.562 382.59 219.512 383.18 217.152 383.18C215.152 383.18 213.342 382.73 211.722 381.83C210.122 380.91 208.852 379.64 207.912 378.02C206.992 376.4 206.532 374.56 206.532 372.5ZM234.78 360.8V383H230.58V360.8H234.78ZM237.849 374.63C237.849 372.95 238.179 371.46 238.839 370.16C239.519 368.86 240.429 367.86 241.569 367.16C242.729 366.46 244.019 366.11 245.439 366.11C246.679 366.11 247.759 366.36 248.679 366.86C249.619 367.36 250.369 367.99 250.929 368.75V366.38H255.159V383H250.929V380.57C250.389 381.35 249.639 382 248.679 382.52C247.739 383.02 246.649 383.27 245.409 383.27C244.009 383.27 242.729 382.91 241.569 382.19C240.429 381.47 239.519 380.46 238.839 379.16C238.179 377.84 237.849 376.33 237.849 374.63ZM250.929 374.69C250.929 373.67 250.729 372.8 250.329 372.08C249.929 371.34 249.389 370.78 248.709 370.4C248.029 370 247.299 369.8 246.519 369.8C245.739 369.8 245.019 369.99 244.359 370.37C243.699 370.75 243.159 371.31 242.739 372.05C242.339 372.77 242.139 373.63 242.139 374.63C242.139 375.63 242.339 376.51 242.739 377.27C243.159 378.01 243.699 378.58 244.359 378.98C245.039 379.38 245.759 379.58 246.519 379.58C247.299 379.58 248.029 379.39 248.709 379.01C249.389 378.61 249.929 378.05 250.329 377.33C250.729 376.59 250.929 375.71 250.929 374.69ZM265.621 383.27C264.261 383.27 263.041 383.03 261.961 382.55C260.881 382.05 260.021 381.38 259.381 380.54C258.761 379.7 258.421 378.77 258.361 377.75H262.591C262.671 378.39 262.981 378.92 263.521 379.34C264.081 379.76 264.771 379.97 265.591 379.97C266.391 379.97 267.011 379.81 267.451 379.49C267.911 379.17 268.141 378.76 268.141 378.26C268.141 377.72 267.861 377.32 267.301 377.06C266.761 376.78 265.891 376.48 264.691 376.16C263.451 375.86 262.431 375.55 261.631 375.23C260.851 374.91 260.171 374.42 259.591 373.76C259.031 373.1 258.751 372.21 258.751 371.09C258.751 370.17 259.011 369.33 259.531 368.57C260.071 367.81 260.831 367.21 261.811 366.77C262.811 366.33 263.981 366.11 265.321 366.11C267.301 366.11 268.881 366.61 270.061 367.61C271.241 368.59 271.891 369.92 272.011 371.6H267.991C267.931 370.94 267.651 370.42 267.151 370.04C266.671 369.64 266.021 369.44 265.201 369.44C264.441 369.44 263.851 369.58 263.431 369.86C263.031 370.14 262.831 370.53 262.831 371.03C262.831 371.59 263.111 372.02 263.671 372.32C264.231 372.6 265.101 372.89 266.281 373.19C267.481 373.49 268.471 373.8 269.251 374.12C270.031 374.44 270.701 374.94 271.261 375.62C271.841 376.28 272.141 377.16 272.161 378.26C272.161 379.22 271.891 380.08 271.351 380.84C270.831 381.6 270.071 382.2 269.071 382.64C268.091 383.06 266.941 383.27 265.621 383.27ZM281.969 383.27C280.609 383.27 279.389 383.03 278.309 382.55C277.229 382.05 276.369 381.38 275.729 380.54C275.109 379.7 274.769 378.77 274.709 377.75H278.939C279.019 378.39 279.329 378.92 279.869 379.34C280.429 379.76 281.119 379.97 281.939 379.97C282.739 379.97 283.359 379.81 283.799 379.49C284.259 379.17 284.489 378.76 284.489 378.26C284.489 377.72 284.209 377.32 283.649 377.06C283.109 376.78 282.239 376.48 281.039 376.16C279.799 375.86 278.779 375.55 277.979 375.23C277.199 374.91 276.519 374.42 275.939 373.76C275.379 373.1 275.099 372.21 275.099 371.09C275.099 370.17 275.359 369.33 275.879 368.57C276.419 367.81 277.179 367.21 278.159 366.77C279.159 366.33 280.329 366.11 281.669 366.11C283.649 366.11 285.229 366.61 286.409 367.61C287.589 368.59 288.239 369.92 288.359 371.6H284.339C284.279 370.94 283.999 370.42 283.499 370.04C283.019 369.64 282.369 369.44 281.549 369.44C280.789 369.44 280.199 369.58 279.779 369.86C279.379 370.14 279.179 370.53 279.179 371.03C279.179 371.59 279.459 372.02 280.019 372.32C280.579 372.6 281.449 372.89 282.629 373.19C283.829 373.49 284.819 373.8 285.599 374.12C286.379 374.44 287.049 374.94 287.609 375.62C288.189 376.28 288.489 377.16 288.509 378.26C288.509 379.22 288.239 380.08 287.699 380.84C287.179 381.6 286.419 382.2 285.419 382.64C284.439 383.06 283.289 383.27 281.969 383.27ZM294.087 364.4C293.347 364.4 292.727 364.17 292.227 363.71C291.747 363.23 291.507 362.64 291.507 361.94C291.507 361.24 291.747 360.66 292.227 360.2C292.727 359.72 293.347 359.48 294.087 359.48C294.827 359.48 295.437 359.72 295.917 360.2C296.417 360.66 296.667 361.24 296.667 361.94C296.667 362.64 296.417 363.23 295.917 363.71C295.437 364.17 294.827 364.4 294.087 364.4ZM296.157 366.38V383H291.957V366.38H296.157ZM299.226 374.69C299.226 372.97 299.576 371.47 300.276 370.19C300.976 368.89 301.946 367.89 303.186 367.19C304.426 366.47 305.846 366.11 307.446 366.11C309.506 366.11 311.206 366.63 312.546 367.67C313.906 368.69 314.816 370.13 315.276 371.99H310.746C310.506 371.27 310.096 370.71 309.516 370.31C308.956 369.89 308.256 369.68 307.416 369.68C306.216 369.68 305.266 370.12 304.566 371C303.866 371.86 303.516 373.09 303.516 374.69C303.516 376.27 303.866 377.5 304.566 378.38C305.266 379.24 306.216 379.67 307.416 379.67C309.116 379.67 310.226 378.91 310.746 377.39H315.276C314.816 379.19 313.906 380.62 312.546 381.68C311.186 382.74 309.486 383.27 307.446 383.27C305.846 383.27 304.426 382.92 303.186 382.22C301.946 381.5 300.976 380.5 300.276 379.22C299.576 377.92 299.226 376.41 299.226 374.69Z" fill="#3A3A3A"/>
<path d="M51.774 413.718C51.774 412.494 52.05 411.396 52.602 410.424C53.154 409.44 53.904 408.672 54.852 408.12C55.812 407.568 56.874 407.292 58.038 407.292C59.406 407.292 60.6 407.622 61.62 408.282C62.64 408.942 63.384 409.878 63.852 411.09H61.89C61.542 410.334 61.038 409.752 60.378 409.344C59.73 408.936 58.95 408.732 58.038 408.732C57.162 408.732 56.376 408.936 55.68 409.344C54.984 409.752 54.438 410.334 54.042 411.09C53.646 411.834 53.448 412.71 53.448 413.718C53.448 414.714 53.646 415.59 54.042 416.346C54.438 417.09 54.984 417.666 55.68 418.074C56.376 418.482 57.162 418.686 58.038 418.686C58.95 418.686 59.73 418.488 60.378 418.092C61.038 417.684 61.542 417.102 61.89 416.346H63.852C63.384 417.546 62.64 418.476 61.62 419.136C60.6 419.784 59.406 420.108 58.038 420.108C56.874 420.108 55.812 419.838 54.852 419.298C53.904 418.746 53.154 417.984 52.602 417.012C52.05 416.04 51.774 414.942 51.774 413.718ZM70.5923 420.162C69.6683 420.162 68.8283 419.952 68.0723 419.532C67.3283 419.112 66.7403 418.518 66.3083 417.75C65.8883 416.97 65.6783 416.07 65.6783 415.05C65.6783 414.042 65.8943 413.154 66.3263 412.386C66.7703 411.606 67.3703 411.012 68.1263 410.604C68.8823 410.184 69.7283 409.974 70.6643 409.974C71.6003 409.974 72.4463 410.184 73.2023 410.604C73.9583 411.012 74.5523 411.6 74.9843 412.368C75.4283 413.136 75.6503 414.03 75.6503 415.05C75.6503 416.07 75.4223 416.97 74.9663 417.75C74.5223 418.518 73.9163 419.112 73.1483 419.532C72.3803 419.952 71.5283 420.162 70.5923 420.162ZM70.5923 418.722C71.1803 418.722 71.7323 418.584 72.2483 418.308C72.7643 418.032 73.1783 417.618 73.4903 417.066C73.8143 416.514 73.9763 415.842 73.9763 415.05C73.9763 414.258 73.8203 413.586 73.5083 413.034C73.1963 412.482 72.7883 412.074 72.2843 411.81C71.7803 411.534 71.2343 411.396 70.6463 411.396C70.0463 411.396 69.4943 411.534 68.9903 411.81C68.4983 412.074 68.1023 412.482 67.8023 413.034C67.5023 413.586 67.3523 414.258 67.3523 415.05C67.3523 415.854 67.4963 416.532 67.7843 417.084C68.0843 417.636 68.4803 418.05 68.9723 418.326C69.4643 418.59 70.0043 418.722 70.5923 418.722ZM78.65 408.534C78.338 408.534 78.074 408.426 77.858 408.21C77.642 407.994 77.534 407.73 77.534 407.418C77.534 407.106 77.642 406.842 77.858 406.626C78.074 406.41 78.338 406.302 78.65 406.302C78.95 406.302 79.202 406.41 79.406 406.626C79.622 406.842 79.73 407.106 79.73 407.418C79.73 407.73 79.622 407.994 79.406 408.21C79.202 408.426 78.95 408.534 78.65 408.534ZM79.442 410.136V420H77.804V410.136H79.442ZM87.0397 409.956C88.2397 409.956 89.2117 410.322 89.9557 411.054C90.6997 411.774 91.0717 412.818 91.0717 414.186V420H89.4517V414.42C89.4517 413.436 89.2057 412.686 88.7137 412.17C88.2217 411.642 87.5497 411.378 86.6977 411.378C85.8337 411.378 85.1437 411.648 84.6277 412.188C84.1237 412.728 83.8717 413.514 83.8717 414.546V420H82.2337V410.136H83.8717V411.54C84.1957 411.036 84.6337 410.646 85.1857 410.37C85.7497 410.094 86.3677 409.956 87.0397 409.956ZM103.442 409.956C104.186 409.956 104.858 410.118 105.458 410.442C106.058 410.754 106.526 411.228 106.862 411.864C107.21 412.5 107.384 413.274 107.384 414.186V420H105.764V414.42C105.764 413.436 105.518 412.686 105.026 412.17C104.534 411.642 103.862 411.378 103.01 411.378C102.146 411.378 101.456 411.648 100.94 412.188C100.436 412.728 100.184 413.514 100.184 414.546V420H98.5462V406.68H100.184V411.54C100.508 411.036 100.952 410.646 101.516 410.37C102.092 410.094 102.734 409.956 103.442 409.956ZM114.362 420.162C113.438 420.162 112.598 419.952 111.842 419.532C111.098 419.112 110.51 418.518 110.078 417.75C109.658 416.97 109.448 416.07 109.448 415.05C109.448 414.042 109.664 413.154 110.096 412.386C110.54 411.606 111.14 411.012 111.896 410.604C112.652 410.184 113.498 409.974 114.434 409.974C115.37 409.974 116.216 410.184 116.972 410.604C117.728 411.012 118.322 411.6 118.754 412.368C119.198 413.136 119.42 414.03 119.42 415.05C119.42 416.07 119.192 416.97 118.736 417.75C118.292 418.518 117.686 419.112 116.918 419.532C116.15 419.952 115.298 420.162 114.362 420.162ZM114.362 418.722C114.95 418.722 115.502 418.584 116.018 418.308C116.534 418.032 116.948 417.618 117.26 417.066C117.584 416.514 117.746 415.842 117.746 415.05C117.746 414.258 117.59 413.586 117.278 413.034C116.966 412.482 116.558 412.074 116.054 411.81C115.55 411.534 115.004 411.396 114.416 411.396C113.816 411.396 113.264 411.534 112.76 411.81C112.268 412.074 111.872 412.482 111.572 413.034C111.272 413.586 111.122 414.258 111.122 415.05C111.122 415.854 111.266 416.532 111.554 417.084C111.854 417.636 112.25 418.05 112.742 418.326C113.234 418.59 113.774 418.722 114.362 418.722ZM123.212 406.68V420H121.574V406.68H123.212ZM125.391 415.032C125.391 414.024 125.595 413.142 126.003 412.386C126.411 411.618 126.969 411.024 127.677 410.604C128.397 410.184 129.201 409.974 130.089 409.974C130.857 409.974 131.571 410.154 132.231 410.514C132.891 410.862 133.395 411.324 133.743 411.9V406.68H135.399V420H133.743V418.146C133.419 418.734 132.939 419.22 132.303 419.604C131.667 419.976 130.923 420.162 130.071 420.162C129.195 420.162 128.397 419.946 127.677 419.514C126.969 419.082 126.411 418.476 126.003 417.696C125.595 416.916 125.391 416.028 125.391 415.032ZM133.743 415.05C133.743 414.306 133.593 413.658 133.293 413.106C132.993 412.554 132.585 412.134 132.069 411.846C131.565 411.546 131.007 411.396 130.395 411.396C129.783 411.396 129.225 411.54 128.721 411.828C128.217 412.116 127.815 412.536 127.515 413.088C127.215 413.64 127.065 414.288 127.065 415.032C127.065 415.788 127.215 416.448 127.515 417.012C127.815 417.564 128.217 417.99 128.721 418.29C129.225 418.578 129.783 418.722 130.395 418.722C131.007 418.722 131.565 418.578 132.069 418.29C132.585 417.99 132.993 417.564 133.293 417.012C133.593 416.448 133.743 415.794 133.743 415.05ZM147.167 414.69C147.167 415.002 147.149 415.332 147.113 415.68H139.229C139.289 416.652 139.619 417.414 140.219 417.966C140.831 418.506 141.569 418.776 142.433 418.776C143.141 418.776 143.729 418.614 144.197 418.29C144.677 417.954 145.013 417.51 145.205 416.958H146.969C146.705 417.906 146.177 418.68 145.385 419.28C144.593 419.868 143.609 420.162 142.433 420.162C141.497 420.162 140.657 419.952 139.913 419.532C139.181 419.112 138.605 418.518 138.185 417.75C137.765 416.97 137.555 416.07 137.555 415.05C137.555 414.03 137.759 413.136 138.167 412.368C138.575 411.6 139.145 411.012 139.877 410.604C140.621 410.184 141.473 409.974 142.433 409.974C143.369 409.974 144.197 410.178 144.917 410.586C145.637 410.994 146.189 411.558 146.573 412.278C146.969 412.986 147.167 413.79 147.167 414.69ZM145.475 414.348C145.475 413.724 145.337 413.19 145.061 412.746C144.785 412.29 144.407 411.948 143.927 411.72C143.459 411.48 142.937 411.36 142.361 411.36C141.533 411.36 140.825 411.624 140.237 412.152C139.661 412.68 139.331 413.412 139.247 414.348H145.475ZM150.967 411.738C151.255 411.174 151.663 410.736 152.191 410.424C152.731 410.112 153.385 409.956 154.153 409.956V411.648H153.721C151.885 411.648 150.967 412.644 150.967 414.636V420H149.329V410.136H150.967V411.738ZM159.536 420.162C158.78 420.162 158.102 420.036 157.502 419.784C156.902 419.52 156.428 419.16 156.08 418.704C155.732 418.236 155.54 417.702 155.504 417.102H157.196C157.244 417.594 157.472 417.996 157.88 418.308C158.3 418.62 158.846 418.776 159.518 418.776C160.142 418.776 160.634 418.638 160.994 418.362C161.354 418.086 161.534 417.738 161.534 417.318C161.534 416.886 161.342 416.568 160.958 416.364C160.574 416.148 159.98 415.938 159.176 415.734C158.444 415.542 157.844 415.35 157.376 415.158C156.92 414.954 156.524 414.66 156.188 414.276C155.864 413.88 155.702 413.364 155.702 412.728C155.702 412.224 155.852 411.762 156.152 411.342C156.452 410.922 156.878 410.592 157.43 410.352C157.982 410.1 158.612 409.974 159.32 409.974C160.412 409.974 161.294 410.25 161.966 410.802C162.638 411.354 162.998 412.11 163.046 413.07H161.408C161.372 412.554 161.162 412.14 160.778 411.828C160.406 411.516 159.902 411.36 159.266 411.36C158.678 411.36 158.21 411.486 157.862 411.738C157.514 411.99 157.34 412.32 157.34 412.728C157.34 413.052 157.442 413.322 157.646 413.538C157.862 413.742 158.126 413.91 158.438 414.042C158.762 414.162 159.206 414.3 159.77 414.456C160.478 414.648 161.054 414.84 161.498 415.032C161.942 415.212 162.32 415.488 162.632 415.86C162.956 416.232 163.124 416.718 163.136 417.318C163.136 417.858 162.986 418.344 162.686 418.776C162.386 419.208 161.96 419.55 161.408 419.802C160.868 420.042 160.244 420.162 159.536 420.162ZM183.387 410.136L180.309 420H178.617L176.241 412.17L173.865 420H172.173L169.077 410.136H170.751L173.019 418.416L175.467 410.136H177.141L179.535 418.434L181.767 410.136H183.387ZM185.859 408.534C185.547 408.534 185.283 408.426 185.067 408.21C184.851 407.994 184.743 407.73 184.743 407.418C184.743 407.106 184.851 406.842 185.067 406.626C185.283 406.41 185.547 406.302 185.859 406.302C186.159 406.302 186.411 406.41 186.615 406.626C186.831 406.842 186.939 407.106 186.939 407.418C186.939 407.73 186.831 407.994 186.615 408.21C186.411 408.426 186.159 408.534 185.859 408.534ZM186.651 410.136V420H185.013V410.136H186.651ZM191.081 406.68V420H189.443V406.68H191.081ZM195.51 406.68V420H193.872V406.68H195.51ZM204.739 411.972C205.075 411.384 205.567 410.904 206.215 410.532C206.863 410.16 207.601 409.974 208.429 409.974C209.317 409.974 210.115 410.184 210.823 410.604C211.531 411.024 212.089 411.618 212.497 412.386C212.905 413.142 213.109 414.024 213.109 415.032C213.109 416.028 212.905 416.916 212.497 417.696C212.089 418.476 211.525 419.082 210.805 419.514C210.097 419.946 209.305 420.162 208.429 420.162C207.577 420.162 206.827 419.976 206.179 419.604C205.543 419.232 205.063 418.758 204.739 418.182V420H203.101V406.68H204.739V411.972ZM211.435 415.032C211.435 414.288 211.285 413.64 210.985 413.088C210.685 412.536 210.277 412.116 209.761 411.828C209.257 411.54 208.699 411.396 208.087 411.396C207.487 411.396 206.929 411.546 206.413 411.846C205.909 412.134 205.501 412.56 205.189 413.124C204.889 413.676 204.739 414.318 204.739 415.05C204.739 415.794 204.889 416.448 205.189 417.012C205.501 417.564 205.909 417.99 206.413 418.29C206.929 418.578 207.487 418.722 208.087 418.722C208.699 418.722 209.257 418.578 209.761 418.29C210.277 417.99 210.685 417.564 210.985 417.012C211.285 416.448 211.435 415.788 211.435 415.032ZM224.265 414.69C224.265 415.002 224.247 415.332 224.211 415.68H216.327C216.387 416.652 216.717 417.414 217.317 417.966C217.929 418.506 218.667 418.776 219.531 418.776C220.239 418.776 220.827 418.614 221.295 418.29C221.775 417.954 222.111 417.51 222.303 416.958H224.067C223.803 417.906 223.275 418.68 222.483 419.28C221.691 419.868 220.707 420.162 219.531 420.162C218.595 420.162 217.755 419.952 217.011 419.532C216.279 419.112 215.703 418.518 215.283 417.75C214.863 416.97 214.653 416.07 214.653 415.05C214.653 414.03 214.857 413.136 215.265 412.368C215.673 411.6 216.243 411.012 216.975 410.604C217.719 410.184 218.571 409.974 219.531 409.974C220.467 409.974 221.295 410.178 222.015 410.586C222.735 410.994 223.287 411.558 223.671 412.278C224.067 412.986 224.265 413.79 224.265 414.69ZM222.573 414.348C222.573 413.724 222.435 413.19 222.159 412.746C221.883 412.29 221.505 411.948 221.025 411.72C220.557 411.48 220.035 411.36 219.459 411.36C218.631 411.36 217.923 411.624 217.335 412.152C216.759 412.68 216.429 413.412 216.345 414.348H222.573ZM232.864 411.738C233.152 411.174 233.56 410.736 234.088 410.424C234.628 410.112 235.282 409.956 236.05 409.956V411.648H235.618C233.782 411.648 232.864 412.644 232.864 414.636V420H231.226V410.136H232.864V411.738ZM246.941 414.69C246.941 415.002 246.923 415.332 246.887 415.68H239.003C239.063 416.652 239.393 417.414 239.993 417.966C240.605 418.506 241.343 418.776 242.207 418.776C242.915 418.776 243.503 418.614 243.971 418.29C244.451 417.954 244.787 417.51 244.979 416.958H246.743C246.479 417.906 245.951 418.68 245.159 419.28C244.367 419.868 243.383 420.162 242.207 420.162C241.271 420.162 240.431 419.952 239.687 419.532C238.955 419.112 238.379 418.518 237.959 417.75C237.539 416.97 237.329 416.07 237.329 415.05C237.329 414.03 237.533 413.136 237.941 412.368C238.349 411.6 238.919 411.012 239.651 410.604C240.395 410.184 241.247 409.974 242.207 409.974C243.143 409.974 243.971 410.178 244.691 410.586C245.411 410.994 245.963 411.558 246.347 412.278C246.743 412.986 246.941 413.79 246.941 414.69ZM245.249 414.348C245.249 413.724 245.111 413.19 244.835 412.746C244.559 412.29 244.181 411.948 243.701 411.72C243.233 411.48 242.711 411.36 242.135 411.36C241.307 411.36 240.599 411.624 240.011 412.152C239.435 412.68 239.105 413.412 239.021 414.348H245.249ZM262.243 410.136L259.165 420H257.473L255.097 412.17L252.721 420H251.029L247.933 410.136H249.607L251.875 418.416L254.323 410.136H255.997L258.391 418.434L260.623 410.136H262.243ZM263.256 415.032C263.256 414.024 263.46 413.142 263.868 412.386C264.276 411.618 264.834 411.024 265.542 410.604C266.262 410.184 267.06 409.974 267.936 409.974C268.8 409.974 269.55 410.16 270.186 410.532C270.822 410.904 271.296 411.372 271.608 411.936V410.136H273.264V420H271.608V418.164C271.284 418.74 270.798 419.22 270.15 419.604C269.514 419.976 268.77 420.162 267.918 420.162C267.042 420.162 266.25 419.946 265.542 419.514C264.834 419.082 264.276 418.476 263.868 417.696C263.46 416.916 263.256 416.028 263.256 415.032ZM271.608 415.05C271.608 414.306 271.458 413.658 271.158 413.106C270.858 412.554 270.45 412.134 269.934 411.846C269.43 411.546 268.872 411.396 268.26 411.396C267.648 411.396 267.09 411.54 266.586 411.828C266.082 412.116 265.68 412.536 265.38 413.088C265.08 413.64 264.93 414.288 264.93 415.032C264.93 415.788 265.08 416.448 265.38 417.012C265.68 417.564 266.082 417.99 266.586 418.29C267.09 418.578 267.648 418.722 268.26 418.722C268.872 418.722 269.43 418.578 269.934 418.29C270.45 417.99 270.858 417.564 271.158 417.012C271.458 416.448 271.608 415.794 271.608 415.05ZM277.67 411.738C277.958 411.174 278.366 410.736 278.894 410.424C279.434 410.112 280.088 409.956 280.856 409.956V411.648H280.424C278.588 411.648 277.67 412.644 277.67 414.636V420H276.032V410.136H277.67V411.738ZM282.135 415.032C282.135 414.024 282.339 413.142 282.747 412.386C283.155 411.618 283.713 411.024 284.421 410.604C285.141 410.184 285.945 409.974 286.833 409.974C287.601 409.974 288.315 410.154 288.975 410.514C289.635 410.862 290.139 411.324 290.487 411.9V406.68H292.143V420H290.487V418.146C290.163 418.734 289.683 419.22 289.047 419.604C288.411 419.976 287.667 420.162 286.815 420.162C285.939 420.162 285.141 419.946 284.421 419.514C283.713 419.082 283.155 418.476 282.747 417.696C282.339 416.916 282.135 416.028 282.135 415.032ZM290.487 415.05C290.487 414.306 290.337 413.658 290.037 413.106C289.737 412.554 289.329 412.134 288.813 411.846C288.309 411.546 287.751 411.396 287.139 411.396C286.527 411.396 285.969 411.54 285.465 411.828C284.961 412.116 284.559 412.536 284.259 413.088C283.959 413.64 283.809 414.288 283.809 415.032C283.809 415.788 283.959 416.448 284.259 417.012C284.559 417.564 284.961 417.99 285.465 418.29C285.969 418.578 286.527 418.722 287.139 418.722C287.751 418.722 288.309 418.578 288.813 418.29C289.329 417.99 289.737 417.564 290.037 417.012C290.337 416.448 290.487 415.794 290.487 415.05ZM303.911 414.69C303.911 415.002 303.893 415.332 303.857 415.68H295.973C296.033 416.652 296.363 417.414 296.963 417.966C297.575 418.506 298.313 418.776 299.177 418.776C299.885 418.776 300.473 418.614 300.941 418.29C301.421 417.954 301.757 417.51 301.949 416.958H303.713C303.449 417.906 302.921 418.68 302.129 419.28C301.337 419.868 300.353 420.162 299.177 420.162C298.241 420.162 297.401 419.952 296.657 419.532C295.925 419.112 295.349 418.518 294.929 417.75C294.509 416.97 294.299 416.07 294.299 415.05C294.299 414.03 294.503 413.136 294.911 412.368C295.319 411.6 295.889 411.012 296.621 410.604C297.365 410.184 298.217 409.974 299.177 409.974C300.113 409.974 300.941 410.178 301.661 410.586C302.381 410.994 302.933 411.558 303.317 412.278C303.713 412.986 303.911 413.79 303.911 414.69ZM302.219 414.348C302.219 413.724 302.081 413.19 301.805 412.746C301.529 412.29 301.151 411.948 300.671 411.72C300.203 411.48 299.681 411.36 299.105 411.36C298.277 411.36 297.569 411.624 296.981 412.152C296.405 412.68 296.075 413.412 295.991 414.348H302.219ZM305.462 415.032C305.462 414.024 305.666 413.142 306.074 412.386C306.482 411.618 307.04 411.024 307.748 410.604C308.468 410.184 309.272 409.974 310.16 409.974C310.928 409.974 311.642 410.154 312.302 410.514C312.962 410.862 313.466 411.324 313.814 411.9V406.68H315.47V420H313.814V418.146C313.49 418.734 313.01 419.22 312.374 419.604C311.738 419.976 310.994 420.162 310.142 420.162C309.266 420.162 308.468 419.946 307.748 419.514C307.04 419.082 306.482 418.476 306.074 417.696C305.666 416.916 305.462 416.028 305.462 415.032ZM313.814 415.05C313.814 414.306 313.664 413.658 313.364 413.106C313.064 412.554 312.656 412.134 312.14 411.846C311.636 411.546 311.078 411.396 310.466 411.396C309.854 411.396 309.296 411.54 308.792 411.828C308.288 412.116 307.886 412.536 307.586 413.088C307.286 413.64 307.136 414.288 307.136 415.032C307.136 415.788 307.286 416.448 307.586 417.012C307.886 417.564 308.288 417.99 308.792 418.29C309.296 418.578 309.854 418.722 310.466 418.722C311.078 418.722 311.636 418.578 312.14 418.29C312.656 417.99 313.064 417.564 313.364 417.012C313.664 416.448 313.814 415.794 313.814 415.05ZM327.05 411.486H324.98V420H323.342V411.486H322.064V410.136H323.342V409.434C323.342 408.33 323.624 407.526 324.188 407.022C324.764 406.506 325.682 406.248 326.942 406.248V407.616C326.222 407.616 325.712 407.76 325.412 408.048C325.124 408.324 324.98 408.786 324.98 409.434V410.136H327.05V411.486ZM330.598 411.738C330.886 411.174 331.294 410.736 331.822 410.424C332.362 410.112 333.016 409.956 333.784 409.956V411.648H333.352C331.516 411.648 330.598 412.644 330.598 414.636V420H328.96V410.136H330.598V411.738ZM339.977 420.162C339.053 420.162 338.213 419.952 337.457 419.532C336.713 419.112 336.125 418.518 335.693 417.75C335.273 416.97 335.063 416.07 335.063 415.05C335.063 414.042 335.279 413.154 335.711 412.386C336.155 411.606 336.755 411.012 337.511 410.604C338.267 410.184 339.113 409.974 340.049 409.974C340.985 409.974 341.831 410.184 342.587 410.604C343.343 411.012 343.937 411.6 344.369 412.368C344.813 413.136 345.035 414.03 345.035 415.05C345.035 416.07 344.807 416.97 344.351 417.75C343.907 418.518 343.301 419.112 342.533 419.532C341.765 419.952 340.913 420.162 339.977 420.162ZM339.977 418.722C340.565 418.722 341.117 418.584 341.633 418.308C342.149 418.032 342.563 417.618 342.875 417.066C343.199 416.514 343.361 415.842 343.361 415.05C343.361 414.258 343.205 413.586 342.893 413.034C342.581 412.482 342.173 412.074 341.669 411.81C341.165 411.534 340.619 411.396 340.031 411.396C339.431 411.396 338.879 411.534 338.375 411.81C337.883 412.074 337.487 412.482 337.187 413.034C336.887 413.586 336.737 414.258 336.737 415.05C336.737 415.854 336.881 416.532 337.169 417.084C337.469 417.636 337.865 418.05 338.357 418.326C338.849 418.59 339.389 418.722 339.977 418.722ZM359.051 409.956C359.819 409.956 360.503 410.118 361.103 410.442C361.703 410.754 362.177 411.228 362.525 411.864C362.873 412.5 363.047 413.274 363.047 414.186V420H361.427V414.42C361.427 413.436 361.181 412.686 360.689 412.17C360.209 411.642 359.555 411.378 358.727 411.378C357.875 411.378 357.197 411.654 356.693 412.206C356.189 412.746 355.937 413.532 355.937 414.564V420H354.317V414.42C354.317 413.436 354.071 412.686 353.579 412.17C353.099 411.642 352.445 411.378 351.617 411.378C350.765 411.378 350.087 411.654 349.583 412.206C349.079 412.746 348.827 413.532 348.827 414.564V420H347.189V410.136H348.827V411.558C349.151 411.042 349.583 410.646 350.123 410.37C350.675 410.094 351.281 409.956 351.941 409.956C352.769 409.956 353.501 410.142 354.137 410.514C354.773 410.886 355.247 411.432 355.559 412.152C355.835 411.456 356.291 410.916 356.927 410.532C357.563 410.148 358.271 409.956 359.051 409.956ZM54.384 435.486V441.3C54.384 441.78 54.486 442.122 54.69 442.326C54.894 442.518 55.248 442.614 55.752 442.614H56.958V444H55.482C54.57 444 53.886 443.79 53.43 443.37C52.974 442.95 52.746 442.26 52.746 441.3V435.486H51.468V434.136H52.746V431.652H54.384V434.136H56.958V435.486H54.384ZM63.8386 433.956C64.5826 433.956 65.2546 434.118 65.8546 434.442C66.4546 434.754 66.9226 435.228 67.2586 435.864C67.6066 436.5 67.7806 437.274 67.7806 438.186V444H66.1606V438.42C66.1606 437.436 65.9146 436.686 65.4226 436.17C64.9306 435.642 64.2586 435.378 63.4066 435.378C62.5426 435.378 61.8526 435.648 61.3366 436.188C60.8326 436.728 60.5806 437.514 60.5806 438.546V444H58.9426V430.68H60.5806V435.54C60.9046 435.036 61.3486 434.646 61.9126 434.37C62.4886 434.094 63.1306 433.956 63.8386 433.956ZM79.4563 438.69C79.4563 439.002 79.4383 439.332 79.4023 439.68H71.5183C71.5783 440.652 71.9083 441.414 72.5083 441.966C73.1203 442.506 73.8583 442.776 74.7223 442.776C75.4303 442.776 76.0183 442.614 76.4863 442.29C76.9663 441.954 77.3023 441.51 77.4943 440.958H79.2583C78.9943 441.906 78.4663 442.68 77.6743 443.28C76.8823 443.868 75.8983 444.162 74.7223 444.162C73.7863 444.162 72.9463 443.952 72.2023 443.532C71.4703 443.112 70.8943 442.518 70.4743 441.75C70.0543 440.97 69.8443 440.07 69.8443 439.05C69.8443 438.03 70.0483 437.136 70.4563 436.368C70.8643 435.6 71.4343 435.012 72.1663 434.604C72.9103 434.184 73.7623 433.974 74.7223 433.974C75.6583 433.974 76.4863 434.178 77.2063 434.586C77.9263 434.994 78.4783 435.558 78.8623 436.278C79.2583 436.986 79.4563 437.79 79.4563 438.69ZM77.7643 438.348C77.7643 437.724 77.6263 437.19 77.3503 436.746C77.0743 436.29 76.6963 435.948 76.2163 435.72C75.7483 435.48 75.2263 435.36 74.6503 435.36C73.8223 435.36 73.1143 435.624 72.5263 436.152C71.9503 436.68 71.6203 437.412 71.5363 438.348H77.7643ZM88.0553 435.738C88.3433 435.174 88.7513 434.736 89.2793 434.424C89.8193 434.112 90.4733 433.956 91.2413 433.956V435.648H90.8093C88.9733 435.648 88.0553 436.644 88.0553 438.636V444H86.4173V434.136H88.0553V435.738ZM102.132 438.69C102.132 439.002 102.114 439.332 102.078 439.68H94.1941C94.2541 440.652 94.5841 441.414 95.1841 441.966C95.7961 442.506 96.5341 442.776 97.3981 442.776C98.1061 442.776 98.6941 442.614 99.1621 442.29C99.6421 441.954 99.9781 441.51 100.17 440.958H101.934C101.67 441.906 101.142 442.68 100.35 443.28C99.5581 443.868 98.5741 444.162 97.3981 444.162C96.4621 444.162 95.6221 443.952 94.8781 443.532C94.1461 443.112 93.5701 442.518 93.1501 441.75C92.7301 440.97 92.5201 440.07 92.5201 439.05C92.5201 438.03 92.7241 437.136 93.1321 436.368C93.5401 435.6 94.1101 435.012 94.8421 434.604C95.5861 434.184 96.4381 433.974 97.3981 433.974C98.3341 433.974 99.1621 434.178 99.8821 434.586C100.602 434.994 101.154 435.558 101.538 436.278C101.934 436.986 102.132 437.79 102.132 438.69ZM100.44 438.348C100.44 437.724 100.302 437.19 100.026 436.746C99.7501 436.29 99.3721 435.948 98.8921 435.72C98.4241 435.48 97.9021 435.36 97.3261 435.36C96.4981 435.36 95.7901 435.624 95.2021 436.152C94.6261 436.68 94.2961 437.412 94.2121 438.348H100.44ZM107.966 442.488L111.026 434.136H112.772L108.902 444H106.994L103.124 434.136H104.888L107.966 442.488ZM123.384 438.69C123.384 439.002 123.366 439.332 123.33 439.68H115.446C115.506 440.652 115.836 441.414 116.436 441.966C117.048 442.506 117.786 442.776 118.65 442.776C119.358 442.776 119.946 442.614 120.414 442.29C120.894 441.954 121.23 441.51 121.422 440.958H123.186C122.922 441.906 122.394 442.68 121.602 443.28C120.81 443.868 119.826 444.162 118.65 444.162C117.714 444.162 116.874 443.952 116.13 443.532C115.398 443.112 114.822 442.518 114.402 441.75C113.982 440.97 113.772 440.07 113.772 439.05C113.772 438.03 113.976 437.136 114.384 436.368C114.792 435.6 115.362 435.012 116.094 434.604C116.838 434.184 117.69 433.974 118.65 433.974C119.586 433.974 120.414 434.178 121.134 434.586C121.854 434.994 122.406 435.558 122.79 436.278C123.186 436.986 123.384 437.79 123.384 438.69ZM121.692 438.348C121.692 437.724 121.554 437.19 121.278 436.746C121.002 436.29 120.624 435.948 120.144 435.72C119.676 435.48 119.154 435.36 118.578 435.36C117.75 435.36 117.042 435.624 116.454 436.152C115.878 436.68 115.548 437.412 115.464 438.348H121.692ZM130.352 433.956C131.552 433.956 132.524 434.322 133.268 435.054C134.012 435.774 134.384 436.818 134.384 438.186V444H132.764V438.42C132.764 437.436 132.518 436.686 132.026 436.17C131.534 435.642 130.862 435.378 130.01 435.378C129.146 435.378 128.456 435.648 127.94 436.188C127.436 436.728 127.184 437.514 127.184 438.546V444H125.546V434.136H127.184V435.54C127.508 435.036 127.946 434.646 128.498 434.37C129.062 434.094 129.68 433.956 130.352 433.956ZM145.808 434.136V444H144.17V442.542C143.858 443.046 143.42 443.442 142.856 443.73C142.304 444.006 141.692 444.144 141.02 444.144C140.252 444.144 139.562 443.988 138.95 443.676C138.338 443.352 137.852 442.872 137.492 442.236C137.144 441.6 136.97 440.826 136.97 439.914V434.136H138.59V439.698C138.59 440.67 138.836 441.42 139.328 441.948C139.82 442.464 140.492 442.722 141.344 442.722C142.22 442.722 142.91 442.452 143.414 441.912C143.918 441.372 144.17 440.586 144.17 439.554V434.136H145.808ZM157.574 438.69C157.574 439.002 157.556 439.332 157.52 439.68H149.636C149.696 440.652 150.026 441.414 150.626 441.966C151.238 442.506 151.976 442.776 152.84 442.776C153.548 442.776 154.136 442.614 154.604 442.29C155.084 441.954 155.42 441.51 155.612 440.958H157.376C157.112 441.906 156.584 442.68 155.792 443.28C155 443.868 154.016 444.162 152.84 444.162C151.904 444.162 151.064 443.952 150.32 443.532C149.588 443.112 149.012 442.518 148.592 441.75C148.172 440.97 147.962 440.07 147.962 439.05C147.962 438.03 148.166 437.136 148.574 436.368C148.982 435.6 149.552 435.012 150.284 434.604C151.028 434.184 151.88 433.974 152.84 433.974C153.776 433.974 154.604 434.178 155.324 434.586C156.044 434.994 156.596 435.558 156.98 436.278C157.376 436.986 157.574 437.79 157.574 438.69ZM155.882 438.348C155.882 437.724 155.744 437.19 155.468 436.746C155.192 436.29 154.814 435.948 154.334 435.72C153.866 435.48 153.344 435.36 152.768 435.36C151.94 435.36 151.232 435.624 150.644 436.152C150.068 436.68 149.738 437.412 149.654 438.348H155.882ZM168.836 444.162C167.912 444.162 167.072 443.952 166.316 443.532C165.572 443.112 164.984 442.518 164.552 441.75C164.132 440.97 163.922 440.07 163.922 439.05C163.922 438.042 164.138 437.154 164.57 436.386C165.014 435.606 165.614 435.012 166.37 434.604C167.126 434.184 167.972 433.974 168.908 433.974C169.844 433.974 170.69 434.184 171.446 434.604C172.202 435.012 172.796 435.6 173.228 436.368C173.672 437.136 173.894 438.03 173.894 439.05C173.894 440.07 173.666 440.97 173.21 441.75C172.766 442.518 172.16 443.112 171.392 443.532C170.624 443.952 169.772 444.162 168.836 444.162ZM168.836 442.722C169.424 442.722 169.976 442.584 170.492 442.308C171.008 442.032 171.422 441.618 171.734 441.066C172.058 440.514 172.22 439.842 172.22 439.05C172.22 438.258 172.064 437.586 171.752 437.034C171.44 436.482 171.032 436.074 170.528 435.81C170.024 435.534 169.478 435.396 168.89 435.396C168.29 435.396 167.738 435.534 167.234 435.81C166.742 436.074 166.346 436.482 166.046 437.034C165.746 437.586 165.596 438.258 165.596 439.05C165.596 439.854 165.74 440.532 166.028 441.084C166.328 441.636 166.724 442.05 167.216 442.326C167.708 442.59 168.248 442.722 168.836 442.722ZM180.062 435.486H177.992V444H176.354V435.486H175.076V434.136H176.354V433.434C176.354 432.33 176.636 431.526 177.2 431.022C177.776 430.506 178.694 430.248 179.954 430.248V431.616C179.234 431.616 178.724 431.76 178.424 432.048C178.136 432.324 177.992 432.786 177.992 433.434V434.136H180.062V435.486ZM199.497 431.544V444H197.859V434.712L193.719 444H192.567L188.409 434.694V444H186.771V431.544H188.535L193.143 441.84L197.751 431.544H199.497ZM201.663 439.032C201.663 438.024 201.867 437.142 202.275 436.386C202.683 435.618 203.241 435.024 203.949 434.604C204.669 434.184 205.467 433.974 206.343 433.974C207.207 433.974 207.957 434.16 208.593 434.532C209.229 434.904 209.703 435.372 210.015 435.936V434.136H211.671V444H210.015V442.164C209.691 442.74 209.205 443.22 208.557 443.604C207.921 443.976 207.177 444.162 206.325 444.162C205.449 444.162 204.657 443.946 203.949 443.514C203.241 443.082 202.683 442.476 202.275 441.696C201.867 440.916 201.663 440.028 201.663 439.032ZM210.015 439.05C210.015 438.306 209.865 437.658 209.565 437.106C209.265 436.554 208.857 436.134 208.341 435.846C207.837 435.546 207.279 435.396 206.667 435.396C206.055 435.396 205.497 435.54 204.993 435.828C204.489 436.116 204.087 436.536 203.787 437.088C203.487 437.64 203.337 438.288 203.337 439.032C203.337 439.788 203.487 440.448 203.787 441.012C204.087 441.564 204.489 441.99 204.993 442.29C205.497 442.578 206.055 442.722 206.667 442.722C207.279 442.722 207.837 442.578 208.341 442.29C208.857 441.99 209.265 441.564 209.565 441.012C209.865 440.448 210.015 439.794 210.015 439.05ZM216.077 435.738C216.365 435.174 216.773 434.736 217.301 434.424C217.841 434.112 218.495 433.956 219.263 433.956V435.648H218.831C216.995 435.648 216.077 436.644 216.077 438.636V444H214.439V434.136H216.077V435.738ZM224.826 442.488L227.886 434.136H229.632L225.762 444H223.854L219.984 434.136H221.748L224.826 442.488ZM240.243 438.69C240.243 439.002 240.225 439.332 240.189 439.68H232.305C232.365 440.652 232.695 441.414 233.295 441.966C233.907 442.506 234.645 442.776 235.509 442.776C236.217 442.776 236.805 442.614 237.273 442.29C237.753 441.954 238.089 441.51 238.281 440.958H240.045C239.781 441.906 239.253 442.68 238.461 443.28C237.669 443.868 236.685 444.162 235.509 444.162C234.573 444.162 233.733 443.952 232.989 443.532C232.257 443.112 231.681 442.518 231.261 441.75C230.841 440.97 230.631 440.07 230.631 439.05C230.631 438.03 230.835 437.136 231.243 436.368C231.651 435.6 232.221 435.012 232.953 434.604C233.697 434.184 234.549 433.974 235.509 433.974C236.445 433.974 237.273 434.178 237.993 434.586C238.713 434.994 239.265 435.558 239.649 436.278C240.045 436.986 240.243 437.79 240.243 438.69ZM238.551 438.348C238.551 437.724 238.413 437.19 238.137 436.746C237.861 436.29 237.483 435.948 237.003 435.72C236.535 435.48 236.013 435.36 235.437 435.36C234.609 435.36 233.901 435.624 233.313 436.152C232.737 436.68 232.407 437.412 232.323 438.348H238.551ZM244.044 430.68V444H242.406V430.68H244.044ZM248.473 430.68V444H246.835V430.68H248.473ZM260.265 438.69C260.265 439.002 260.247 439.332 260.211 439.68H252.327C252.387 440.652 252.717 441.414 253.317 441.966C253.929 442.506 254.667 442.776 255.531 442.776C256.239 442.776 256.827 442.614 257.295 442.29C257.775 441.954 258.111 441.51 258.303 440.958H260.067C259.803 441.906 259.275 442.68 258.483 443.28C257.691 443.868 256.707 444.162 255.531 444.162C254.595 444.162 253.755 443.952 253.011 443.532C252.279 443.112 251.703 442.518 251.283 441.75C250.863 440.97 250.653 440.07 250.653 439.05C250.653 438.03 250.857 437.136 251.265 436.368C251.673 435.6 252.243 435.012 252.975 434.604C253.719 434.184 254.571 433.974 255.531 433.974C256.467 433.974 257.295 434.178 258.015 434.586C258.735 434.994 259.287 435.558 259.671 436.278C260.067 436.986 260.265 437.79 260.265 438.69ZM258.573 438.348C258.573 437.724 258.435 437.19 258.159 436.746C257.883 436.29 257.505 435.948 257.025 435.72C256.557 435.48 256.035 435.36 255.459 435.36C254.631 435.36 253.923 435.624 253.335 436.152C252.759 436.68 252.429 437.412 252.345 438.348H258.573ZM267.575 444L265.235 440.328L262.985 444H261.275L264.461 439.104L261.275 434.136H263.129L265.469 437.79L267.701 434.136H269.411L266.243 439.014L269.429 444H267.575ZM279.817 444.126C278.989 444.126 278.245 443.982 277.585 443.694C276.937 443.394 276.427 442.986 276.055 442.47C275.683 441.942 275.491 441.336 275.479 440.652H277.225C277.285 441.24 277.525 441.738 277.945 442.146C278.377 442.542 279.001 442.74 279.817 442.74C280.597 442.74 281.209 442.548 281.653 442.164C282.109 441.768 282.337 441.264 282.337 440.652C282.337 440.172 282.205 439.782 281.941 439.482C281.677 439.182 281.347 438.954 280.951 438.798C280.555 438.642 280.021 438.474 279.349 438.294C278.521 438.078 277.855 437.862 277.351 437.646C276.859 437.43 276.433 437.094 276.073 436.638C275.725 436.17 275.551 435.546 275.551 434.766C275.551 434.082 275.725 433.476 276.073 432.948C276.421 432.42 276.907 432.012 277.531 431.724C278.167 431.436 278.893 431.292 279.709 431.292C280.885 431.292 281.845 431.586 282.589 432.174C283.345 432.762 283.771 433.542 283.867 434.514H282.067C282.007 434.034 281.755 433.614 281.311 433.254C280.867 432.882 280.279 432.696 279.547 432.696C278.863 432.696 278.305 432.876 277.873 433.236C277.441 433.584 277.225 434.076 277.225 434.712C277.225 435.168 277.351 435.54 277.603 435.828C277.867 436.116 278.185 436.338 278.557 436.494C278.941 436.638 279.475 436.806 280.159 436.998C280.987 437.226 281.653 437.454 282.157 437.682C282.661 437.898 283.093 438.24 283.453 438.708C283.813 439.164 283.993 439.788 283.993 440.58C283.993 441.192 283.831 441.768 283.507 442.308C283.183 442.848 282.703 443.286 282.067 443.622C281.431 443.958 280.681 444.126 279.817 444.126ZM288.402 435.486V441.3C288.402 441.78 288.504 442.122 288.708 442.326C288.912 442.518 289.266 442.614 289.77 442.614H290.976V444H289.5C288.588 444 287.904 443.79 287.448 443.37C286.992 442.95 286.764 442.26 286.764 441.3V435.486H285.486V434.136H286.764V431.652H288.402V434.136H290.976V435.486H288.402ZM292.348 439.032C292.348 438.024 292.552 437.142 292.96 436.386C293.368 435.618 293.926 435.024 294.634 434.604C295.354 434.184 296.152 433.974 297.028 433.974C297.892 433.974 298.642 434.16 299.278 434.532C299.914 434.904 300.388 435.372 300.7 435.936V434.136H302.356V444H300.7V442.164C300.376 442.74 299.89 443.22 299.242 443.604C298.606 443.976 297.862 444.162 297.01 444.162C296.134 444.162 295.342 443.946 294.634 443.514C293.926 443.082 293.368 442.476 292.96 441.696C292.552 440.916 292.348 440.028 292.348 439.032ZM300.7 439.05C300.7 438.306 300.55 437.658 300.25 437.106C299.95 436.554 299.542 436.134 299.026 435.846C298.522 435.546 297.964 435.396 297.352 435.396C296.74 435.396 296.182 435.54 295.678 435.828C295.174 436.116 294.772 436.536 294.472 437.088C294.172 437.64 294.022 438.288 294.022 439.032C294.022 439.788 294.172 440.448 294.472 441.012C294.772 441.564 295.174 441.99 295.678 442.29C296.182 442.578 296.74 442.722 297.352 442.722C297.964 442.722 298.522 442.578 299.026 442.29C299.542 441.99 299.95 441.564 300.25 441.012C300.55 440.448 300.7 439.794 300.7 439.05ZM306.762 435.738C307.05 435.174 307.458 434.736 307.986 434.424C308.526 434.112 309.18 433.956 309.948 433.956V435.648H309.516C307.68 435.648 306.762 436.644 306.762 438.636V444H305.124V434.136H306.762V435.738ZM313.837 435.486V441.3C313.837 441.78 313.939 442.122 314.143 442.326C314.347 442.518 314.701 442.614 315.205 442.614H316.411V444H314.935C314.023 444 313.339 443.79 312.883 443.37C312.427 442.95 312.199 442.26 312.199 441.3V435.486H310.921V434.136H312.199V431.652H313.837V434.136H316.411V435.486H313.837ZM327.144 434.136V444H325.506V442.542C325.194 443.046 324.756 443.442 324.192 443.73C323.64 444.006 323.028 444.144 322.356 444.144C321.588 444.144 320.898 443.988 320.286 443.676C319.674 443.352 319.188 442.872 318.828 442.236C318.48 441.6 318.306 440.826 318.306 439.914V434.136H319.926V439.698C319.926 440.67 320.172 441.42 320.664 441.948C321.156 442.464 321.828 442.722 322.68 442.722C323.556 442.722 324.246 442.452 324.75 441.912C325.254 441.372 325.506 440.586 325.506 439.554V434.136H327.144ZM331.547 435.954C331.871 435.39 332.351 434.922 332.987 434.55C333.635 434.166 334.385 433.974 335.237 433.974C336.113 433.974 336.905 434.184 337.613 434.604C338.333 435.024 338.897 435.618 339.305 436.386C339.713 437.142 339.917 438.024 339.917 439.032C339.917 440.028 339.713 440.916 339.305 441.696C338.897 442.476 338.333 443.082 337.613 443.514C336.905 443.946 336.113 444.162 335.237 444.162C334.397 444.162 333.653 443.976 333.005 443.604C332.369 443.22 331.883 442.746 331.547 442.182V448.68H329.909V434.136H331.547V435.954ZM338.243 439.032C338.243 438.288 338.093 437.64 337.793 437.088C337.493 436.536 337.085 436.116 336.569 435.828C336.065 435.54 335.507 435.396 334.895 435.396C334.295 435.396 333.737 435.546 333.221 435.846C332.717 436.134 332.309 436.56 331.997 437.124C331.697 437.676 331.547 438.318 331.547 439.05C331.547 439.794 331.697 440.448 331.997 441.012C332.309 441.564 332.717 441.99 333.221 442.29C333.737 442.578 334.295 442.722 334.895 442.722C335.507 442.722 336.065 442.578 336.569 442.29C337.085 441.99 337.493 441.564 337.793 441.012C338.093 440.448 338.243 439.788 338.243 439.032ZM54.024 455.454V468H52.386V455.454H54.024ZM61.6217 457.956C62.8217 457.956 63.7937 458.322 64.5377 459.054C65.2817 459.774 65.6537 460.818 65.6537 462.186V468H64.0337V462.42C64.0337 461.436 63.7877 460.686 63.2957 460.17C62.8037 459.642 62.1317 459.378 61.2797 459.378C60.4157 459.378 59.7257 459.648 59.2097 460.188C58.7057 460.728 58.4537 461.514 58.4537 462.546V468H56.8157V458.136H58.4537V459.54C58.7777 459.036 59.2157 458.646 59.7677 458.37C60.3317 458.094 60.9497 457.956 61.6217 457.956ZM67.7174 463.05C67.7174 462.03 67.9214 461.142 68.3294 460.386C68.7374 459.618 69.3014 459.024 70.0214 458.604C70.7534 458.184 71.5874 457.974 72.5234 457.974C73.7354 457.974 74.7314 458.268 75.5114 458.856C76.3034 459.444 76.8254 460.26 77.0774 461.304H75.3134C75.1454 460.704 74.8154 460.23 74.3234 459.882C73.8434 459.534 73.2434 459.36 72.5234 459.36C71.5874 459.36 70.8314 459.684 70.2554 460.332C69.6794 460.968 69.3914 461.874 69.3914 463.05C69.3914 464.238 69.6794 465.156 70.2554 465.804C70.8314 466.452 71.5874 466.776 72.5234 466.776C73.2434 466.776 73.8434 466.608 74.3234 466.272C74.8034 465.936 75.1334 465.456 75.3134 464.832H77.0774C76.8134 465.84 76.2854 466.65 75.4934 467.262C74.7014 467.862 73.7114 468.162 72.5234 468.162C71.5874 468.162 70.7534 467.952 70.0214 467.532C69.3014 467.112 68.7374 466.518 68.3294 465.75C67.9214 464.982 67.7174 464.082 67.7174 463.05ZM88.011 458.136V468H86.373V466.542C86.061 467.046 85.623 467.442 85.059 467.73C84.507 468.006 83.895 468.144 83.223 468.144C82.455 468.144 81.765 467.988 81.153 467.676C80.541 467.352 80.055 466.872 79.695 466.236C79.347 465.6 79.173 464.826 79.173 463.914V458.136H80.793V463.698C80.793 464.67 81.039 465.42 81.531 465.948C82.023 466.464 82.695 466.722 83.547 466.722C84.423 466.722 85.113 466.452 85.617 465.912C86.121 465.372 86.373 464.586 86.373 463.554V458.136H88.011ZM92.4146 459.972C92.7506 459.384 93.2426 458.904 93.8906 458.532C94.5386 458.16 95.2766 457.974 96.1046 457.974C96.9926 457.974 97.7906 458.184 98.4986 458.604C99.2066 459.024 99.7646 459.618 100.173 460.386C100.581 461.142 100.785 462.024 100.785 463.032C100.785 464.028 100.581 464.916 100.173 465.696C99.7646 466.476 99.2006 467.082 98.4806 467.514C97.7726 467.946 96.9806 468.162 96.1046 468.162C95.2526 468.162 94.5026 467.976 93.8546 467.604C93.2186 467.232 92.7386 466.758 92.4146 466.182V468H90.7766V454.68H92.4146V459.972ZM99.1106 463.032C99.1106 462.288 98.9606 461.64 98.6606 461.088C98.3606 460.536 97.9526 460.116 97.4366 459.828C96.9326 459.54 96.3746 459.396 95.7626 459.396C95.1626 459.396 94.6046 459.546 94.0886 459.846C93.5846 460.134 93.1766 460.56 92.8646 461.124C92.5646 461.676 92.4146 462.318 92.4146 463.05C92.4146 463.794 92.5646 464.448 92.8646 465.012C93.1766 465.564 93.5846 465.99 94.0886 466.29C94.6046 466.578 95.1626 466.722 95.7626 466.722C96.3746 466.722 96.9326 466.578 97.4366 466.29C97.9526 465.99 98.3606 465.564 98.6606 465.012C98.9606 464.448 99.1106 463.788 99.1106 463.032ZM102.329 463.032C102.329 462.024 102.533 461.142 102.941 460.386C103.349 459.618 103.907 459.024 104.615 458.604C105.335 458.184 106.133 457.974 107.009 457.974C107.873 457.974 108.623 458.16 109.259 458.532C109.895 458.904 110.369 459.372 110.681 459.936V458.136H112.337V468H110.681V466.164C110.357 466.74 109.871 467.22 109.223 467.604C108.587 467.976 107.843 468.162 106.991 468.162C106.115 468.162 105.323 467.946 104.615 467.514C103.907 467.082 103.349 466.476 102.941 465.696C102.533 464.916 102.329 464.028 102.329 463.032ZM110.681 463.05C110.681 462.306 110.531 461.658 110.231 461.106C109.931 460.554 109.523 460.134 109.007 459.846C108.503 459.546 107.945 459.396 107.333 459.396C106.721 459.396 106.163 459.54 105.659 459.828C105.155 460.116 104.753 460.536 104.453 461.088C104.153 461.64 104.003 462.288 104.003 463.032C104.003 463.788 104.153 464.448 104.453 465.012C104.753 465.564 105.155 465.99 105.659 466.29C106.163 466.578 106.721 466.722 107.333 466.722C107.945 466.722 108.503 466.578 109.007 466.29C109.523 465.99 109.931 465.564 110.231 465.012C110.531 464.448 110.681 463.794 110.681 463.05ZM117.103 459.486V465.3C117.103 465.78 117.205 466.122 117.409 466.326C117.613 466.518 117.967 466.614 118.471 466.614H119.677V468H118.201C117.289 468 116.605 467.79 116.149 467.37C115.693 466.95 115.465 466.26 115.465 465.3V459.486H114.187V458.136H115.465V455.652H117.103V458.136H119.677V459.486H117.103ZM122.507 456.534C122.195 456.534 121.931 456.426 121.715 456.21C121.499 455.994 121.391 455.73 121.391 455.418C121.391 455.106 121.499 454.842 121.715 454.626C121.931 454.41 122.195 454.302 122.507 454.302C122.807 454.302 123.059 454.41 123.263 454.626C123.479 454.842 123.587 455.106 123.587 455.418C123.587 455.73 123.479 455.994 123.263 456.21C123.059 456.426 122.807 456.534 122.507 456.534ZM123.299 458.136V468H121.661V458.136H123.299ZM130.393 468.162C129.469 468.162 128.629 467.952 127.873 467.532C127.129 467.112 126.541 466.518 126.109 465.75C125.689 464.97 125.479 464.07 125.479 463.05C125.479 462.042 125.695 461.154 126.127 460.386C126.571 459.606 127.171 459.012 127.927 458.604C128.683 458.184 129.529 457.974 130.465 457.974C131.401 457.974 132.247 458.184 133.003 458.604C133.759 459.012 134.353 459.6 134.785 460.368C135.229 461.136 135.451 462.03 135.451 463.05C135.451 464.07 135.223 464.97 134.767 465.75C134.323 466.518 133.717 467.112 132.949 467.532C132.181 467.952 131.329 468.162 130.393 468.162ZM130.393 466.722C130.981 466.722 131.533 466.584 132.049 466.308C132.565 466.032 132.979 465.618 133.291 465.066C133.615 464.514 133.777 463.842 133.777 463.05C133.777 462.258 133.621 461.586 133.309 461.034C132.997 460.482 132.589 460.074 132.085 459.81C131.581 459.534 131.035 459.396 130.447 459.396C129.847 459.396 129.295 459.534 128.791 459.81C128.299 460.074 127.903 460.482 127.603 461.034C127.303 461.586 127.153 462.258 127.153 463.05C127.153 463.854 127.297 464.532 127.585 465.084C127.885 465.636 128.281 466.05 128.773 466.326C129.265 466.59 129.805 466.722 130.393 466.722ZM142.411 457.956C143.611 457.956 144.583 458.322 145.327 459.054C146.071 459.774 146.443 460.818 146.443 462.186V468H144.823V462.42C144.823 461.436 144.577 460.686 144.085 460.17C143.593 459.642 142.921 459.378 142.069 459.378C141.205 459.378 140.515 459.648 139.999 460.188C139.495 460.728 139.243 461.514 139.243 462.546V468H137.605V458.136H139.243V459.54C139.567 459.036 140.005 458.646 140.557 458.37C141.121 458.094 141.739 457.956 142.411 457.956ZM149.64 468.108C149.328 468.108 149.064 468 148.848 467.784C148.632 467.568 148.524 467.304 148.524 466.992C148.524 466.68 148.632 466.416 148.848 466.2C149.064 465.984 149.328 465.876 149.64 465.876C149.94 465.876 150.192 465.984 150.396 466.2C150.612 466.416 150.72 466.68 150.72 466.992C150.72 467.304 150.612 467.568 150.396 467.784C150.192 468 149.94 468.108 149.64 468.108Z" fill="#3A3A3A"/>
</g>
<path d="M217 314C148.074 314 92 257.926 92 189C92 120.074 148.074 64 217 64C285.926 64 342 120.074 342 189C342.007 257.926 285.926 314 217 314ZM217 77.7187C155.643 77.7187 105.719 127.636 105.719 189C105.719 250.364 155.636 300.281 217 300.281C278.364 300.281 328.281 250.364 328.281 189C328.281 127.636 278.364 77.7187 217 77.7187Z" fill="#007C5A"/>
<path d="M266.035 138.854C267.826 136.959 270.186 135.894 272.724 135.894C275.662 152.128 278.111 170.072 279.576 189.54C280.997 208.49 281.278 226.146 280.849 242.24L277.8 242.262C276.239 242.277 274.789 241.485 274.026 240.197C269.75 232.983 263.416 224.081 254.211 215.209C240.692 202.186 226.655 194.712 217.109 190.554L266.035 138.854Z" fill="url(#paint0_linear_185_2267)"/>
<path d="M241.82 204.798L272.728 135.849C270.19 135.849 267.763 136.915 265.965 138.809L217.039 190.51C223.639 193.062 232.6 197.399 241.82 204.798Z" fill="url(#paint1_linear_185_2267)"/>
<path d="M265.968 138.809L217.043 190.51C210.442 193.062 201.482 197.399 192.262 204.798L207.69 239.221C208.504 241.033 210.228 242.188 212.129 242.188H217.043H221.956C223.85 242.188 225.582 241.033 226.396 239.221L241.824 204.798L272.731 135.849C270.186 135.849 267.759 136.915 265.968 138.809Z" fill="url(#paint2_linear_185_2267)"/>
<path d="M265.969 138.809L217.043 190.51V237.001C217.043 239.864 219.241 242.188 221.956 242.188C223.851 242.188 225.582 241.033 226.396 239.221L241.824 204.798L272.732 135.849C270.186 135.849 267.759 136.915 265.969 138.809Z" fill="url(#paint3_linear_185_2267)"/>
<path d="M168.111 138.809C166.32 136.915 163.96 135.849 161.422 135.849C158.484 152.084 156.035 170.028 154.57 189.496C153.149 208.446 152.868 226.101 153.297 242.195L156.346 242.217C157.907 242.232 159.357 241.44 160.12 240.153C164.397 232.938 170.731 224.037 179.936 215.165C193.454 202.142 207.491 194.668 217.037 190.51L168.111 138.809Z" fill="url(#paint4_linear_185_2267)"/>
<path opacity="0.81" d="M217.035 190.51L168.213 138.809C167.54 138.099 166.793 137.507 165.986 137.041C165.646 136.848 165.298 136.678 164.943 136.53C164.728 136.441 164.514 136.36 164.292 136.286C164.218 136.264 164.144 136.241 164.07 136.219C163.922 136.175 163.774 136.138 163.626 136.101C162.952 135.938 162.249 135.857 161.539 135.857L192.306 204.805C195.518 202.423 199.195 199.929 203.361 197.48C208.208 194.624 212.833 192.337 217.035 190.51Z" fill="url(#paint5_linear_185_2267)"/>
<defs>
<filter id="filter0_d_185_2267" x="0" y="0" width="440" height="541" filterUnits="userSpaceOnUse" color-interpolation-filters="sRGB">
<feFlood flood-opacity="0" result="BackgroundImageFix"/>
<feColorMatrix in="SourceAlpha" type="matrix" values="0 0 0 0 0 0 0 0 0 0 0 0 0 0 0 0 0 0 127 0" result="hardAlpha"/>
<feOffset dx="4" dy="4"/>
<feGaussianBlur stdDeviation="11"/>
<feComposite in2="hardAlpha" operator="out"/>
<feColorMatrix type="matrix" values="0 0 0 0 0 0 0 0 0 0 0 0 0 0 0 0 0 0 0.15 0"/>
<feBlend mode="normal" in2="BackgroundImageFix" result="effect1_dropShadow_185_2267"/>
<feBlend mode="normal" in="SourceGraphic" in2="effect1_dropShadow_185_2267" result="shape"/>
</filter>
<linearGradient id="paint0_linear_185_2267" x1="271.226" y1="187.567" x2="230.794" y2="170.406" gradientUnits="userSpaceOnUse">
<stop stop-color="#00A87D"/>
<stop offset="0.128" stop-color="#009570"/>
<stop offset="0.3856" stop-color="#00654F"/>
<stop offset="0.5153" stop-color="#004A3D"/>
</linearGradient>
<linearGradient id="paint1_linear_185_2267" x1="273.04" y1="177.566" x2="248.977" y2="166.51" gradientUnits="userSpaceOnUse">
<stop stop-color="#007D58"/>
<stop offset="0.9969" stop-color="#004A3D"/>
</linearGradient>
<linearGradient id="paint2_linear_185_2267" x1="245.005" y1="192.566" x2="227.406" y2="175.008" gradientUnits="userSpaceOnUse">
<stop offset="0.2046" stop-color="#00A87D"/>
<stop offset="0.3497" stop-color="#00A379"/>
<stop offset="0.526" stop-color="#00946F"/>
<stop offset="0.7182" stop-color="#007B5F"/>
<stop offset="0.9207" stop-color="#005948"/>
<stop offset="1" stop-color="#004A3D"/>
</linearGradient>
<linearGradient id="paint3_linear_185_2267" x1="231.461" y1="197.326" x2="304.076" y2="66.5281" gradientUnits="userSpaceOnUse">
<stop stop-color="#00A87D" stop-opacity="0"/>
<stop offset="0.445" stop-color="#54DCBD"/>
</linearGradient>
<linearGradient id="paint4_linear_185_2267" x1="191.089" y1="226.289" x2="122.872" y2="111.781" gradientUnits="userSpaceOnUse">
<stop offset="0.1599" stop-color="#00A87D"/>
<stop offset="0.4457" stop-color="#006D55"/>
<stop offset="0.6333" stop-color="#004A3D"/>
</linearGradient>
<linearGradient id="paint5_linear_185_2267" x1="199.135" y1="203.288" x2="169.283" y2="81.6782" gradientUnits="userSpaceOnUse">
<stop stop-color="#00A87D" stop-opacity="0"/>
<stop offset="0.4252" stop-color="#52DCBD"/>
</linearGradient>
</defs>
</svg>
