<svg width="440" height="541" viewBox="0 0 440 541" fill="none" xmlns="http://www.w3.org/2000/svg">
<g filter="url(#filter0_d_185_2265)">
<rect x="18" y="18" width="396" height="497" rx="8" fill="white"/>
<path d="M75.9 362.06V383H71.7V369.38L66.09 383H62.91L57.27 369.38V383H53.07V362.06H57.84L64.5 377.63L71.16 362.06H75.9ZM78.9724 374.63C78.9724 372.95 79.3024 371.46 79.9624 370.16C80.6424 368.86 81.5524 367.86 82.6924 367.16C83.8524 366.46 85.1424 366.11 86.5624 366.11C87.8024 366.11 88.8824 366.36 89.8024 366.86C90.7424 367.36 91.4924 367.99 92.0524 368.75V366.38H96.2824V383H92.0524V380.57C91.5124 381.35 90.7624 382 89.8024 382.52C88.8624 383.02 87.7724 383.27 86.5324 383.27C85.1324 383.27 83.8524 382.91 82.6924 382.19C81.5524 381.47 80.6424 380.46 79.9624 379.16C79.3024 377.84 78.9724 376.33 78.9724 374.63ZM92.0524 374.69C92.0524 373.67 91.8524 372.8 91.4524 372.08C91.0524 371.34 90.5124 370.78 89.8324 370.4C89.1524 370 88.4224 369.8 87.6424 369.8C86.8624 369.8 86.1424 369.99 85.4824 370.37C84.8224 370.75 84.2824 371.31 83.8624 372.05C83.4624 372.77 83.2624 373.63 83.2624 374.63C83.2624 375.63 83.4624 376.51 83.8624 377.27C84.2824 378.01 84.8224 378.58 85.4824 378.98C86.1624 379.38 86.8824 379.58 87.6424 379.58C88.4224 379.58 89.1524 379.39 89.8324 379.01C90.5124 378.61 91.0524 378.05 91.4524 377.33C91.8524 376.59 92.0524 375.71 92.0524 374.69ZM104.584 368.96C105.124 368.08 105.824 367.39 106.684 366.89C107.564 366.39 108.564 366.14 109.684 366.14V370.55H108.574C107.254 370.55 106.254 370.86 105.574 371.48C104.914 372.1 104.584 373.18 104.584 374.72V383H100.384V366.38H104.584V368.96ZM119.443 379.13L123.643 366.38H128.113L121.963 383H116.863L110.743 366.38H115.243L119.443 379.13ZM145.922 374.33C145.922 374.93 145.882 375.47 145.802 375.95H133.652C133.752 377.15 134.172 378.09 134.912 378.77C135.652 379.45 136.562 379.79 137.642 379.79C139.202 379.79 140.312 379.12 140.972 377.78H145.502C145.022 379.38 144.102 380.7 142.742 381.74C141.382 382.76 139.712 383.27 137.732 383.27C136.132 383.27 134.692 382.92 133.412 382.22C132.152 381.5 131.162 380.49 130.442 379.19C129.742 377.89 129.392 376.39 129.392 374.69C129.392 372.97 129.742 371.46 130.442 370.16C131.142 368.86 132.122 367.86 133.382 367.16C134.642 366.46 136.092 366.11 137.732 366.11C139.312 366.11 140.722 366.45 141.962 367.13C143.222 367.81 144.192 368.78 144.872 370.04C145.572 371.28 145.922 372.71 145.922 374.33ZM141.572 373.13C141.552 372.05 141.162 371.19 140.402 370.55C139.642 369.89 138.712 369.56 137.612 369.56C136.572 369.56 135.692 369.88 134.972 370.52C134.272 371.14 133.842 372.01 133.682 373.13H141.572ZM153.188 360.8V383H148.988V360.8H153.188ZM161.538 360.8V383H157.338V360.8H161.538ZM181.137 374.33C181.137 374.93 181.097 375.47 181.017 375.95H168.867C168.967 377.15 169.387 378.09 170.127 378.77C170.867 379.45 171.777 379.79 172.857 379.79C174.417 379.79 175.527 379.12 176.187 377.78H180.717C180.237 379.38 179.317 380.7 177.957 381.74C176.597 382.76 174.927 383.27 172.947 383.27C171.347 383.27 169.907 382.92 168.627 382.22C167.367 381.5 166.377 380.49 165.657 379.19C164.957 377.89 164.607 376.39 164.607 374.69C164.607 372.97 164.957 371.46 165.657 370.16C166.357 368.86 167.337 367.86 168.597 367.16C169.857 366.46 171.307 366.11 172.947 366.11C174.527 366.11 175.937 366.45 177.177 367.13C178.437 367.81 179.407 368.78 180.087 370.04C180.787 371.28 181.137 372.71 181.137 374.33ZM176.787 373.13C176.767 372.05 176.377 371.19 175.617 370.55C174.857 369.89 173.927 369.56 172.827 369.56C171.787 369.56 170.907 369.88 170.187 370.52C169.487 371.14 169.057 372.01 168.897 373.13H176.787ZM193.383 383L189.963 377.84L186.933 383H182.433L187.863 374.66L182.373 366.38H187.113L190.503 371.51L193.563 366.38H198.063L192.603 374.66L198.123 383H193.383ZM222.132 368.36C221.652 367.48 220.992 366.81 220.152 366.35C219.312 365.89 218.332 365.66 217.212 365.66C215.972 365.66 214.872 365.94 213.912 366.5C212.952 367.06 212.202 367.86 211.662 368.9C211.122 369.94 210.852 371.14 210.852 372.5C210.852 373.9 211.122 375.12 211.662 376.16C212.222 377.2 212.992 378 213.972 378.56C214.952 379.12 216.092 379.4 217.392 379.4C218.992 379.4 220.302 378.98 221.322 378.14C222.342 377.28 223.012 376.09 223.332 374.57H216.132V371.36H227.472V375.02C227.192 376.48 226.592 377.83 225.672 379.07C224.752 380.31 223.562 381.31 222.102 382.07C220.662 382.81 219.042 383.18 217.242 383.18C215.222 383.18 213.392 382.73 211.752 381.83C210.132 380.91 208.852 379.64 207.912 378.02C206.992 376.4 206.532 374.56 206.532 372.5C206.532 370.44 206.992 368.6 207.912 366.98C208.852 365.34 210.132 364.07 211.752 363.17C213.392 362.25 215.212 361.79 217.212 361.79C219.572 361.79 221.622 362.37 223.362 363.53C225.102 364.67 226.302 366.28 226.962 368.36H222.132ZM237.96 383.27C236.36 383.27 234.92 382.92 233.64 382.22C232.36 381.5 231.35 380.49 230.61 379.19C229.89 377.89 229.53 376.39 229.53 374.69C229.53 372.99 229.9 371.49 230.64 370.19C231.4 368.89 232.43 367.89 233.73 367.19C235.03 366.47 236.48 366.11 238.08 366.11C239.68 366.11 241.13 366.47 242.43 367.19C243.73 367.89 244.75 368.89 245.49 370.19C246.25 371.49 246.63 372.99 246.63 374.69C246.63 376.39 246.24 377.89 245.46 379.19C244.7 380.49 243.66 381.5 242.34 382.22C241.04 382.92 239.58 383.27 237.96 383.27ZM237.96 379.61C238.72 379.61 239.43 379.43 240.09 379.07C240.77 378.69 241.31 378.13 241.71 377.39C242.11 376.65 242.31 375.75 242.31 374.69C242.31 373.11 241.89 371.9 241.05 371.06C240.23 370.2 239.22 369.77 238.02 369.77C236.82 369.77 235.81 370.2 234.99 371.06C234.19 371.9 233.79 373.11 233.79 374.69C233.79 376.27 234.18 377.49 234.96 378.35C235.76 379.19 236.76 379.61 237.96 379.61ZM253.911 360.8V383H249.711V360.8H253.911ZM256.98 374.63C256.98 372.95 257.31 371.46 257.97 370.16C258.65 368.86 259.57 367.86 260.73 367.16C261.89 366.46 263.18 366.11 264.6 366.11C265.68 366.11 266.71 366.35 267.69 366.83C268.67 367.29 269.45 367.91 270.03 368.69V360.8H274.29V383H270.03V380.54C269.51 381.36 268.78 382.02 267.84 382.52C266.9 383.02 265.81 383.27 264.57 383.27C263.17 383.27 261.89 382.91 260.73 382.19C259.57 381.47 258.65 380.46 257.97 379.16C257.31 377.84 256.98 376.33 256.98 374.63ZM270.06 374.69C270.06 373.67 269.86 372.8 269.46 372.08C269.06 371.34 268.52 370.78 267.84 370.4C267.16 370 266.43 369.8 265.65 369.8C264.87 369.8 264.15 369.99 263.49 370.37C262.83 370.75 262.29 371.31 261.87 372.05C261.47 372.77 261.27 373.63 261.27 374.63C261.27 375.63 261.47 376.51 261.87 377.27C262.29 378.01 262.83 378.58 263.49 378.98C264.17 379.38 264.89 379.58 265.65 379.58C266.43 379.58 267.16 379.39 267.84 379.01C268.52 378.61 269.06 378.05 269.46 377.33C269.86 376.59 270.06 375.71 270.06 374.69Z" fill="#3A3A3A"/>
<path d="M60.108 407.454V408.786H56.688V420H55.05V408.786H51.612V407.454H60.108ZM67.0203 409.956C67.7643 409.956 68.4363 410.118 69.0363 410.442C69.6363 410.754 70.1043 411.228 70.4403 411.864C70.7883 412.5 70.9623 413.274 70.9623 414.186V420H69.3423V414.42C69.3423 413.436 69.0963 412.686 68.6043 412.17C68.1123 411.642 67.4403 411.378 66.5883 411.378C65.7243 411.378 65.0343 411.648 64.5183 412.188C64.0143 412.728 63.7623 413.514 63.7623 414.546V420H62.1243V406.68H63.7623V411.54C64.0863 411.036 64.5303 410.646 65.0943 410.37C65.6703 410.094 66.3123 409.956 67.0203 409.956ZM82.638 414.69C82.638 415.002 82.62 415.332 82.584 415.68H74.7C74.76 416.652 75.09 417.414 75.69 417.966C76.302 418.506 77.04 418.776 77.904 418.776C78.612 418.776 79.2 418.614 79.668 418.29C80.148 417.954 80.484 417.51 80.676 416.958H82.44C82.176 417.906 81.648 418.68 80.856 419.28C80.064 419.868 79.08 420.162 77.904 420.162C76.968 420.162 76.128 419.952 75.384 419.532C74.652 419.112 74.076 418.518 73.656 417.75C73.236 416.97 73.026 416.07 73.026 415.05C73.026 414.03 73.23 413.136 73.638 412.368C74.046 411.6 74.616 411.012 75.348 410.604C76.092 410.184 76.944 409.974 77.904 409.974C78.84 409.974 79.668 410.178 80.388 410.586C81.108 410.994 81.66 411.558 82.044 412.278C82.44 412.986 82.638 413.79 82.638 414.69ZM80.946 414.348C80.946 413.724 80.808 413.19 80.532 412.746C80.256 412.29 79.878 411.948 79.398 411.72C78.93 411.48 78.408 411.36 77.832 411.36C77.004 411.36 76.296 411.624 75.708 412.152C75.132 412.68 74.802 413.412 74.718 414.348H80.946ZM102.325 407.544V420H100.687V410.712L96.5469 420H95.3949L91.2369 410.694V420H89.5989V407.544H91.3629L95.9709 417.84L100.579 407.544H102.325ZM104.491 415.032C104.491 414.024 104.695 413.142 105.103 412.386C105.511 411.618 106.069 411.024 106.777 410.604C107.497 410.184 108.295 409.974 109.171 409.974C110.035 409.974 110.785 410.16 111.421 410.532C112.057 410.904 112.531 411.372 112.843 411.936V410.136H114.499V420H112.843V418.164C112.519 418.74 112.033 419.22 111.385 419.604C110.749 419.976 110.005 420.162 109.153 420.162C108.277 420.162 107.485 419.946 106.777 419.514C106.069 419.082 105.511 418.476 105.103 417.696C104.695 416.916 104.491 416.028 104.491 415.032ZM112.843 415.05C112.843 414.306 112.693 413.658 112.393 413.106C112.093 412.554 111.685 412.134 111.169 411.846C110.665 411.546 110.107 411.396 109.495 411.396C108.883 411.396 108.325 411.54 107.821 411.828C107.317 412.116 106.915 412.536 106.615 413.088C106.315 413.64 106.165 414.288 106.165 415.032C106.165 415.788 106.315 416.448 106.615 417.012C106.915 417.564 107.317 417.99 107.821 418.29C108.325 418.578 108.883 418.722 109.495 418.722C110.107 418.722 110.665 418.578 111.169 418.29C111.685 417.99 112.093 417.564 112.393 417.012C112.693 416.448 112.843 415.794 112.843 415.05ZM118.905 411.738C119.193 411.174 119.601 410.736 120.129 410.424C120.669 410.112 121.323 409.956 122.091 409.956V411.648H121.659C119.823 411.648 118.905 412.644 118.905 414.636V420H117.267V410.136H118.905V411.738ZM127.654 418.488L130.714 410.136H132.46L128.59 420H126.682L122.812 410.136H124.576L127.654 418.488ZM143.072 414.69C143.072 415.002 143.054 415.332 143.018 415.68H135.134C135.194 416.652 135.524 417.414 136.124 417.966C136.736 418.506 137.474 418.776 138.338 418.776C139.046 418.776 139.634 418.614 140.102 418.29C140.582 417.954 140.918 417.51 141.11 416.958H142.874C142.61 417.906 142.082 418.68 141.29 419.28C140.498 419.868 139.514 420.162 138.338 420.162C137.402 420.162 136.562 419.952 135.818 419.532C135.086 419.112 134.51 418.518 134.09 417.75C133.67 416.97 133.46 416.07 133.46 415.05C133.46 414.03 133.664 413.136 134.072 412.368C134.48 411.6 135.05 411.012 135.782 410.604C136.526 410.184 137.378 409.974 138.338 409.974C139.274 409.974 140.102 410.178 140.822 410.586C141.542 410.994 142.094 411.558 142.478 412.278C142.874 412.986 143.072 413.79 143.072 414.69ZM141.38 414.348C141.38 413.724 141.242 413.19 140.966 412.746C140.69 412.29 140.312 411.948 139.832 411.72C139.364 411.48 138.842 411.36 138.266 411.36C137.438 411.36 136.73 411.624 136.142 412.152C135.566 412.68 135.236 413.412 135.152 414.348H141.38ZM146.872 406.68V420H145.234V406.68H146.872ZM151.301 406.68V420H149.663V406.68H151.301ZM163.093 414.69C163.093 415.002 163.075 415.332 163.039 415.68H155.155C155.215 416.652 155.545 417.414 156.145 417.966C156.757 418.506 157.495 418.776 158.359 418.776C159.067 418.776 159.655 418.614 160.123 418.29C160.603 417.954 160.939 417.51 161.131 416.958H162.895C162.631 417.906 162.103 418.68 161.311 419.28C160.519 419.868 159.535 420.162 158.359 420.162C157.423 420.162 156.583 419.952 155.839 419.532C155.107 419.112 154.531 418.518 154.111 417.75C153.691 416.97 153.481 416.07 153.481 415.05C153.481 414.03 153.685 413.136 154.093 412.368C154.501 411.6 155.071 411.012 155.803 410.604C156.547 410.184 157.399 409.974 158.359 409.974C159.295 409.974 160.123 410.178 160.843 410.586C161.563 410.994 162.115 411.558 162.499 412.278C162.895 412.986 163.093 413.79 163.093 414.69ZM161.401 414.348C161.401 413.724 161.263 413.19 160.987 412.746C160.711 412.29 160.333 411.948 159.853 411.72C159.385 411.48 158.863 411.36 158.287 411.36C157.459 411.36 156.751 411.624 156.163 412.152C155.587 412.68 155.257 413.412 155.173 414.348H161.401ZM170.403 420L168.063 416.328L165.813 420H164.103L167.289 415.104L164.103 410.136H165.957L168.297 413.79L170.529 410.136H172.239L169.071 415.014L172.257 420H170.403ZM188.171 411.09C187.823 410.358 187.319 409.794 186.659 409.398C185.999 408.99 185.231 408.786 184.355 408.786C183.479 408.786 182.687 408.99 181.979 409.398C181.283 409.794 180.731 410.37 180.323 411.126C179.927 411.87 179.729 412.734 179.729 413.718C179.729 414.702 179.927 415.566 180.323 416.31C180.731 417.054 181.283 417.63 181.979 418.038C182.687 418.434 183.479 418.632 184.355 418.632C185.579 418.632 186.587 418.266 187.379 417.534C188.171 416.802 188.633 415.812 188.765 414.564H183.761V413.232H190.511V414.492C190.415 415.524 190.091 416.472 189.539 417.336C188.987 418.188 188.261 418.866 187.361 419.37C186.461 419.862 185.459 420.108 184.355 420.108C183.191 420.108 182.129 419.838 181.169 419.298C180.209 418.746 179.447 417.984 178.883 417.012C178.331 416.04 178.055 414.942 178.055 413.718C178.055 412.494 178.331 411.396 178.883 410.424C179.447 409.44 180.209 408.678 181.169 408.138C182.129 407.586 183.191 407.31 184.355 407.31C185.687 407.31 186.863 407.64 187.883 408.3C188.915 408.96 189.665 409.89 190.133 411.09H188.171ZM196.979 420.162C196.055 420.162 195.215 419.952 194.459 419.532C193.715 419.112 193.127 418.518 192.695 417.75C192.275 416.97 192.065 416.07 192.065 415.05C192.065 414.042 192.281 413.154 192.713 412.386C193.157 411.606 193.757 411.012 194.513 410.604C195.269 410.184 196.115 409.974 197.051 409.974C197.987 409.974 198.833 410.184 199.589 410.604C200.345 411.012 200.939 411.6 201.371 412.368C201.815 413.136 202.037 414.03 202.037 415.05C202.037 416.07 201.809 416.97 201.353 417.75C200.909 418.518 200.303 419.112 199.535 419.532C198.767 419.952 197.915 420.162 196.979 420.162ZM196.979 418.722C197.567 418.722 198.119 418.584 198.635 418.308C199.151 418.032 199.565 417.618 199.877 417.066C200.201 416.514 200.363 415.842 200.363 415.05C200.363 414.258 200.207 413.586 199.895 413.034C199.583 412.482 199.175 412.074 198.671 411.81C198.167 411.534 197.621 411.396 197.033 411.396C196.433 411.396 195.881 411.534 195.377 411.81C194.885 412.074 194.489 412.482 194.189 413.034C193.889 413.586 193.739 414.258 193.739 415.05C193.739 415.854 193.883 416.532 194.171 417.084C194.471 417.636 194.867 418.05 195.359 418.326C195.851 418.59 196.391 418.722 196.979 418.722ZM205.829 406.68V420H204.191V406.68H205.829ZM208.008 415.032C208.008 414.024 208.212 413.142 208.62 412.386C209.028 411.618 209.586 411.024 210.294 410.604C211.014 410.184 211.818 409.974 212.706 409.974C213.474 409.974 214.188 410.154 214.848 410.514C215.508 410.862 216.012 411.324 216.36 411.9V406.68H218.016V420H216.36V418.146C216.036 418.734 215.556 419.22 214.92 419.604C214.284 419.976 213.54 420.162 212.688 420.162C211.812 420.162 211.014 419.946 210.294 419.514C209.586 419.082 209.028 418.476 208.62 417.696C208.212 416.916 208.008 416.028 208.008 415.032ZM216.36 415.05C216.36 414.306 216.21 413.658 215.91 413.106C215.61 412.554 215.202 412.134 214.686 411.846C214.182 411.546 213.624 411.396 213.012 411.396C212.4 411.396 211.842 411.54 211.338 411.828C210.834 412.116 210.432 412.536 210.132 413.088C209.832 413.64 209.682 414.288 209.682 415.032C209.682 415.788 209.832 416.448 210.132 417.012C210.432 417.564 210.834 417.99 211.338 418.29C211.842 418.578 212.4 418.722 213.012 418.722C213.624 418.722 214.182 418.578 214.686 418.29C215.202 417.99 215.61 417.564 215.91 417.012C216.21 416.448 216.36 415.794 216.36 415.05ZM224.971 413.718C224.971 412.494 225.247 411.396 225.799 410.424C226.351 409.44 227.101 408.672 228.049 408.12C229.009 407.568 230.071 407.292 231.235 407.292C232.603 407.292 233.797 407.622 234.817 408.282C235.837 408.942 236.581 409.878 237.049 411.09H235.087C234.739 410.334 234.235 409.752 233.575 409.344C232.927 408.936 232.147 408.732 231.235 408.732C230.359 408.732 229.573 408.936 228.877 409.344C228.181 409.752 227.635 410.334 227.239 411.09C226.843 411.834 226.645 412.71 226.645 413.718C226.645 414.714 226.843 415.59 227.239 416.346C227.635 417.09 228.181 417.666 228.877 418.074C229.573 418.482 230.359 418.686 231.235 418.686C232.147 418.686 232.927 418.488 233.575 418.092C234.235 417.684 234.739 417.102 235.087 416.346H237.049C236.581 417.546 235.837 418.476 234.817 419.136C233.797 419.784 232.603 420.108 231.235 420.108C230.071 420.108 229.009 419.838 228.049 419.298C227.101 418.746 226.351 417.984 225.799 417.012C225.247 416.04 224.971 414.942 224.971 413.718ZM243.79 420.162C242.866 420.162 242.026 419.952 241.27 419.532C240.526 419.112 239.938 418.518 239.506 417.75C239.086 416.97 238.876 416.07 238.876 415.05C238.876 414.042 239.092 413.154 239.524 412.386C239.968 411.606 240.568 411.012 241.324 410.604C242.08 410.184 242.926 409.974 243.862 409.974C244.798 409.974 245.644 410.184 246.4 410.604C247.156 411.012 247.75 411.6 248.182 412.368C248.626 413.136 248.848 414.03 248.848 415.05C248.848 416.07 248.62 416.97 248.164 417.75C247.72 418.518 247.114 419.112 246.346 419.532C245.578 419.952 244.726 420.162 243.79 420.162ZM243.79 418.722C244.378 418.722 244.93 418.584 245.446 418.308C245.962 418.032 246.376 417.618 246.688 417.066C247.012 416.514 247.174 415.842 247.174 415.05C247.174 414.258 247.018 413.586 246.706 413.034C246.394 412.482 245.986 412.074 245.482 411.81C244.978 411.534 244.432 411.396 243.844 411.396C243.244 411.396 242.692 411.534 242.188 411.81C241.696 412.074 241.3 412.482 241 413.034C240.7 413.586 240.55 414.258 240.55 415.05C240.55 415.854 240.694 416.532 240.982 417.084C241.282 417.636 241.678 418.05 242.17 418.326C242.662 418.59 243.202 418.722 243.79 418.722ZM251.847 408.534C251.535 408.534 251.271 408.426 251.055 408.21C250.839 407.994 250.731 407.73 250.731 407.418C250.731 407.106 250.839 406.842 251.055 406.626C251.271 406.41 251.535 406.302 251.847 406.302C252.147 406.302 252.399 406.41 252.603 406.626C252.819 406.842 252.927 407.106 252.927 407.418C252.927 407.73 252.819 407.994 252.603 408.21C252.399 408.426 252.147 408.534 251.847 408.534ZM252.639 410.136V420H251.001V410.136H252.639ZM260.237 409.956C261.437 409.956 262.409 410.322 263.153 411.054C263.897 411.774 264.269 412.818 264.269 414.186V420H262.649V414.42C262.649 413.436 262.403 412.686 261.911 412.17C261.419 411.642 260.747 411.378 259.895 411.378C259.031 411.378 258.341 411.648 257.825 412.188C257.321 412.728 257.069 413.514 257.069 414.546V420H255.431V410.136H257.069V411.54C257.393 411.036 257.831 410.646 258.383 410.37C258.947 410.094 259.565 409.956 260.237 409.956ZM284.883 410.136L281.805 420H280.113L277.737 412.17L275.361 420H273.669L270.573 410.136H272.247L274.515 418.416L276.963 410.136H278.637L281.031 418.434L283.263 410.136H284.883ZM287.355 408.534C287.043 408.534 286.779 408.426 286.563 408.21C286.347 407.994 286.239 407.73 286.239 407.418C286.239 407.106 286.347 406.842 286.563 406.626C286.779 406.41 287.043 406.302 287.355 406.302C287.655 406.302 287.907 406.41 288.111 406.626C288.327 406.842 288.435 407.106 288.435 407.418C288.435 407.73 288.327 407.994 288.111 408.21C287.907 408.426 287.655 408.534 287.355 408.534ZM288.147 410.136V420H286.509V410.136H288.147ZM292.577 406.68V420H290.939V406.68H292.577ZM297.006 406.68V420H295.368V406.68H297.006ZM308.665 409.974C309.517 409.974 310.261 410.16 310.897 410.532C311.545 410.904 312.025 411.372 312.337 411.936V410.136H313.993V420.216C313.993 421.116 313.801 421.914 313.417 422.61C313.033 423.318 312.481 423.87 311.761 424.266C311.053 424.662 310.225 424.86 309.277 424.86C307.981 424.86 306.901 424.554 306.037 423.942C305.173 423.33 304.663 422.496 304.507 421.44H306.127C306.307 422.04 306.679 422.52 307.243 422.88C307.807 423.252 308.485 423.438 309.277 423.438C310.177 423.438 310.909 423.156 311.473 422.592C312.049 422.028 312.337 421.236 312.337 420.216V418.146C312.013 418.722 311.533 419.202 310.897 419.586C310.261 419.97 309.517 420.162 308.665 420.162C307.789 420.162 306.991 419.946 306.271 419.514C305.563 419.082 305.005 418.476 304.597 417.696C304.189 416.916 303.985 416.028 303.985 415.032C303.985 414.024 304.189 413.142 304.597 412.386C305.005 411.618 305.563 411.024 306.271 410.604C306.991 410.184 307.789 409.974 308.665 409.974ZM312.337 415.05C312.337 414.306 312.187 413.658 311.887 413.106C311.587 412.554 311.179 412.134 310.663 411.846C310.159 411.546 309.601 411.396 308.989 411.396C308.377 411.396 307.819 411.54 307.315 411.828C306.811 412.116 306.409 412.536 306.109 413.088C305.809 413.64 305.659 414.288 305.659 415.032C305.659 415.788 305.809 416.448 306.109 417.012C306.409 417.564 306.811 417.99 307.315 418.29C307.819 418.578 308.377 418.722 308.989 418.722C309.601 418.722 310.159 418.578 310.663 418.29C311.179 417.99 311.587 417.564 311.887 417.012C312.187 416.448 312.337 415.794 312.337 415.05ZM317.607 408.534C317.295 408.534 317.031 408.426 316.815 408.21C316.599 407.994 316.491 407.73 316.491 407.418C316.491 407.106 316.599 406.842 316.815 406.626C317.031 406.41 317.295 406.302 317.607 406.302C317.907 406.302 318.159 406.41 318.363 406.626C318.579 406.842 318.687 407.106 318.687 407.418C318.687 407.73 318.579 407.994 318.363 408.21C318.159 408.426 317.907 408.534 317.607 408.534ZM318.399 410.136V420H316.761V410.136H318.399ZM324.863 418.488L327.923 410.136H329.669L325.799 420H323.891L320.021 410.136H321.785L324.863 418.488ZM340.281 414.69C340.281 415.002 340.263 415.332 340.227 415.68H332.343C332.403 416.652 332.733 417.414 333.333 417.966C333.945 418.506 334.683 418.776 335.547 418.776C336.255 418.776 336.843 418.614 337.311 418.29C337.791 417.954 338.127 417.51 338.319 416.958H340.083C339.819 417.906 339.291 418.68 338.499 419.28C337.707 419.868 336.723 420.162 335.547 420.162C334.611 420.162 333.771 419.952 333.027 419.532C332.295 419.112 331.719 418.518 331.299 417.75C330.879 416.97 330.669 416.07 330.669 415.05C330.669 414.03 330.873 413.136 331.281 412.368C331.689 411.6 332.259 411.012 332.991 410.604C333.735 410.184 334.587 409.974 335.547 409.974C336.483 409.974 337.311 410.178 338.031 410.586C338.751 410.994 339.303 411.558 339.687 412.278C340.083 412.986 340.281 413.79 340.281 414.69ZM338.589 414.348C338.589 413.724 338.451 413.19 338.175 412.746C337.899 412.29 337.521 411.948 337.041 411.72C336.573 411.48 336.051 411.36 335.475 411.36C334.647 411.36 333.939 411.624 333.351 412.152C332.775 412.68 332.445 413.412 332.361 414.348H338.589ZM57.282 433.956C58.026 433.956 58.698 434.118 59.298 434.442C59.898 434.754 60.366 435.228 60.702 435.864C61.05 436.5 61.224 437.274 61.224 438.186V444H59.604V438.42C59.604 437.436 59.358 436.686 58.866 436.17C58.374 435.642 57.702 435.378 56.85 435.378C55.986 435.378 55.296 435.648 54.78 436.188C54.276 436.728 54.024 437.514 54.024 438.546V444H52.386V430.68H54.024V435.54C54.348 435.036 54.792 434.646 55.356 434.37C55.932 434.094 56.574 433.956 57.282 433.956ZM68.2017 444.162C67.2777 444.162 66.4377 443.952 65.6817 443.532C64.9377 443.112 64.3497 442.518 63.9177 441.75C63.4977 440.97 63.2877 440.07 63.2877 439.05C63.2877 438.042 63.5037 437.154 63.9357 436.386C64.3797 435.606 64.9797 435.012 65.7357 434.604C66.4917 434.184 67.3377 433.974 68.2737 433.974C69.2097 433.974 70.0557 434.184 70.8117 434.604C71.5677 435.012 72.1617 435.6 72.5937 436.368C73.0377 437.136 73.2597 438.03 73.2597 439.05C73.2597 440.07 73.0317 440.97 72.5757 441.75C72.1317 442.518 71.5257 443.112 70.7577 443.532C69.9897 443.952 69.1377 444.162 68.2017 444.162ZM68.2017 442.722C68.7897 442.722 69.3417 442.584 69.8577 442.308C70.3737 442.032 70.7877 441.618 71.0997 441.066C71.4237 440.514 71.5857 439.842 71.5857 439.05C71.5857 438.258 71.4297 437.586 71.1177 437.034C70.8057 436.482 70.3977 436.074 69.8937 435.81C69.3897 435.534 68.8437 435.396 68.2557 435.396C67.6557 435.396 67.1037 435.534 66.5997 435.81C66.1077 436.074 65.7117 436.482 65.4117 437.034C65.1117 437.586 64.9617 438.258 64.9617 439.05C64.9617 439.854 65.1057 440.532 65.3937 441.084C65.6937 441.636 66.0897 442.05 66.5817 442.326C67.0737 442.59 67.6137 442.722 68.2017 442.722ZM77.0513 430.68V444H75.4133V430.68H77.0513ZM79.231 439.032C79.231 438.024 79.435 437.142 79.843 436.386C80.251 435.618 80.809 435.024 81.517 434.604C82.237 434.184 83.041 433.974 83.929 433.974C84.697 433.974 85.411 434.154 86.071 434.514C86.731 434.862 87.235 435.324 87.583 435.9V430.68H89.239V444H87.583V442.146C87.259 442.734 86.779 443.22 86.143 443.604C85.507 443.976 84.763 444.162 83.911 444.162C83.035 444.162 82.237 443.946 81.517 443.514C80.809 443.082 80.251 442.476 79.843 441.696C79.435 440.916 79.231 440.028 79.231 439.032ZM87.583 439.05C87.583 438.306 87.433 437.658 87.133 437.106C86.833 436.554 86.425 436.134 85.909 435.846C85.405 435.546 84.847 435.396 84.235 435.396C83.623 435.396 83.065 435.54 82.561 435.828C82.057 436.116 81.655 436.536 81.355 437.088C81.055 437.64 80.905 438.288 80.905 439.032C80.905 439.788 81.055 440.448 81.355 441.012C81.655 441.564 82.057 441.99 82.561 442.29C83.065 442.578 83.623 442.722 84.235 442.722C84.847 442.722 85.405 442.578 85.909 442.29C86.425 441.99 86.833 441.564 87.133 441.012C87.433 440.448 87.583 439.794 87.583 439.05ZM101.007 438.69C101.007 439.002 100.989 439.332 100.953 439.68H93.0691C93.1291 440.652 93.4591 441.414 94.0591 441.966C94.6711 442.506 95.4091 442.776 96.2731 442.776C96.9811 442.776 97.5691 442.614 98.0371 442.29C98.5171 441.954 98.8531 441.51 99.0451 440.958H100.809C100.545 441.906 100.017 442.68 99.2251 443.28C98.4331 443.868 97.4491 444.162 96.2731 444.162C95.3371 444.162 94.4971 443.952 93.7531 443.532C93.0211 443.112 92.4451 442.518 92.0251 441.75C91.6051 440.97 91.3951 440.07 91.3951 439.05C91.3951 438.03 91.5991 437.136 92.0071 436.368C92.4151 435.6 92.9851 435.012 93.7171 434.604C94.4611 434.184 95.3131 433.974 96.2731 433.974C97.2091 433.974 98.0371 434.178 98.7571 434.586C99.4771 434.994 100.029 435.558 100.413 436.278C100.809 436.986 101.007 437.79 101.007 438.69ZM99.3151 438.348C99.3151 437.724 99.1771 437.19 98.9011 436.746C98.6251 436.29 98.2471 435.948 97.7671 435.72C97.2991 435.48 96.7771 435.36 96.2011 435.36C95.3731 435.36 94.6651 435.624 94.0771 436.152C93.5011 436.68 93.1711 437.412 93.0871 438.348H99.3151ZM104.807 435.738C105.095 435.174 105.503 434.736 106.031 434.424C106.571 434.112 107.225 433.956 107.993 433.956V435.648H107.561C105.725 435.648 104.807 436.644 104.807 438.636V444H103.169V434.136H104.807V435.738ZM113.376 444.162C112.62 444.162 111.942 444.036 111.342 443.784C110.742 443.52 110.268 443.16 109.92 442.704C109.572 442.236 109.38 441.702 109.344 441.102H111.036C111.084 441.594 111.312 441.996 111.72 442.308C112.14 442.62 112.686 442.776 113.358 442.776C113.982 442.776 114.474 442.638 114.834 442.362C115.194 442.086 115.374 441.738 115.374 441.318C115.374 440.886 115.182 440.568 114.798 440.364C114.414 440.148 113.82 439.938 113.016 439.734C112.284 439.542 111.684 439.35 111.216 439.158C110.76 438.954 110.364 438.66 110.028 438.276C109.704 437.88 109.542 437.364 109.542 436.728C109.542 436.224 109.692 435.762 109.992 435.342C110.292 434.922 110.718 434.592 111.27 434.352C111.822 434.1 112.452 433.974 113.16 433.974C114.252 433.974 115.134 434.25 115.806 434.802C116.478 435.354 116.838 436.11 116.886 437.07H115.248C115.212 436.554 115.002 436.14 114.618 435.828C114.246 435.516 113.742 435.36 113.106 435.36C112.518 435.36 112.05 435.486 111.702 435.738C111.354 435.99 111.18 436.32 111.18 436.728C111.18 437.052 111.282 437.322 111.486 437.538C111.702 437.742 111.966 437.91 112.278 438.042C112.602 438.162 113.046 438.3 113.61 438.456C114.318 438.648 114.894 438.84 115.338 439.032C115.782 439.212 116.16 439.488 116.472 439.86C116.796 440.232 116.964 440.718 116.976 441.318C116.976 441.858 116.826 442.344 116.526 442.776C116.226 443.208 115.8 443.55 115.248 443.802C114.708 444.042 114.084 444.162 113.376 444.162ZM126.085 435.486V441.3C126.085 441.78 126.187 442.122 126.391 442.326C126.595 442.518 126.949 442.614 127.453 442.614H128.659V444H127.183C126.271 444 125.587 443.79 125.131 443.37C124.675 442.95 124.447 442.26 124.447 441.3V435.486H123.169V434.136H124.447V431.652H126.085V434.136H128.659V435.486H126.085ZM135.54 433.956C136.284 433.956 136.956 434.118 137.556 434.442C138.156 434.754 138.624 435.228 138.96 435.864C139.308 436.5 139.482 437.274 139.482 438.186V444H137.862V438.42C137.862 437.436 137.616 436.686 137.124 436.17C136.632 435.642 135.96 435.378 135.108 435.378C134.244 435.378 133.554 435.648 133.038 436.188C132.534 436.728 132.282 437.514 132.282 438.546V444H130.644V430.68H132.282V435.54C132.606 435.036 133.05 434.646 133.614 434.37C134.19 434.094 134.832 433.956 135.54 433.956ZM151.157 438.69C151.157 439.002 151.139 439.332 151.103 439.68H143.219C143.279 440.652 143.609 441.414 144.209 441.966C144.821 442.506 145.559 442.776 146.423 442.776C147.131 442.776 147.719 442.614 148.187 442.29C148.667 441.954 149.003 441.51 149.195 440.958H150.959C150.695 441.906 150.167 442.68 149.375 443.28C148.583 443.868 147.599 444.162 146.423 444.162C145.487 444.162 144.647 443.952 143.903 443.532C143.171 443.112 142.595 442.518 142.175 441.75C141.755 440.97 141.545 440.07 141.545 439.05C141.545 438.03 141.749 437.136 142.157 436.368C142.565 435.6 143.135 435.012 143.867 434.604C144.611 434.184 145.463 433.974 146.423 433.974C147.359 433.974 148.187 434.178 148.907 434.586C149.627 434.994 150.179 435.558 150.563 436.278C150.959 436.986 151.157 437.79 151.157 438.69ZM149.465 438.348C149.465 437.724 149.327 437.19 149.051 436.746C148.775 436.29 148.397 435.948 147.917 435.72C147.449 435.48 146.927 435.36 146.351 435.36C145.523 435.36 144.815 435.624 144.227 436.152C143.651 436.68 143.321 437.412 143.237 438.348H149.465ZM159.756 435.972C160.092 435.384 160.584 434.904 161.232 434.532C161.88 434.16 162.618 433.974 163.446 433.974C164.334 433.974 165.132 434.184 165.84 434.604C166.548 435.024 167.106 435.618 167.514 436.386C167.922 437.142 168.126 438.024 168.126 439.032C168.126 440.028 167.922 440.916 167.514 441.696C167.106 442.476 166.542 443.082 165.822 443.514C165.114 443.946 164.322 444.162 163.446 444.162C162.594 444.162 161.844 443.976 161.196 443.604C160.56 443.232 160.08 442.758 159.756 442.182V444H158.118V430.68H159.756V435.972ZM166.452 439.032C166.452 438.288 166.302 437.64 166.002 437.088C165.702 436.536 165.294 436.116 164.778 435.828C164.274 435.54 163.716 435.396 163.104 435.396C162.504 435.396 161.946 435.546 161.43 435.846C160.926 436.134 160.518 436.56 160.206 437.124C159.906 437.676 159.756 438.318 159.756 439.05C159.756 439.794 159.906 440.448 160.206 441.012C160.518 441.564 160.926 441.99 161.43 442.29C161.946 442.578 162.504 442.722 163.104 442.722C163.716 442.722 164.274 442.578 164.778 442.29C165.294 441.99 165.702 441.564 166.002 441.012C166.302 440.448 166.452 439.788 166.452 439.032ZM179.282 438.69C179.282 439.002 179.264 439.332 179.228 439.68H171.344C171.404 440.652 171.734 441.414 172.334 441.966C172.946 442.506 173.684 442.776 174.548 442.776C175.256 442.776 175.844 442.614 176.312 442.29C176.792 441.954 177.128 441.51 177.32 440.958H179.084C178.82 441.906 178.292 442.68 177.5 443.28C176.708 443.868 175.724 444.162 174.548 444.162C173.612 444.162 172.772 443.952 172.028 443.532C171.296 443.112 170.72 442.518 170.3 441.75C169.88 440.97 169.67 440.07 169.67 439.05C169.67 438.03 169.874 437.136 170.282 436.368C170.69 435.6 171.26 435.012 171.992 434.604C172.736 434.184 173.588 433.974 174.548 433.974C175.484 433.974 176.312 434.178 177.032 434.586C177.752 434.994 178.304 435.558 178.688 436.278C179.084 436.986 179.282 437.79 179.282 438.69ZM177.59 438.348C177.59 437.724 177.452 437.19 177.176 436.746C176.9 436.29 176.522 435.948 176.042 435.72C175.574 435.48 175.052 435.36 174.476 435.36C173.648 435.36 172.94 435.624 172.352 436.152C171.776 436.68 171.446 437.412 171.362 438.348H177.59ZM186.251 433.956C187.451 433.956 188.423 434.322 189.167 435.054C189.911 435.774 190.283 436.818 190.283 438.186V444H188.663V438.42C188.663 437.436 188.417 436.686 187.925 436.17C187.433 435.642 186.761 435.378 185.909 435.378C185.045 435.378 184.355 435.648 183.839 436.188C183.335 436.728 183.083 437.514 183.083 438.546V444H181.445V434.136H183.083V435.54C183.407 435.036 183.845 434.646 184.397 434.37C184.961 434.094 185.579 433.956 186.251 433.956ZM201.958 438.69C201.958 439.002 201.94 439.332 201.904 439.68H194.02C194.08 440.652 194.41 441.414 195.01 441.966C195.622 442.506 196.36 442.776 197.224 442.776C197.932 442.776 198.52 442.614 198.988 442.29C199.468 441.954 199.804 441.51 199.996 440.958H201.76C201.496 441.906 200.968 442.68 200.176 443.28C199.384 443.868 198.4 444.162 197.224 444.162C196.288 444.162 195.448 443.952 194.704 443.532C193.972 443.112 193.396 442.518 192.976 441.75C192.556 440.97 192.346 440.07 192.346 439.05C192.346 438.03 192.55 437.136 192.958 436.368C193.366 435.6 193.936 435.012 194.668 434.604C195.412 434.184 196.264 433.974 197.224 433.974C198.16 433.974 198.988 434.178 199.708 434.586C200.428 434.994 200.98 435.558 201.364 436.278C201.76 436.986 201.958 437.79 201.958 438.69ZM200.266 438.348C200.266 437.724 200.128 437.19 199.852 436.746C199.576 436.29 199.198 435.948 198.718 435.72C198.25 435.48 197.728 435.36 197.152 435.36C196.324 435.36 195.616 435.624 195.028 436.152C194.452 436.68 194.122 437.412 194.038 438.348H200.266ZM208.134 435.486H206.064V444H204.426V435.486H203.148V434.136H204.426V433.434C204.426 432.33 204.708 431.526 205.272 431.022C205.848 430.506 206.766 430.248 208.026 430.248V431.616C207.306 431.616 206.796 431.76 206.496 432.048C206.208 432.324 206.064 432.786 206.064 433.434V434.136H208.134V435.486ZM210.89 432.534C210.578 432.534 210.314 432.426 210.098 432.21C209.882 431.994 209.774 431.73 209.774 431.418C209.774 431.106 209.882 430.842 210.098 430.626C210.314 430.41 210.578 430.302 210.89 430.302C211.19 430.302 211.442 430.41 211.646 430.626C211.862 430.842 211.97 431.106 211.97 431.418C211.97 431.73 211.862 431.994 211.646 432.21C211.442 432.426 211.19 432.534 210.89 432.534ZM211.682 434.136V444H210.044V434.136H211.682ZM216.472 435.486V441.3C216.472 441.78 216.574 442.122 216.778 442.326C216.982 442.518 217.336 442.614 217.84 442.614H219.046V444H217.57C216.658 444 215.974 443.79 215.518 443.37C215.062 442.95 214.834 442.26 214.834 441.3V435.486H213.556V434.136H214.834V431.652H216.472V434.136H219.046V435.486H216.472ZM224.523 444.162C223.767 444.162 223.089 444.036 222.489 443.784C221.889 443.52 221.415 443.16 221.067 442.704C220.719 442.236 220.527 441.702 220.491 441.102H222.183C222.231 441.594 222.459 441.996 222.867 442.308C223.287 442.62 223.833 442.776 224.505 442.776C225.129 442.776 225.621 442.638 225.981 442.362C226.341 442.086 226.521 441.738 226.521 441.318C226.521 440.886 226.329 440.568 225.945 440.364C225.561 440.148 224.967 439.938 224.163 439.734C223.431 439.542 222.831 439.35 222.363 439.158C221.907 438.954 221.511 438.66 221.175 438.276C220.851 437.88 220.689 437.364 220.689 436.728C220.689 436.224 220.839 435.762 221.139 435.342C221.439 434.922 221.865 434.592 222.417 434.352C222.969 434.1 223.599 433.974 224.307 433.974C225.399 433.974 226.281 434.25 226.953 434.802C227.625 435.354 227.985 436.11 228.033 437.07H226.395C226.359 436.554 226.149 436.14 225.765 435.828C225.393 435.516 224.889 435.36 224.253 435.36C223.665 435.36 223.197 435.486 222.849 435.738C222.501 435.99 222.327 436.32 222.327 436.728C222.327 437.052 222.429 437.322 222.633 437.538C222.849 437.742 223.113 437.91 223.425 438.042C223.749 438.162 224.193 438.3 224.757 438.456C225.465 438.648 226.041 438.84 226.485 439.032C226.929 439.212 227.307 439.488 227.619 439.86C227.943 440.232 228.111 440.718 228.123 441.318C228.123 441.858 227.973 442.344 227.673 442.776C227.373 443.208 226.947 443.55 226.395 443.802C225.855 444.042 225.231 444.162 224.523 444.162ZM239.536 444.162C238.612 444.162 237.772 443.952 237.016 443.532C236.272 443.112 235.684 442.518 235.252 441.75C234.832 440.97 234.622 440.07 234.622 439.05C234.622 438.042 234.838 437.154 235.27 436.386C235.714 435.606 236.314 435.012 237.07 434.604C237.826 434.184 238.672 433.974 239.608 433.974C240.544 433.974 241.39 434.184 242.146 434.604C242.902 435.012 243.496 435.6 243.928 436.368C244.372 437.136 244.594 438.03 244.594 439.05C244.594 440.07 244.366 440.97 243.91 441.75C243.466 442.518 242.86 443.112 242.092 443.532C241.324 443.952 240.472 444.162 239.536 444.162ZM239.536 442.722C240.124 442.722 240.676 442.584 241.192 442.308C241.708 442.032 242.122 441.618 242.434 441.066C242.758 440.514 242.92 439.842 242.92 439.05C242.92 438.258 242.764 437.586 242.452 437.034C242.14 436.482 241.732 436.074 241.228 435.81C240.724 435.534 240.178 435.396 239.59 435.396C238.99 435.396 238.438 435.534 237.934 435.81C237.442 436.074 237.046 436.482 236.746 437.034C236.446 437.586 236.296 438.258 236.296 439.05C236.296 439.854 236.44 440.532 236.728 441.084C237.028 441.636 237.424 442.05 237.916 442.326C238.408 442.59 238.948 442.722 239.536 442.722ZM250.761 435.486H248.691V444H247.053V435.486H245.775V434.136H247.053V433.434C247.053 432.33 247.335 431.526 247.899 431.022C248.475 430.506 249.393 430.248 250.653 430.248V431.616C249.933 431.616 249.423 431.76 249.123 432.048C248.835 432.324 248.691 432.786 248.691 433.434V434.136H250.761V435.486ZM259.108 435.972C259.444 435.384 259.936 434.904 260.584 434.532C261.232 434.16 261.97 433.974 262.798 433.974C263.686 433.974 264.484 434.184 265.192 434.604C265.9 435.024 266.458 435.618 266.866 436.386C267.274 437.142 267.478 438.024 267.478 439.032C267.478 440.028 267.274 440.916 266.866 441.696C266.458 442.476 265.894 443.082 265.174 443.514C264.466 443.946 263.674 444.162 262.798 444.162C261.946 444.162 261.196 443.976 260.548 443.604C259.912 443.232 259.432 442.758 259.108 442.182V444H257.47V430.68H259.108V435.972ZM265.804 439.032C265.804 438.288 265.654 437.64 265.354 437.088C265.054 436.536 264.646 436.116 264.13 435.828C263.626 435.54 263.068 435.396 262.456 435.396C261.856 435.396 261.298 435.546 260.782 435.846C260.278 436.134 259.87 436.56 259.558 437.124C259.258 437.676 259.108 438.318 259.108 439.05C259.108 439.794 259.258 440.448 259.558 441.012C259.87 441.564 260.278 441.99 260.782 442.29C261.298 442.578 261.856 442.722 262.456 442.722C263.068 442.722 263.626 442.578 264.13 442.29C264.646 441.99 265.054 441.564 265.354 441.012C265.654 440.448 265.804 439.788 265.804 439.032ZM278.382 434.136V444H276.744V442.542C276.432 443.046 275.994 443.442 275.43 443.73C274.878 444.006 274.266 444.144 273.594 444.144C272.826 444.144 272.136 443.988 271.524 443.676C270.912 443.352 270.426 442.872 270.066 442.236C269.718 441.6 269.544 440.826 269.544 439.914V434.136H271.164V439.698C271.164 440.67 271.41 441.42 271.902 441.948C272.394 442.464 273.066 442.722 273.918 442.722C274.794 442.722 275.484 442.452 275.988 441.912C276.492 441.372 276.744 440.586 276.744 439.554V434.136H278.382ZM289.644 434.136L283.704 448.644H282.012L283.956 443.892L279.978 434.136H281.796L284.892 442.128L287.952 434.136H289.644ZM292.136 432.534C291.824 432.534 291.56 432.426 291.344 432.21C291.128 431.994 291.02 431.73 291.02 431.418C291.02 431.106 291.128 430.842 291.344 430.626C291.56 430.41 291.824 430.302 292.136 430.302C292.436 430.302 292.688 430.41 292.892 430.626C293.108 430.842 293.216 431.106 293.216 431.418C293.216 431.73 293.108 431.994 292.892 432.21C292.688 432.426 292.436 432.534 292.136 432.534ZM292.928 434.136V444H291.29V434.136H292.928ZM300.526 433.956C301.726 433.956 302.698 434.322 303.442 435.054C304.186 435.774 304.558 436.818 304.558 438.186V444H302.938V438.42C302.938 437.436 302.692 436.686 302.2 436.17C301.708 435.642 301.036 435.378 300.184 435.378C299.32 435.378 298.63 435.648 298.114 436.188C297.61 436.728 297.358 437.514 297.358 438.546V444H295.72V434.136H297.358V435.54C297.682 435.036 298.12 434.646 298.672 434.37C299.236 434.094 299.854 433.956 300.526 433.956ZM311.302 433.974C312.154 433.974 312.898 434.16 313.534 434.532C314.182 434.904 314.662 435.372 314.974 435.936V434.136H316.63V444.216C316.63 445.116 316.438 445.914 316.054 446.61C315.67 447.318 315.118 447.87 314.398 448.266C313.69 448.662 312.862 448.86 311.914 448.86C310.618 448.86 309.538 448.554 308.674 447.942C307.81 447.33 307.3 446.496 307.144 445.44H308.764C308.944 446.04 309.316 446.52 309.88 446.88C310.444 447.252 311.122 447.438 311.914 447.438C312.814 447.438 313.546 447.156 314.11 446.592C314.686 446.028 314.974 445.236 314.974 444.216V442.146C314.65 442.722 314.17 443.202 313.534 443.586C312.898 443.97 312.154 444.162 311.302 444.162C310.426 444.162 309.628 443.946 308.908 443.514C308.2 443.082 307.642 442.476 307.234 441.696C306.826 440.916 306.622 440.028 306.622 439.032C306.622 438.024 306.826 437.142 307.234 436.386C307.642 435.618 308.2 435.024 308.908 434.604C309.628 434.184 310.426 433.974 311.302 433.974ZM314.974 439.05C314.974 438.306 314.824 437.658 314.524 437.106C314.224 436.554 313.816 436.134 313.3 435.846C312.796 435.546 312.238 435.396 311.626 435.396C311.014 435.396 310.456 435.54 309.952 435.828C309.448 436.116 309.046 436.536 308.746 437.088C308.446 437.64 308.296 438.288 308.296 439.032C308.296 439.788 308.446 440.448 308.746 441.012C309.046 441.564 309.448 441.99 309.952 442.29C310.456 442.578 311.014 442.722 311.626 442.722C312.238 442.722 312.796 442.578 313.3 442.29C313.816 441.99 314.224 441.564 314.524 441.012C314.824 440.448 314.974 439.794 314.974 439.05ZM333.701 435.09C333.353 434.358 332.849 433.794 332.189 433.398C331.529 432.99 330.761 432.786 329.885 432.786C329.009 432.786 328.217 432.99 327.509 433.398C326.813 433.794 326.261 434.37 325.853 435.126C325.457 435.87 325.259 436.734 325.259 437.718C325.259 438.702 325.457 439.566 325.853 440.31C326.261 441.054 326.813 441.63 327.509 442.038C328.217 442.434 329.009 442.632 329.885 442.632C331.109 442.632 332.117 442.266 332.909 441.534C333.701 440.802 334.163 439.812 334.295 438.564H329.291V437.232H336.041V438.492C335.945 439.524 335.621 440.472 335.069 441.336C334.517 442.188 333.791 442.866 332.891 443.37C331.991 443.862 330.989 444.108 329.885 444.108C328.721 444.108 327.659 443.838 326.699 443.298C325.739 442.746 324.977 441.984 324.413 441.012C323.861 440.04 323.585 438.942 323.585 437.718C323.585 436.494 323.861 435.396 324.413 434.424C324.977 433.44 325.739 432.678 326.699 432.138C327.659 431.586 328.721 431.31 329.885 431.31C331.217 431.31 332.393 431.64 333.413 432.3C334.445 432.96 335.195 433.89 335.663 435.09H333.701ZM342.508 444.162C341.584 444.162 340.744 443.952 339.988 443.532C339.244 443.112 338.656 442.518 338.224 441.75C337.804 440.97 337.594 440.07 337.594 439.05C337.594 438.042 337.81 437.154 338.242 436.386C338.686 435.606 339.286 435.012 340.042 434.604C340.798 434.184 341.644 433.974 342.58 433.974C343.516 433.974 344.362 434.184 345.118 434.604C345.874 435.012 346.468 435.6 346.9 436.368C347.344 437.136 347.566 438.03 347.566 439.05C347.566 440.07 347.338 440.97 346.882 441.75C346.438 442.518 345.832 443.112 345.064 443.532C344.296 443.952 343.444 444.162 342.508 444.162ZM342.508 442.722C343.096 442.722 343.648 442.584 344.164 442.308C344.68 442.032 345.094 441.618 345.406 441.066C345.73 440.514 345.892 439.842 345.892 439.05C345.892 438.258 345.736 437.586 345.424 437.034C345.112 436.482 344.704 436.074 344.2 435.81C343.696 435.534 343.15 435.396 342.562 435.396C341.962 435.396 341.41 435.534 340.906 435.81C340.414 436.074 340.018 436.482 339.718 437.034C339.418 437.586 339.268 438.258 339.268 439.05C339.268 439.854 339.412 440.532 339.7 441.084C340 441.636 340.396 442.05 340.888 442.326C341.38 442.59 341.92 442.722 342.508 442.722ZM351.358 430.68V444H349.72V430.68H351.358ZM353.538 439.032C353.538 438.024 353.742 437.142 354.15 436.386C354.558 435.618 355.116 435.024 355.824 434.604C356.544 434.184 357.348 433.974 358.236 433.974C359.004 433.974 359.718 434.154 360.378 434.514C361.038 434.862 361.542 435.324 361.89 435.9V430.68H363.546V444H361.89V442.146C361.566 442.734 361.086 443.22 360.45 443.604C359.814 443.976 359.07 444.162 358.218 444.162C357.342 444.162 356.544 443.946 355.824 443.514C355.116 443.082 354.558 442.476 354.15 441.696C353.742 440.916 353.538 440.028 353.538 439.032ZM361.89 439.05C361.89 438.306 361.74 437.658 361.44 437.106C361.14 436.554 360.732 436.134 360.216 435.846C359.712 435.546 359.154 435.396 358.542 435.396C357.93 435.396 357.372 435.54 356.868 435.828C356.364 436.116 355.962 436.536 355.662 437.088C355.362 437.64 355.212 438.288 355.212 439.032C355.212 439.788 355.362 440.448 355.662 441.012C355.962 441.564 356.364 441.99 356.868 442.29C357.372 442.578 357.93 442.722 358.542 442.722C359.154 442.722 359.712 442.578 360.216 442.29C360.732 441.99 361.14 441.564 361.44 441.012C361.74 440.448 361.89 439.794 361.89 439.05ZM65.526 458.136L62.448 468H60.756L58.38 460.17L56.004 468H54.312L51.216 458.136H52.89L55.158 466.416L57.606 458.136H59.28L61.674 466.434L63.906 458.136H65.526ZM67.9976 456.534C67.6856 456.534 67.4216 456.426 67.2056 456.21C66.9896 455.994 66.8816 455.73 66.8816 455.418C66.8816 455.106 66.9896 454.842 67.2056 454.626C67.4216 454.41 67.6856 454.302 67.9976 454.302C68.2976 454.302 68.5496 454.41 68.7536 454.626C68.9696 454.842 69.0776 455.106 69.0776 455.418C69.0776 455.73 68.9696 455.994 68.7536 456.21C68.5496 456.426 68.2976 456.534 67.9976 456.534ZM68.7896 458.136V468H67.1516V458.136H68.7896ZM73.5793 459.486V465.3C73.5793 465.78 73.6813 466.122 73.8853 466.326C74.0893 466.518 74.4433 466.614 74.9473 466.614H76.1533V468H74.6773C73.7653 468 73.0813 467.79 72.6253 467.37C72.1693 466.95 71.9413 466.26 71.9413 465.3V459.486H70.6633V458.136H71.9413V455.652H73.5793V458.136H76.1533V459.486H73.5793ZM83.034 457.956C83.778 457.956 84.45 458.118 85.05 458.442C85.65 458.754 86.118 459.228 86.454 459.864C86.802 460.5 86.976 461.274 86.976 462.186V468H85.356V462.42C85.356 461.436 85.11 460.686 84.618 460.17C84.126 459.642 83.454 459.378 82.602 459.378C81.738 459.378 81.048 459.648 80.532 460.188C80.028 460.728 79.776 461.514 79.776 462.546V468H78.138V454.68H79.776V459.54C80.1 459.036 80.544 458.646 81.108 458.37C81.684 458.094 82.326 457.956 83.034 457.956ZM93.9536 468.162C93.0296 468.162 92.1896 467.952 91.4336 467.532C90.6896 467.112 90.1016 466.518 89.6696 465.75C89.2496 464.97 89.0396 464.07 89.0396 463.05C89.0396 462.042 89.2556 461.154 89.6876 460.386C90.1316 459.606 90.7316 459.012 91.4876 458.604C92.2436 458.184 93.0896 457.974 94.0256 457.974C94.9616 457.974 95.8076 458.184 96.5636 458.604C97.3196 459.012 97.9136 459.6 98.3456 460.368C98.7896 461.136 99.0116 462.03 99.0116 463.05C99.0116 464.07 98.7836 464.97 98.3276 465.75C97.8836 466.518 97.2776 467.112 96.5096 467.532C95.7416 467.952 94.8896 468.162 93.9536 468.162ZM93.9536 466.722C94.5416 466.722 95.0936 466.584 95.6096 466.308C96.1256 466.032 96.5396 465.618 96.8516 465.066C97.1756 464.514 97.3376 463.842 97.3376 463.05C97.3376 462.258 97.1816 461.586 96.8696 461.034C96.5576 460.482 96.1496 460.074 95.6456 459.81C95.1416 459.534 94.5956 459.396 94.0076 459.396C93.4076 459.396 92.8556 459.534 92.3516 459.81C91.8596 460.074 91.4636 460.482 91.1636 461.034C90.8636 461.586 90.7136 462.258 90.7136 463.05C90.7136 463.854 90.8576 464.532 91.1456 465.084C91.4456 465.636 91.8416 466.05 92.3336 466.326C92.8256 466.59 93.3656 466.722 93.9536 466.722ZM109.913 458.136V468H108.275V466.542C107.963 467.046 107.525 467.442 106.961 467.73C106.409 468.006 105.797 468.144 105.125 468.144C104.357 468.144 103.667 467.988 103.055 467.676C102.443 467.352 101.957 466.872 101.597 466.236C101.249 465.6 101.075 464.826 101.075 463.914V458.136H102.695V463.698C102.695 464.67 102.941 465.42 103.433 465.948C103.925 466.464 104.597 466.722 105.449 466.722C106.325 466.722 107.015 466.452 107.519 465.912C108.023 465.372 108.275 464.586 108.275 463.554V458.136H109.913ZM114.677 459.486V465.3C114.677 465.78 114.779 466.122 114.983 466.326C115.187 466.518 115.541 466.614 116.045 466.614H117.251V468H115.775C114.863 468 114.179 467.79 113.723 467.37C113.267 466.95 113.039 466.26 113.039 465.3V459.486H111.761V458.136H113.039V455.652H114.677V458.136H117.251V459.486H114.677ZM128.93 457.956C129.674 457.956 130.346 458.118 130.946 458.442C131.546 458.754 132.014 459.228 132.35 459.864C132.698 460.5 132.872 461.274 132.872 462.186V468H131.252V462.42C131.252 461.436 131.006 460.686 130.514 460.17C130.022 459.642 129.35 459.378 128.498 459.378C127.634 459.378 126.944 459.648 126.428 460.188C125.924 460.728 125.672 461.514 125.672 462.546V468H124.034V454.68H125.672V459.54C125.996 459.036 126.44 458.646 127.004 458.37C127.58 458.094 128.222 457.956 128.93 457.956ZM134.936 463.032C134.936 462.024 135.14 461.142 135.548 460.386C135.956 459.618 136.514 459.024 137.222 458.604C137.942 458.184 138.74 457.974 139.616 457.974C140.48 457.974 141.23 458.16 141.866 458.532C142.502 458.904 142.976 459.372 143.288 459.936V458.136H144.944V468H143.288V466.164C142.964 466.74 142.478 467.22 141.83 467.604C141.194 467.976 140.45 468.162 139.598 468.162C138.722 468.162 137.93 467.946 137.222 467.514C136.514 467.082 135.956 466.476 135.548 465.696C135.14 464.916 134.936 464.028 134.936 463.032ZM143.288 463.05C143.288 462.306 143.138 461.658 142.838 461.106C142.538 460.554 142.13 460.134 141.614 459.846C141.11 459.546 140.552 459.396 139.94 459.396C139.328 459.396 138.77 459.54 138.266 459.828C137.762 460.116 137.36 460.536 137.06 461.088C136.76 461.64 136.61 462.288 136.61 463.032C136.61 463.788 136.76 464.448 137.06 465.012C137.36 465.564 137.762 465.99 138.266 466.29C138.77 466.578 139.328 466.722 139.94 466.722C140.552 466.722 141.11 466.578 141.614 466.29C142.13 465.99 142.538 465.564 142.838 465.012C143.138 464.448 143.288 463.794 143.288 463.05ZM151.204 468.162C150.448 468.162 149.77 468.036 149.17 467.784C148.57 467.52 148.096 467.16 147.748 466.704C147.4 466.236 147.208 465.702 147.172 465.102H148.864C148.912 465.594 149.14 465.996 149.548 466.308C149.968 466.62 150.514 466.776 151.186 466.776C151.81 466.776 152.302 466.638 152.662 466.362C153.022 466.086 153.202 465.738 153.202 465.318C153.202 464.886 153.01 464.568 152.626 464.364C152.242 464.148 151.648 463.938 150.844 463.734C150.112 463.542 149.512 463.35 149.044 463.158C148.588 462.954 148.192 462.66 147.856 462.276C147.532 461.88 147.37 461.364 147.37 460.728C147.37 460.224 147.52 459.762 147.82 459.342C148.12 458.922 148.546 458.592 149.098 458.352C149.65 458.1 150.28 457.974 150.988 457.974C152.08 457.974 152.962 458.25 153.634 458.802C154.306 459.354 154.666 460.11 154.714 461.07H153.076C153.04 460.554 152.83 460.14 152.446 459.828C152.074 459.516 151.57 459.36 150.934 459.36C150.346 459.36 149.878 459.486 149.53 459.738C149.182 459.99 149.008 460.32 149.008 460.728C149.008 461.052 149.11 461.322 149.314 461.538C149.53 461.742 149.794 461.91 150.106 462.042C150.43 462.162 150.874 462.3 151.438 462.456C152.146 462.648 152.722 462.84 153.166 463.032C153.61 463.212 153.988 463.488 154.3 463.86C154.624 464.232 154.792 464.718 154.804 465.318C154.804 465.858 154.654 466.344 154.354 466.776C154.054 467.208 153.628 467.55 153.076 467.802C152.536 468.042 151.912 468.162 151.204 468.162ZM160.608 468.162C159.852 468.162 159.174 468.036 158.574 467.784C157.974 467.52 157.5 467.16 157.152 466.704C156.804 466.236 156.612 465.702 156.576 465.102H158.268C158.316 465.594 158.544 465.996 158.952 466.308C159.372 466.62 159.918 466.776 160.59 466.776C161.214 466.776 161.706 466.638 162.066 466.362C162.426 466.086 162.606 465.738 162.606 465.318C162.606 464.886 162.414 464.568 162.03 464.364C161.646 464.148 161.052 463.938 160.248 463.734C159.516 463.542 158.916 463.35 158.448 463.158C157.992 462.954 157.596 462.66 157.26 462.276C156.936 461.88 156.774 461.364 156.774 460.728C156.774 460.224 156.924 459.762 157.224 459.342C157.524 458.922 157.95 458.592 158.502 458.352C159.054 458.1 159.684 457.974 160.392 457.974C161.484 457.974 162.366 458.25 163.038 458.802C163.71 459.354 164.07 460.11 164.118 461.07H162.48C162.444 460.554 162.234 460.14 161.85 459.828C161.478 459.516 160.974 459.36 160.338 459.36C159.75 459.36 159.282 459.486 158.934 459.738C158.586 459.99 158.412 460.32 158.412 460.728C158.412 461.052 158.514 461.322 158.718 461.538C158.934 461.742 159.198 461.91 159.51 462.042C159.834 462.162 160.278 462.3 160.842 462.456C161.55 462.648 162.126 462.84 162.57 463.032C163.014 463.212 163.392 463.488 163.704 463.86C164.028 464.232 164.196 464.718 164.208 465.318C164.208 465.858 164.058 466.344 163.758 466.776C163.458 467.208 163.032 467.55 162.48 467.802C161.94 468.042 161.316 468.162 160.608 468.162ZM168.159 454.68V468H166.521V454.68H168.159ZM179.95 462.69C179.95 463.002 179.932 463.332 179.896 463.68H172.012C172.072 464.652 172.402 465.414 173.002 465.966C173.614 466.506 174.352 466.776 175.216 466.776C175.924 466.776 176.512 466.614 176.98 466.29C177.46 465.954 177.796 465.51 177.988 464.958H179.752C179.488 465.906 178.96 466.68 178.168 467.28C177.376 467.868 176.392 468.162 175.216 468.162C174.28 468.162 173.44 467.952 172.696 467.532C171.964 467.112 171.388 466.518 170.968 465.75C170.548 464.97 170.338 464.07 170.338 463.05C170.338 462.03 170.542 461.136 170.95 460.368C171.358 459.6 171.928 459.012 172.66 458.604C173.404 458.184 174.256 457.974 175.216 457.974C176.152 457.974 176.98 458.178 177.7 458.586C178.42 458.994 178.972 459.558 179.356 460.278C179.752 460.986 179.95 461.79 179.95 462.69ZM178.258 462.348C178.258 461.724 178.12 461.19 177.844 460.746C177.568 460.29 177.19 459.948 176.71 459.72C176.242 459.48 175.72 459.36 175.144 459.36C174.316 459.36 173.608 459.624 173.02 460.152C172.444 460.68 172.114 461.412 172.03 462.348H178.258ZM182.635 468.108C182.323 468.108 182.059 468 181.843 467.784C181.627 467.568 181.519 467.304 181.519 466.992C181.519 466.68 181.627 466.416 181.843 466.2C182.059 465.984 182.323 465.876 182.635 465.876C182.935 465.876 183.187 465.984 183.391 466.2C183.607 466.416 183.715 466.68 183.715 466.992C183.715 467.304 183.607 467.568 183.391 467.784C183.187 468 182.935 468.108 182.635 468.108Z" fill="#3A3A3A"/>
<path d="M215 311C146.074 311 90 254.926 90 186C90 117.074 146.074 61 215 61C283.926 61 340 117.074 340 186C340.007 254.926 283.926 311 215 311ZM215 74.7187C153.643 74.7187 103.719 124.636 103.719 186C103.719 247.364 153.636 297.281 215 297.281C276.357 297.281 326.281 247.364 326.281 186C326.281 124.636 276.364 74.7187 215 74.7187Z" fill="#C99704"/>
<path d="M263.99 135.772C265.781 133.878 268.141 132.812 270.68 132.812C273.617 149.054 276.074 167.013 277.539 186.488C278.967 205.453 279.241 223.109 278.812 239.217L275.763 239.24C274.194 239.254 272.751 238.463 271.982 237.175C267.698 229.961 261.371 221.052 252.159 212.172C238.632 199.142 224.588 191.668 215.035 187.502L263.99 135.772Z" fill="url(#paint0_linear_185_2265)"/>
<path d="M239.757 201.754L270.679 132.768C268.141 132.768 265.707 133.833 263.916 135.728L214.961 187.458C221.569 190.011 230.537 194.347 239.757 201.754Z" fill="url(#paint1_linear_185_2265)"/>
<path d="M263.919 135.72L214.964 187.45C208.363 190.003 199.395 194.339 190.168 201.746L205.603 236.191C206.417 238.004 208.149 239.158 210.043 239.158H214.956H219.87C221.771 239.158 223.495 238.004 224.309 236.191L239.745 201.746L270.667 132.76C268.151 132.76 265.717 133.826 263.919 135.72Z" fill="url(#paint2_linear_185_2265)"/>
<path d="M263.916 135.72L214.961 187.45V233.964C214.961 236.835 217.159 239.158 219.874 239.158C221.776 239.158 223.5 238.004 224.314 236.191L239.749 201.746L270.672 132.76C268.149 132.76 265.714 133.826 263.916 135.72Z" fill="url(#paint3_linear_185_2265)"/>
<path d="M166.014 135.72C164.224 133.826 161.863 132.76 159.325 132.76C156.388 149.002 153.931 166.961 152.466 186.437C151.038 205.401 150.764 223.057 151.193 239.165L154.242 239.188C155.81 239.202 157.253 238.411 158.023 237.123C162.307 229.909 168.634 221 177.846 212.12C191.372 199.09 205.417 191.616 214.969 187.45L166.014 135.72Z" fill="url(#paint4_linear_185_2265)"/>
<path opacity="0.81" d="M214.971 187.458L166.119 135.728C165.446 135.017 164.699 134.425 163.885 133.959C163.544 133.767 163.196 133.597 162.841 133.449C162.627 133.36 162.412 133.278 162.19 133.204C162.116 133.182 162.042 133.16 161.968 133.138C161.82 133.093 161.672 133.056 161.524 133.019C160.851 132.857 160.148 132.775 159.438 132.775C159.438 132.775 190.219 201.761 190.227 201.761C193.438 199.371 197.123 196.885 201.282 194.435C206.136 191.564 210.761 189.285 214.971 187.458Z" fill="url(#paint5_linear_185_2265)"/>
</g>
<defs>
<filter id="filter0_d_185_2265" x="0" y="0" width="440" height="541" filterUnits="userSpaceOnUse" color-interpolation-filters="sRGB">
<feFlood flood-opacity="0" result="BackgroundImageFix"/>
<feColorMatrix in="SourceAlpha" type="matrix" values="0 0 0 0 0 0 0 0 0 0 0 0 0 0 0 0 0 0 127 0" result="hardAlpha"/>
<feOffset dx="4" dy="4"/>
<feGaussianBlur stdDeviation="11"/>
<feComposite in2="hardAlpha" operator="out"/>
<feColorMatrix type="matrix" values="0 0 0 0 0 0 0 0 0 0 0 0 0 0 0 0 0 0 0.15 0"/>
<feBlend mode="normal" in2="BackgroundImageFix" result="effect1_dropShadow_185_2265"/>
<feBlend mode="normal" in="SourceGraphic" in2="effect1_dropShadow_185_2265" result="shape"/>
</filter>
<linearGradient id="paint0_linear_185_2265" x1="269.183" y1="184.51" x2="228.729" y2="167.34" gradientUnits="userSpaceOnUse">
<stop stop-color="#E5B020"/>
<stop offset="0.1208" stop-color="#D29F20"/>
<stop offset="0.3642" stop-color="#A2721E"/>
<stop offset="0.4188" stop-color="#96671E"/>
</linearGradient>
<linearGradient id="paint1_linear_185_2265" x1="270.995" y1="174.504" x2="246.918" y2="163.442" gradientUnits="userSpaceOnUse">
<stop stop-color="#B98916"/>
<stop offset="0.9969" stop-color="#96671E"/>
</linearGradient>
<linearGradient id="paint2_linear_185_2265" x1="242.951" y1="189.512" x2="225.342" y2="171.944" gradientUnits="userSpaceOnUse">
<stop offset="0.2046" stop-color="#E5B020"/>
<stop offset="0.3447" stop-color="#E0AB20"/>
<stop offset="0.5148" stop-color="#D19E1F"/>
<stop offset="0.7004" stop-color="#B8871F"/>
<stop offset="0.896" stop-color="#96671E"/>
<stop offset="0.8983" stop-color="#96671E"/>
</linearGradient>
<linearGradient id="paint3_linear_185_2265" x1="228.543" y1="195.155" x2="284.921" y2="56.7978" gradientUnits="userSpaceOnUse">
<stop stop-color="#E5B020" stop-opacity="0"/>
<stop offset="0.5145" stop-color="#E5B020"/>
</linearGradient>
<linearGradient id="paint4_linear_185_2265" x1="189.003" y1="223.253" x2="120.748" y2="108.683" gradientUnits="userSpaceOnUse">
<stop offset="0.1599" stop-color="#E5B020"/>
<stop offset="0.4131" stop-color="#B9871F"/>
<stop offset="0.6333" stop-color="#96671E"/>
</linearGradient>
<linearGradient id="paint5_linear_185_2265" x1="195.166" y1="192.541" x2="165.297" y2="70.8657" gradientUnits="userSpaceOnUse">
<stop stop-color="#E5B020" stop-opacity="0"/>
<stop offset="0.559" stop-color="#E5B020"/>
</linearGradient>
</defs>
</svg>
