<svg width="440" height="541" viewBox="0 0 440 541" fill="none" xmlns="http://www.w3.org/2000/svg">
<g filter="url(#filter0_d_115_968)">
<rect x="18" y="18" width="396" height="497" rx="8" fill="white"/>
<path d="M75.9 362.06V383H71.7V369.38L66.09 383H62.91L57.27 369.38V383H53.07V362.06H57.84L64.5 377.63L71.16 362.06H75.9ZM78.9724 374.63C78.9724 372.95 79.3024 371.46 79.9624 370.16C80.6424 368.86 81.5524 367.86 82.6924 367.16C83.8524 366.46 85.1424 366.11 86.5624 366.11C87.8024 366.11 88.8824 366.36 89.8024 366.86C90.7424 367.36 91.4924 367.99 92.0524 368.75V366.38H96.2824V383H92.0524V380.57C91.5124 381.35 90.7624 382 89.8024 382.52C88.8624 383.02 87.7724 383.27 86.5324 383.27C85.1324 383.27 83.8524 382.91 82.6924 382.19C81.5524 381.47 80.6424 380.46 79.9624 379.16C79.3024 377.84 78.9724 376.33 78.9724 374.63ZM92.0524 374.69C92.0524 373.67 91.8524 372.8 91.4524 372.08C91.0524 371.34 90.5124 370.78 89.8324 370.4C89.1524 370 88.4224 369.8 87.6424 369.8C86.8624 369.8 86.1424 369.99 85.4824 370.37C84.8224 370.75 84.2824 371.31 83.8624 372.05C83.4624 372.77 83.2624 373.63 83.2624 374.63C83.2624 375.63 83.4624 376.51 83.8624 377.27C84.2824 378.01 84.8224 378.58 85.4824 378.98C86.1624 379.38 86.8824 379.58 87.6424 379.58C88.4224 379.58 89.1524 379.39 89.8324 379.01C90.5124 378.61 91.0524 378.05 91.4524 377.33C91.8524 376.59 92.0524 375.71 92.0524 374.69ZM104.584 368.96C105.124 368.08 105.824 367.39 106.684 366.89C107.564 366.39 108.564 366.14 109.684 366.14V370.55H108.574C107.254 370.55 106.254 370.86 105.574 371.48C104.914 372.1 104.584 373.18 104.584 374.72V383H100.384V366.38H104.584V368.96ZM119.443 379.13L123.643 366.38H128.113L121.963 383H116.863L110.743 366.38H115.243L119.443 379.13ZM145.922 374.33C145.922 374.93 145.882 375.47 145.802 375.95H133.652C133.752 377.15 134.172 378.09 134.912 378.77C135.652 379.45 136.562 379.79 137.642 379.79C139.202 379.79 140.312 379.12 140.972 377.78H145.502C145.022 379.38 144.102 380.7 142.742 381.74C141.382 382.76 139.712 383.27 137.732 383.27C136.132 383.27 134.692 382.92 133.412 382.22C132.152 381.5 131.162 380.49 130.442 379.19C129.742 377.89 129.392 376.39 129.392 374.69C129.392 372.97 129.742 371.46 130.442 370.16C131.142 368.86 132.122 367.86 133.382 367.16C134.642 366.46 136.092 366.11 137.732 366.11C139.312 366.11 140.722 366.45 141.962 367.13C143.222 367.81 144.192 368.78 144.872 370.04C145.572 371.28 145.922 372.71 145.922 374.33ZM141.572 373.13C141.552 372.05 141.162 371.19 140.402 370.55C139.642 369.89 138.712 369.56 137.612 369.56C136.572 369.56 135.692 369.88 134.972 370.52C134.272 371.14 133.842 372.01 133.682 373.13H141.572ZM153.188 360.8V383H148.988V360.8H153.188ZM161.538 360.8V383H157.338V360.8H161.538ZM181.137 374.33C181.137 374.93 181.097 375.47 181.017 375.95H168.867C168.967 377.15 169.387 378.09 170.127 378.77C170.867 379.45 171.777 379.79 172.857 379.79C174.417 379.79 175.527 379.12 176.187 377.78H180.717C180.237 379.38 179.317 380.7 177.957 381.74C176.597 382.76 174.927 383.27 172.947 383.27C171.347 383.27 169.907 382.92 168.627 382.22C167.367 381.5 166.377 380.49 165.657 379.19C164.957 377.89 164.607 376.39 164.607 374.69C164.607 372.97 164.957 371.46 165.657 370.16C166.357 368.86 167.337 367.86 168.597 367.16C169.857 366.46 171.307 366.11 172.947 366.11C174.527 366.11 175.937 366.45 177.177 367.13C178.437 367.81 179.407 368.78 180.087 370.04C180.787 371.28 181.137 372.71 181.137 374.33ZM176.787 373.13C176.767 372.05 176.377 371.19 175.617 370.55C174.857 369.89 173.927 369.56 172.827 369.56C171.787 369.56 170.907 369.88 170.187 370.52C169.487 371.14 169.057 372.01 168.897 373.13H176.787ZM193.383 383L189.963 377.84L186.933 383H182.433L187.863 374.66L182.373 366.38H187.113L190.503 371.51L193.563 366.38H198.063L192.603 374.66L198.123 383H193.383Z" fill="#3A3A3A"/>
<path d="M59.802 417.21H54.33L53.322 420H51.594L56.13 407.526H58.02L62.538 420H60.81L59.802 417.21ZM59.334 415.878L57.066 409.542L54.798 415.878H59.334ZM66.1529 406.68V420H64.5149V406.68H66.1529ZM70.5826 406.68V420H68.9446V406.68H70.5826ZM80.1711 411.486V417.3C80.1711 417.78 80.2731 418.122 80.4771 418.326C80.6811 418.518 81.0351 418.614 81.5391 418.614H82.7451V420H81.2691C80.3571 420 79.6731 419.79 79.2171 419.37C78.7611 418.95 78.5331 418.26 78.5331 417.3V411.486H77.2551V410.136H78.5331V407.652H80.1711V410.136H82.7451V411.486H80.1711ZM89.6258 409.956C90.3698 409.956 91.0418 410.118 91.6418 410.442C92.2418 410.754 92.7098 411.228 93.0458 411.864C93.3938 412.5 93.5678 413.274 93.5678 414.186V420H91.9478V414.42C91.9478 413.436 91.7018 412.686 91.2098 412.17C90.7178 411.642 90.0458 411.378 89.1938 411.378C88.3298 411.378 87.6398 411.648 87.1238 412.188C86.6198 412.728 86.3678 413.514 86.3678 414.546V420H84.7298V406.68H86.3678V411.54C86.6918 411.036 87.1358 410.646 87.6998 410.37C88.2758 410.094 88.9178 409.956 89.6258 409.956ZM105.243 414.69C105.243 415.002 105.225 415.332 105.189 415.68H97.3054C97.3654 416.652 97.6954 417.414 98.2954 417.966C98.9074 418.506 99.6454 418.776 100.509 418.776C101.217 418.776 101.805 418.614 102.273 418.29C102.753 417.954 103.089 417.51 103.281 416.958H105.045C104.781 417.906 104.253 418.68 103.461 419.28C102.669 419.868 101.685 420.162 100.509 420.162C99.5734 420.162 98.7334 419.952 97.9894 419.532C97.2574 419.112 96.6814 418.518 96.2614 417.75C95.8414 416.97 95.6314 416.07 95.6314 415.05C95.6314 414.03 95.8354 413.136 96.2434 412.368C96.6514 411.6 97.2214 411.012 97.9534 410.604C98.6974 410.184 99.5494 409.974 100.509 409.974C101.445 409.974 102.273 410.178 102.993 410.586C103.713 410.994 104.265 411.558 104.649 412.278C105.045 412.986 105.243 413.79 105.243 414.69ZM103.551 414.348C103.551 413.724 103.413 413.19 103.137 412.746C102.861 412.29 102.483 411.948 102.003 411.72C101.535 411.48 101.013 411.36 100.437 411.36C99.6094 411.36 98.9014 411.624 98.3134 412.152C97.7374 412.68 97.4074 413.412 97.3234 414.348H103.551ZM113.842 411.954C114.166 411.39 114.646 410.922 115.282 410.55C115.93 410.166 116.68 409.974 117.532 409.974C118.408 409.974 119.2 410.184 119.908 410.604C120.628 411.024 121.192 411.618 121.6 412.386C122.008 413.142 122.212 414.024 122.212 415.032C122.212 416.028 122.008 416.916 121.6 417.696C121.192 418.476 120.628 419.082 119.908 419.514C119.2 419.946 118.408 420.162 117.532 420.162C116.692 420.162 115.948 419.976 115.3 419.604C114.664 419.22 114.178 418.746 113.842 418.182V424.68H112.204V410.136H113.842V411.954ZM120.538 415.032C120.538 414.288 120.388 413.64 120.088 413.088C119.788 412.536 119.38 412.116 118.864 411.828C118.36 411.54 117.802 411.396 117.19 411.396C116.59 411.396 116.032 411.546 115.516 411.846C115.012 412.134 114.604 412.56 114.292 413.124C113.992 413.676 113.842 414.318 113.842 415.05C113.842 415.794 113.992 416.448 114.292 417.012C114.604 417.564 115.012 417.99 115.516 418.29C116.032 418.578 116.59 418.722 117.19 418.722C117.802 418.722 118.36 418.578 118.864 418.29C119.38 417.99 119.788 417.564 120.088 417.012C120.388 416.448 120.538 415.788 120.538 415.032ZM126.006 411.738C126.294 411.174 126.702 410.736 127.23 410.424C127.77 410.112 128.424 409.956 129.192 409.956V411.648H128.76C126.924 411.648 126.006 412.644 126.006 414.636V420H124.368V410.136H126.006V411.738ZM135.385 420.162C134.461 420.162 133.621 419.952 132.865 419.532C132.121 419.112 131.533 418.518 131.101 417.75C130.681 416.97 130.471 416.07 130.471 415.05C130.471 414.042 130.687 413.154 131.119 412.386C131.563 411.606 132.163 411.012 132.919 410.604C133.675 410.184 134.521 409.974 135.457 409.974C136.393 409.974 137.239 410.184 137.995 410.604C138.751 411.012 139.345 411.6 139.777 412.368C140.221 413.136 140.443 414.03 140.443 415.05C140.443 416.07 140.215 416.97 139.759 417.75C139.315 418.518 138.709 419.112 137.941 419.532C137.173 419.952 136.321 420.162 135.385 420.162ZM135.385 418.722C135.973 418.722 136.525 418.584 137.041 418.308C137.557 418.032 137.971 417.618 138.283 417.066C138.607 416.514 138.769 415.842 138.769 415.05C138.769 414.258 138.613 413.586 138.301 413.034C137.989 412.482 137.581 412.074 137.077 411.81C136.573 411.534 136.027 411.396 135.439 411.396C134.839 411.396 134.287 411.534 133.783 411.81C133.291 412.074 132.895 412.482 132.595 413.034C132.295 413.586 132.145 414.258 132.145 415.05C132.145 415.854 132.289 416.532 132.577 417.084C132.877 417.636 133.273 418.05 133.765 418.326C134.257 418.59 134.797 418.722 135.385 418.722ZM141.985 415.05C141.985 414.03 142.189 413.142 142.597 412.386C143.005 411.618 143.569 411.024 144.289 410.604C145.021 410.184 145.855 409.974 146.791 409.974C148.003 409.974 148.999 410.268 149.779 410.856C150.571 411.444 151.093 412.26 151.345 413.304H149.581C149.413 412.704 149.083 412.23 148.591 411.882C148.111 411.534 147.511 411.36 146.791 411.36C145.855 411.36 145.099 411.684 144.523 412.332C143.947 412.968 143.659 413.874 143.659 415.05C143.659 416.238 143.947 417.156 144.523 417.804C145.099 418.452 145.855 418.776 146.791 418.776C147.511 418.776 148.111 418.608 148.591 418.272C149.071 417.936 149.401 417.456 149.581 416.832H151.345C151.081 417.84 150.553 418.65 149.761 419.262C148.969 419.862 147.979 420.162 146.791 420.162C145.855 420.162 145.021 419.952 144.289 419.532C143.569 419.112 143.005 418.518 142.597 417.75C142.189 416.982 141.985 416.082 141.985 415.05ZM162.531 414.69C162.531 415.002 162.513 415.332 162.477 415.68H154.593C154.653 416.652 154.983 417.414 155.583 417.966C156.195 418.506 156.933 418.776 157.797 418.776C158.505 418.776 159.093 418.614 159.561 418.29C160.041 417.954 160.377 417.51 160.569 416.958H162.333C162.069 417.906 161.541 418.68 160.749 419.28C159.957 419.868 158.973 420.162 157.797 420.162C156.861 420.162 156.021 419.952 155.277 419.532C154.545 419.112 153.969 418.518 153.549 417.75C153.129 416.97 152.919 416.07 152.919 415.05C152.919 414.03 153.123 413.136 153.531 412.368C153.939 411.6 154.509 411.012 155.241 410.604C155.985 410.184 156.837 409.974 157.797 409.974C158.733 409.974 159.561 410.178 160.281 410.586C161.001 410.994 161.553 411.558 161.937 412.278C162.333 412.986 162.531 413.79 162.531 414.69ZM160.839 414.348C160.839 413.724 160.701 413.19 160.425 412.746C160.149 412.29 159.771 411.948 159.291 411.72C158.823 411.48 158.301 411.36 157.725 411.36C156.897 411.36 156.189 411.624 155.601 412.152C155.025 412.68 154.695 413.412 154.611 414.348H160.839ZM173.693 414.69C173.693 415.002 173.675 415.332 173.639 415.68H165.755C165.815 416.652 166.145 417.414 166.745 417.966C167.357 418.506 168.095 418.776 168.959 418.776C169.667 418.776 170.255 418.614 170.723 418.29C171.203 417.954 171.539 417.51 171.731 416.958H173.495C173.231 417.906 172.703 418.68 171.911 419.28C171.119 419.868 170.135 420.162 168.959 420.162C168.023 420.162 167.183 419.952 166.439 419.532C165.707 419.112 165.131 418.518 164.711 417.75C164.291 416.97 164.081 416.07 164.081 415.05C164.081 414.03 164.285 413.136 164.693 412.368C165.101 411.6 165.671 411.012 166.403 410.604C167.147 410.184 167.999 409.974 168.959 409.974C169.895 409.974 170.723 410.178 171.443 410.586C172.163 410.994 172.715 411.558 173.099 412.278C173.495 412.986 173.693 413.79 173.693 414.69ZM172.001 414.348C172.001 413.724 171.863 413.19 171.587 412.746C171.311 412.29 170.933 411.948 170.453 411.72C169.985 411.48 169.463 411.36 168.887 411.36C168.059 411.36 167.351 411.624 166.763 412.152C166.187 412.68 165.857 413.412 165.773 414.348H172.001ZM175.243 415.032C175.243 414.024 175.447 413.142 175.855 412.386C176.263 411.618 176.821 411.024 177.529 410.604C178.249 410.184 179.053 409.974 179.941 409.974C180.709 409.974 181.423 410.154 182.083 410.514C182.743 410.862 183.247 411.324 183.595 411.9V406.68H185.251V420H183.595V418.146C183.271 418.734 182.791 419.22 182.155 419.604C181.519 419.976 180.775 420.162 179.923 420.162C179.047 420.162 178.249 419.946 177.529 419.514C176.821 419.082 176.263 418.476 175.855 417.696C175.447 416.916 175.243 416.028 175.243 415.032ZM183.595 415.05C183.595 414.306 183.445 413.658 183.145 413.106C182.845 412.554 182.437 412.134 181.921 411.846C181.417 411.546 180.859 411.396 180.247 411.396C179.635 411.396 179.077 411.54 178.573 411.828C178.069 412.116 177.667 412.536 177.367 413.088C177.067 413.64 176.917 414.288 176.917 415.032C176.917 415.788 177.067 416.448 177.367 417.012C177.667 417.564 178.069 417.99 178.573 418.29C179.077 418.578 179.635 418.722 180.247 418.722C180.859 418.722 181.417 418.578 181.921 418.29C182.437 417.99 182.845 417.564 183.145 417.012C183.445 416.448 183.595 415.794 183.595 415.05ZM191.511 420.162C190.755 420.162 190.077 420.036 189.477 419.784C188.877 419.52 188.403 419.16 188.055 418.704C187.707 418.236 187.515 417.702 187.479 417.102H189.171C189.219 417.594 189.447 417.996 189.855 418.308C190.275 418.62 190.821 418.776 191.493 418.776C192.117 418.776 192.609 418.638 192.969 418.362C193.329 418.086 193.509 417.738 193.509 417.318C193.509 416.886 193.317 416.568 192.933 416.364C192.549 416.148 191.955 415.938 191.151 415.734C190.419 415.542 189.819 415.35 189.351 415.158C188.895 414.954 188.499 414.66 188.163 414.276C187.839 413.88 187.677 413.364 187.677 412.728C187.677 412.224 187.827 411.762 188.127 411.342C188.427 410.922 188.853 410.592 189.405 410.352C189.957 410.1 190.587 409.974 191.295 409.974C192.387 409.974 193.269 410.25 193.941 410.802C194.613 411.354 194.973 412.11 195.021 413.07H193.383C193.347 412.554 193.137 412.14 192.753 411.828C192.381 411.516 191.877 411.36 191.241 411.36C190.653 411.36 190.185 411.486 189.837 411.738C189.489 411.99 189.315 412.32 189.315 412.728C189.315 413.052 189.417 413.322 189.621 413.538C189.837 413.742 190.101 413.91 190.413 414.042C190.737 414.162 191.181 414.3 191.745 414.456C192.453 414.648 193.029 414.84 193.473 415.032C193.917 415.212 194.295 415.488 194.607 415.86C194.931 416.232 195.099 416.718 195.111 417.318C195.111 417.858 194.961 418.344 194.661 418.776C194.361 419.208 193.935 419.55 193.383 419.802C192.843 420.042 192.219 420.162 191.511 420.162ZM206.236 411.486H204.166V420H202.528V411.486H201.25V410.136H202.528V409.434C202.528 408.33 202.81 407.526 203.374 407.022C203.95 406.506 204.868 406.248 206.128 406.248V407.616C205.408 407.616 204.898 407.76 204.598 408.048C204.31 408.324 204.166 408.786 204.166 409.434V410.136H206.236V411.486ZM209.784 411.738C210.072 411.174 210.48 410.736 211.008 410.424C211.548 410.112 212.202 409.956 212.97 409.956V411.648H212.538C210.702 411.648 209.784 412.644 209.784 414.636V420H208.146V410.136H209.784V411.738ZM219.163 420.162C218.239 420.162 217.399 419.952 216.643 419.532C215.899 419.112 215.311 418.518 214.879 417.75C214.459 416.97 214.249 416.07 214.249 415.05C214.249 414.042 214.465 413.154 214.897 412.386C215.341 411.606 215.941 411.012 216.697 410.604C217.453 410.184 218.299 409.974 219.235 409.974C220.171 409.974 221.017 410.184 221.773 410.604C222.529 411.012 223.123 411.6 223.555 412.368C223.999 413.136 224.221 414.03 224.221 415.05C224.221 416.07 223.993 416.97 223.537 417.75C223.093 418.518 222.487 419.112 221.719 419.532C220.951 419.952 220.099 420.162 219.163 420.162ZM219.163 418.722C219.751 418.722 220.303 418.584 220.819 418.308C221.335 418.032 221.749 417.618 222.061 417.066C222.385 416.514 222.547 415.842 222.547 415.05C222.547 414.258 222.391 413.586 222.079 413.034C221.767 412.482 221.359 412.074 220.855 411.81C220.351 411.534 219.805 411.396 219.217 411.396C218.617 411.396 218.065 411.534 217.561 411.81C217.069 412.074 216.673 412.482 216.373 413.034C216.073 413.586 215.923 414.258 215.923 415.05C215.923 415.854 216.067 416.532 216.355 417.084C216.655 417.636 217.051 418.05 217.543 418.326C218.035 418.59 218.575 418.722 219.163 418.722ZM238.236 409.956C239.004 409.956 239.688 410.118 240.288 410.442C240.888 410.754 241.362 411.228 241.71 411.864C242.058 412.5 242.232 413.274 242.232 414.186V420H240.612V414.42C240.612 413.436 240.366 412.686 239.874 412.17C239.394 411.642 238.74 411.378 237.912 411.378C237.06 411.378 236.382 411.654 235.878 412.206C235.374 412.746 235.122 413.532 235.122 414.564V420H233.502V414.42C233.502 413.436 233.256 412.686 232.764 412.17C232.284 411.642 231.63 411.378 230.802 411.378C229.95 411.378 229.272 411.654 228.768 412.206C228.264 412.746 228.012 413.532 228.012 414.564V420H226.374V410.136H228.012V411.558C228.336 411.042 228.768 410.646 229.308 410.37C229.86 410.094 230.466 409.956 231.126 409.956C231.954 409.956 232.686 410.142 233.322 410.514C233.958 410.886 234.432 411.432 234.744 412.152C235.02 411.456 235.476 410.916 236.112 410.532C236.748 410.148 237.456 409.956 238.236 409.956ZM251.716 411.486V417.3C251.716 417.78 251.818 418.122 252.022 418.326C252.226 418.518 252.58 418.614 253.084 418.614H254.29V420H252.814C251.902 420 251.218 419.79 250.762 419.37C250.306 418.95 250.078 418.26 250.078 417.3V411.486H248.8V410.136H250.078V407.652H251.716V410.136H254.29V411.486H251.716ZM261.171 409.956C261.915 409.956 262.587 410.118 263.187 410.442C263.787 410.754 264.255 411.228 264.591 411.864C264.939 412.5 265.113 413.274 265.113 414.186V420H263.493V414.42C263.493 413.436 263.247 412.686 262.755 412.17C262.263 411.642 261.591 411.378 260.739 411.378C259.875 411.378 259.185 411.648 258.669 412.188C258.165 412.728 257.913 413.514 257.913 414.546V420H256.275V406.68H257.913V411.54C258.237 411.036 258.681 410.646 259.245 410.37C259.821 410.094 260.463 409.956 261.171 409.956ZM276.788 414.69C276.788 415.002 276.77 415.332 276.734 415.68H268.85C268.91 416.652 269.24 417.414 269.84 417.966C270.452 418.506 271.19 418.776 272.054 418.776C272.762 418.776 273.35 418.614 273.818 418.29C274.298 417.954 274.634 417.51 274.826 416.958H276.59C276.326 417.906 275.798 418.68 275.006 419.28C274.214 419.868 273.23 420.162 272.054 420.162C271.118 420.162 270.278 419.952 269.534 419.532C268.802 419.112 268.226 418.518 267.806 417.75C267.386 416.97 267.176 416.07 267.176 415.05C267.176 414.03 267.38 413.136 267.788 412.368C268.196 411.6 268.766 411.012 269.498 410.604C270.242 410.184 271.094 409.974 272.054 409.974C272.99 409.974 273.818 410.178 274.538 410.586C275.258 410.994 275.81 411.558 276.194 412.278C276.59 412.986 276.788 413.79 276.788 414.69ZM275.096 414.348C275.096 413.724 274.958 413.19 274.682 412.746C274.406 412.29 274.028 411.948 273.548 411.72C273.08 411.48 272.558 411.36 271.982 411.36C271.154 411.36 270.446 411.624 269.858 412.152C269.282 412.68 268.952 413.412 268.868 414.348H275.096ZM296.475 407.544V420H294.837V410.712L290.697 420H289.545L285.387 410.694V420H283.749V407.544H285.513L290.121 417.84L294.729 407.544H296.475ZM298.641 415.032C298.641 414.024 298.845 413.142 299.253 412.386C299.661 411.618 300.219 411.024 300.927 410.604C301.647 410.184 302.445 409.974 303.321 409.974C304.185 409.974 304.935 410.16 305.571 410.532C306.207 410.904 306.681 411.372 306.993 411.936V410.136H308.649V420H306.993V418.164C306.669 418.74 306.183 419.22 305.535 419.604C304.899 419.976 304.155 420.162 303.303 420.162C302.427 420.162 301.635 419.946 300.927 419.514C300.219 419.082 299.661 418.476 299.253 417.696C298.845 416.916 298.641 416.028 298.641 415.032ZM306.993 415.05C306.993 414.306 306.843 413.658 306.543 413.106C306.243 412.554 305.835 412.134 305.319 411.846C304.815 411.546 304.257 411.396 303.645 411.396C303.033 411.396 302.475 411.54 301.971 411.828C301.467 412.116 301.065 412.536 300.765 413.088C300.465 413.64 300.315 414.288 300.315 415.032C300.315 415.788 300.465 416.448 300.765 417.012C301.065 417.564 301.467 417.99 301.971 418.29C302.475 418.578 303.033 418.722 303.645 418.722C304.257 418.722 304.815 418.578 305.319 418.29C305.835 417.99 306.243 417.564 306.543 417.012C306.843 416.448 306.993 415.794 306.993 415.05ZM313.055 411.738C313.343 411.174 313.751 410.736 314.279 410.424C314.819 410.112 315.473 409.956 316.241 409.956V411.648H315.809C313.973 411.648 313.055 412.644 313.055 414.636V420H311.417V410.136H313.055V411.738ZM321.804 418.488L324.864 410.136H326.61L322.74 420H320.832L316.962 410.136H318.726L321.804 418.488ZM337.222 414.69C337.222 415.002 337.204 415.332 337.168 415.68H329.284C329.344 416.652 329.674 417.414 330.274 417.966C330.886 418.506 331.624 418.776 332.488 418.776C333.196 418.776 333.784 418.614 334.252 418.29C334.732 417.954 335.068 417.51 335.26 416.958H337.024C336.76 417.906 336.232 418.68 335.44 419.28C334.648 419.868 333.664 420.162 332.488 420.162C331.552 420.162 330.712 419.952 329.968 419.532C329.236 419.112 328.66 418.518 328.24 417.75C327.82 416.97 327.61 416.07 327.61 415.05C327.61 414.03 327.814 413.136 328.222 412.368C328.63 411.6 329.2 411.012 329.932 410.604C330.676 410.184 331.528 409.974 332.488 409.974C333.424 409.974 334.252 410.178 334.972 410.586C335.692 410.994 336.244 411.558 336.628 412.278C337.024 412.986 337.222 413.79 337.222 414.69ZM335.53 414.348C335.53 413.724 335.392 413.19 335.116 412.746C334.84 412.29 334.462 411.948 333.982 411.72C333.514 411.48 332.992 411.36 332.416 411.36C331.588 411.36 330.88 411.624 330.292 412.152C329.716 412.68 329.386 413.412 329.302 414.348H335.53ZM341.022 406.68V420H339.384V406.68H341.022ZM345.452 406.68V420H343.814V406.68H345.452ZM357.243 414.69C357.243 415.002 357.225 415.332 357.189 415.68H349.305C349.365 416.652 349.695 417.414 350.295 417.966C350.907 418.506 351.645 418.776 352.509 418.776C353.217 418.776 353.805 418.614 354.273 418.29C354.753 417.954 355.089 417.51 355.281 416.958H357.045C356.781 417.906 356.253 418.68 355.461 419.28C354.669 419.868 353.685 420.162 352.509 420.162C351.573 420.162 350.733 419.952 349.989 419.532C349.257 419.112 348.681 418.518 348.261 417.75C347.841 416.97 347.631 416.07 347.631 415.05C347.631 414.03 347.835 413.136 348.243 412.368C348.651 411.6 349.221 411.012 349.953 410.604C350.697 410.184 351.549 409.974 352.509 409.974C353.445 409.974 354.273 410.178 354.993 410.586C355.713 410.994 356.265 411.558 356.649 412.278C357.045 412.986 357.243 413.79 357.243 414.69ZM355.551 414.348C355.551 413.724 355.413 413.19 355.137 412.746C354.861 412.29 354.483 411.948 354.003 411.72C353.535 411.48 353.013 411.36 352.437 411.36C351.609 411.36 350.901 411.624 350.313 412.152C349.737 412.68 349.407 413.412 349.323 414.348H355.551ZM364.554 420L362.214 416.328L359.964 420H358.254L361.44 415.104L358.254 410.136H360.108L362.448 413.79L364.68 410.136H366.39L363.222 415.014L366.408 420H364.554ZM58.668 437.538C59.124 437.61 59.538 437.796 59.91 438.096C60.294 438.396 60.594 438.768 60.81 439.212C61.038 439.656 61.152 440.13 61.152 440.634C61.152 441.27 60.99 441.846 60.666 442.362C60.342 442.866 59.868 443.268 59.244 443.568C58.632 443.856 57.906 444 57.066 444H52.386V431.454H56.886C57.738 431.454 58.464 431.598 59.064 431.886C59.664 432.162 60.114 432.54 60.414 433.02C60.714 433.5 60.864 434.04 60.864 434.64C60.864 435.384 60.66 436.002 60.252 436.494C59.856 436.974 59.328 437.322 58.668 437.538ZM54.024 436.872H56.778C57.546 436.872 58.14 436.692 58.56 436.332C58.98 435.972 59.19 435.474 59.19 434.838C59.19 434.202 58.98 433.704 58.56 433.344C58.14 432.984 57.534 432.804 56.742 432.804H54.024V436.872ZM56.922 442.65C57.738 442.65 58.374 442.458 58.83 442.074C59.286 441.69 59.514 441.156 59.514 440.472C59.514 439.776 59.274 439.23 58.794 438.834C58.314 438.426 57.672 438.222 56.868 438.222H54.024V442.65H56.922ZM65.0631 430.68V444H63.4251V430.68H65.0631ZM72.1568 444.162C71.2328 444.162 70.3928 443.952 69.6368 443.532C68.8928 443.112 68.3048 442.518 67.8728 441.75C67.4528 440.97 67.2428 440.07 67.2428 439.05C67.2428 438.042 67.4588 437.154 67.8908 436.386C68.3348 435.606 68.9348 435.012 69.6908 434.604C70.4468 434.184 71.2928 433.974 72.2288 433.974C73.1648 433.974 74.0108 434.184 74.7668 434.604C75.5228 435.012 76.1168 435.6 76.5488 436.368C76.9928 437.136 77.2148 438.03 77.2148 439.05C77.2148 440.07 76.9868 440.97 76.5308 441.75C76.0868 442.518 75.4808 443.112 74.7128 443.532C73.9448 443.952 73.0928 444.162 72.1568 444.162ZM72.1568 442.722C72.7448 442.722 73.2968 442.584 73.8128 442.308C74.3288 442.032 74.7428 441.618 75.0548 441.066C75.3788 440.514 75.5408 439.842 75.5408 439.05C75.5408 438.258 75.3848 437.586 75.0728 437.034C74.7608 436.482 74.3528 436.074 73.8488 435.81C73.3448 435.534 72.7988 435.396 72.2108 435.396C71.6108 435.396 71.0588 435.534 70.5548 435.81C70.0628 436.074 69.6668 436.482 69.3668 437.034C69.0668 437.586 68.9168 438.258 68.9168 439.05C68.9168 439.854 69.0608 440.532 69.3488 441.084C69.6488 441.636 70.0448 442.05 70.5368 442.326C71.0288 442.59 71.5688 442.722 72.1568 442.722ZM78.7564 439.05C78.7564 438.03 78.9604 437.142 79.3684 436.386C79.7764 435.618 80.3404 435.024 81.0604 434.604C81.7924 434.184 82.6264 433.974 83.5624 433.974C84.7744 433.974 85.7704 434.268 86.5504 434.856C87.3424 435.444 87.8644 436.26 88.1164 437.304H86.3524C86.1844 436.704 85.8544 436.23 85.3624 435.882C84.8824 435.534 84.2824 435.36 83.5624 435.36C82.6264 435.36 81.8704 435.684 81.2944 436.332C80.7184 436.968 80.4304 437.874 80.4304 439.05C80.4304 440.238 80.7184 441.156 81.2944 441.804C81.8704 442.452 82.6264 442.776 83.5624 442.776C84.2824 442.776 84.8824 442.608 85.3624 442.272C85.8424 441.936 86.1724 441.456 86.3524 440.832H88.1164C87.8524 441.84 87.3244 442.65 86.5324 443.262C85.7404 443.862 84.7504 444.162 83.5624 444.162C82.6264 444.162 81.7924 443.952 81.0604 443.532C80.3404 443.112 79.7764 442.518 79.3684 441.75C78.9604 440.982 78.7564 440.082 78.7564 439.05ZM95.81 444L91.94 439.644V444H90.302V430.68H91.94V438.51L95.738 434.136H98.024L93.38 439.05L98.042 444H95.81ZM98.9537 439.05C98.9537 438.03 99.1577 437.142 99.5657 436.386C99.9737 435.618 100.538 435.024 101.258 434.604C101.99 434.184 102.824 433.974 103.76 433.974C104.972 433.974 105.968 434.268 106.748 434.856C107.54 435.444 108.062 436.26 108.314 437.304H106.55C106.382 436.704 106.052 436.23 105.56 435.882C105.08 435.534 104.48 435.36 103.76 435.36C102.824 435.36 102.068 435.684 101.492 436.332C100.916 436.968 100.628 437.874 100.628 439.05C100.628 440.238 100.916 441.156 101.492 441.804C102.068 442.452 102.824 442.776 103.76 442.776C104.48 442.776 105.08 442.608 105.56 442.272C106.04 441.936 106.37 441.456 106.55 440.832H108.314C108.05 441.84 107.522 442.65 106.73 443.262C105.938 443.862 104.948 444.162 103.76 444.162C102.824 444.162 101.99 443.952 101.258 443.532C100.538 443.112 99.9737 442.518 99.5657 441.75C99.1577 440.982 98.9537 440.082 98.9537 439.05ZM115.395 433.956C116.139 433.956 116.811 434.118 117.411 434.442C118.011 434.754 118.479 435.228 118.815 435.864C119.163 436.5 119.337 437.274 119.337 438.186V444H117.717V438.42C117.717 437.436 117.471 436.686 116.979 436.17C116.487 435.642 115.815 435.378 114.963 435.378C114.099 435.378 113.409 435.648 112.893 436.188C112.389 436.728 112.137 437.514 112.137 438.546V444H110.499V430.68H112.137V435.54C112.461 435.036 112.905 434.646 113.469 434.37C114.045 434.094 114.687 433.956 115.395 433.956ZM121.401 439.032C121.401 438.024 121.605 437.142 122.013 436.386C122.421 435.618 122.979 435.024 123.687 434.604C124.407 434.184 125.205 433.974 126.081 433.974C126.945 433.974 127.695 434.16 128.331 434.532C128.967 434.904 129.441 435.372 129.753 435.936V434.136H131.409V444H129.753V442.164C129.429 442.74 128.943 443.22 128.295 443.604C127.659 443.976 126.915 444.162 126.063 444.162C125.187 444.162 124.395 443.946 123.687 443.514C122.979 443.082 122.421 442.476 122.013 441.696C121.605 440.916 121.401 440.028 121.401 439.032ZM129.753 439.05C129.753 438.306 129.603 437.658 129.303 437.106C129.003 436.554 128.595 436.134 128.079 435.846C127.575 435.546 127.017 435.396 126.405 435.396C125.793 435.396 125.235 435.54 124.731 435.828C124.227 436.116 123.825 436.536 123.525 437.088C123.225 437.64 123.075 438.288 123.075 439.032C123.075 439.788 123.225 440.448 123.525 441.012C123.825 441.564 124.227 441.99 124.731 442.29C125.235 442.578 125.793 442.722 126.405 442.722C127.017 442.722 127.575 442.578 128.079 442.29C128.595 441.99 129.003 441.564 129.303 441.012C129.603 440.448 129.753 439.794 129.753 439.05ZM135.023 432.534C134.711 432.534 134.447 432.426 134.231 432.21C134.015 431.994 133.907 431.73 133.907 431.418C133.907 431.106 134.015 430.842 134.231 430.626C134.447 430.41 134.711 430.302 135.023 430.302C135.323 430.302 135.575 430.41 135.779 430.626C135.995 430.842 136.103 431.106 136.103 431.418C136.103 431.73 135.995 431.994 135.779 432.21C135.575 432.426 135.323 432.534 135.023 432.534ZM135.815 434.136V444H134.177V434.136H135.815ZM143.413 433.956C144.613 433.956 145.585 434.322 146.329 435.054C147.073 435.774 147.445 436.818 147.445 438.186V444H145.825V438.42C145.825 437.436 145.579 436.686 145.087 436.17C144.595 435.642 143.923 435.378 143.071 435.378C142.207 435.378 141.517 435.648 141.001 436.188C140.497 436.728 140.245 437.514 140.245 438.546V444H138.607V434.136H140.245V435.54C140.569 435.036 141.007 434.646 141.559 434.37C142.123 434.094 142.741 433.956 143.413 433.956ZM168.059 434.136L164.981 444H163.289L160.913 436.17L158.537 444H156.845L153.749 434.136H155.423L157.691 442.416L160.139 434.136H161.813L164.207 442.434L166.439 434.136H168.059ZM170.531 432.534C170.219 432.534 169.955 432.426 169.739 432.21C169.523 431.994 169.415 431.73 169.415 431.418C169.415 431.106 169.523 430.842 169.739 430.626C169.955 430.41 170.219 430.302 170.531 430.302C170.831 430.302 171.083 430.41 171.287 430.626C171.503 430.842 171.611 431.106 171.611 431.418C171.611 431.73 171.503 431.994 171.287 432.21C171.083 432.426 170.831 432.534 170.531 432.534ZM171.323 434.136V444H169.685V434.136H171.323ZM175.753 430.68V444H174.115V430.68H175.753ZM180.182 430.68V444H178.544V430.68H180.182ZM189.411 435.972C189.747 435.384 190.239 434.904 190.887 434.532C191.535 434.16 192.273 433.974 193.101 433.974C193.989 433.974 194.787 434.184 195.495 434.604C196.203 435.024 196.761 435.618 197.169 436.386C197.577 437.142 197.781 438.024 197.781 439.032C197.781 440.028 197.577 440.916 197.169 441.696C196.761 442.476 196.197 443.082 195.477 443.514C194.769 443.946 193.977 444.162 193.101 444.162C192.249 444.162 191.499 443.976 190.851 443.604C190.215 443.232 189.735 442.758 189.411 442.182V444H187.773V430.68H189.411V435.972ZM196.107 439.032C196.107 438.288 195.957 437.64 195.657 437.088C195.357 436.536 194.949 436.116 194.433 435.828C193.929 435.54 193.371 435.396 192.759 435.396C192.159 435.396 191.601 435.546 191.085 435.846C190.581 436.134 190.173 436.56 189.861 437.124C189.561 437.676 189.411 438.318 189.411 439.05C189.411 439.794 189.561 440.448 189.861 441.012C190.173 441.564 190.581 441.99 191.085 442.29C191.601 442.578 192.159 442.722 192.759 442.722C193.371 442.722 193.929 442.578 194.433 442.29C194.949 441.99 195.357 441.564 195.657 441.012C195.957 440.448 196.107 439.788 196.107 439.032ZM208.937 438.69C208.937 439.002 208.919 439.332 208.883 439.68H200.999C201.059 440.652 201.389 441.414 201.989 441.966C202.601 442.506 203.339 442.776 204.203 442.776C204.911 442.776 205.499 442.614 205.967 442.29C206.447 441.954 206.783 441.51 206.975 440.958H208.739C208.475 441.906 207.947 442.68 207.155 443.28C206.363 443.868 205.379 444.162 204.203 444.162C203.267 444.162 202.427 443.952 201.683 443.532C200.951 443.112 200.375 442.518 199.955 441.75C199.535 440.97 199.325 440.07 199.325 439.05C199.325 438.03 199.529 437.136 199.937 436.368C200.345 435.6 200.915 435.012 201.647 434.604C202.391 434.184 203.243 433.974 204.203 433.974C205.139 433.974 205.967 434.178 206.687 434.586C207.407 434.994 207.959 435.558 208.343 436.278C208.739 436.986 208.937 437.79 208.937 438.69ZM207.245 438.348C207.245 437.724 207.107 437.19 206.831 436.746C206.555 436.29 206.177 435.948 205.697 435.72C205.229 435.48 204.707 435.36 204.131 435.36C203.303 435.36 202.595 435.624 202.007 436.152C201.431 436.68 201.101 437.412 201.017 438.348H207.245ZM215.286 439.032C215.286 438.024 215.49 437.142 215.898 436.386C216.306 435.618 216.864 435.024 217.572 434.604C218.292 434.184 219.096 433.974 219.984 433.974C220.752 433.974 221.466 434.154 222.126 434.514C222.786 434.862 223.29 435.324 223.638 435.9V430.68H225.294V444H223.638V442.146C223.314 442.734 222.834 443.22 222.198 443.604C221.562 443.976 220.818 444.162 219.966 444.162C219.09 444.162 218.292 443.946 217.572 443.514C216.864 443.082 216.306 442.476 215.898 441.696C215.49 440.916 215.286 440.028 215.286 439.032ZM223.638 439.05C223.638 438.306 223.488 437.658 223.188 437.106C222.888 436.554 222.48 436.134 221.964 435.846C221.46 435.546 220.902 435.396 220.29 435.396C219.678 435.396 219.12 435.54 218.616 435.828C218.112 436.116 217.71 436.536 217.41 437.088C217.11 437.64 216.96 438.288 216.96 439.032C216.96 439.788 217.11 440.448 217.41 441.012C217.71 441.564 218.112 441.99 218.616 442.29C219.12 442.578 219.678 442.722 220.29 442.722C220.902 442.722 221.46 442.578 221.964 442.29C222.48 441.99 222.888 441.564 223.188 441.012C223.488 440.448 223.638 439.794 223.638 439.05ZM228.908 432.534C228.596 432.534 228.332 432.426 228.116 432.21C227.9 431.994 227.792 431.73 227.792 431.418C227.792 431.106 227.9 430.842 228.116 430.626C228.332 430.41 228.596 430.302 228.908 430.302C229.208 430.302 229.46 430.41 229.664 430.626C229.88 430.842 229.988 431.106 229.988 431.418C229.988 431.73 229.88 431.994 229.664 432.21C229.46 432.426 229.208 432.534 228.908 432.534ZM229.7 434.136V444H228.062V434.136H229.7ZM235.983 444.162C235.227 444.162 234.549 444.036 233.949 443.784C233.349 443.52 232.875 443.16 232.527 442.704C232.179 442.236 231.987 441.702 231.951 441.102H233.643C233.691 441.594 233.919 441.996 234.327 442.308C234.747 442.62 235.293 442.776 235.965 442.776C236.589 442.776 237.081 442.638 237.441 442.362C237.801 442.086 237.981 441.738 237.981 441.318C237.981 440.886 237.789 440.568 237.405 440.364C237.021 440.148 236.427 439.938 235.623 439.734C234.891 439.542 234.291 439.35 233.823 439.158C233.367 438.954 232.971 438.66 232.635 438.276C232.311 437.88 232.149 437.364 232.149 436.728C232.149 436.224 232.299 435.762 232.599 435.342C232.899 434.922 233.325 434.592 233.877 434.352C234.429 434.1 235.059 433.974 235.767 433.974C236.859 433.974 237.741 434.25 238.413 434.802C239.085 435.354 239.445 436.11 239.493 437.07H237.855C237.819 436.554 237.609 436.14 237.225 435.828C236.853 435.516 236.349 435.36 235.713 435.36C235.125 435.36 234.657 435.486 234.309 435.738C233.961 435.99 233.787 436.32 233.787 436.728C233.787 437.052 233.889 437.322 234.093 437.538C234.309 437.742 234.573 437.91 234.885 438.042C235.209 438.162 235.653 438.3 236.217 438.456C236.925 438.648 237.501 438.84 237.945 439.032C238.389 439.212 238.767 439.488 239.079 439.86C239.403 440.232 239.571 440.718 239.583 441.318C239.583 441.858 239.433 442.344 239.133 442.776C238.833 443.208 238.407 443.55 237.855 443.802C237.315 444.042 236.691 444.162 235.983 444.162ZM243.894 435.486V441.3C243.894 441.78 243.996 442.122 244.2 442.326C244.404 442.518 244.758 442.614 245.262 442.614H246.468V444H244.992C244.08 444 243.396 443.79 242.94 443.37C242.484 442.95 242.256 442.26 242.256 441.3V435.486H240.978V434.136H242.256V431.652H243.894V434.136H246.468V435.486H243.894ZM250.09 435.738C250.378 435.174 250.786 434.736 251.314 434.424C251.854 434.112 252.508 433.956 253.276 433.956V435.648H252.844C251.008 435.648 250.09 436.644 250.09 438.636V444H248.452V434.136H250.09V435.738ZM256.013 432.534C255.701 432.534 255.437 432.426 255.221 432.21C255.005 431.994 254.897 431.73 254.897 431.418C254.897 431.106 255.005 430.842 255.221 430.626C255.437 430.41 255.701 430.302 256.013 430.302C256.313 430.302 256.565 430.41 256.769 430.626C256.985 430.842 257.093 431.106 257.093 431.418C257.093 431.73 256.985 431.994 256.769 432.21C256.565 432.426 256.313 432.534 256.013 432.534ZM256.805 434.136V444H255.167V434.136H256.805ZM261.235 435.972C261.571 435.384 262.063 434.904 262.711 434.532C263.359 434.16 264.097 433.974 264.925 433.974C265.813 433.974 266.611 434.184 267.319 434.604C268.027 435.024 268.585 435.618 268.993 436.386C269.401 437.142 269.605 438.024 269.605 439.032C269.605 440.028 269.401 440.916 268.993 441.696C268.585 442.476 268.021 443.082 267.301 443.514C266.593 443.946 265.801 444.162 264.925 444.162C264.073 444.162 263.323 443.976 262.675 443.604C262.039 443.232 261.559 442.758 261.235 442.182V444H259.597V430.68H261.235V435.972ZM267.931 439.032C267.931 438.288 267.781 437.64 267.481 437.088C267.181 436.536 266.773 436.116 266.257 435.828C265.753 435.54 265.195 435.396 264.583 435.396C263.983 435.396 263.425 435.546 262.909 435.846C262.405 436.134 261.997 436.56 261.685 437.124C261.385 437.676 261.235 438.318 261.235 439.05C261.235 439.794 261.385 440.448 261.685 441.012C261.997 441.564 262.405 441.99 262.909 442.29C263.425 442.578 263.983 442.722 264.583 442.722C265.195 442.722 265.753 442.578 266.257 442.29C266.773 441.99 267.181 441.564 267.481 441.012C267.781 440.448 267.931 439.788 267.931 439.032ZM280.509 434.136V444H278.871V442.542C278.559 443.046 278.121 443.442 277.557 443.73C277.005 444.006 276.393 444.144 275.721 444.144C274.953 444.144 274.263 443.988 273.651 443.676C273.039 443.352 272.553 442.872 272.193 442.236C271.845 441.6 271.671 440.826 271.671 439.914V434.136H273.291V439.698C273.291 440.67 273.537 441.42 274.029 441.948C274.521 442.464 275.193 442.722 276.045 442.722C276.921 442.722 277.611 442.452 278.115 441.912C278.619 441.372 278.871 440.586 278.871 439.554V434.136H280.509ZM285.273 435.486V441.3C285.273 441.78 285.375 442.122 285.579 442.326C285.783 442.518 286.137 442.614 286.641 442.614H287.847V444H286.371C285.459 444 284.775 443.79 284.319 443.37C283.863 442.95 283.635 442.26 283.635 441.3V435.486H282.357V434.136H283.635V431.652H285.273V434.136H287.847V435.486H285.273ZM298.831 438.69C298.831 439.002 298.813 439.332 298.777 439.68H290.893C290.953 440.652 291.283 441.414 291.883 441.966C292.495 442.506 293.233 442.776 294.097 442.776C294.805 442.776 295.393 442.614 295.861 442.29C296.341 441.954 296.677 441.51 296.869 440.958H298.633C298.369 441.906 297.841 442.68 297.049 443.28C296.257 443.868 295.273 444.162 294.097 444.162C293.161 444.162 292.321 443.952 291.577 443.532C290.845 443.112 290.269 442.518 289.849 441.75C289.429 440.97 289.219 440.07 289.219 439.05C289.219 438.03 289.423 437.136 289.831 436.368C290.239 435.6 290.809 435.012 291.541 434.604C292.285 434.184 293.137 433.974 294.097 433.974C295.033 433.974 295.861 434.178 296.581 434.586C297.301 434.994 297.853 435.558 298.237 436.278C298.633 436.986 298.831 437.79 298.831 438.69ZM297.139 438.348C297.139 437.724 297.001 437.19 296.725 436.746C296.449 436.29 296.071 435.948 295.591 435.72C295.123 435.48 294.601 435.36 294.025 435.36C293.197 435.36 292.489 435.624 291.901 436.152C291.325 436.68 290.995 437.412 290.911 438.348H297.139ZM300.381 439.032C300.381 438.024 300.585 437.142 300.993 436.386C301.401 435.618 301.959 435.024 302.667 434.604C303.387 434.184 304.191 433.974 305.079 433.974C305.847 433.974 306.561 434.154 307.221 434.514C307.881 434.862 308.385 435.324 308.733 435.9V430.68H310.389V444H308.733V442.146C308.409 442.734 307.929 443.22 307.293 443.604C306.657 443.976 305.913 444.162 305.061 444.162C304.185 444.162 303.387 443.946 302.667 443.514C301.959 443.082 301.401 442.476 300.993 441.696C300.585 440.916 300.381 440.028 300.381 439.032ZM308.733 439.05C308.733 438.306 308.583 437.658 308.283 437.106C307.983 436.554 307.575 436.134 307.059 435.846C306.555 435.546 305.997 435.396 305.385 435.396C304.773 435.396 304.215 435.54 303.711 435.828C303.207 436.116 302.805 436.536 302.505 437.088C302.205 437.64 302.055 438.288 302.055 439.032C302.055 439.788 302.205 440.448 302.505 441.012C302.805 441.564 303.207 441.99 303.711 442.29C304.215 442.578 304.773 442.722 305.385 442.722C305.997 442.722 306.555 442.578 307.059 442.29C307.575 441.99 307.983 441.564 308.283 441.012C308.583 440.448 308.733 439.794 308.733 439.05ZM51.774 463.032C51.774 462.024 51.978 461.142 52.386 460.386C52.794 459.618 53.352 459.024 54.06 458.604C54.78 458.184 55.578 457.974 56.454 457.974C57.318 457.974 58.068 458.16 58.704 458.532C59.34 458.904 59.814 459.372 60.126 459.936V458.136H61.782V468H60.126V466.164C59.802 466.74 59.316 467.22 58.668 467.604C58.032 467.976 57.288 468.162 56.436 468.162C55.56 468.162 54.768 467.946 54.06 467.514C53.352 467.082 52.794 466.476 52.386 465.696C51.978 464.916 51.774 464.028 51.774 463.032ZM60.126 463.05C60.126 462.306 59.976 461.658 59.676 461.106C59.376 460.554 58.968 460.134 58.452 459.846C57.948 459.546 57.39 459.396 56.778 459.396C56.166 459.396 55.608 459.54 55.104 459.828C54.6 460.116 54.198 460.536 53.898 461.088C53.598 461.64 53.448 462.288 53.448 463.032C53.448 463.788 53.598 464.448 53.898 465.012C54.198 465.564 54.6 465.99 55.104 466.29C55.608 466.578 56.166 466.722 56.778 466.722C57.39 466.722 57.948 466.578 58.452 466.29C58.968 465.99 59.376 465.564 59.676 465.012C59.976 464.448 60.126 463.794 60.126 463.05ZM76.4121 457.956C77.1801 457.956 77.8641 458.118 78.4641 458.442C79.0641 458.754 79.5381 459.228 79.8861 459.864C80.2341 460.5 80.4081 461.274 80.4081 462.186V468H78.7881V462.42C78.7881 461.436 78.5421 460.686 78.0501 460.17C77.5701 459.642 76.9161 459.378 76.0881 459.378C75.2361 459.378 74.5581 459.654 74.0541 460.206C73.5501 460.746 73.2981 461.532 73.2981 462.564V468H71.6781V462.42C71.6781 461.436 71.4321 460.686 70.9401 460.17C70.4601 459.642 69.8061 459.378 68.9781 459.378C68.1261 459.378 67.4481 459.654 66.9441 460.206C66.4401 460.746 66.1881 461.532 66.1881 462.564V468H64.5501V458.136H66.1881V459.558C66.5121 459.042 66.9441 458.646 67.4841 458.37C68.0361 458.094 68.6421 457.956 69.3021 457.956C70.1301 457.956 70.8621 458.142 71.4981 458.514C72.1341 458.886 72.6081 459.432 72.9201 460.152C73.1961 459.456 73.6521 458.916 74.2881 458.532C74.9241 458.148 75.6321 457.956 76.4121 457.956ZM87.397 468.162C86.473 468.162 85.633 467.952 84.877 467.532C84.133 467.112 83.545 466.518 83.113 465.75C82.693 464.97 82.483 464.07 82.483 463.05C82.483 462.042 82.699 461.154 83.131 460.386C83.575 459.606 84.175 459.012 84.931 458.604C85.687 458.184 86.533 457.974 87.469 457.974C88.405 457.974 89.251 458.184 90.007 458.604C90.763 459.012 91.357 459.6 91.789 460.368C92.233 461.136 92.455 462.03 92.455 463.05C92.455 464.07 92.227 464.97 91.771 465.75C91.327 466.518 90.721 467.112 89.953 467.532C89.185 467.952 88.333 468.162 87.397 468.162ZM87.397 466.722C87.985 466.722 88.537 466.584 89.053 466.308C89.569 466.032 89.983 465.618 90.295 465.066C90.619 464.514 90.781 463.842 90.781 463.05C90.781 462.258 90.625 461.586 90.313 461.034C90.001 460.482 89.593 460.074 89.089 459.81C88.585 459.534 88.039 459.396 87.451 459.396C86.851 459.396 86.299 459.534 85.795 459.81C85.303 460.074 84.907 460.482 84.607 461.034C84.307 461.586 84.157 462.258 84.157 463.05C84.157 463.854 84.301 464.532 84.589 465.084C84.889 465.636 85.285 466.05 85.777 466.326C86.269 466.59 86.809 466.722 87.397 466.722ZM99.4147 457.956C100.615 457.956 101.587 458.322 102.331 459.054C103.075 459.774 103.447 460.818 103.447 462.186V468H101.827V462.42C101.827 461.436 101.581 460.686 101.089 460.17C100.597 459.642 99.9247 459.378 99.0727 459.378C98.2087 459.378 97.5187 459.648 97.0027 460.188C96.4987 460.728 96.2467 461.514 96.2467 462.546V468H94.6087V458.136H96.2467V459.54C96.5707 459.036 97.0087 458.646 97.5607 458.37C98.1247 458.094 98.7427 457.956 99.4147 457.956ZM110.19 457.974C111.042 457.974 111.786 458.16 112.422 458.532C113.07 458.904 113.55 459.372 113.862 459.936V458.136H115.518V468.216C115.518 469.116 115.326 469.914 114.942 470.61C114.558 471.318 114.006 471.87 113.286 472.266C112.578 472.662 111.75 472.86 110.802 472.86C109.506 472.86 108.426 472.554 107.562 471.942C106.698 471.33 106.188 470.496 106.032 469.44H107.652C107.832 470.04 108.204 470.52 108.768 470.88C109.332 471.252 110.01 471.438 110.802 471.438C111.702 471.438 112.434 471.156 112.998 470.592C113.574 470.028 113.862 469.236 113.862 468.216V466.146C113.538 466.722 113.058 467.202 112.422 467.586C111.786 467.97 111.042 468.162 110.19 468.162C109.314 468.162 108.516 467.946 107.796 467.514C107.088 467.082 106.53 466.476 106.122 465.696C105.714 464.916 105.51 464.028 105.51 463.032C105.51 462.024 105.714 461.142 106.122 460.386C106.53 459.618 107.088 459.024 107.796 458.604C108.516 458.184 109.314 457.974 110.19 457.974ZM113.862 463.05C113.862 462.306 113.712 461.658 113.412 461.106C113.112 460.554 112.704 460.134 112.188 459.846C111.684 459.546 111.126 459.396 110.514 459.396C109.902 459.396 109.344 459.54 108.84 459.828C108.336 460.116 107.934 460.536 107.634 461.088C107.334 461.64 107.184 462.288 107.184 463.032C107.184 463.788 107.334 464.448 107.634 465.012C107.934 465.564 108.336 465.99 108.84 466.29C109.344 466.578 109.902 466.722 110.514 466.722C111.126 466.722 111.684 466.578 112.188 466.29C112.704 465.99 113.112 465.564 113.412 465.012C113.712 464.448 113.862 463.794 113.862 463.05ZM122.473 461.718C122.473 460.494 122.749 459.396 123.301 458.424C123.853 457.44 124.603 456.672 125.551 456.12C126.511 455.568 127.573 455.292 128.737 455.292C130.105 455.292 131.299 455.622 132.319 456.282C133.339 456.942 134.083 457.878 134.551 459.09H132.589C132.241 458.334 131.737 457.752 131.077 457.344C130.429 456.936 129.649 456.732 128.737 456.732C127.861 456.732 127.075 456.936 126.379 457.344C125.683 457.752 125.137 458.334 124.741 459.09C124.345 459.834 124.147 460.71 124.147 461.718C124.147 462.714 124.345 463.59 124.741 464.346C125.137 465.09 125.683 465.666 126.379 466.074C127.075 466.482 127.861 466.686 128.737 466.686C129.649 466.686 130.429 466.488 131.077 466.092C131.737 465.684 132.241 465.102 132.589 464.346H134.551C134.083 465.546 133.339 466.476 132.319 467.136C131.299 467.784 130.105 468.108 128.737 468.108C127.573 468.108 126.511 467.838 125.551 467.298C124.603 466.746 123.853 465.984 123.301 465.012C122.749 464.04 122.473 462.942 122.473 461.718ZM141.292 468.162C140.368 468.162 139.528 467.952 138.772 467.532C138.028 467.112 137.44 466.518 137.008 465.75C136.588 464.97 136.378 464.07 136.378 463.05C136.378 462.042 136.594 461.154 137.026 460.386C137.47 459.606 138.07 459.012 138.826 458.604C139.582 458.184 140.428 457.974 141.364 457.974C142.3 457.974 143.146 458.184 143.902 458.604C144.658 459.012 145.252 459.6 145.684 460.368C146.128 461.136 146.35 462.03 146.35 463.05C146.35 464.07 146.122 464.97 145.666 465.75C145.222 466.518 144.616 467.112 143.848 467.532C143.08 467.952 142.228 468.162 141.292 468.162ZM141.292 466.722C141.88 466.722 142.432 466.584 142.948 466.308C143.464 466.032 143.878 465.618 144.19 465.066C144.514 464.514 144.676 463.842 144.676 463.05C144.676 462.258 144.52 461.586 144.208 461.034C143.896 460.482 143.488 460.074 142.984 459.81C142.48 459.534 141.934 459.396 141.346 459.396C140.746 459.396 140.194 459.534 139.69 459.81C139.198 460.074 138.802 460.482 138.502 461.034C138.202 461.586 138.052 462.258 138.052 463.05C138.052 463.854 138.196 464.532 138.484 465.084C138.784 465.636 139.18 466.05 139.672 466.326C140.164 466.59 140.704 466.722 141.292 466.722ZM149.349 456.534C149.037 456.534 148.773 456.426 148.557 456.21C148.341 455.994 148.233 455.73 148.233 455.418C148.233 455.106 148.341 454.842 148.557 454.626C148.773 454.41 149.037 454.302 149.349 454.302C149.649 454.302 149.901 454.41 150.105 454.626C150.321 454.842 150.429 455.106 150.429 455.418C150.429 455.73 150.321 455.994 150.105 456.21C149.901 456.426 149.649 456.534 149.349 456.534ZM150.141 458.136V468H148.503V458.136H150.141ZM157.739 457.956C158.939 457.956 159.911 458.322 160.655 459.054C161.399 459.774 161.771 460.818 161.771 462.186V468H160.151V462.42C160.151 461.436 159.905 460.686 159.413 460.17C158.921 459.642 158.249 459.378 157.397 459.378C156.533 459.378 155.843 459.648 155.327 460.188C154.823 460.728 154.571 461.514 154.571 462.546V468H152.933V458.136H154.571V459.54C154.895 459.036 155.333 458.646 155.885 458.37C156.449 458.094 157.067 457.956 157.739 457.956ZM174.141 457.956C174.885 457.956 175.557 458.118 176.157 458.442C176.757 458.754 177.225 459.228 177.561 459.864C177.909 460.5 178.083 461.274 178.083 462.186V468H176.463V462.42C176.463 461.436 176.217 460.686 175.725 460.17C175.233 459.642 174.561 459.378 173.709 459.378C172.845 459.378 172.155 459.648 171.639 460.188C171.135 460.728 170.883 461.514 170.883 462.546V468H169.245V454.68H170.883V459.54C171.207 459.036 171.651 458.646 172.215 458.37C172.791 458.094 173.433 457.956 174.141 457.956ZM185.061 468.162C184.137 468.162 183.297 467.952 182.541 467.532C181.797 467.112 181.209 466.518 180.777 465.75C180.357 464.97 180.147 464.07 180.147 463.05C180.147 462.042 180.363 461.154 180.795 460.386C181.239 459.606 181.839 459.012 182.595 458.604C183.351 458.184 184.197 457.974 185.133 457.974C186.069 457.974 186.915 458.184 187.671 458.604C188.427 459.012 189.021 459.6 189.453 460.368C189.897 461.136 190.119 462.03 190.119 463.05C190.119 464.07 189.891 464.97 189.435 465.75C188.991 466.518 188.385 467.112 187.617 467.532C186.849 467.952 185.997 468.162 185.061 468.162ZM185.061 466.722C185.649 466.722 186.201 466.584 186.717 466.308C187.233 466.032 187.647 465.618 187.959 465.066C188.283 464.514 188.445 463.842 188.445 463.05C188.445 462.258 188.289 461.586 187.977 461.034C187.665 460.482 187.257 460.074 186.753 459.81C186.249 459.534 185.703 459.396 185.115 459.396C184.515 459.396 183.963 459.534 183.459 459.81C182.967 460.074 182.571 460.482 182.271 461.034C181.971 461.586 181.821 462.258 181.821 463.05C181.821 463.854 181.965 464.532 182.253 465.084C182.553 465.636 182.949 466.05 183.441 466.326C183.933 466.59 184.473 466.722 185.061 466.722ZM193.911 454.68V468H192.273V454.68H193.911ZM196.09 463.032C196.09 462.024 196.294 461.142 196.702 460.386C197.11 459.618 197.668 459.024 198.376 458.604C199.096 458.184 199.9 457.974 200.788 457.974C201.556 457.974 202.27 458.154 202.93 458.514C203.59 458.862 204.094 459.324 204.442 459.9V454.68H206.098V468H204.442V466.146C204.118 466.734 203.638 467.22 203.002 467.604C202.366 467.976 201.622 468.162 200.77 468.162C199.894 468.162 199.096 467.946 198.376 467.514C197.668 467.082 197.11 466.476 196.702 465.696C196.294 464.916 196.09 464.028 196.09 463.032ZM204.442 463.05C204.442 462.306 204.292 461.658 203.992 461.106C203.692 460.554 203.284 460.134 202.768 459.846C202.264 459.546 201.706 459.396 201.094 459.396C200.482 459.396 199.924 459.54 199.42 459.828C198.916 460.116 198.514 460.536 198.214 461.088C197.914 461.64 197.764 462.288 197.764 463.032C197.764 463.788 197.914 464.448 198.214 465.012C198.514 465.564 198.916 465.99 199.42 466.29C199.924 466.578 200.482 466.722 201.094 466.722C201.706 466.722 202.264 466.578 202.768 466.29C203.284 465.99 203.692 465.564 203.992 465.012C204.292 464.448 204.442 463.794 204.442 463.05ZM217.866 462.69C217.866 463.002 217.848 463.332 217.812 463.68H209.928C209.988 464.652 210.318 465.414 210.918 465.966C211.53 466.506 212.268 466.776 213.132 466.776C213.84 466.776 214.428 466.614 214.896 466.29C215.376 465.954 215.712 465.51 215.904 464.958H217.668C217.404 465.906 216.876 466.68 216.084 467.28C215.292 467.868 214.308 468.162 213.132 468.162C212.196 468.162 211.356 467.952 210.612 467.532C209.88 467.112 209.304 466.518 208.884 465.75C208.464 464.97 208.254 464.07 208.254 463.05C208.254 462.03 208.458 461.136 208.866 460.368C209.274 459.6 209.844 459.012 210.576 458.604C211.32 458.184 212.172 457.974 213.132 457.974C214.068 457.974 214.896 458.178 215.616 458.586C216.336 458.994 216.888 459.558 217.272 460.278C217.668 460.986 217.866 461.79 217.866 462.69ZM216.174 462.348C216.174 461.724 216.036 461.19 215.76 460.746C215.484 460.29 215.106 459.948 214.626 459.72C214.158 459.48 213.636 459.36 213.06 459.36C212.232 459.36 211.524 459.624 210.936 460.152C210.36 460.68 210.03 461.412 209.946 462.348H216.174ZM221.667 459.738C221.955 459.174 222.363 458.736 222.891 458.424C223.431 458.112 224.085 457.956 224.853 457.956V459.648H224.421C222.585 459.648 221.667 460.644 221.667 462.636V468H220.029V458.136H221.667V459.738ZM230.235 468.162C229.479 468.162 228.801 468.036 228.201 467.784C227.601 467.52 227.127 467.16 226.779 466.704C226.431 466.236 226.239 465.702 226.203 465.102H227.895C227.943 465.594 228.171 465.996 228.579 466.308C228.999 466.62 229.545 466.776 230.217 466.776C230.841 466.776 231.333 466.638 231.693 466.362C232.053 466.086 232.233 465.738 232.233 465.318C232.233 464.886 232.041 464.568 231.657 464.364C231.273 464.148 230.679 463.938 229.875 463.734C229.143 463.542 228.543 463.35 228.075 463.158C227.619 462.954 227.223 462.66 226.887 462.276C226.563 461.88 226.401 461.364 226.401 460.728C226.401 460.224 226.551 459.762 226.851 459.342C227.151 458.922 227.577 458.592 228.129 458.352C228.681 458.1 229.311 457.974 230.019 457.974C231.111 457.974 231.993 458.25 232.665 458.802C233.337 459.354 233.697 460.11 233.745 461.07H232.107C232.071 460.554 231.861 460.14 231.477 459.828C231.105 459.516 230.601 459.36 229.965 459.36C229.377 459.36 228.909 459.486 228.561 459.738C228.213 459.99 228.039 460.32 228.039 460.728C228.039 461.052 228.141 461.322 228.345 461.538C228.561 461.742 228.825 461.91 229.137 462.042C229.461 462.162 229.905 462.3 230.469 462.456C231.177 462.648 231.753 462.84 232.197 463.032C232.641 463.212 233.019 463.488 233.331 463.86C233.655 464.232 233.823 464.718 233.835 465.318C233.835 465.858 233.685 466.344 233.385 466.776C233.085 467.208 232.659 467.55 232.107 467.802C231.567 468.042 230.943 468.162 230.235 468.162ZM236.67 468.108C236.358 468.108 236.094 468 235.878 467.784C235.662 467.568 235.554 467.304 235.554 466.992C235.554 466.68 235.662 466.416 235.878 466.2C236.094 465.984 236.358 465.876 236.67 465.876C236.97 465.876 237.222 465.984 237.426 466.2C237.642 466.416 237.75 466.68 237.75 466.992C237.75 467.304 237.642 467.568 237.426 467.784C237.222 468 236.97 468.108 236.67 468.108Z" fill="#3A3A3A"/>
</g>
<path d="M218 311C149.074 311 93 254.926 93 186C93 117.074 149.074 61 218 61C286.926 61 343 117.074 343 186C343.007 254.926 286.926 311 218 311ZM218 74.7187C156.643 74.7187 106.719 124.636 106.719 186C106.719 247.364 156.636 297.281 218 297.281C279.364 297.281 329.281 247.364 329.281 186C329.281 124.636 279.364 74.7187 218 74.7187Z" fill="#007C5A"/>
<path d="M267.035 135.854C268.826 133.959 271.186 132.894 273.724 132.894C276.662 149.128 279.111 167.072 280.576 186.54C281.997 205.49 282.278 223.146 281.849 239.24L278.8 239.262C277.239 239.277 275.789 238.485 275.026 237.197C270.75 229.983 264.416 221.081 255.211 212.209C241.692 199.186 227.655 191.712 218.109 187.554L267.035 135.854Z" fill="url(#paint0_linear_115_968)"/>
<path d="M242.817 201.798L273.725 132.849C271.187 132.849 268.76 133.915 266.962 135.809L218.036 187.51C224.636 190.062 233.597 194.399 242.817 201.798Z" fill="url(#paint1_linear_115_968)"/>
<path d="M266.968 135.809L218.043 187.51C211.442 190.062 202.482 194.399 193.262 201.798L208.69 236.221C209.504 238.033 211.228 239.188 213.129 239.188H218.043H222.956C224.85 239.188 226.582 238.033 227.396 236.221L242.824 201.798L273.731 132.849C271.186 132.849 268.759 133.915 266.968 135.809Z" fill="url(#paint2_linear_115_968)"/>
<path d="M266.969 135.809L218.043 187.51V234.001C218.043 236.864 220.241 239.188 222.956 239.188C224.851 239.188 226.582 238.033 227.396 236.221L242.824 201.798L273.732 132.849C271.186 132.849 268.759 133.915 266.969 135.809Z" fill="url(#paint3_linear_115_968)"/>
<path d="M169.11 135.809C167.319 133.915 164.959 132.849 162.421 132.849C159.483 149.084 157.034 167.028 155.569 186.496C154.148 205.446 153.867 223.101 154.296 239.195L157.345 239.217C158.906 239.232 160.357 238.44 161.119 237.153C165.396 229.938 171.73 221.037 180.935 212.165C194.453 199.142 208.49 191.668 218.036 187.51L169.11 135.809Z" fill="url(#paint4_linear_115_968)"/>
<path opacity="0.81" d="M218.036 187.509L169.214 135.809C168.541 135.099 167.794 134.507 166.987 134.041C166.647 133.848 166.299 133.678 165.944 133.53C165.729 133.441 165.515 133.36 165.293 133.286C165.219 133.264 165.145 133.241 165.071 133.219C164.923 133.175 164.775 133.138 164.627 133.101C163.953 132.938 163.25 132.857 162.54 132.857L193.307 201.805C196.519 199.423 200.196 196.929 204.362 194.48C209.209 191.624 213.833 189.337 218.036 187.509Z" fill="url(#paint5_linear_115_968)"/>
<defs>
<filter id="filter0_d_115_968" x="0" y="0" width="440" height="541" filterUnits="userSpaceOnUse" color-interpolation-filters="sRGB">
<feFlood flood-opacity="0" result="BackgroundImageFix"/>
<feColorMatrix in="SourceAlpha" type="matrix" values="0 0 0 0 0 0 0 0 0 0 0 0 0 0 0 0 0 0 127 0" result="hardAlpha"/>
<feOffset dx="4" dy="4"/>
<feGaussianBlur stdDeviation="11"/>
<feComposite in2="hardAlpha" operator="out"/>
<feColorMatrix type="matrix" values="0 0 0 0 0 0 0 0 0 0 0 0 0 0 0 0 0 0 0.15 0"/>
<feBlend mode="normal" in2="BackgroundImageFix" result="effect1_dropShadow_115_968"/>
<feBlend mode="normal" in="SourceGraphic" in2="effect1_dropShadow_115_968" result="shape"/>
</filter>
<linearGradient id="paint0_linear_115_968" x1="272.226" y1="184.567" x2="231.794" y2="167.406" gradientUnits="userSpaceOnUse">
<stop stop-color="#00A87D"/>
<stop offset="0.128" stop-color="#009570"/>
<stop offset="0.3856" stop-color="#00654F"/>
<stop offset="0.5153" stop-color="#004A3D"/>
</linearGradient>
<linearGradient id="paint1_linear_115_968" x1="274.038" y1="174.566" x2="249.974" y2="163.51" gradientUnits="userSpaceOnUse">
<stop stop-color="#007D58"/>
<stop offset="0.9969" stop-color="#004A3D"/>
</linearGradient>
<linearGradient id="paint2_linear_115_968" x1="246.005" y1="189.566" x2="228.406" y2="172.008" gradientUnits="userSpaceOnUse">
<stop offset="0.2046" stop-color="#00A87D"/>
<stop offset="0.3497" stop-color="#00A379"/>
<stop offset="0.526" stop-color="#00946F"/>
<stop offset="0.7182" stop-color="#007B5F"/>
<stop offset="0.9207" stop-color="#005948"/>
<stop offset="1" stop-color="#004A3D"/>
</linearGradient>
<linearGradient id="paint3_linear_115_968" x1="232.461" y1="194.326" x2="305.076" y2="63.5281" gradientUnits="userSpaceOnUse">
<stop stop-color="#00A87D" stop-opacity="0"/>
<stop offset="0.445" stop-color="#54DCBD"/>
</linearGradient>
<linearGradient id="paint4_linear_115_968" x1="192.089" y1="223.289" x2="123.871" y2="108.781" gradientUnits="userSpaceOnUse">
<stop offset="0.1599" stop-color="#00A87D"/>
<stop offset="0.4457" stop-color="#006D55"/>
<stop offset="0.6333" stop-color="#004A3D"/>
</linearGradient>
<linearGradient id="paint5_linear_115_968" x1="200.136" y1="200.288" x2="170.284" y2="78.6782" gradientUnits="userSpaceOnUse">
<stop stop-color="#00A87D" stop-opacity="0"/>
<stop offset="0.4252" stop-color="#52DCBD"/>
</linearGradient>
</defs>
</svg>
