<svg width="1080" height="137" viewBox="0 0 1080 137" fill="none" xmlns="http://www.w3.org/2000/svg">
<path d="M428.575 20.09V28.14H439.385V33.246H428.575V41.756H440.765V47H422.135V14.846H440.765V20.09H428.575ZM444.961 34.258C444.961 31.6207 445.498 29.3207 446.571 27.358C447.645 25.3647 449.132 23.8313 451.033 22.758C452.935 21.654 455.112 21.102 457.565 21.102C460.724 21.102 463.331 21.8993 465.385 23.494C467.471 25.058 468.866 27.266 469.571 30.118H462.625C462.257 29.014 461.629 28.1553 460.739 27.542C459.881 26.898 458.807 26.576 457.519 26.576C455.679 26.576 454.223 27.2507 453.149 28.6C452.076 29.9187 451.539 31.8047 451.539 34.258C451.539 36.6807 452.076 38.5667 453.149 39.916C454.223 41.2347 455.679 41.894 457.519 41.894C460.126 41.894 461.828 40.7287 462.625 38.398H469.571C468.866 41.158 467.471 43.3507 465.385 44.976C463.3 46.6013 460.693 47.414 457.565 47.414C455.112 47.414 452.935 46.8773 451.033 45.804C449.132 44.7 447.645 43.1667 446.571 41.204C445.498 39.2107 444.961 36.8953 444.961 34.258ZM485.605 47.414C483.152 47.414 480.944 46.8773 478.981 45.804C477.019 44.7 475.47 43.1513 474.335 41.158C473.231 39.1647 472.679 36.8647 472.679 34.258C472.679 31.6513 473.247 29.3513 474.381 27.358C475.547 25.3647 477.126 23.8313 479.119 22.758C481.113 21.654 483.336 21.102 485.789 21.102C488.243 21.102 490.466 21.654 492.459 22.758C494.453 23.8313 496.017 25.3647 497.151 27.358C498.317 29.3513 498.899 31.6513 498.899 34.258C498.899 36.8647 498.301 39.1647 497.105 41.158C495.94 43.1513 494.345 44.7 492.321 45.804C490.328 46.8773 488.089 47.414 485.605 47.414ZM485.605 41.802C486.771 41.802 487.859 41.526 488.871 40.974C489.914 40.3913 490.742 39.5327 491.355 38.398C491.969 37.2633 492.275 35.8833 492.275 34.258C492.275 31.8353 491.631 29.98 490.343 28.692C489.086 27.3733 487.537 26.714 485.697 26.714C483.857 26.714 482.309 27.3733 481.051 28.692C479.825 29.98 479.211 31.8353 479.211 34.258C479.211 36.6807 479.809 38.5513 481.005 39.87C482.232 41.158 483.765 41.802 485.605 41.802ZM513.375 47.414C511.29 47.414 509.419 47.046 507.763 46.31C506.107 45.5433 504.789 44.516 503.807 43.228C502.857 41.94 502.335 40.514 502.243 38.95H508.729C508.852 39.9313 509.327 40.744 510.155 41.388C511.014 42.032 512.072 42.354 513.329 42.354C514.556 42.354 515.507 42.1087 516.181 41.618C516.887 41.1273 517.239 40.4987 517.239 39.732C517.239 38.904 516.81 38.2907 515.951 37.892C515.123 37.4627 513.789 37.0027 511.949 36.512C510.048 36.052 508.484 35.5767 507.257 35.086C506.061 34.5953 505.019 33.844 504.129 32.832C503.271 31.82 502.841 30.4553 502.841 28.738C502.841 27.3273 503.24 26.0393 504.037 24.874C504.865 23.7087 506.031 22.7887 507.533 22.114C509.067 21.4393 510.861 21.102 512.915 21.102C515.951 21.102 518.374 21.8687 520.183 23.402C521.993 24.9047 522.989 26.944 523.173 29.52H517.009C516.917 28.508 516.488 27.7107 515.721 27.128C514.985 26.5147 513.989 26.208 512.731 26.208C511.566 26.208 510.661 26.4227 510.017 26.852C509.404 27.2813 509.097 27.8793 509.097 28.646C509.097 29.5047 509.527 30.164 510.385 30.624C511.244 31.0533 512.578 31.498 514.387 31.958C516.227 32.418 517.745 32.8933 518.941 33.384C520.137 33.8747 521.165 34.6413 522.023 35.684C522.913 36.696 523.373 38.0453 523.403 39.732C523.403 41.204 522.989 42.5227 522.161 43.688C521.364 44.8533 520.199 45.7733 518.665 46.448C517.163 47.092 515.399 47.414 513.375 47.414ZM553.07 21.516L537.292 59.052H530.438L535.958 46.356L525.746 21.516H532.968L539.546 39.318L546.216 21.516H553.07ZM566.293 47.414C564.208 47.414 562.337 47.046 560.681 46.31C559.025 45.5433 557.707 44.516 556.725 43.228C555.775 41.94 555.253 40.514 555.161 38.95H561.647C561.77 39.9313 562.245 40.744 563.073 41.388C563.932 42.032 564.99 42.354 566.247 42.354C567.474 42.354 568.425 42.1087 569.099 41.618C569.805 41.1273 570.157 40.4987 570.157 39.732C570.157 38.904 569.728 38.2907 568.869 37.892C568.041 37.4627 566.707 37.0027 564.867 36.512C562.966 36.052 561.402 35.5767 560.175 35.086C558.979 34.5953 557.937 33.844 557.047 32.832C556.189 31.82 555.759 30.4553 555.759 28.738C555.759 27.3273 556.158 26.0393 556.955 24.874C557.783 23.7087 558.949 22.7887 560.451 22.114C561.985 21.4393 563.779 21.102 565.833 21.102C568.869 21.102 571.292 21.8687 573.101 23.402C574.911 24.9047 575.907 26.944 576.091 29.52H569.927C569.835 28.508 569.406 27.7107 568.639 27.128C567.903 26.5147 566.907 26.208 565.649 26.208C564.484 26.208 563.579 26.4227 562.935 26.852C562.322 27.2813 562.015 27.8793 562.015 28.646C562.015 29.5047 562.445 30.164 563.303 30.624C564.162 31.0533 565.496 31.498 567.305 31.958C569.145 32.418 570.663 32.8933 571.859 33.384C573.055 33.8747 574.083 34.6413 574.941 35.684C575.831 36.696 576.291 38.0453 576.321 39.732C576.321 41.204 575.907 42.5227 575.079 43.688C574.282 44.8533 573.117 45.7733 571.583 46.448C570.081 47.092 568.317 47.414 566.293 47.414ZM589.106 26.806V39.134C589.106 39.9927 589.305 40.6213 589.704 41.02C590.133 41.388 590.838 41.572 591.82 41.572H594.81V47H590.762C585.334 47 582.62 44.3627 582.62 39.088V26.806H579.584V21.516H582.62V15.214H589.106V21.516H594.81V26.806H589.106ZM623.132 33.706C623.132 34.626 623.07 35.454 622.948 36.19H604.318C604.471 38.03 605.115 39.4713 606.25 40.514C607.384 41.5567 608.78 42.078 610.436 42.078C612.828 42.078 614.53 41.0507 615.542 38.996H622.488C621.752 41.4493 620.341 43.4733 618.256 45.068C616.17 46.632 613.61 47.414 610.574 47.414C608.12 47.414 605.912 46.8773 603.95 45.804C602.018 44.7 600.5 43.1513 599.396 41.158C598.322 39.1647 597.786 36.8647 597.786 34.258C597.786 31.6207 598.322 29.3053 599.396 27.312C600.469 25.3187 601.972 23.7853 603.904 22.712C605.836 21.6387 608.059 21.102 610.574 21.102C612.996 21.102 615.158 21.6233 617.06 22.666C618.992 23.7087 620.479 25.196 621.522 27.128C622.595 29.0293 623.132 31.222 623.132 33.706ZM616.462 31.866C616.431 30.21 615.833 28.8913 614.668 27.91C613.502 26.898 612.076 26.392 610.39 26.392C608.795 26.392 607.446 26.8827 606.342 27.864C605.268 28.8147 604.609 30.1487 604.364 31.866H616.462ZM659.48 21.148C662.608 21.148 665.123 22.114 667.024 24.046C668.956 25.9473 669.922 28.6153 669.922 32.05V47H663.482V32.924C663.482 30.9307 662.976 29.4127 661.964 28.37C660.952 27.2967 659.572 26.76 657.824 26.76C656.076 26.76 654.681 27.2967 653.638 28.37C652.626 29.4127 652.12 30.9307 652.12 32.924V47H645.68V32.924C645.68 30.9307 645.174 29.4127 644.162 28.37C643.15 27.2967 641.77 26.76 640.022 26.76C638.244 26.76 636.833 27.2967 635.79 28.37C634.778 29.4127 634.272 30.9307 634.272 32.924V47H627.832V21.516H634.272V24.598C635.1 23.5247 636.158 22.6813 637.446 22.068C638.765 21.4547 640.206 21.148 641.77 21.148C643.764 21.148 645.542 21.5773 647.106 22.436C648.67 23.264 649.882 24.46 650.74 26.024C651.568 24.552 652.764 23.3713 654.328 22.482C655.923 21.5927 657.64 21.148 659.48 21.148Z" fill="#3A3A3A"/>
<path d="M382.852 114.54V119.2H387.932V120.7H382.852V125.5H388.532V127H381.032V113.04H388.532V114.54H382.852ZM397.006 127L394.406 122.92L391.906 127H390.006L393.546 121.56L390.006 116.04H392.066L394.666 120.1L397.146 116.04H399.046L395.526 121.46L399.066 127H397.006ZM402.676 118.06C403.036 117.433 403.57 116.913 404.276 116.5C404.996 116.073 405.83 115.86 406.776 115.86C407.75 115.86 408.63 116.093 409.416 116.56C410.216 117.027 410.843 117.687 411.296 118.54C411.75 119.38 411.976 120.36 411.976 121.48C411.976 122.587 411.75 123.573 411.296 124.44C410.843 125.307 410.216 125.98 409.416 126.46C408.63 126.94 407.75 127.18 406.776 127.18C405.843 127.18 405.016 126.973 404.296 126.56C403.59 126.133 403.05 125.607 402.676 124.98V132.2H400.856V116.04H402.676V118.06ZM410.116 121.48C410.116 120.653 409.95 119.933 409.616 119.32C409.283 118.707 408.83 118.24 408.256 117.92C407.696 117.6 407.076 117.44 406.396 117.44C405.73 117.44 405.11 117.607 404.536 117.94C403.976 118.26 403.523 118.733 403.176 119.36C402.843 119.973 402.676 120.687 402.676 121.5C402.676 122.327 402.843 123.053 403.176 123.68C403.523 124.293 403.976 124.767 404.536 125.1C405.11 125.42 405.73 125.58 406.396 125.58C407.076 125.58 407.696 125.42 408.256 125.1C408.83 124.767 409.283 124.293 409.616 123.68C409.95 123.053 410.116 122.32 410.116 121.48ZM416.192 112.2V127H414.372V112.2H416.192ZM424.074 127.18C423.047 127.18 422.114 126.947 421.274 126.48C420.447 126.013 419.794 125.353 419.314 124.5C418.847 123.633 418.614 122.633 418.614 121.5C418.614 120.38 418.854 119.393 419.334 118.54C419.827 117.673 420.494 117.013 421.334 116.56C422.174 116.093 423.114 115.86 424.154 115.86C425.194 115.86 426.134 116.093 426.974 116.56C427.814 117.013 428.474 117.667 428.954 118.52C429.447 119.373 429.694 120.367 429.694 121.5C429.694 122.633 429.441 123.633 428.934 124.5C428.441 125.353 427.767 126.013 426.914 126.48C426.061 126.947 425.114 127.18 424.074 127.18ZM424.074 125.58C424.727 125.58 425.341 125.427 425.914 125.12C426.487 124.813 426.947 124.353 427.294 123.74C427.654 123.127 427.834 122.38 427.834 121.5C427.834 120.62 427.661 119.873 427.314 119.26C426.967 118.647 426.514 118.193 425.954 117.9C425.394 117.593 424.787 117.44 424.134 117.44C423.467 117.44 422.854 117.593 422.294 117.9C421.747 118.193 421.307 118.647 420.974 119.26C420.641 119.873 420.474 120.62 420.474 121.5C420.474 122.393 420.634 123.147 420.954 123.76C421.287 124.373 421.727 124.833 422.274 125.14C422.821 125.433 423.421 125.58 424.074 125.58ZM433.907 117.82C434.227 117.193 434.68 116.707 435.267 116.36C435.867 116.013 436.594 115.84 437.447 115.84V117.72H436.967C434.927 117.72 433.907 118.827 433.907 121.04V127H432.087V116.04H433.907V117.82ZM449.548 121.1C449.548 121.447 449.528 121.813 449.488 122.2H440.728C440.794 123.28 441.161 124.127 441.828 124.74C442.508 125.34 443.328 125.64 444.288 125.64C445.074 125.64 445.728 125.46 446.248 125.1C446.781 124.727 447.154 124.233 447.368 123.62H449.328C449.034 124.673 448.448 125.533 447.568 126.2C446.688 126.853 445.594 127.18 444.288 127.18C443.248 127.18 442.314 126.947 441.488 126.48C440.674 126.013 440.034 125.353 439.568 124.5C439.101 123.633 438.868 122.633 438.868 121.5C438.868 120.367 439.094 119.373 439.548 118.52C440.001 117.667 440.634 117.013 441.448 116.56C442.274 116.093 443.221 115.86 444.288 115.86C445.328 115.86 446.248 116.087 447.048 116.54C447.848 116.993 448.461 117.62 448.888 118.42C449.328 119.207 449.548 120.1 449.548 121.1ZM447.668 120.72C447.668 120.027 447.514 119.433 447.208 118.94C446.901 118.433 446.481 118.053 445.948 117.8C445.428 117.533 444.848 117.4 444.208 117.4C443.288 117.4 442.501 117.693 441.848 118.28C441.208 118.867 440.841 119.68 440.748 120.72H447.668ZM459.502 117.54V124C459.502 124.533 459.616 124.913 459.842 125.14C460.069 125.353 460.462 125.46 461.022 125.46H462.362V127H460.722C459.709 127 458.949 126.767 458.442 126.3C457.936 125.833 457.682 125.067 457.682 124V117.54H456.262V116.04H457.682V113.28H459.502V116.04H462.362V117.54H459.502ZM470.007 115.84C470.834 115.84 471.581 116.02 472.247 116.38C472.914 116.727 473.434 117.253 473.807 117.96C474.194 118.667 474.387 119.527 474.387 120.54V127H472.587V120.8C472.587 119.707 472.314 118.873 471.767 118.3C471.221 117.713 470.474 117.42 469.527 117.42C468.567 117.42 467.801 117.72 467.227 118.32C466.667 118.92 466.387 119.793 466.387 120.94V127H464.567V112.2H466.387V117.6C466.747 117.04 467.241 116.607 467.867 116.3C468.507 115.993 469.221 115.84 470.007 115.84ZM487.36 121.1C487.36 121.447 487.34 121.813 487.3 122.2H478.54C478.607 123.28 478.974 124.127 479.64 124.74C480.32 125.34 481.14 125.64 482.1 125.64C482.887 125.64 483.54 125.46 484.06 125.1C484.594 124.727 484.967 124.233 485.18 123.62H487.14C486.847 124.673 486.26 125.533 485.38 126.2C484.5 126.853 483.407 127.18 482.1 127.18C481.06 127.18 480.127 126.947 479.3 126.48C478.487 126.013 477.847 125.353 477.38 124.5C476.914 123.633 476.68 122.633 476.68 121.5C476.68 120.367 476.907 119.373 477.36 118.52C477.814 117.667 478.447 117.013 479.26 116.56C480.087 116.093 481.034 115.86 482.1 115.86C483.14 115.86 484.06 116.087 484.86 116.54C485.66 116.993 486.274 117.62 486.7 118.42C487.14 119.207 487.36 120.1 487.36 121.1ZM485.48 120.72C485.48 120.027 485.327 119.433 485.02 118.94C484.714 118.433 484.294 118.053 483.76 117.8C483.24 117.533 482.66 117.4 482.02 117.4C481.1 117.4 480.314 117.693 479.66 118.28C479.02 118.867 478.654 119.68 478.56 120.72H485.48ZM509.235 113.16V127H507.415V116.68L502.815 127H501.535L496.915 116.66V127H495.095V113.16H497.055L502.175 124.6L507.295 113.16H509.235ZM511.641 121.48C511.641 120.36 511.868 119.38 512.321 118.54C512.775 117.687 513.395 117.027 514.181 116.56C514.981 116.093 515.868 115.86 516.841 115.86C517.801 115.86 518.635 116.067 519.341 116.48C520.048 116.893 520.575 117.413 520.921 118.04V116.04H522.761V127H520.921V124.96C520.561 125.6 520.021 126.133 519.301 126.56C518.595 126.973 517.768 127.18 516.821 127.18C515.848 127.18 514.968 126.94 514.181 126.46C513.395 125.98 512.775 125.307 512.321 124.44C511.868 123.573 511.641 122.587 511.641 121.48ZM520.921 121.5C520.921 120.673 520.755 119.953 520.421 119.34C520.088 118.727 519.635 118.26 519.061 117.94C518.501 117.607 517.881 117.44 517.201 117.44C516.521 117.44 515.901 117.6 515.341 117.92C514.781 118.24 514.335 118.707 514.001 119.32C513.668 119.933 513.501 120.653 513.501 121.48C513.501 122.32 513.668 123.053 514.001 123.68C514.335 124.293 514.781 124.767 515.341 125.1C515.901 125.42 516.521 125.58 517.201 125.58C517.881 125.58 518.501 125.42 519.061 125.1C519.635 124.767 520.088 124.293 520.421 123.68C520.755 123.053 520.921 122.327 520.921 121.5ZM527.657 117.82C527.977 117.193 528.43 116.707 529.017 116.36C529.617 116.013 530.344 115.84 531.197 115.84V117.72H530.717C528.677 117.72 527.657 118.827 527.657 121.04V127H525.837V116.04H527.657V117.82ZM537.378 125.32L540.778 116.04H542.718L538.418 127H536.298L531.998 116.04H533.958L537.378 125.32ZM554.509 121.1C554.509 121.447 554.489 121.813 554.449 122.2H545.689C545.755 123.28 546.122 124.127 546.789 124.74C547.469 125.34 548.289 125.64 549.249 125.64C550.035 125.64 550.689 125.46 551.209 125.1C551.742 124.727 552.115 124.233 552.329 123.62H554.289C553.995 124.673 553.409 125.533 552.529 126.2C551.649 126.853 550.555 127.18 549.249 127.18C548.209 127.18 547.275 126.947 546.449 126.48C545.635 126.013 544.995 125.353 544.529 124.5C544.062 123.633 543.829 122.633 543.829 121.5C543.829 120.367 544.055 119.373 544.509 118.52C544.962 117.667 545.595 117.013 546.409 116.56C547.235 116.093 548.182 115.86 549.249 115.86C550.289 115.86 551.209 116.087 552.009 116.54C552.809 116.993 553.422 117.62 553.849 118.42C554.289 119.207 554.509 120.1 554.509 121.1ZM552.629 120.72C552.629 120.027 552.475 119.433 552.169 118.94C551.862 118.433 551.442 118.053 550.909 117.8C550.389 117.533 549.809 117.4 549.169 117.4C548.249 117.4 547.462 117.693 546.809 118.28C546.169 118.867 545.802 119.68 545.709 120.72H552.629ZM558.731 112.2V127H556.911V112.2H558.731ZM563.653 112.2V127H561.833V112.2H563.653ZM576.755 121.1C576.755 121.447 576.735 121.813 576.695 122.2H567.935C568.002 123.28 568.368 124.127 569.035 124.74C569.715 125.34 570.535 125.64 571.495 125.64C572.282 125.64 572.935 125.46 573.455 125.1C573.988 124.727 574.362 124.233 574.575 123.62H576.535C576.242 124.673 575.655 125.533 574.775 126.2C573.895 126.853 572.802 127.18 571.495 127.18C570.455 127.18 569.522 126.947 568.695 126.48C567.882 126.013 567.242 125.353 566.775 124.5C566.308 123.633 566.075 122.633 566.075 121.5C566.075 120.367 566.302 119.373 566.755 118.52C567.208 117.667 567.842 117.013 568.655 116.56C569.482 116.093 570.428 115.86 571.495 115.86C572.535 115.86 573.455 116.087 574.255 116.54C575.055 116.993 575.668 117.62 576.095 118.42C576.535 119.207 576.755 120.1 576.755 121.1ZM574.875 120.72C574.875 120.027 574.722 119.433 574.415 118.94C574.108 118.433 573.688 118.053 573.155 117.8C572.635 117.533 572.055 117.4 571.415 117.4C570.495 117.4 569.708 117.693 569.055 118.28C568.415 118.867 568.048 119.68 567.955 120.72H574.875ZM584.877 127L582.277 122.92L579.777 127H577.877L581.417 121.56L577.877 116.04H579.937L582.537 120.1L585.017 116.04H586.917L583.397 121.46L586.937 127H584.877ZM595.88 114.54V119.2H600.96V120.7H595.88V125.5H601.56V127H594.06V113.04H601.56V114.54H595.88ZM603.633 121.5C603.633 120.367 603.86 119.38 604.313 118.54C604.767 117.687 605.393 117.027 606.193 116.56C607.007 116.093 607.933 115.86 608.973 115.86C610.32 115.86 611.427 116.187 612.293 116.84C613.173 117.493 613.753 118.4 614.033 119.56H612.073C611.887 118.893 611.52 118.367 610.973 117.98C610.44 117.593 609.773 117.4 608.973 117.4C607.933 117.4 607.093 117.76 606.453 118.48C605.813 119.187 605.493 120.193 605.493 121.5C605.493 122.82 605.813 123.84 606.453 124.56C607.093 125.28 607.933 125.64 608.973 125.64C609.773 125.64 610.44 125.453 610.973 125.08C611.507 124.707 611.873 124.173 612.073 123.48H614.033C613.74 124.6 613.153 125.5 612.273 126.18C611.393 126.847 610.293 127.18 608.973 127.18C607.933 127.18 607.007 126.947 606.193 126.48C605.393 126.013 604.767 125.353 604.313 124.5C603.86 123.647 603.633 122.647 603.633 121.5ZM621.242 127.18C620.215 127.18 619.282 126.947 618.442 126.48C617.615 126.013 616.962 125.353 616.482 124.5C616.015 123.633 615.782 122.633 615.782 121.5C615.782 120.38 616.022 119.393 616.502 118.54C616.995 117.673 617.662 117.013 618.502 116.56C619.342 116.093 620.282 115.86 621.322 115.86C622.362 115.86 623.302 116.093 624.142 116.56C624.982 117.013 625.642 117.667 626.122 118.52C626.615 119.373 626.862 120.367 626.862 121.5C626.862 122.633 626.609 123.633 626.102 124.5C625.609 125.353 624.935 126.013 624.082 126.48C623.229 126.947 622.282 127.18 621.242 127.18ZM621.242 125.58C621.895 125.58 622.509 125.427 623.082 125.12C623.655 124.813 624.115 124.353 624.462 123.74C624.822 123.127 625.002 122.38 625.002 121.5C625.002 120.62 624.829 119.873 624.482 119.26C624.135 118.647 623.682 118.193 623.122 117.9C622.562 117.593 621.955 117.44 621.302 117.44C620.635 117.44 620.022 117.593 619.462 117.9C618.915 118.193 618.475 118.647 618.142 119.26C617.809 119.873 617.642 120.62 617.642 121.5C617.642 122.393 617.802 123.147 618.122 123.76C618.455 124.373 618.895 124.833 619.442 125.14C619.989 125.433 620.589 125.58 621.242 125.58ZM633.135 127.18C632.295 127.18 631.542 127.04 630.875 126.76C630.208 126.467 629.682 126.067 629.295 125.56C628.908 125.04 628.695 124.447 628.655 123.78H630.535C630.588 124.327 630.842 124.773 631.295 125.12C631.762 125.467 632.368 125.64 633.115 125.64C633.808 125.64 634.355 125.487 634.755 125.18C635.155 124.873 635.355 124.487 635.355 124.02C635.355 123.54 635.142 123.187 634.715 122.96C634.288 122.72 633.628 122.487 632.735 122.26C631.922 122.047 631.255 121.833 630.735 121.62C630.228 121.393 629.788 121.067 629.415 120.64C629.055 120.2 628.875 119.627 628.875 118.92C628.875 118.36 629.042 117.847 629.375 117.38C629.708 116.913 630.182 116.547 630.795 116.28C631.408 116 632.108 115.86 632.895 115.86C634.108 115.86 635.088 116.167 635.835 116.78C636.582 117.393 636.982 118.233 637.035 119.3H635.215C635.175 118.727 634.942 118.267 634.515 117.92C634.102 117.573 633.542 117.4 632.835 117.4C632.182 117.4 631.662 117.54 631.275 117.82C630.888 118.1 630.695 118.467 630.695 118.92C630.695 119.28 630.808 119.58 631.035 119.82C631.275 120.047 631.568 120.233 631.915 120.38C632.275 120.513 632.768 120.667 633.395 120.84C634.182 121.053 634.822 121.267 635.315 121.48C635.808 121.68 636.228 121.987 636.575 122.4C636.935 122.813 637.122 123.353 637.135 124.02C637.135 124.62 636.968 125.16 636.635 125.64C636.302 126.12 635.828 126.5 635.215 126.78C634.615 127.047 633.922 127.18 633.135 127.18ZM649.144 116.04L642.544 132.16H640.664L642.824 126.88L638.404 116.04H640.424L643.864 124.92L647.264 116.04H649.144ZM654.854 127.18C654.014 127.18 653.26 127.04 652.594 126.76C651.927 126.467 651.4 126.067 651.014 125.56C650.627 125.04 650.414 124.447 650.374 123.78H652.254C652.307 124.327 652.56 124.773 653.014 125.12C653.48 125.467 654.087 125.64 654.834 125.64C655.527 125.64 656.074 125.487 656.474 125.18C656.874 124.873 657.074 124.487 657.074 124.02C657.074 123.54 656.86 123.187 656.434 122.96C656.007 122.72 655.347 122.487 654.454 122.26C653.64 122.047 652.974 121.833 652.454 121.62C651.947 121.393 651.507 121.067 651.134 120.64C650.774 120.2 650.594 119.627 650.594 118.92C650.594 118.36 650.76 117.847 651.094 117.38C651.427 116.913 651.9 116.547 652.514 116.28C653.127 116 653.827 115.86 654.614 115.86C655.827 115.86 656.807 116.167 657.554 116.78C658.3 117.393 658.7 118.233 658.754 119.3H656.934C656.894 118.727 656.66 118.267 656.234 117.92C655.82 117.573 655.26 117.4 654.554 117.4C653.9 117.4 653.38 117.54 652.994 117.82C652.607 118.1 652.414 118.467 652.414 118.92C652.414 119.28 652.527 119.58 652.754 119.82C652.994 120.047 653.287 120.233 653.634 120.38C653.994 120.513 654.487 120.667 655.114 120.84C655.9 121.053 656.54 121.267 657.034 121.48C657.527 121.68 657.947 121.987 658.294 122.4C658.654 122.813 658.84 123.353 658.854 124.02C658.854 124.62 658.687 125.16 658.354 125.64C658.02 126.12 657.547 126.5 656.934 126.78C656.334 127.047 655.64 127.18 654.854 127.18ZM663.643 117.54V124C663.643 124.533 663.756 124.913 663.983 125.14C664.209 125.353 664.603 125.46 665.163 125.46H666.503V127H664.863C663.849 127 663.089 126.767 662.583 126.3C662.076 125.833 661.823 125.067 661.823 124V117.54H660.403V116.04H661.823V113.28H663.643V116.04H666.503V117.54H663.643ZM678.708 121.1C678.708 121.447 678.688 121.813 678.648 122.2H669.888C669.955 123.28 670.321 124.127 670.988 124.74C671.668 125.34 672.488 125.64 673.448 125.64C674.235 125.64 674.888 125.46 675.408 125.1C675.941 124.727 676.315 124.233 676.528 123.62H678.488C678.195 124.673 677.608 125.533 676.728 126.2C675.848 126.853 674.755 127.18 673.448 127.18C672.408 127.18 671.475 126.947 670.648 126.48C669.835 126.013 669.195 125.353 668.728 124.5C668.261 123.633 668.028 122.633 668.028 121.5C668.028 120.367 668.255 119.373 668.708 118.52C669.161 117.667 669.795 117.013 670.608 116.56C671.435 116.093 672.381 115.86 673.448 115.86C674.488 115.86 675.408 116.087 676.208 116.54C677.008 116.993 677.621 117.62 678.048 118.42C678.488 119.207 678.708 120.1 678.708 121.1ZM676.828 120.72C676.828 120.027 676.675 119.433 676.368 118.94C676.061 118.433 675.641 118.053 675.108 117.8C674.588 117.533 674.008 117.4 673.368 117.4C672.448 117.4 671.661 117.693 671.008 118.28C670.368 118.867 670.001 119.68 669.908 120.72H676.828ZM694.29 115.84C695.144 115.84 695.904 116.02 696.57 116.38C697.237 116.727 697.764 117.253 698.15 117.96C698.537 118.667 698.73 119.527 698.73 120.54V127H696.93V120.8C696.93 119.707 696.657 118.873 696.11 118.3C695.577 117.713 694.85 117.42 693.93 117.42C692.984 117.42 692.23 117.727 691.67 118.34C691.11 118.94 690.83 119.813 690.83 120.96V127H689.03V120.8C689.03 119.707 688.757 118.873 688.21 118.3C687.677 117.713 686.95 117.42 686.03 117.42C685.084 117.42 684.33 117.727 683.77 118.34C683.21 118.94 682.93 119.813 682.93 120.96V127H681.11V116.04H682.93V117.62C683.29 117.047 683.77 116.607 684.37 116.3C684.984 115.993 685.657 115.84 686.39 115.84C687.31 115.84 688.124 116.047 688.83 116.46C689.537 116.873 690.064 117.48 690.41 118.28C690.717 117.507 691.224 116.907 691.93 116.48C692.637 116.053 693.424 115.84 694.29 115.84Z" fill="#3A3A3A"/>
<path d="M408 84C408 81.7909 409.791 80 412 80H674C676.209 80 678 81.7909 678 84V87H408V84Z" fill="#3A3A3A"/>
</svg>
