<svg width="336" height="90" viewBox="0 0 336 90" fill="none" xmlns="http://www.w3.org/2000/svg">
<path d="M55.472 66.164C54.9867 66.164 54.576 65.996 54.24 65.66C53.904 65.324 53.736 64.9133 53.736 64.428C53.736 63.9427 53.904 63.532 54.24 63.196C54.576 62.86 54.9867 62.692 55.472 62.692C55.9387 62.692 56.3307 62.86 56.648 63.196C56.984 63.532 57.152 63.9427 57.152 64.428C57.152 64.9133 56.984 65.324 56.648 65.66C56.3307 65.996 55.9387 66.164 55.472 66.164ZM56.704 68.656V84H54.156V68.656H56.704ZM68.5226 68.376C70.3893 68.376 71.9013 68.9453 73.0586 70.084C74.216 71.204 74.7946 72.828 74.7946 74.956V84H72.2746V75.32C72.2746 73.7893 71.892 72.6227 71.1266 71.82C70.3613 70.9987 69.316 70.588 67.9906 70.588C66.6466 70.588 65.5733 71.008 64.7706 71.848C63.9866 72.688 63.5946 73.9107 63.5946 75.516V84H61.0466V68.656H63.5946V70.84C64.0986 70.056 64.78 69.4493 65.6386 69.02C66.516 68.5907 67.4773 68.376 68.5226 68.376ZM85.2008 70.756H81.9808V84H79.4328V70.756H77.4448V68.656H79.4328V67.564C79.4328 65.8467 79.8714 64.596 80.7488 63.812C81.6448 63.0093 83.0728 62.608 85.0328 62.608V64.736C83.9128 64.736 83.1194 64.96 82.6528 65.408C82.2048 65.8373 81.9808 66.556 81.9808 67.564V68.656H85.2008V70.756ZM94.8636 84.252C93.4263 84.252 92.1196 83.9253 90.9436 83.272C89.7863 82.6187 88.8716 81.6947 88.1996 80.5C87.5463 79.2867 87.2196 77.8867 87.2196 76.3C87.2196 74.732 87.5556 73.3507 88.2276 72.156C88.9183 70.9427 89.8516 70.0187 91.0276 69.384C92.2036 68.7307 93.5196 68.404 94.9756 68.404C96.4316 68.404 97.7476 68.7307 98.9236 69.384C100.1 70.0187 101.024 70.9333 101.696 72.128C102.386 73.3227 102.732 74.7133 102.732 76.3C102.732 77.8867 102.377 79.2867 101.668 80.5C100.977 81.6947 100.034 82.6187 98.8396 83.272C97.645 83.9253 96.3196 84.252 94.8636 84.252ZM94.8636 82.012C95.7783 82.012 96.637 81.7973 97.4396 81.368C98.2423 80.9387 98.8863 80.2947 99.3716 79.436C99.8756 78.5773 100.128 77.532 100.128 76.3C100.128 75.068 99.885 74.0227 99.3996 73.164C98.9143 72.3053 98.2796 71.6707 97.4956 71.26C96.7116 70.8307 95.8623 70.616 94.9476 70.616C94.0143 70.616 93.1556 70.8307 92.3716 71.26C91.6063 71.6707 90.9903 72.3053 90.5236 73.164C90.057 74.0227 89.8236 75.068 89.8236 76.3C89.8236 77.5507 90.0476 78.6053 90.4956 79.464C90.9623 80.3227 91.5783 80.9667 92.3436 81.396C93.109 81.8067 93.949 82.012 94.8636 82.012ZM120.082 66.052C122.154 66.052 123.955 66.444 125.486 67.228C127.016 68.012 128.192 69.1133 129.014 70.532C129.835 71.932 130.246 73.556 130.246 75.404C130.246 76.8787 130.003 78.2973 129.518 79.66C129.032 81.004 128.323 82.096 127.39 82.936C126.475 83.776 125.402 84.196 124.17 84.196C123.236 84.196 122.518 83.9627 122.014 83.496C121.51 83.0293 121.22 82.3947 121.146 81.592C120.567 82.3947 119.83 83.0293 118.934 83.496C118.056 83.9627 117.123 84.196 116.134 84.196C114.715 84.196 113.595 83.7667 112.774 82.908C111.971 82.0307 111.57 80.8547 111.57 79.38C111.57 77.98 111.859 76.6733 112.438 75.46C113.035 74.2467 113.856 73.276 114.902 72.548C115.947 71.8013 117.132 71.428 118.458 71.428C120.231 71.428 121.426 72.1 122.042 73.444L122.35 71.708H124.562L123.162 79.8C123.106 80.1547 123.078 80.4813 123.078 80.78C123.078 81.9 123.572 82.46 124.562 82.46C125.308 82.46 125.952 82.1053 126.494 81.396C127.054 80.6867 127.474 79.8 127.754 78.736C128.034 77.6533 128.174 76.5893 128.174 75.544C128.174 73.0987 127.436 71.204 125.962 69.86C124.506 68.516 122.443 67.844 119.774 67.844C117.552 67.844 115.546 68.3853 113.754 69.468C111.98 70.532 110.59 71.9973 109.582 73.864C108.574 75.7307 108.07 77.7933 108.07 80.052C108.051 82.516 108.788 84.4107 110.282 85.736C111.775 87.08 113.847 87.752 116.498 87.752C118.252 87.752 119.802 87.4347 121.146 86.8L121.482 88.536C119.82 89.2267 117.991 89.572 115.994 89.572C113.996 89.572 112.232 89.1893 110.702 88.424C109.19 87.6773 108.014 86.5947 107.174 85.176C106.352 83.776 105.942 82.1427 105.942 80.276C105.942 77.644 106.548 75.2453 107.762 73.08C108.975 70.896 110.655 69.1787 112.802 67.928C114.967 66.6773 117.394 66.052 120.082 66.052ZM116.89 82.208C117.73 82.208 118.504 81.9653 119.214 81.48C119.923 80.976 120.483 80.304 120.894 79.464C121.304 78.6053 121.51 77.672 121.51 76.664C121.51 75.6933 121.239 74.9093 120.698 74.312C120.175 73.696 119.428 73.388 118.458 73.388C117.562 73.388 116.768 73.6587 116.078 74.2C115.406 74.7227 114.883 75.4227 114.51 76.3C114.136 77.1587 113.95 78.0547 113.95 78.988C113.95 79.9773 114.202 80.7613 114.706 81.34C115.21 81.9187 115.938 82.208 116.89 82.208ZM152.889 68.376C154.084 68.376 155.148 68.628 156.081 69.132C157.015 69.6173 157.752 70.3547 158.293 71.344C158.835 72.3333 159.105 73.5373 159.105 74.956V84H156.585V75.32C156.585 73.7893 156.203 72.6227 155.437 71.82C154.691 70.9987 153.673 70.588 152.385 70.588C151.06 70.588 150.005 71.0173 149.221 71.876C148.437 72.716 148.045 73.9387 148.045 75.544V84H145.525V75.32C145.525 73.7893 145.143 72.6227 144.377 71.82C143.631 70.9987 142.613 70.588 141.325 70.588C140 70.588 138.945 71.0173 138.161 71.876C137.377 72.716 136.985 73.9387 136.985 75.544V84H134.437V68.656H136.985V70.868C137.489 70.0653 138.161 69.4493 139.001 69.02C139.86 68.5907 140.803 68.376 141.829 68.376C143.117 68.376 144.256 68.6653 145.245 69.244C146.235 69.8227 146.972 70.672 147.457 71.792C147.887 70.7093 148.596 69.8693 149.585 69.272C150.575 68.6747 151.676 68.376 152.889 68.376ZM162.333 76.272C162.333 74.704 162.65 73.332 163.285 72.156C163.92 70.9613 164.788 70.0373 165.889 69.384C167.009 68.7307 168.25 68.404 169.613 68.404C170.957 68.404 172.124 68.6933 173.113 69.272C174.102 69.8507 174.84 70.5787 175.325 71.456V68.656H177.901V84H175.325V81.144C174.821 82.04 174.065 82.7867 173.057 83.384C172.068 83.9627 170.91 84.252 169.585 84.252C168.222 84.252 166.99 83.916 165.889 83.244C164.788 82.572 163.92 81.6293 163.285 80.416C162.65 79.2027 162.333 77.8213 162.333 76.272ZM175.325 76.3C175.325 75.1427 175.092 74.1347 174.625 73.276C174.158 72.4173 173.524 71.764 172.721 71.316C171.937 70.8493 171.069 70.616 170.117 70.616C169.165 70.616 168.297 70.84 167.513 71.288C166.729 71.736 166.104 72.3893 165.637 73.248C165.17 74.1067 164.937 75.1147 164.937 76.272C164.937 77.448 165.17 78.4747 165.637 79.352C166.104 80.2107 166.729 80.8733 167.513 81.34C168.297 81.788 169.165 82.012 170.117 82.012C171.069 82.012 171.937 81.788 172.721 81.34C173.524 80.8733 174.158 80.2107 174.625 79.352C175.092 78.4747 175.325 77.4573 175.325 76.3ZM184.755 71.148C185.203 70.2707 185.837 69.5893 186.659 69.104C187.499 68.6187 188.516 68.376 189.711 68.376V71.008H189.039C186.183 71.008 184.755 72.5573 184.755 75.656V84H182.207V68.656H184.755V71.148ZM198.364 81.648L203.124 68.656H205.84L199.82 84H196.852L190.832 68.656H193.576L198.364 81.648ZM222.347 75.74C222.347 76.2253 222.319 76.7387 222.263 77.28H209.999C210.093 78.792 210.606 79.9773 211.539 80.836C212.491 81.676 213.639 82.096 214.983 82.096C216.085 82.096 216.999 81.844 217.727 81.34C218.474 80.8173 218.997 80.1267 219.295 79.268H222.039C221.629 80.7427 220.807 81.9467 219.575 82.88C218.343 83.7947 216.813 84.252 214.983 84.252C213.527 84.252 212.221 83.9253 211.063 83.272C209.925 82.6187 209.029 81.6947 208.375 80.5C207.722 79.2867 207.395 77.8867 207.395 76.3C207.395 74.7133 207.713 73.3227 208.347 72.128C208.982 70.9333 209.869 70.0187 211.007 69.384C212.165 68.7307 213.49 68.404 214.983 68.404C216.439 68.404 217.727 68.7213 218.847 69.356C219.967 69.9907 220.826 70.868 221.423 71.988C222.039 73.0893 222.347 74.34 222.347 75.74ZM219.715 75.208C219.715 74.2373 219.501 73.4067 219.071 72.716C218.642 72.0067 218.054 71.4747 217.307 71.12C216.579 70.7467 215.767 70.56 214.871 70.56C213.583 70.56 212.482 70.9707 211.567 71.792C210.671 72.6133 210.158 73.752 210.027 75.208H219.715ZM228.259 63.28V84H225.711V63.28H228.259ZM235.149 63.28V84H232.601V63.28H235.149ZM253.492 75.74C253.492 76.2253 253.464 76.7387 253.408 77.28H241.144C241.237 78.792 241.751 79.9773 242.684 80.836C243.636 81.676 244.784 82.096 246.128 82.096C247.229 82.096 248.144 81.844 248.872 81.34C249.619 80.8173 250.141 80.1267 250.44 79.268H253.184C252.773 80.7427 251.952 81.9467 250.72 82.88C249.488 83.7947 247.957 84.252 246.128 84.252C244.672 84.252 243.365 83.9253 242.208 83.272C241.069 82.6187 240.173 81.6947 239.52 80.5C238.867 79.2867 238.54 77.8867 238.54 76.3C238.54 74.7133 238.857 73.3227 239.492 72.128C240.127 70.9333 241.013 70.0187 242.152 69.384C243.309 68.7307 244.635 68.404 246.128 68.404C247.584 68.404 248.872 68.7213 249.992 69.356C251.112 69.9907 251.971 70.868 252.568 71.988C253.184 73.0893 253.492 74.34 253.492 75.74ZM250.86 75.208C250.86 74.2373 250.645 73.4067 250.216 72.716C249.787 72.0067 249.199 71.4747 248.452 71.12C247.724 70.7467 246.912 70.56 246.016 70.56C244.728 70.56 243.627 70.9707 242.712 71.792C241.816 72.6133 241.303 73.752 241.172 75.208H250.86ZM264.863 84L261.223 78.288L257.723 84H255.063L260.019 76.384L255.063 68.656H257.947L261.587 74.34L265.059 68.656H267.719L262.791 76.244L267.747 84H264.863ZM271.066 84.168C270.58 84.168 270.17 84 269.834 83.664C269.498 83.328 269.33 82.9173 269.33 82.432C269.33 81.9467 269.498 81.536 269.834 81.2C270.17 80.864 270.58 80.696 271.066 80.696C271.532 80.696 271.924 80.864 272.242 81.2C272.578 81.536 272.746 81.9467 272.746 82.432C272.746 82.9173 272.578 83.328 272.242 83.664C271.924 84 271.532 84.168 271.066 84.168ZM275.181 76.3C275.181 74.7133 275.498 73.332 276.133 72.156C276.767 70.9613 277.645 70.0373 278.765 69.384C279.903 68.7307 281.201 68.404 282.657 68.404C284.542 68.404 286.091 68.8613 287.305 69.776C288.537 70.6907 289.349 71.96 289.741 73.584H286.997C286.735 72.6507 286.222 71.9133 285.457 71.372C284.71 70.8307 283.777 70.56 282.657 70.56C281.201 70.56 280.025 71.064 279.129 72.072C278.233 73.0613 277.785 74.4707 277.785 76.3C277.785 78.148 278.233 79.576 279.129 80.584C280.025 81.592 281.201 82.096 282.657 82.096C283.777 82.096 284.71 81.8347 285.457 81.312C286.203 80.7893 286.717 80.0427 286.997 79.072H289.741C289.33 80.64 288.509 81.9 287.277 82.852C286.045 83.7853 284.505 84.252 282.657 84.252C281.201 84.252 279.903 83.9253 278.765 83.272C277.645 82.6187 276.767 81.6947 276.133 80.5C275.498 79.3053 275.181 77.9053 275.181 76.3ZM299.832 84.252C298.395 84.252 297.088 83.9253 295.912 83.272C294.755 82.6187 293.84 81.6947 293.168 80.5C292.515 79.2867 292.188 77.8867 292.188 76.3C292.188 74.732 292.524 73.3507 293.196 72.156C293.887 70.9427 294.82 70.0187 295.996 69.384C297.172 68.7307 298.488 68.404 299.944 68.404C301.4 68.404 302.716 68.7307 303.892 69.384C305.068 70.0187 305.992 70.9333 306.664 72.128C307.355 73.3227 307.7 74.7133 307.7 76.3C307.7 77.8867 307.346 79.2867 306.636 80.5C305.946 81.6947 305.003 82.6187 303.808 83.272C302.614 83.9253 301.288 84.252 299.832 84.252ZM299.832 82.012C300.747 82.012 301.606 81.7973 302.408 81.368C303.211 80.9387 303.855 80.2947 304.34 79.436C304.844 78.5773 305.096 77.532 305.096 76.3C305.096 75.068 304.854 74.0227 304.368 73.164C303.883 72.3053 303.248 71.6707 302.464 71.26C301.68 70.8307 300.831 70.616 299.916 70.616C298.983 70.616 298.124 70.8307 297.34 71.26C296.575 71.6707 295.959 72.3053 295.492 73.164C295.026 74.0227 294.792 75.068 294.792 76.3C294.792 77.5507 295.016 78.6053 295.464 79.464C295.931 80.3227 296.547 80.9667 297.312 81.396C298.078 81.8067 298.918 82.012 299.832 82.012ZM329.503 68.376C330.697 68.376 331.761 68.628 332.695 69.132C333.628 69.6173 334.365 70.3547 334.907 71.344C335.448 72.3333 335.719 73.5373 335.719 74.956V84H333.199V75.32C333.199 73.7893 332.816 72.6227 332.051 71.82C331.304 70.9987 330.287 70.588 328.999 70.588C327.673 70.588 326.619 71.0173 325.835 71.876C325.051 72.716 324.659 73.9387 324.659 75.544V84H322.139V75.32C322.139 73.7893 321.756 72.6227 320.991 71.82C320.244 70.9987 319.227 70.588 317.939 70.588C316.613 70.588 315.559 71.0173 314.775 71.876C313.991 72.716 313.599 73.9387 313.599 75.544V84H311.051V68.656H313.599V70.868C314.103 70.0653 314.775 69.4493 315.615 69.02C316.473 68.5907 317.416 68.376 318.443 68.376C319.731 68.376 320.869 68.6653 321.859 69.244C322.848 69.8227 323.585 70.672 324.071 71.792C324.5 70.7093 325.209 69.8693 326.199 69.272C327.188 68.6747 328.289 68.376 329.503 68.376Z" fill="#1B457D"/>
<rect x="0.5" y="54.5" width="35" height="35" rx="9.5" fill="white" stroke="#D6D6D6"/>
<path fill-rule="evenodd" clip-rule="evenodd" d="M12.0938 66.9375C11.6278 66.9375 11.25 67.3153 11.25 67.7812V76.2188C11.25 76.6847 11.6278 77.0625 12.0938 77.0625H23.9062C24.3722 77.0625 24.75 76.6847 24.75 76.2188V67.7812C24.75 67.3153 24.3722 66.9375 23.9062 66.9375H12.0938ZM10.125 67.7812C10.125 66.6939 11.0064 65.8125 12.0938 65.8125H23.9062C24.9936 65.8125 25.875 66.6939 25.875 67.7812V76.2188C25.875 77.3061 24.9936 78.1875 23.9062 78.1875H12.0938C11.0064 78.1875 10.125 77.3061 10.125 76.2188V67.7812Z" fill="#24A17F" stroke="#1D9574" stroke-linecap="round" stroke-linejoin="round"/>
<path fill-rule="evenodd" clip-rule="evenodd" d="M12.4935 68.2797C12.6842 68.0345 13.0376 67.9903 13.2828 68.181L18 71.8499L22.7172 68.181C22.9624 67.9903 23.3158 68.0345 23.5065 68.2797C23.6972 68.5249 23.6531 68.8783 23.4078 69.069L18.3453 73.0065C18.1422 73.1645 17.8578 73.1645 17.6547 73.0065L12.5922 69.069C12.3469 68.8783 12.3028 68.5249 12.4935 68.2797Z" fill="#23A07E" stroke="#1D9574" stroke-linecap="round" stroke-linejoin="round"/>
<path d="M1.184 11.832C1.184 9.656 1.68533 7.704 2.688 5.976C3.712 4.248 5.088 2.904 6.816 1.944C8.56533 0.962665 10.4747 0.471998 12.544 0.471998C14.912 0.471998 17.0133 1.05866 18.848 2.232C20.704 3.384 22.048 5.02667 22.88 7.16H18.496C17.92 5.98667 17.12 5.112 16.096 4.536C15.072 3.96 13.888 3.672 12.544 3.672C11.072 3.672 9.76 4.00267 8.608 4.664C7.456 5.32533 6.54933 6.27467 5.888 7.512C5.248 8.74933 4.928 10.1893 4.928 11.832C4.928 13.4747 5.248 14.9147 5.888 16.152C6.54933 17.3893 7.456 18.3493 8.608 19.032C9.76 19.6933 11.072 20.024 12.544 20.024C13.888 20.024 15.072 19.736 16.096 19.16C17.12 18.584 17.92 17.7093 18.496 16.536H22.88C22.048 18.6693 20.704 20.312 18.848 21.464C17.0133 22.616 14.912 23.192 12.544 23.192C10.4533 23.192 8.544 22.712 6.816 21.752C5.088 20.7707 3.712 19.416 2.688 17.688C1.68533 15.96 1.184 14.008 1.184 11.832ZM34.798 23.288C33.134 23.288 31.63 22.9147 30.286 22.168C28.942 21.4 27.886 20.3333 27.118 18.968C26.35 17.5813 25.966 15.9813 25.966 14.168C25.966 12.376 26.3607 10.7867 27.15 9.4C27.9393 8.01333 29.0167 6.94667 30.382 6.2C31.7473 5.45333 33.2727 5.08 34.958 5.08C36.6433 5.08 38.1687 5.45333 39.534 6.2C40.8993 6.94667 41.9767 8.01333 42.766 9.4C43.5553 10.7867 43.95 12.376 43.95 14.168C43.95 15.96 43.5447 17.5493 42.734 18.936C41.9233 20.3227 40.814 21.4 39.406 22.168C38.0193 22.9147 36.4833 23.288 34.798 23.288ZM34.798 20.12C35.7367 20.12 36.6113 19.896 37.422 19.448C38.254 19 38.926 18.328 39.438 17.432C39.95 16.536 40.206 15.448 40.206 14.168C40.206 12.888 39.9607 11.8107 39.47 10.936C38.9793 10.04 38.3287 9.368 37.518 8.92C36.7073 8.472 35.8327 8.248 34.894 8.248C33.9553 8.248 33.0807 8.472 32.27 8.92C31.4807 9.368 30.8513 10.04 30.382 10.936C29.9127 11.8107 29.678 12.888 29.678 14.168C29.678 16.0667 30.158 17.5387 31.118 18.584C32.0993 19.608 33.326 20.12 34.798 20.12ZM56.4523 5.08C57.8389 5.08 59.0763 5.368 60.1643 5.944C61.2736 6.52 62.1376 7.37333 62.7563 8.504C63.3749 9.63467 63.6843 11 63.6843 12.6V23H60.0683V13.144C60.0683 11.5653 59.6736 10.36 58.8843 9.528C58.0949 8.67467 57.0176 8.248 55.6523 8.248C54.2869 8.248 53.1989 8.67467 52.3883 9.528C51.5989 10.36 51.2043 11.5653 51.2043 13.144V23H47.5563V5.368H51.2043V7.384C51.8016 6.65867 52.5589 6.09333 53.4763 5.688C54.4149 5.28267 55.4069 5.08 56.4523 5.08ZM72.5935 8.344V18.104C72.5935 18.7653 72.7428 19.2453 73.0415 19.544C73.3615 19.8213 73.8948 19.96 74.6415 19.96H76.8815V23H74.0015C72.3588 23 71.1002 22.616 70.2255 21.848C69.3508 21.08 68.9135 19.832 68.9135 18.104V8.344H66.8335V5.368H68.9135V0.983999H72.5935V5.368H76.8815V8.344H72.5935ZM79.0278 14.104C79.0278 12.3333 79.3904 10.7653 80.1158 9.4C80.8624 8.03467 81.8651 6.97867 83.1238 6.232C84.4038 5.464 85.8118 5.08 87.3478 5.08C88.7344 5.08 89.9398 5.35733 90.9638 5.912C92.0091 6.44533 92.8411 7.11733 93.4598 7.928V5.368H97.1398V23H93.4598V20.376C92.8411 21.208 91.9984 21.9013 90.9318 22.456C89.8651 23.0107 88.6491 23.288 87.2838 23.288C85.7691 23.288 84.3824 22.904 83.1238 22.136C81.8651 21.3467 80.8624 20.2587 80.1158 18.872C79.3904 17.464 79.0278 15.8747 79.0278 14.104ZM93.4598 14.168C93.4598 12.952 93.2038 11.896 92.6918 11C92.2011 10.104 91.5504 9.42133 90.7398 8.952C89.9291 8.48267 89.0544 8.248 88.1158 8.248C87.1771 8.248 86.3024 8.48267 85.4918 8.952C84.6811 9.4 84.0198 10.072 83.5078 10.968C83.0171 11.8427 82.7718 12.888 82.7718 14.104C82.7718 15.32 83.0171 16.3867 83.5078 17.304C84.0198 18.2213 84.6811 18.9253 85.4918 19.416C86.3238 19.8853 87.1984 20.12 88.1158 20.12C89.0544 20.12 89.9291 19.8853 90.7398 19.416C91.5504 18.9467 92.2011 18.264 92.6918 17.368C93.2038 16.4507 93.4598 15.384 93.4598 14.168ZM100.715 14.168C100.715 12.3547 101.078 10.7653 101.803 9.4C102.55 8.01333 103.574 6.94667 104.875 6.2C106.177 5.45333 107.67 5.08 109.355 5.08C111.489 5.08 113.249 5.592 114.635 6.616C116.043 7.61867 116.993 9.05867 117.483 10.936H113.547C113.227 10.0613 112.715 9.37867 112.011 8.888C111.307 8.39733 110.422 8.152 109.355 8.152C107.862 8.152 106.667 8.68533 105.771 9.752C104.897 10.7973 104.459 12.2693 104.459 14.168C104.459 16.0667 104.897 17.5493 105.771 18.616C106.667 19.6827 107.862 20.216 109.355 20.216C111.467 20.216 112.865 19.288 113.547 17.432H117.483C116.971 19.224 116.011 20.6533 114.603 21.72C113.195 22.7653 111.446 23.288 109.355 23.288C107.67 23.288 106.177 22.9147 104.875 22.168C103.574 21.4 102.55 20.3333 101.803 18.968C101.078 17.5813 100.715 15.9813 100.715 14.168ZM125.375 8.344V18.104C125.375 18.7653 125.524 19.2453 125.823 19.544C126.143 19.8213 126.676 19.96 127.423 19.96H129.663V23H126.783C125.14 23 123.881 22.616 123.007 21.848C122.132 21.08 121.695 19.832 121.695 18.104V8.344H119.615V5.368H121.695V0.983999H125.375V5.368H129.663V8.344H125.375ZM157.306 5.368V23H153.658V20.92C153.082 21.6453 152.324 22.2213 151.386 22.648C150.468 23.0533 149.487 23.256 148.442 23.256C147.055 23.256 145.807 22.968 144.698 22.392C143.61 21.816 142.746 20.9627 142.106 19.832C141.487 18.7013 141.178 17.336 141.178 15.736V5.368H144.794V15.192C144.794 16.7707 145.188 17.9867 145.978 18.84C146.767 19.672 147.844 20.088 149.21 20.088C150.575 20.088 151.652 19.672 152.442 18.84C153.252 17.9867 153.658 16.7707 153.658 15.192V5.368H157.306ZM168.519 23.288C167.132 23.288 165.884 23.0427 164.775 22.552C163.687 22.04 162.823 21.3573 162.183 20.504C161.543 19.6293 161.201 18.6587 161.159 17.592H164.935C164.999 18.3387 165.351 18.968 165.991 19.48C166.652 19.9707 167.473 20.216 168.455 20.216C169.479 20.216 170.268 20.024 170.823 19.64C171.399 19.2347 171.687 18.7227 171.687 18.104C171.687 17.4427 171.367 16.952 170.727 16.632C170.108 16.312 169.116 15.96 167.751 15.576C166.428 15.2133 165.351 14.8613 164.519 14.52C163.687 14.1787 162.961 13.656 162.343 12.952C161.745 12.248 161.447 11.32 161.447 10.168C161.447 9.22933 161.724 8.376 162.279 7.608C162.833 6.81867 163.623 6.2 164.647 5.752C165.692 5.304 166.887 5.08 168.231 5.08C170.236 5.08 171.847 5.592 173.063 6.616C174.3 7.61867 174.961 8.99467 175.047 10.744H171.399C171.335 9.95467 171.015 9.32533 170.439 8.856C169.863 8.38667 169.084 8.152 168.103 8.152C167.143 8.152 166.407 8.33333 165.895 8.696C165.383 9.05867 165.127 9.53867 165.127 10.136C165.127 10.6053 165.297 11 165.639 11.32C165.98 11.64 166.396 11.896 166.887 12.088C167.377 12.2587 168.103 12.4827 169.063 12.76C170.343 13.1013 171.388 13.4533 172.199 13.816C173.031 14.1573 173.745 14.6693 174.343 15.352C174.94 16.0347 175.249 16.9413 175.271 18.072C175.271 19.0747 174.993 19.9707 174.439 20.76C173.884 21.5493 173.095 22.168 172.071 22.616C171.068 23.064 169.884 23.288 168.519 23.288Z" fill="white"/>
</svg>
