<svg width="318" height="252" viewBox="0 0 318 252" fill="none" xmlns="http://www.w3.org/2000/svg">
<path d="M19.616 45.032L15.712 40.808C14.752 41.0853 13.696 41.224 12.544 41.224C10.4747 41.224 8.56533 40.744 6.816 39.784C5.088 38.8027 3.712 37.448 2.688 35.72C1.68533 33.9707 1.184 32.008 1.184 29.832C1.184 27.656 1.68533 25.704 2.688 23.976C3.712 22.248 5.088 20.904 6.816 19.944C8.56533 18.9627 10.4747 18.472 12.544 18.472C14.6347 18.472 16.544 18.9627 18.272 19.944C20.0213 20.904 21.3973 22.248 22.4 23.976C23.4027 25.704 23.904 27.656 23.904 29.832C23.904 31.88 23.456 33.736 22.56 35.4C21.6853 37.0427 20.4693 38.3653 18.912 39.368L24.256 45.032H19.616ZM4.928 29.832C4.928 31.4747 5.248 32.9253 5.888 34.184C6.54933 35.4213 7.456 36.3813 8.608 37.064C9.76 37.7253 11.072 38.056 12.544 38.056C14.016 38.056 15.328 37.7253 16.48 37.064C17.632 36.3813 18.528 35.4213 19.168 34.184C19.8293 32.9253 20.16 31.4747 20.16 29.832C20.16 28.1893 19.8293 26.7493 19.168 25.512C18.528 24.2747 17.632 23.3253 16.48 22.664C15.328 22.0027 14.016 21.672 12.544 21.672C11.072 21.672 9.76 22.0027 8.608 22.664C7.456 23.3253 6.54933 24.2747 5.888 25.512C5.248 26.7493 4.928 28.1893 4.928 29.832ZM43.5555 23.368V41H39.9075V38.92C39.3315 39.6453 38.5742 40.2213 37.6355 40.648C36.7182 41.0533 35.7368 41.256 34.6915 41.256C33.3048 41.256 32.0568 40.968 30.9475 40.392C29.8595 39.816 28.9955 38.9627 28.3555 37.832C27.7368 36.7013 27.4275 35.336 27.4275 33.736V23.368H31.0435V33.192C31.0435 34.7707 31.4382 35.9867 32.2275 36.84C33.0168 37.672 34.0942 38.088 35.4595 38.088C36.8248 38.088 37.9022 37.672 38.6915 36.84C39.5022 35.9867 39.9075 34.7707 39.9075 33.192V23.368H43.5555ZM50.2248 21.032C49.5634 21.032 49.0088 20.808 48.5608 20.36C48.1128 19.912 47.8888 19.3573 47.8888 18.696C47.8888 18.0347 48.1128 17.48 48.5608 17.032C49.0088 16.584 49.5634 16.36 50.2248 16.36C50.8648 16.36 51.4088 16.584 51.8568 17.032C52.3048 17.48 52.5288 18.0347 52.5288 18.696C52.5288 19.3573 52.3048 19.912 51.8568 20.36C51.4088 20.808 50.8648 21.032 50.2248 21.032ZM52.0168 23.368V41H48.3688V23.368H52.0168ZM55.5903 32.168C55.5903 30.3547 55.9529 28.7653 56.6783 27.4C57.4249 26.0133 58.4489 24.9467 59.7503 24.2C61.0516 23.4533 62.5449 23.08 64.2303 23.08C66.3636 23.08 68.1236 23.592 69.5103 24.616C70.9183 25.6187 71.8676 27.0587 72.3583 28.936H68.4223C68.1023 28.0613 67.5903 27.3787 66.8863 26.888C66.1823 26.3973 65.2969 26.152 64.2303 26.152C62.7369 26.152 61.5423 26.6853 60.6463 27.752C59.7716 28.7973 59.3343 30.2693 59.3343 32.168C59.3343 34.0667 59.7716 35.5493 60.6463 36.616C61.5423 37.6827 62.7369 38.216 64.2303 38.216C66.3423 38.216 67.7396 37.288 68.4223 35.432H72.3583C71.8463 37.224 70.8863 38.6533 69.4783 39.72C68.0703 40.7653 66.3209 41.288 64.2303 41.288C62.5449 41.288 61.0516 40.9147 59.7503 40.168C58.4489 39.4 57.4249 38.3333 56.6783 36.968C55.9529 35.5813 55.5903 33.9813 55.5903 32.168ZM82.9698 32.2L91.0978 41H86.1698L79.6418 33.416V41H75.9938V17.32H79.6418V31.08L86.0418 23.368H91.0978L82.9698 32.2ZM105.673 38.056H113.193V41H102.025V18.76H105.673V38.056ZM118.1 21.032C117.438 21.032 116.884 20.808 116.436 20.36C115.988 19.912 115.764 19.3573 115.764 18.696C115.764 18.0347 115.988 17.48 116.436 17.032C116.884 16.584 117.438 16.36 118.1 16.36C118.74 16.36 119.284 16.584 119.732 17.032C120.18 17.48 120.404 18.0347 120.404 18.696C120.404 19.3573 120.18 19.912 119.732 20.36C119.284 20.808 118.74 21.032 118.1 21.032ZM119.892 23.368V41H116.244V23.368H119.892ZM133.577 23.08C134.964 23.08 136.201 23.368 137.289 23.944C138.399 24.52 139.263 25.3733 139.881 26.504C140.5 27.6347 140.809 29 140.809 30.6V41H137.193V31.144C137.193 29.5653 136.799 28.36 136.009 27.528C135.22 26.6747 134.143 26.248 132.777 26.248C131.412 26.248 130.324 26.6747 129.513 27.528C128.724 28.36 128.329 29.5653 128.329 31.144V41H124.681V23.368H128.329V25.384C128.927 24.6587 129.684 24.0933 130.601 23.688C131.54 23.2827 132.532 23.08 133.577 23.08ZM152.439 32.2L160.567 41H155.639L149.111 33.416V41H145.463V17.32H149.111V31.08L155.511 23.368H160.567L152.439 32.2ZM169.581 41.288C168.195 41.288 166.947 41.0427 165.837 40.552C164.749 40.04 163.885 39.3573 163.245 38.504C162.605 37.6293 162.264 36.6587 162.221 35.592H165.997C166.061 36.3387 166.413 36.968 167.053 37.48C167.715 37.9707 168.536 38.216 169.517 38.216C170.541 38.216 171.331 38.024 171.885 37.64C172.461 37.2347 172.749 36.7227 172.749 36.104C172.749 35.4427 172.429 34.952 171.789 34.632C171.171 34.312 170.179 33.96 168.813 33.576C167.491 33.2133 166.413 32.8613 165.581 32.52C164.749 32.1787 164.024 31.656 163.405 30.952C162.808 30.248 162.509 29.32 162.509 28.168C162.509 27.2293 162.787 26.376 163.341 25.608C163.896 24.8187 164.685 24.2 165.709 23.752C166.755 23.304 167.949 23.08 169.293 23.08C171.299 23.08 172.909 23.592 174.125 24.616C175.363 25.6187 176.024 26.9947 176.109 28.744H172.461C172.397 27.9547 172.077 27.3253 171.501 26.856C170.925 26.3867 170.147 26.152 169.165 26.152C168.205 26.152 167.469 26.3333 166.957 26.696C166.445 27.0587 166.189 27.5387 166.189 28.136C166.189 28.6053 166.36 29 166.701 29.32C167.043 29.64 167.459 29.896 167.949 30.088C168.44 30.2587 169.165 30.4827 170.125 30.76C171.405 31.1013 172.451 31.4533 173.261 31.816C174.093 32.1573 174.808 32.6693 175.405 33.352C176.003 34.0347 176.312 34.9413 176.333 36.072C176.333 37.0747 176.056 37.9707 175.501 38.76C174.947 39.5493 174.157 40.168 173.133 40.616C172.131 41.064 170.947 41.288 169.581 41.288Z" fill="white"/>
<path d="M21.952 170.624V190H19.404V175.552L12.964 190H11.172L4.704 175.524V190H2.156V170.624H4.9L12.068 186.64L19.236 170.624H21.952ZM25.3212 182.272C25.3212 180.704 25.6385 179.332 26.2732 178.156C26.9079 176.961 27.7759 176.037 28.8772 175.384C29.9972 174.731 31.2385 174.404 32.6012 174.404C33.9452 174.404 35.1119 174.693 36.1012 175.272C37.0905 175.851 37.8279 176.579 38.3132 177.456V174.656H40.8892V190H38.3132V187.144C37.8092 188.04 37.0532 188.787 36.0452 189.384C35.0559 189.963 33.8985 190.252 32.5732 190.252C31.2105 190.252 29.9785 189.916 28.8772 189.244C27.7759 188.572 26.9079 187.629 26.2732 186.416C25.6385 185.203 25.3212 183.821 25.3212 182.272ZM38.3132 182.3C38.3132 181.143 38.0799 180.135 37.6132 179.276C37.1465 178.417 36.5119 177.764 35.7092 177.316C34.9252 176.849 34.0572 176.616 33.1052 176.616C32.1532 176.616 31.2852 176.84 30.5012 177.288C29.7172 177.736 29.0919 178.389 28.6252 179.248C28.1585 180.107 27.9252 181.115 27.9252 182.272C27.9252 183.448 28.1585 184.475 28.6252 185.352C29.0919 186.211 29.7172 186.873 30.5012 187.34C31.2852 187.788 32.1532 188.012 33.1052 188.012C34.0572 188.012 34.9252 187.788 35.7092 187.34C36.5119 186.873 37.1465 186.211 37.6132 185.352C38.0799 184.475 38.3132 183.457 38.3132 182.3ZM47.7431 177.148C48.1911 176.271 48.8257 175.589 49.6471 175.104C50.4871 174.619 51.5044 174.376 52.6991 174.376V177.008H52.0271C49.1711 177.008 47.7431 178.557 47.7431 181.656V190H45.1951V174.656H47.7431V177.148ZM64.2084 190L58.1884 183.224V190H55.6404V169.28H58.1884V181.46L64.0964 174.656H67.6524L60.4284 182.3L67.6804 190H64.2084ZM84.0505 181.74C84.0505 182.225 84.0225 182.739 83.9665 183.28H71.7025C71.7959 184.792 72.3092 185.977 73.2425 186.836C74.1945 187.676 75.3425 188.096 76.6865 188.096C77.7879 188.096 78.7025 187.844 79.4305 187.34C80.1772 186.817 80.6999 186.127 80.9985 185.268H83.7425C83.3319 186.743 82.5105 187.947 81.2785 188.88C80.0465 189.795 78.5159 190.252 76.6865 190.252C75.2305 190.252 73.9239 189.925 72.7665 189.272C71.6279 188.619 70.7319 187.695 70.0785 186.5C69.4252 185.287 69.0985 183.887 69.0985 182.3C69.0985 180.713 69.4159 179.323 70.0505 178.128C70.6852 176.933 71.5719 176.019 72.7105 175.384C73.8679 174.731 75.1932 174.404 76.6865 174.404C78.1425 174.404 79.4305 174.721 80.5505 175.356C81.6705 175.991 82.5292 176.868 83.1265 177.988C83.7425 179.089 84.0505 180.34 84.0505 181.74ZM81.4185 181.208C81.4185 180.237 81.2039 179.407 80.7745 178.716C80.3452 178.007 79.7572 177.475 79.0105 177.12C78.2825 176.747 77.4705 176.56 76.5745 176.56C75.2865 176.56 74.1852 176.971 73.2705 177.792C72.3745 178.613 71.8612 179.752 71.7305 181.208H81.4185ZM90.5218 176.756V185.8C90.5218 186.547 90.6805 187.079 90.9978 187.396C91.3151 187.695 91.8658 187.844 92.6498 187.844H94.5258V190H92.2298C90.8111 190 89.7471 189.673 89.0378 189.02C88.3285 188.367 87.9738 187.293 87.9738 185.8V176.756H85.9858V174.656H87.9738V170.792H90.5218V174.656H94.5258V176.756H90.5218ZM103.045 190.252C101.869 190.252 100.814 190.056 99.881 189.664C98.9477 189.253 98.2104 188.693 97.669 187.984C97.1277 187.256 96.829 186.425 96.773 185.492H99.405C99.4797 186.257 99.8344 186.883 100.469 187.368C101.122 187.853 101.972 188.096 103.017 188.096C103.988 188.096 104.753 187.881 105.313 187.452C105.873 187.023 106.153 186.481 106.153 185.828C106.153 185.156 105.854 184.661 105.257 184.344C104.66 184.008 103.736 183.681 102.485 183.364C101.346 183.065 100.413 182.767 99.685 182.468C98.9757 182.151 98.3597 181.693 97.837 181.096C97.333 180.48 97.081 179.677 97.081 178.688C97.081 177.904 97.3144 177.185 97.781 176.532C98.2477 175.879 98.9104 175.365 99.769 174.992C100.628 174.6 101.608 174.404 102.709 174.404C104.408 174.404 105.78 174.833 106.825 175.692C107.87 176.551 108.43 177.727 108.505 179.22H105.957C105.901 178.417 105.574 177.773 104.977 177.288C104.398 176.803 103.614 176.56 102.625 176.56C101.71 176.56 100.982 176.756 100.441 177.148C99.8997 177.54 99.629 178.053 99.629 178.688C99.629 179.192 99.7877 179.612 100.105 179.948C100.441 180.265 100.852 180.527 101.337 180.732C101.841 180.919 102.532 181.133 103.409 181.376C104.51 181.675 105.406 181.973 106.097 182.272C106.788 182.552 107.376 182.981 107.861 183.56C108.365 184.139 108.626 184.895 108.645 185.828C108.645 186.668 108.412 187.424 107.945 188.096C107.478 188.768 106.816 189.3 105.957 189.692C105.117 190.065 104.146 190.252 103.045 190.252Z" fill="white"/>
<path d="M14.168 125.484V127.556H8.848V145H6.3V127.556H0.952V125.484H14.168ZM19.8524 132.148C20.3004 131.271 20.9351 130.589 21.7564 130.104C22.5964 129.619 23.6138 129.376 24.8084 129.376V132.008H24.1364C21.2804 132.008 19.8524 133.557 19.8524 136.656V145H17.3044V129.656H19.8524V132.148ZM26.7978 137.272C26.7978 135.704 27.1151 134.332 27.7498 133.156C28.3844 131.961 29.2524 131.037 30.3538 130.384C31.4738 129.731 32.7151 129.404 34.0778 129.404C35.4218 129.404 36.5884 129.693 37.5778 130.272C38.5671 130.851 39.3044 131.579 39.7898 132.456V129.656H42.3658V145H39.7898V142.144C39.2858 143.04 38.5298 143.787 37.5218 144.384C36.5324 144.963 35.3751 145.252 34.0498 145.252C32.6871 145.252 31.4551 144.916 30.3538 144.244C29.2524 143.572 28.3844 142.629 27.7498 141.416C27.1151 140.203 26.7978 138.821 26.7978 137.272ZM39.7898 137.3C39.7898 136.143 39.5564 135.135 39.0898 134.276C38.6231 133.417 37.9884 132.764 37.1858 132.316C36.4018 131.849 35.5338 131.616 34.5818 131.616C33.6298 131.616 32.7618 131.84 31.9778 132.288C31.1938 132.736 30.5684 133.389 30.1018 134.248C29.6351 135.107 29.4018 136.115 29.4018 137.272C29.4018 138.448 29.6351 139.475 30.1018 140.352C30.5684 141.211 31.1938 141.873 31.9778 142.34C32.7618 142.788 33.6298 143.012 34.5818 143.012C35.5338 143.012 36.4018 142.788 37.1858 142.34C37.9884 141.873 38.6231 141.211 39.0898 140.352C39.5564 139.475 39.7898 138.457 39.7898 137.3ZM45.7196 137.272C45.7196 135.704 46.037 134.332 46.6716 133.156C47.3063 131.961 48.1743 131.037 49.2756 130.384C50.3956 129.731 51.6463 129.404 53.0276 129.404C54.2223 129.404 55.333 129.684 56.3596 130.244C57.3863 130.785 58.1703 131.504 58.7116 132.4V124.28H61.2876V145H58.7116V142.116C58.2076 143.031 57.461 143.787 56.4716 144.384C55.4823 144.963 54.325 145.252 52.9996 145.252C51.637 145.252 50.3956 144.916 49.2756 144.244C48.1743 143.572 47.3063 142.629 46.6716 141.416C46.037 140.203 45.7196 138.821 45.7196 137.272ZM58.7116 137.3C58.7116 136.143 58.4783 135.135 58.0116 134.276C57.545 133.417 56.9103 132.764 56.1076 132.316C55.3236 131.849 54.4556 131.616 53.5036 131.616C52.5516 131.616 51.6836 131.84 50.8996 132.288C50.1156 132.736 49.4903 133.389 49.0236 134.248C48.557 135.107 48.3236 136.115 48.3236 137.272C48.3236 138.448 48.557 139.475 49.0236 140.352C49.4903 141.211 50.1156 141.873 50.8996 142.34C51.6836 142.788 52.5516 143.012 53.5036 143.012C54.4556 143.012 55.3236 142.788 56.1076 142.34C56.9103 141.873 57.545 141.211 58.0116 140.352C58.4783 139.475 58.7116 138.457 58.7116 137.3ZM79.5935 136.74C79.5935 137.225 79.5655 137.739 79.5095 138.28H67.2455C67.3388 139.792 67.8522 140.977 68.7855 141.836C69.7375 142.676 70.8855 143.096 72.2295 143.096C73.3308 143.096 74.2455 142.844 74.9735 142.34C75.7202 141.817 76.2428 141.127 76.5415 140.268H79.2855C78.8748 141.743 78.0535 142.947 76.8215 143.88C75.5895 144.795 74.0588 145.252 72.2295 145.252C70.7735 145.252 69.4668 144.925 68.3095 144.272C67.1708 143.619 66.2748 142.695 65.6215 141.5C64.9682 140.287 64.6415 138.887 64.6415 137.3C64.6415 135.713 64.9588 134.323 65.5935 133.128C66.2282 131.933 67.1148 131.019 68.2535 130.384C69.4108 129.731 70.7362 129.404 72.2295 129.404C73.6855 129.404 74.9735 129.721 76.0935 130.356C77.2135 130.991 78.0722 131.868 78.6695 132.988C79.2855 134.089 79.5935 135.34 79.5935 136.74ZM76.9615 136.208C76.9615 135.237 76.7468 134.407 76.3175 133.716C75.8882 133.007 75.3002 132.475 74.5535 132.12C73.8255 131.747 73.0135 131.56 72.1175 131.56C70.8295 131.56 69.7282 131.971 68.8135 132.792C67.9175 133.613 67.4042 134.752 67.2735 136.208H76.9615Z" fill="white"/>
<path d="M17.5 101H14.952L4.704 85.46V101H2.156V81.456H4.704L14.952 96.968V81.456H17.5V101ZM32.8755 81.484V83.556H24.3915V90.136H31.2795V92.208H24.3915V101H21.8435V81.484H32.8755ZM47.9649 81.484V83.556H42.6449V101H40.0969V83.556H34.7489V81.484H47.9649Z" fill="white"/>
<path d="M11.928 225.948C12.6373 226.06 13.2813 226.349 13.86 226.816C14.4573 227.283 14.924 227.861 15.26 228.552C15.6147 229.243 15.792 229.98 15.792 230.764C15.792 231.753 15.54 232.649 15.036 233.452C14.532 234.236 13.7947 234.861 12.824 235.328C11.872 235.776 10.7427 236 9.436 236H2.156V216.484H9.156C10.4813 216.484 11.6107 216.708 12.544 217.156C13.4773 217.585 14.1773 218.173 14.644 218.92C15.1107 219.667 15.344 220.507 15.344 221.44C15.344 222.597 15.0267 223.559 14.392 224.324C13.776 225.071 12.9547 225.612 11.928 225.948ZM4.704 224.912H8.988C10.1827 224.912 11.1067 224.632 11.76 224.072C12.4133 223.512 12.74 222.737 12.74 221.748C12.74 220.759 12.4133 219.984 11.76 219.424C11.1067 218.864 10.164 218.584 8.932 218.584H4.704V224.912ZM9.212 233.9C10.4813 233.9 11.4707 233.601 12.18 233.004C12.8893 232.407 13.244 231.576 13.244 230.512C13.244 229.429 12.8707 228.58 12.124 227.964C11.3773 227.329 10.3787 227.012 9.128 227.012H4.704V233.9H9.212ZM32.9359 220.656V236H30.3879V233.732C29.9025 234.516 29.2212 235.132 28.3439 235.58C27.4852 236.009 26.5332 236.224 25.4879 236.224C24.2932 236.224 23.2199 235.981 22.2679 235.496C21.3159 234.992 20.5599 234.245 19.9999 233.256C19.4585 232.267 19.1879 231.063 19.1879 229.644V220.656H21.7079V229.308C21.7079 230.82 22.0905 231.987 22.8559 232.808C23.6212 233.611 24.6665 234.012 25.9919 234.012C27.3545 234.012 28.4279 233.592 29.2119 232.752C29.9959 231.912 30.3879 230.689 30.3879 229.084V220.656H32.9359ZM50.454 220.656L41.214 243.224H38.582L41.606 235.832L35.418 220.656H38.246L43.062 233.088L47.822 220.656H50.454ZM59.5282 226.228C59.5282 224.324 59.9576 222.616 60.8162 221.104C61.6749 219.573 62.8416 218.379 64.3162 217.52C65.8096 216.661 67.4616 216.232 69.2722 216.232C71.4002 216.232 73.2576 216.745 74.8442 217.772C76.4309 218.799 77.5882 220.255 78.3162 222.14H75.2642C74.7229 220.964 73.9389 220.059 72.9122 219.424C71.9042 218.789 70.6909 218.472 69.2722 218.472C67.9096 218.472 66.6869 218.789 65.6042 219.424C64.5216 220.059 63.6722 220.964 63.0562 222.14C62.4402 223.297 62.1322 224.66 62.1322 226.228C62.1322 227.777 62.4402 229.14 63.0562 230.316C63.6722 231.473 64.5216 232.369 65.6042 233.004C66.6869 233.639 67.9096 233.956 69.2722 233.956C70.6909 233.956 71.9042 233.648 72.9122 233.032C73.9389 232.397 74.7229 231.492 75.2642 230.316H78.3162C77.5882 232.183 76.4309 233.629 74.8442 234.656C73.2576 235.664 71.4002 236.168 69.2722 236.168C67.4616 236.168 65.8096 235.748 64.3162 234.908C62.8416 234.049 61.6749 232.864 60.8162 231.352C59.9576 229.84 59.5282 228.132 59.5282 226.228ZM84.6571 223.148C85.1051 222.271 85.7398 221.589 86.5611 221.104C87.4011 220.619 88.4185 220.376 89.6131 220.376V223.008H88.9411C86.0851 223.008 84.6571 224.557 84.6571 227.656V236H82.1091V220.656H84.6571V223.148ZM105.77 220.656L96.5304 243.224H93.8984L96.9224 235.832L90.7344 220.656H93.5624L98.3784 233.088L103.138 220.656H105.77ZM110.88 223.484C111.384 222.607 112.13 221.879 113.12 221.3C114.128 220.703 115.294 220.404 116.62 220.404C117.982 220.404 119.214 220.731 120.316 221.384C121.436 222.037 122.313 222.961 122.948 224.156C123.582 225.332 123.9 226.704 123.9 228.272C123.9 229.821 123.582 231.203 122.948 232.416C122.313 233.629 121.436 234.572 120.316 235.244C119.214 235.916 117.982 236.252 116.62 236.252C115.313 236.252 114.156 235.963 113.148 235.384C112.158 234.787 111.402 234.049 110.88 233.172V243.28H108.332V220.656H110.88V223.484ZM121.296 228.272C121.296 227.115 121.062 226.107 120.596 225.248C120.129 224.389 119.494 223.736 118.692 223.288C117.908 222.84 117.04 222.616 116.088 222.616C115.154 222.616 114.286 222.849 113.484 223.316C112.7 223.764 112.065 224.427 111.58 225.304C111.113 226.163 110.88 227.161 110.88 228.3C110.88 229.457 111.113 230.475 111.58 231.352C112.065 232.211 112.7 232.873 113.484 233.34C114.286 233.788 115.154 234.012 116.088 234.012C117.04 234.012 117.908 233.788 118.692 233.34C119.494 232.873 120.129 232.211 120.596 231.352C121.062 230.475 121.296 229.448 121.296 228.272ZM130.362 222.756V231.8C130.362 232.547 130.52 233.079 130.838 233.396C131.155 233.695 131.706 233.844 132.49 233.844H134.366V236H132.07C130.651 236 129.587 235.673 128.878 235.02C128.168 234.367 127.814 233.293 127.814 231.8V222.756H125.826V220.656H127.814V216.792H130.362V220.656H134.366V222.756H130.362ZM144.145 236.252C142.708 236.252 141.401 235.925 140.225 235.272C139.068 234.619 138.153 233.695 137.481 232.5C136.828 231.287 136.501 229.887 136.501 228.3C136.501 226.732 136.837 225.351 137.509 224.156C138.2 222.943 139.133 222.019 140.309 221.384C141.485 220.731 142.801 220.404 144.257 220.404C145.713 220.404 147.029 220.731 148.205 221.384C149.381 222.019 150.305 222.933 150.977 224.128C151.668 225.323 152.013 226.713 152.013 228.3C152.013 229.887 151.658 231.287 150.949 232.5C150.258 233.695 149.316 234.619 148.121 235.272C146.926 235.925 145.601 236.252 144.145 236.252ZM144.145 234.012C145.06 234.012 145.918 233.797 146.721 233.368C147.524 232.939 148.168 232.295 148.653 231.436C149.157 230.577 149.409 229.532 149.409 228.3C149.409 227.068 149.166 226.023 148.681 225.164C148.196 224.305 147.561 223.671 146.777 223.26C145.993 222.831 145.144 222.616 144.229 222.616C143.296 222.616 142.437 222.831 141.653 223.26C140.888 223.671 140.272 224.305 139.805 225.164C139.338 226.023 139.105 227.068 139.105 228.3C139.105 229.551 139.329 230.605 139.777 231.464C140.244 232.323 140.86 232.967 141.625 233.396C142.39 233.807 143.23 234.012 144.145 234.012Z" fill="white"/>
</svg>
