<svg width="508" height="38" viewBox="0 0 508 38" fill="none" xmlns="http://www.w3.org/2000/svg">
<path d="M31.428 26.956C33.7987 25.052 35.656 23.4933 37 22.28C38.344 21.048 39.4733 19.7693 40.388 18.444C41.3213 17.1 41.788 15.784 41.788 14.496C41.788 13.2827 41.4893 12.3307 40.892 11.64C40.3133 10.9307 39.3707 10.576 38.064 10.576C36.7947 10.576 35.8053 10.9773 35.096 11.78C34.4053 12.564 34.032 13.6187 33.976 14.944H31.512C31.5867 12.8533 32.2213 11.2387 33.416 10.1C34.6107 8.96133 36.1507 8.392 38.036 8.392C39.9587 8.392 41.48 8.924 42.6 9.988C43.7387 11.052 44.308 12.5173 44.308 14.384C44.308 15.9333 43.8413 17.4453 42.908 18.92C41.9933 20.376 40.948 21.664 39.772 22.784C38.596 23.8853 37.0933 25.1733 35.264 26.648H44.896V28.776H31.428V26.956ZM47.8415 18.668C47.8415 15.4573 48.3641 12.956 49.4095 11.164C50.4548 9.35333 52.2841 8.448 54.8975 8.448C57.4921 8.448 59.3121 9.35333 60.3575 11.164C61.4028 12.956 61.9255 15.4573 61.9255 18.668C61.9255 21.9347 61.4028 24.4733 60.3575 26.284C59.3121 28.0947 57.4921 29 54.8975 29C52.2841 29 50.4548 28.0947 49.4095 26.284C48.3641 24.4733 47.8415 21.9347 47.8415 18.668ZM59.4055 18.668C59.4055 17.044 59.2935 15.672 59.0695 14.552C58.8641 13.4133 58.4255 12.4987 57.7535 11.808C57.1001 11.1173 56.1481 10.772 54.8975 10.772C53.6281 10.772 52.6575 11.1173 51.9855 11.808C51.3321 12.4987 50.8935 13.4133 50.6695 14.552C50.4641 15.672 50.3615 17.044 50.3615 18.668C50.3615 20.348 50.4641 21.7573 50.6695 22.896C50.8935 24.0347 51.3321 24.9493 51.9855 25.64C52.6575 26.3307 53.6281 26.676 54.8975 26.676C56.1481 26.676 57.1001 26.3307 57.7535 25.64C58.4255 24.9493 58.8641 24.0347 59.0695 22.896C59.2935 21.7573 59.4055 20.348 59.4055 18.668ZM65.1155 26.956C67.4862 25.052 69.3435 23.4933 70.6875 22.28C72.0315 21.048 73.1608 19.7693 74.0755 18.444C75.0088 17.1 75.4755 15.784 75.4755 14.496C75.4755 13.2827 75.1768 12.3307 74.5795 11.64C74.0008 10.9307 73.0582 10.576 71.7515 10.576C70.4822 10.576 69.4928 10.9773 68.7835 11.78C68.0928 12.564 67.7195 13.6187 67.6635 14.944H65.1995C65.2742 12.8533 65.9088 11.2387 67.1035 10.1C68.2982 8.96133 69.8382 8.392 71.7235 8.392C73.6462 8.392 75.1675 8.924 76.2875 9.988C77.4262 11.052 77.9955 12.5173 77.9955 14.384C77.9955 15.9333 77.5288 17.4453 76.5955 18.92C75.6808 20.376 74.6355 21.664 73.4595 22.784C72.2835 23.8853 70.7808 25.1733 68.9515 26.648H78.5835V28.776H65.1155V26.956ZM80.857 11.08V8.756H86.121V29H83.545V11.08H80.857ZM118.179 9.624V29H115.631V14.552L109.191 29H107.399L100.931 14.524V29H98.3826V9.624H101.127L108.295 25.64L115.463 9.624H118.179ZM121.548 21.272C121.548 19.704 121.865 18.332 122.5 17.156C123.134 15.9613 124.002 15.0373 125.104 14.384C126.224 13.7307 127.465 13.404 128.828 13.404C130.172 13.404 131.338 13.6933 132.328 14.272C133.317 14.8507 134.054 15.5787 134.54 16.456V13.656H137.116V29H134.54V26.144C134.036 27.04 133.28 27.7867 132.272 28.384C131.282 28.9627 130.125 29.252 128.8 29.252C127.437 29.252 126.205 28.916 125.104 28.244C124.002 27.572 123.134 26.6293 122.5 25.416C121.865 24.2027 121.548 22.8213 121.548 21.272ZM134.54 21.3C134.54 20.1427 134.306 19.1347 133.84 18.276C133.373 17.4173 132.738 16.764 131.936 16.316C131.152 15.8493 130.284 15.616 129.332 15.616C128.38 15.616 127.512 15.84 126.728 16.288C125.944 16.736 125.318 17.3893 124.852 18.248C124.385 19.1067 124.152 20.1147 124.152 21.272C124.152 22.448 124.385 23.4747 124.852 24.352C125.318 25.2107 125.944 25.8733 126.728 26.34C127.512 26.788 128.38 27.012 129.332 27.012C130.284 27.012 131.152 26.788 131.936 26.34C132.738 25.8733 133.373 25.2107 133.84 24.352C134.306 23.4747 134.54 22.4573 134.54 21.3ZM143.97 16.148C144.418 15.2707 145.052 14.5893 145.874 14.104C146.714 13.6187 147.731 13.376 148.926 13.376V16.008H148.254C145.398 16.008 143.97 17.5573 143.97 20.656V29H141.422V13.656H143.97V16.148ZM157.579 26.648L162.339 13.656H165.055L159.035 29H156.067L150.047 13.656H152.791L157.579 26.648ZM181.562 20.74C181.562 21.2253 181.534 21.7387 181.478 22.28H169.214C169.308 23.792 169.821 24.9773 170.754 25.836C171.706 26.676 172.854 27.096 174.198 27.096C175.3 27.096 176.214 26.844 176.942 26.34C177.689 25.8173 178.212 25.1267 178.51 24.268H181.254C180.844 25.7427 180.022 26.9467 178.79 27.88C177.558 28.7947 176.028 29.252 174.198 29.252C172.742 29.252 171.436 28.9253 170.278 28.272C169.14 27.6187 168.244 26.6947 167.59 25.5C166.937 24.2867 166.61 22.8867 166.61 21.3C166.61 19.7133 166.928 18.3227 167.562 17.128C168.197 15.9333 169.084 15.0187 170.222 14.384C171.38 13.7307 172.705 13.404 174.198 13.404C175.654 13.404 176.942 13.7213 178.062 14.356C179.182 14.9907 180.041 15.868 180.638 16.988C181.254 18.0893 181.562 19.34 181.562 20.74ZM178.93 20.208C178.93 19.2373 178.716 18.4067 178.286 17.716C177.857 17.0067 177.269 16.4747 176.522 16.12C175.794 15.7467 174.982 15.56 174.086 15.56C172.798 15.56 171.697 15.9707 170.782 16.792C169.886 17.6133 169.373 18.752 169.242 20.208H178.93ZM187.474 8.28V29H184.926V8.28H187.474ZM194.364 8.28V29H191.816V8.28H194.364ZM212.707 20.74C212.707 21.2253 212.679 21.7387 212.623 22.28H200.359C200.452 23.792 200.965 24.9773 201.899 25.836C202.851 26.676 203.999 27.096 205.343 27.096C206.444 27.096 207.359 26.844 208.087 26.34C208.833 25.8173 209.356 25.1267 209.655 24.268H212.399C211.988 25.7427 211.167 26.9467 209.935 27.88C208.703 28.7947 207.172 29.252 205.343 29.252C203.887 29.252 202.58 28.9253 201.423 28.272C200.284 27.6187 199.388 26.6947 198.735 25.5C198.081 24.2867 197.755 22.8867 197.755 21.3C197.755 19.7133 198.072 18.3227 198.707 17.128C199.341 15.9333 200.228 15.0187 201.367 14.384C202.524 13.7307 203.849 13.404 205.343 13.404C206.799 13.404 208.087 13.7213 209.207 14.356C210.327 14.9907 211.185 15.868 211.783 16.988C212.399 18.0893 212.707 19.34 212.707 20.74ZM210.075 20.208C210.075 19.2373 209.86 18.4067 209.431 17.716C209.001 17.0067 208.413 16.4747 207.667 16.12C206.939 15.7467 206.127 15.56 205.231 15.56C203.943 15.56 202.841 15.9707 201.927 16.792C201.031 17.6133 200.517 18.752 200.387 20.208H210.075ZM224.078 29L220.438 23.288L216.938 29H214.278L219.234 21.384L214.278 13.656H217.162L220.802 19.34L224.274 13.656H226.934L222.006 21.244L226.962 29H224.078ZM237.745 29.168C237.26 29.168 236.849 29 236.513 28.664C236.177 28.328 236.009 27.9173 236.009 27.432C236.009 26.9467 236.177 26.536 236.513 26.2C236.849 25.864 237.26 25.696 237.745 25.696C238.212 25.696 238.604 25.864 238.921 26.2C239.257 26.536 239.425 26.9467 239.425 27.432C239.425 27.9173 239.257 28.328 238.921 28.664C238.604 29 238.212 29.168 237.745 29.168ZM261.813 24.66H253.301L251.733 29H249.045L256.101 9.596H259.041L266.069 29H263.381L261.813 24.66ZM261.085 22.588L257.557 12.732L254.029 22.588H261.085ZM271.692 8.28V29H269.144V8.28H271.692ZM278.583 8.28V29H276.035V8.28H278.583ZM300.666 29L296.018 21.02H292.938V29H290.39V9.484H296.69C298.165 9.484 299.406 9.736 300.414 10.24C301.441 10.744 302.206 11.4253 302.71 12.284C303.214 13.1427 303.466 14.1227 303.466 15.224C303.466 16.568 303.074 17.7533 302.29 18.78C301.525 19.8067 300.368 20.488 298.818 20.824L303.718 29H300.666ZM292.938 18.976H296.69C298.072 18.976 299.108 18.64 299.798 17.968C300.489 17.2773 300.834 16.3627 300.834 15.224C300.834 14.0667 300.489 13.1707 299.798 12.536C299.126 11.9013 298.09 11.584 296.69 11.584H292.938V18.976ZM308.742 11.164C308.256 11.164 307.846 10.996 307.51 10.66C307.174 10.324 307.006 9.91333 307.006 9.428C307.006 8.94267 307.174 8.532 307.51 8.196C307.846 7.86 308.256 7.692 308.742 7.692C309.208 7.692 309.6 7.86 309.918 8.196C310.254 8.532 310.422 8.94267 310.422 9.428C310.422 9.91333 310.254 10.324 309.918 10.66C309.6 10.996 309.208 11.164 308.742 11.164ZM309.974 13.656V29H307.426V13.656H309.974ZM320.644 13.404C321.969 13.404 323.127 13.6933 324.116 14.272C325.124 14.8507 325.871 15.5787 326.356 16.456V13.656H328.932V29.336C328.932 30.736 328.633 31.9773 328.036 33.06C327.439 34.1613 326.58 35.02 325.46 35.636C324.359 36.252 323.071 36.56 321.596 36.56C319.58 36.56 317.9 36.084 316.556 35.132C315.212 34.18 314.419 32.8827 314.176 31.24H316.696C316.976 32.1733 317.555 32.92 318.432 33.48C319.309 34.0587 320.364 34.348 321.596 34.348C322.996 34.348 324.135 33.9093 325.012 33.032C325.908 32.1547 326.356 30.9227 326.356 29.336V26.116C325.852 27.012 325.105 27.7587 324.116 28.356C323.127 28.9533 321.969 29.252 320.644 29.252C319.281 29.252 318.04 28.916 316.92 28.244C315.819 27.572 314.951 26.6293 314.316 25.416C313.681 24.2027 313.364 22.8213 313.364 21.272C313.364 19.704 313.681 18.332 314.316 17.156C314.951 15.9613 315.819 15.0373 316.92 14.384C318.04 13.7307 319.281 13.404 320.644 13.404ZM326.356 21.3C326.356 20.1427 326.123 19.1347 325.656 18.276C325.189 17.4173 324.555 16.764 323.752 16.316C322.968 15.8493 322.1 15.616 321.148 15.616C320.196 15.616 319.328 15.84 318.544 16.288C317.76 16.736 317.135 17.3893 316.668 18.248C316.201 19.1067 315.968 20.1147 315.968 21.272C315.968 22.448 316.201 23.4747 316.668 24.352C317.135 25.2107 317.76 25.8733 318.544 26.34C319.328 26.788 320.196 27.012 321.148 27.012C322.1 27.012 322.968 26.788 323.752 26.34C324.555 25.8733 325.189 25.2107 325.656 24.352C326.123 23.4747 326.356 22.4573 326.356 21.3ZM340.854 13.376C342.011 13.376 343.057 13.628 343.99 14.132C344.923 14.6173 345.651 15.3547 346.174 16.344C346.715 17.3333 346.986 18.5373 346.986 19.956V29H344.466V20.32C344.466 18.7893 344.083 17.6227 343.318 16.82C342.553 15.9987 341.507 15.588 340.182 15.588C338.838 15.588 337.765 16.008 336.962 16.848C336.178 17.688 335.786 18.9107 335.786 20.516V29H333.238V8.28H335.786V15.84C336.29 15.056 336.981 14.4493 337.858 14.02C338.754 13.5907 339.753 13.376 340.854 13.376ZM354.256 15.756V24.8C354.256 25.5467 354.415 26.0787 354.732 26.396C355.05 26.6947 355.6 26.844 356.384 26.844H358.26V29H355.964C354.546 29 353.482 28.6733 352.772 28.02C352.063 27.3667 351.708 26.2933 351.708 24.8V15.756H349.72V13.656H351.708V9.792H354.256V13.656H358.26V15.756H354.256ZM366.779 29.252C365.603 29.252 364.549 29.056 363.615 28.664C362.682 28.2533 361.945 27.6933 361.403 26.984C360.862 26.256 360.563 25.4253 360.507 24.492H363.139C363.214 25.2573 363.569 25.8827 364.203 26.368C364.857 26.8533 365.706 27.096 366.751 27.096C367.722 27.096 368.487 26.8813 369.047 26.452C369.607 26.0227 369.887 25.4813 369.887 24.828C369.887 24.156 369.589 23.6613 368.991 23.344C368.394 23.008 367.47 22.6813 366.219 22.364C365.081 22.0653 364.147 21.7667 363.419 21.468C362.71 21.1507 362.094 20.6933 361.571 20.096C361.067 19.48 360.815 18.6773 360.815 17.688C360.815 16.904 361.049 16.1853 361.515 15.532C361.982 14.8787 362.645 14.3653 363.503 13.992C364.362 13.6 365.342 13.404 366.443 13.404C368.142 13.404 369.514 13.8333 370.559 14.692C371.605 15.5507 372.165 16.7267 372.239 18.22H369.691C369.635 17.4173 369.309 16.7733 368.711 16.288C368.133 15.8027 367.349 15.56 366.359 15.56C365.445 15.56 364.717 15.756 364.175 16.148C363.634 16.54 363.363 17.0533 363.363 17.688C363.363 18.192 363.522 18.612 363.839 18.948C364.175 19.2653 364.586 19.5267 365.071 19.732C365.575 19.9187 366.266 20.1333 367.143 20.376C368.245 20.6747 369.141 20.9733 369.831 21.272C370.522 21.552 371.11 21.9813 371.595 22.56C372.099 23.1387 372.361 23.8947 372.379 24.828C372.379 25.668 372.146 26.424 371.679 27.096C371.213 27.768 370.55 28.3 369.691 28.692C368.851 29.0653 367.881 29.252 366.779 29.252ZM393.717 29L389.069 21.02H385.989V29H383.441V9.484H389.741C391.216 9.484 392.457 9.736 393.465 10.24C394.492 10.744 395.257 11.4253 395.761 12.284C396.265 13.1427 396.517 14.1227 396.517 15.224C396.517 16.568 396.125 17.7533 395.341 18.78C394.576 19.8067 393.418 20.488 391.869 20.824L396.769 29H393.717ZM385.989 18.976H389.741C391.122 18.976 392.158 18.64 392.849 17.968C393.54 17.2773 393.885 16.3627 393.885 15.224C393.885 14.0667 393.54 13.1707 392.849 12.536C392.177 11.9013 391.141 11.584 389.741 11.584H385.989V18.976ZM414.476 20.74C414.476 21.2253 414.448 21.7387 414.392 22.28H402.128C402.222 23.792 402.735 24.9773 403.668 25.836C404.62 26.676 405.768 27.096 407.112 27.096C408.214 27.096 409.128 26.844 409.856 26.34C410.603 25.8173 411.126 25.1267 411.424 24.268H414.168C413.758 25.7427 412.936 26.9467 411.704 27.88C410.472 28.7947 408.942 29.252 407.112 29.252C405.656 29.252 404.35 28.9253 403.192 28.272C402.054 27.6187 401.158 26.6947 400.504 25.5C399.851 24.2867 399.524 22.8867 399.524 21.3C399.524 19.7133 399.842 18.3227 400.476 17.128C401.111 15.9333 401.998 15.0187 403.136 14.384C404.294 13.7307 405.619 13.404 407.112 13.404C408.568 13.404 409.856 13.7213 410.976 14.356C412.096 14.9907 412.955 15.868 413.552 16.988C414.168 18.0893 414.476 19.34 414.476 20.74ZM411.844 20.208C411.844 19.2373 411.63 18.4067 411.2 17.716C410.771 17.0067 410.183 16.4747 409.436 16.12C408.708 15.7467 407.896 15.56 407 15.56C405.712 15.56 404.611 15.9707 403.696 16.792C402.8 17.6133 402.287 18.752 402.156 20.208H411.844ZM423.272 29.252C422.096 29.252 421.041 29.056 420.108 28.664C419.174 28.2533 418.437 27.6933 417.896 26.984C417.354 26.256 417.056 25.4253 417 24.492H419.632C419.706 25.2573 420.061 25.8827 420.696 26.368C421.349 26.8533 422.198 27.096 423.244 27.096C424.214 27.096 424.98 26.8813 425.54 26.452C426.1 26.0227 426.38 25.4813 426.38 24.828C426.38 24.156 426.081 23.6613 425.484 23.344C424.886 23.008 423.962 22.6813 422.712 22.364C421.573 22.0653 420.64 21.7667 419.912 21.468C419.202 21.1507 418.586 20.6933 418.064 20.096C417.56 19.48 417.308 18.6773 417.308 17.688C417.308 16.904 417.541 16.1853 418.008 15.532C418.474 14.8787 419.137 14.3653 419.996 13.992C420.854 13.6 421.834 13.404 422.936 13.404C424.634 13.404 426.006 13.8333 427.052 14.692C428.097 15.5507 428.657 16.7267 428.732 18.22H426.184C426.128 17.4173 425.801 16.7733 425.204 16.288C424.625 15.8027 423.841 15.56 422.852 15.56C421.937 15.56 421.209 15.756 420.668 16.148C420.126 16.54 419.856 17.0533 419.856 17.688C419.856 18.192 420.014 18.612 420.332 18.948C420.668 19.2653 421.078 19.5267 421.564 19.732C422.068 19.9187 422.758 20.1333 423.636 20.376C424.737 20.6747 425.633 20.9733 426.324 21.272C427.014 21.552 427.602 21.9813 428.088 22.56C428.592 23.1387 428.853 23.8947 428.872 24.828C428.872 25.668 428.638 26.424 428.172 27.096C427.705 27.768 427.042 28.3 426.184 28.692C425.344 29.0653 424.373 29.252 423.272 29.252ZM446.469 20.74C446.469 21.2253 446.441 21.7387 446.385 22.28H434.121C434.214 23.792 434.727 24.9773 435.661 25.836C436.613 26.676 437.761 27.096 439.105 27.096C440.206 27.096 441.121 26.844 441.849 26.34C442.595 25.8173 443.118 25.1267 443.417 24.268H446.161C445.75 25.7427 444.929 26.9467 443.697 27.88C442.465 28.7947 440.934 29.252 439.105 29.252C437.649 29.252 436.342 28.9253 435.185 28.272C434.046 27.6187 433.15 26.6947 432.497 25.5C431.843 24.2867 431.517 22.8867 431.517 21.3C431.517 19.7133 431.834 18.3227 432.469 17.128C433.103 15.9333 433.99 15.0187 435.129 14.384C436.286 13.7307 437.611 13.404 439.105 13.404C440.561 13.404 441.849 13.7213 442.969 14.356C444.089 14.9907 444.947 15.868 445.545 16.988C446.161 18.0893 446.469 19.34 446.469 20.74ZM443.837 20.208C443.837 19.2373 443.622 18.4067 443.193 17.716C442.763 17.0067 442.175 16.4747 441.429 16.12C440.701 15.7467 439.889 15.56 438.993 15.56C437.705 15.56 436.603 15.9707 435.689 16.792C434.793 17.6133 434.279 18.752 434.149 20.208H443.837ZM452.38 16.148C452.828 15.2707 453.462 14.5893 454.284 14.104C455.124 13.6187 456.141 13.376 457.336 13.376V16.008H456.664C453.808 16.008 452.38 17.5573 452.38 20.656V29H449.832V13.656H452.38V16.148ZM465.989 26.648L470.749 13.656H473.465L467.445 29H464.477L458.457 13.656H461.201L465.989 26.648ZM489.972 20.74C489.972 21.2253 489.944 21.7387 489.888 22.28H477.624C477.718 23.792 478.231 24.9773 479.164 25.836C480.116 26.676 481.264 27.096 482.608 27.096C483.71 27.096 484.624 26.844 485.352 26.34C486.099 25.8173 486.622 25.1267 486.92 24.268H489.664C489.254 25.7427 488.432 26.9467 487.2 27.88C485.968 28.7947 484.438 29.252 482.608 29.252C481.152 29.252 479.846 28.9253 478.688 28.272C477.55 27.6187 476.654 26.6947 476 25.5C475.347 24.2867 475.02 22.8867 475.02 21.3C475.02 19.7133 475.338 18.3227 475.972 17.128C476.607 15.9333 477.494 15.0187 478.632 14.384C479.79 13.7307 481.115 13.404 482.608 13.404C484.064 13.404 485.352 13.7213 486.472 14.356C487.592 14.9907 488.451 15.868 489.048 16.988C489.664 18.0893 489.972 19.34 489.972 20.74ZM487.34 20.208C487.34 19.2373 487.126 18.4067 486.696 17.716C486.267 17.0067 485.679 16.4747 484.932 16.12C484.204 15.7467 483.392 15.56 482.496 15.56C481.208 15.56 480.107 15.9707 479.192 16.792C478.296 17.6133 477.783 18.752 477.652 20.208H487.34ZM492.384 21.272C492.384 19.704 492.701 18.332 493.336 17.156C493.97 15.9613 494.838 15.0373 495.94 14.384C497.06 13.7307 498.31 13.404 499.692 13.404C500.886 13.404 501.997 13.684 503.024 14.244C504.05 14.7853 504.834 15.504 505.376 16.4V8.28H507.952V29H505.376V26.116C504.872 27.0307 504.125 27.7867 503.136 28.384C502.146 28.9627 500.989 29.252 499.664 29.252C498.301 29.252 497.06 28.916 495.94 28.244C494.838 27.572 493.97 26.6293 493.336 25.416C492.701 24.2027 492.384 22.8213 492.384 21.272ZM505.376 21.3C505.376 20.1427 505.142 19.1347 504.676 18.276C504.209 17.4173 503.574 16.764 502.772 16.316C501.988 15.8493 501.12 15.616 500.168 15.616C499.216 15.616 498.348 15.84 497.564 16.288C496.78 16.736 496.154 17.3893 495.688 18.248C495.221 19.1067 494.988 20.1147 494.988 21.272C494.988 22.448 495.221 23.4747 495.688 24.352C496.154 25.2107 496.78 25.8733 497.564 26.34C498.348 26.788 499.216 27.012 500.168 27.012C501.12 27.012 501.988 26.788 502.772 26.34C503.574 25.8733 504.209 25.2107 504.676 24.352C505.142 23.4747 505.376 22.4573 505.376 21.3Z" fill="white"/>
<circle cx="11" cy="18" r="10" fill="#2EAE8B" stroke="white" stroke-width="2"/>
<path d="M5.86 18.5C5.86 17.3667 6.08667 16.38 6.54 15.54C6.99333 14.6867 7.62 14.0267 8.42 13.56C9.23333 13.0933 10.16 12.86 11.2 12.86C12.5467 12.86 13.6533 13.1867 14.52 13.84C15.4 14.4933 15.98 15.4 16.26 16.56H14.3C14.1133 15.8933 13.7467 15.3667 13.2 14.98C12.6667 14.5933 12 14.4 11.2 14.4C10.16 14.4 9.32 14.76 8.68 15.48C8.04 16.1867 7.72 17.1933 7.72 18.5C7.72 19.82 8.04 20.84 8.68 21.56C9.32 22.28 10.16 22.64 11.2 22.64C12 22.64 12.6667 22.4533 13.2 22.08C13.7333 21.7067 14.1 21.1733 14.3 20.48H16.26C15.9667 21.6 15.38 22.5 14.5 23.18C13.62 23.8467 12.52 24.18 11.2 24.18C10.16 24.18 9.23333 23.9467 8.42 23.48C7.62 23.0133 6.99333 22.3533 6.54 21.5C6.08667 20.6467 5.86 19.6467 5.86 18.5Z" fill="white"/>
</svg>
