<svg width="535" height="109" viewBox="0 0 535 109" fill="none" xmlns="http://www.w3.org/2000/svg">
<path d="M29.35 4.6V12.45H19.8V40H10V12.45H0.55V4.6H29.35ZM51.3328 11.7C54.5661 11.7 57.0995 12.7833 58.9328 14.95C60.7661 17.0833 61.6828 20 61.6828 23.7V40H51.9328V24.95C51.9328 23.3167 51.4995 22.05 50.6328 21.15C49.7995 20.2167 48.6661 19.75 47.2328 19.75C45.7661 19.75 44.5995 20.2333 43.7328 21.2C42.8661 22.1333 42.4328 23.4333 42.4328 25.1V40H32.5828V3H42.4328V16.65C43.2328 15.15 44.3995 13.95 45.9328 13.05C47.4661 12.15 49.2661 11.7 51.3328 11.7ZM93.859 25.45C93.859 26.15 93.7757 26.9167 93.609 27.75H75.059C75.2257 30.9167 76.609 32.5 79.209 32.5C80.1757 32.5 80.9757 32.2667 81.609 31.8C82.2423 31.3333 82.6757 30.7167 82.909 29.95H93.309C92.9423 31.9167 92.1257 33.7 90.859 35.3C89.5923 36.8667 87.9923 38.1 86.059 39C84.1257 39.9 82.009 40.35 79.709 40.35C76.909 40.35 74.4257 39.7833 72.259 38.65C70.1257 37.4833 68.459 35.8167 67.259 33.65C66.059 31.45 65.459 28.8833 65.459 25.95C65.459 23.0167 66.059 20.4667 67.259 18.3C68.459 16.1333 70.1423 14.4833 72.309 13.35C74.4757 12.1833 76.9423 11.6 79.709 11.6C82.509 11.6 84.9757 12.1667 87.109 13.3C89.2423 14.4333 90.8923 16.05 92.059 18.15C93.259 20.25 93.859 22.6833 93.859 25.45ZM83.859 23.65C83.8923 22.2167 83.509 21.1333 82.709 20.4C81.909 19.6667 80.909 19.3 79.709 19.3C78.409 19.3 77.3423 19.6667 76.509 20.4C75.709 21.1333 75.2423 22.2167 75.109 23.65H83.859ZM116.896 4.6V40H107.046V4.6H116.896ZM141.079 11.7C144.312 11.7 146.846 12.7833 148.679 14.95C150.512 17.0833 151.429 20 151.429 23.7V40H141.679V24.95C141.679 23.3167 141.246 22.05 140.379 21.15C139.546 20.2167 138.412 19.75 136.979 19.75C135.512 19.75 134.346 20.2333 133.479 21.2C132.612 22.1333 132.179 23.4333 132.179 25.1V40H122.329V11.95H132.179V16.65C132.979 15.15 134.146 13.95 135.679 13.05C137.212 12.15 139.012 11.7 141.079 11.7ZM173.355 31.6V40H169.305C165.872 40 163.188 39.15 161.255 37.45C159.322 35.75 158.355 32.9333 158.355 29V20.15H154.755V11.95H158.355V5.15H168.205V11.95H173.255V20.15H168.205V29.2C168.205 30.0667 168.388 30.6833 168.755 31.05C169.155 31.4167 169.805 31.6 170.705 31.6H173.355ZM204.796 25.45C204.796 26.15 204.713 26.9167 204.546 27.75H185.996C186.163 30.9167 187.546 32.5 190.146 32.5C191.113 32.5 191.913 32.2667 192.546 31.8C193.18 31.3333 193.613 30.7167 193.846 29.95H204.246C203.88 31.9167 203.063 33.7 201.796 35.3C200.53 36.8667 198.93 38.1 196.996 39C195.063 39.9 192.946 40.35 190.646 40.35C187.846 40.35 185.363 39.7833 183.196 38.65C181.063 37.4833 179.396 35.8167 178.196 33.65C176.996 31.45 176.396 28.8833 176.396 25.95C176.396 23.0167 176.996 20.4667 178.196 18.3C179.396 16.1333 181.08 14.4833 183.246 13.35C185.413 12.1833 187.88 11.6 190.646 11.6C193.446 11.6 195.913 12.1667 198.046 13.3C200.18 14.4333 201.83 16.05 202.996 18.15C204.196 20.25 204.796 22.6833 204.796 25.45ZM194.796 23.65C194.83 22.2167 194.446 21.1333 193.646 20.4C192.846 19.6667 191.846 19.3 190.646 19.3C189.346 19.3 188.28 19.6667 187.446 20.4C186.646 21.1333 186.18 22.2167 186.046 23.65H194.796ZM218.605 17.2C219.705 15.5333 221.088 14.2 222.755 13.2C224.421 12.2 226.188 11.7 228.055 11.7V22.2H225.205C223.005 22.2 221.355 22.6333 220.255 23.5C219.155 24.3333 218.605 25.8 218.605 27.9V40H208.755V11.95H218.605V17.2ZM250.063 11.7C253.297 11.7 255.83 12.7833 257.663 14.95C259.497 17.0833 260.413 20 260.413 23.7V40H250.663V24.95C250.663 23.3167 250.23 22.05 249.363 21.15C248.53 20.2167 247.397 19.75 245.963 19.75C244.497 19.75 243.33 20.2333 242.463 21.2C241.597 22.1333 241.163 23.4333 241.163 25.1V40H231.313V11.95H241.163V16.65C241.963 15.15 243.13 13.95 244.663 13.05C246.197 12.15 247.997 11.7 250.063 11.7ZM292.589 25.45C292.589 26.15 292.506 26.9167 292.339 27.75H273.789C273.956 30.9167 275.339 32.5 277.939 32.5C278.906 32.5 279.706 32.2667 280.339 31.8C280.973 31.3333 281.406 30.7167 281.639 29.95H292.039C291.673 31.9167 290.856 33.7 289.589 35.3C288.323 36.8667 286.723 38.1 284.789 39C282.856 39.9 280.739 40.35 278.439 40.35C275.639 40.35 273.156 39.7833 270.989 38.65C268.856 37.4833 267.189 35.8167 265.989 33.65C264.789 31.45 264.189 28.8833 264.189 25.95C264.189 23.0167 264.789 20.4667 265.989 18.3C267.189 16.1333 268.873 14.4833 271.039 13.35C273.206 12.1833 275.673 11.6 278.439 11.6C281.239 11.6 283.706 12.1667 285.839 13.3C287.973 14.4333 289.623 16.05 290.789 18.15C291.989 20.25 292.589 22.6833 292.589 25.45ZM282.589 23.65C282.623 22.2167 282.239 21.1333 281.439 20.4C280.639 19.6667 279.639 19.3 278.439 19.3C277.139 19.3 276.073 19.6667 275.239 20.4C274.439 21.1333 273.973 22.2167 273.839 23.65H282.589ZM313.248 31.6V40H309.198C305.764 40 303.081 39.15 301.148 37.45C299.214 35.75 298.248 32.9333 298.248 29V20.15H294.648V11.95H298.248V5.15H308.098V11.95H313.148V20.15H308.098V29.2C308.098 30.0667 308.281 30.6833 308.648 31.05C309.048 31.4167 309.698 31.6 310.598 31.6H313.248ZM340.218 11.6C343.018 11.6 345.518 12.1833 347.718 13.35C349.951 14.4833 351.701 16.15 352.968 18.35C354.234 20.5167 354.868 23.05 354.868 25.95C354.868 28.8833 354.234 31.4333 352.968 33.6C351.701 35.7667 349.951 37.4333 347.718 38.6C345.518 39.7667 343.018 40.35 340.218 40.35C337.418 40.35 334.901 39.7667 332.668 38.6C330.434 37.4333 328.684 35.7667 327.418 33.6C326.151 31.4333 325.518 28.8833 325.518 25.95C325.518 23.0167 326.151 20.4667 327.418 18.3C328.684 16.1333 330.434 14.4833 332.668 13.35C334.901 12.1833 337.418 11.6 340.218 11.6ZM340.218 20.1C338.851 20.1 337.718 20.6 336.818 21.6C335.918 22.6 335.468 24.05 335.468 25.95C335.468 27.8833 335.918 29.35 336.818 30.35C337.718 31.35 338.851 31.85 340.218 31.85C341.551 31.85 342.668 31.35 343.568 30.35C344.468 29.3167 344.918 27.85 344.918 25.95C344.918 24.05 344.468 22.6 343.568 21.6C342.668 20.6 341.551 20.1 340.218 20.1ZM374.304 9.05C374.07 9.01667 373.72 9 373.254 9C372.087 9 371.237 9.23333 370.704 9.7C370.17 10.1333 369.854 10.8833 369.754 11.95H374.304V20.15H369.704V40H359.854V20.15H356.654V11.95H359.854C359.854 8.35 360.92 5.56666 363.054 3.6C365.187 1.6 368.254 0.599998 372.254 0.599998C372.687 0.599998 373.37 0.633332 374.304 0.699999V9.05ZM394.83 4.6L402.83 30.1L410.78 4.6H421.23L409.13 40H396.48L384.38 4.6H394.83ZM434.536 11.6C436.502 11.6 438.202 12.0333 439.636 12.9C441.102 13.7333 442.186 14.9 442.886 16.4V11.95H452.686V40H442.886V35.55C442.186 37.05 441.102 38.2333 439.636 39.1C438.202 39.9333 436.502 40.35 434.536 40.35C432.302 40.35 430.286 39.7833 428.486 38.65C426.686 37.4833 425.269 35.8167 424.236 33.65C423.202 31.45 422.686 28.8833 422.686 25.95C422.686 23.0167 423.202 20.4667 424.236 18.3C425.269 16.1333 426.686 14.4833 428.486 13.35C430.286 12.1833 432.302 11.6 434.536 11.6ZM437.786 20.2C436.252 20.2 435.002 20.7167 434.036 21.75C433.102 22.75 432.636 24.15 432.636 25.95C432.636 27.7833 433.102 29.2167 434.036 30.25C435.002 31.25 436.252 31.75 437.786 31.75C439.252 31.75 440.469 31.2333 441.436 30.2C442.402 29.1667 442.886 27.75 442.886 25.95C442.886 24.1833 442.402 22.7833 441.436 21.75C440.469 20.7167 439.252 20.2 437.786 20.2ZM467.921 3V40H458.071V3H467.921ZM502.154 11.95V40H492.354V35.3C491.554 36.8 490.388 38 488.854 38.9C487.321 39.8 485.521 40.25 483.454 40.25C480.221 40.25 477.671 39.1833 475.804 37.05C473.971 34.8833 473.054 31.9333 473.054 28.2V11.95H482.854V27C482.854 28.6 483.271 29.8667 484.104 30.8C484.971 31.7 486.121 32.15 487.554 32.15C489.021 32.15 490.188 31.6833 491.054 30.75C491.921 29.8167 492.354 28.5 492.354 26.8V11.95H502.154ZM534.533 25.45C534.533 26.15 534.449 26.9167 534.283 27.75H515.733C515.899 30.9167 517.283 32.5 519.883 32.5C520.849 32.5 521.649 32.2667 522.283 31.8C522.916 31.3333 523.349 30.7167 523.583 29.95H533.983C533.616 31.9167 532.799 33.7 531.533 35.3C530.266 36.8667 528.666 38.1 526.733 39C524.799 39.9 522.683 40.35 520.383 40.35C517.583 40.35 515.099 39.7833 512.933 38.65C510.799 37.4833 509.133 35.8167 507.933 33.65C506.733 31.45 506.133 28.8833 506.133 25.95C506.133 23.0167 506.733 20.4667 507.933 18.3C509.133 16.1333 510.816 14.4833 512.983 13.35C515.149 12.1833 517.616 11.6 520.383 11.6C523.183 11.6 525.649 12.1667 527.783 13.3C529.916 14.4333 531.566 16.05 532.733 18.15C533.933 20.25 534.533 22.6833 534.533 25.45ZM524.533 23.65C524.566 22.2167 524.183 21.1333 523.383 20.4C522.583 19.6667 521.583 19.3 520.383 19.3C519.083 19.3 518.016 19.6667 517.183 20.4C516.383 21.1333 515.916 22.2167 515.783 23.65H524.533ZM1.9 72.2C1.9 70.7333 2.43333 69.5333 3.5 68.6C4.56667 67.6333 5.96667 67.15 7.7 67.15C9.43333 67.15 10.8167 67.6333 11.85 68.6C12.8833 69.5333 13.4 70.7333 13.4 72.2C13.4 73.6 12.8667 74.7667 11.8 75.7C10.7667 76.6333 9.4 77.1 7.7 77.1C5.96667 77.1 4.56667 76.6333 3.5 75.7C2.43333 74.7667 1.9 73.6 1.9 72.2ZM12.55 79.95V108H2.7V79.95H12.55ZM28.6332 79.6C32.3332 79.6 35.2832 80.5 37.4832 82.3C39.6832 84.1 41.0665 86.4833 41.6332 89.45H32.4332C32.1999 88.45 31.7165 87.7 30.9832 87.2C30.2832 86.7 29.4165 86.45 28.3832 86.45C27.6499 86.45 27.0832 86.6167 26.6832 86.95C26.3165 87.25 26.1332 87.6833 26.1332 88.25C26.1332 88.95 26.5332 89.4833 27.3332 89.85C28.1665 90.1833 29.5165 90.5667 31.3832 91C33.5499 91.4667 35.3332 91.9667 36.7332 92.5C38.1665 93.0333 39.3999 93.9 40.4332 95.1C41.4999 96.3 42.0332 97.9167 42.0332 99.95C42.0332 101.583 41.5832 103.033 40.6832 104.3C39.7832 105.567 38.4665 106.567 36.7332 107.3C35.0332 108 33.0165 108.35 30.6832 108.35C26.7499 108.35 23.6165 107.5 21.2832 105.8C18.9499 104.1 17.5332 101.667 17.0332 98.5H26.4832C26.6165 99.5333 27.0499 100.3 27.7832 100.8C28.5499 101.3 29.4999 101.55 30.6332 101.55C31.3999 101.55 31.9832 101.383 32.3832 101.05C32.7832 100.717 32.9832 100.283 32.9832 99.75C32.9832 98.95 32.5499 98.3667 31.6832 98C30.8499 97.6333 29.4999 97.2667 27.6332 96.9C25.4999 96.4667 23.7499 96 22.3832 95.5C21.0165 94.9667 19.8165 94.1333 18.7832 93C17.7832 91.8333 17.2832 90.2333 17.2832 88.2C17.2832 85.6667 18.2665 83.6 20.2332 82C22.1999 80.4 24.9999 79.6 28.6332 79.6ZM87.2309 72.6V108H77.4309V93.7H65.4309V108H55.5809V72.6H65.4309V85.85H77.4309V72.6H87.2309ZM119.64 93.45C119.64 94.15 119.557 94.9167 119.39 95.75H100.84C101.007 98.9167 102.39 100.5 104.99 100.5C105.957 100.5 106.757 100.267 107.39 99.8C108.024 99.3333 108.457 98.7167 108.69 97.95H119.09C118.724 99.9167 117.907 101.7 116.64 103.3C115.374 104.867 113.774 106.1 111.84 107C109.907 107.9 107.79 108.35 105.49 108.35C102.69 108.35 100.207 107.783 98.0402 106.65C95.9069 105.483 94.2402 103.817 93.0402 101.65C91.8402 99.45 91.2402 96.8833 91.2402 93.95C91.2402 91.0167 91.8402 88.4667 93.0402 86.3C94.2402 84.1333 95.9236 82.4833 98.0902 81.35C100.257 80.1833 102.724 79.6 105.49 79.6C108.29 79.6 110.757 80.1667 112.89 81.3C115.024 82.4333 116.674 84.05 117.84 86.15C119.04 88.25 119.64 90.6833 119.64 93.45ZM109.64 91.65C109.674 90.2167 109.29 89.1333 108.49 88.4C107.69 87.6667 106.69 87.3 105.49 87.3C104.19 87.3 103.124 87.6667 102.29 88.4C101.49 89.1333 101.024 90.2167 100.89 91.65H109.64ZM133.448 85.2C134.548 83.5333 135.932 82.2 137.598 81.2C139.265 80.2 141.032 79.7 142.898 79.7V90.2H140.048C137.848 90.2 136.198 90.6333 135.098 91.5C133.998 92.3333 133.448 93.8 133.448 95.9V108H123.598V79.95H133.448V85.2ZM173.107 93.45C173.107 94.15 173.024 94.9167 172.857 95.75H154.307C154.474 98.9167 155.857 100.5 158.457 100.5C159.424 100.5 160.224 100.267 160.857 99.8C161.49 99.3333 161.924 98.7167 162.157 97.95H172.557C172.19 99.9167 171.374 101.7 170.107 103.3C168.84 104.867 167.24 106.1 165.307 107C163.374 107.9 161.257 108.35 158.957 108.35C156.157 108.35 153.674 107.783 151.507 106.65C149.374 105.483 147.707 103.817 146.507 101.65C145.307 99.45 144.707 96.8833 144.707 93.95C144.707 91.0167 145.307 88.4667 146.507 86.3C147.707 84.1333 149.39 82.4833 151.557 81.35C153.724 80.1833 156.19 79.6 158.957 79.6C161.757 79.6 164.224 80.1667 166.357 81.3C168.49 82.4333 170.14 84.05 171.307 86.15C172.507 88.25 173.107 90.6833 173.107 93.45ZM163.107 91.65C163.14 90.2167 162.757 89.1333 161.957 88.4C161.157 87.6667 160.157 87.3 158.957 87.3C157.657 87.3 156.59 87.6667 155.757 88.4C154.957 89.1333 154.49 90.2167 154.357 91.65H163.107ZM185.715 98.4V108H175.765V98.4H185.715Z" fill="#3A3A3A"/>
</svg>
