<svg width="534" height="645" viewBox="0 0 534 645" fill="none" xmlns="http://www.w3.org/2000/svg">
<path d="M0.5 0.5H508C522.083 0.5 533.5 11.9167 533.5 26V619C533.5 633.083 522.083 644.5 508 644.5H0.5V0.5Z" fill="#5AC2A7" fill-opacity="0.4" stroke="#BDBDBD"/>
<circle cx="456" cy="503" r="75" fill="url(#paint0_linear_185_2781)" fill-opacity="0.7"/>
<circle cx="456" cy="503" r="75" stroke="#1FA07E"/>
<circle cx="296" cy="568" r="75" fill="url(#paint1_linear_185_2781)" fill-opacity="0.7"/>
<circle cx="296" cy="568" r="75" stroke="#1FA07E"/>
<circle cx="456" cy="503" r="25" fill="url(#paint2_linear_185_2781)" fill-opacity="0.7"/>
<circle cx="456" cy="503" r="25" stroke="#1FA07E"/>
<circle cx="431" cy="88" r="60" fill="url(#paint3_linear_185_2781)" fill-opacity="0.7"/>
<circle cx="431" cy="88" r="60" stroke="#1FA07E"/>
<circle cx="116" cy="308" r="60" fill="url(#paint4_linear_185_2781)" fill-opacity="0.7"/>
<circle cx="116" cy="308" r="60" stroke="#1FA07E"/>
<circle cx="61" cy="553" r="60" fill="url(#paint5_linear_185_2781)" fill-opacity="0.7"/>
<circle cx="61" cy="553" r="60" stroke="#1FA07E"/>
<circle cx="434" cy="272" r="50" fill="url(#paint6_linear_185_2781)" fill-opacity="0.7"/>
<circle cx="434" cy="272" r="50" stroke="#1FA07E"/>
<path d="M57.423 130.622V158H50.754V141.581L44.631 158H39.249L33.087 141.542V158H26.418V130.622H34.296L41.979 149.576L49.584 130.622H57.423ZM60.8928 147.08C60.8928 144.844 61.3088 142.881 62.1408 141.191C62.9988 139.501 64.1558 138.201 65.6118 137.291C67.0678 136.381 68.6928 135.926 70.4868 135.926C72.0208 135.926 73.3598 136.238 74.5038 136.862C75.6738 137.486 76.5708 138.305 77.1948 139.319V136.238H83.8638V158H77.1948V154.919C76.5448 155.933 75.6348 156.752 74.4648 157.376C73.3208 158 71.9818 158.312 70.4478 158.312C68.6798 158.312 67.0678 157.857 65.6118 156.947C64.1558 156.011 62.9988 154.698 62.1408 153.008C61.3088 151.292 60.8928 149.316 60.8928 147.08ZM77.1948 147.119C77.1948 145.455 76.7268 144.142 75.7908 143.18C74.8808 142.218 73.7628 141.737 72.4368 141.737C71.1108 141.737 69.9798 142.218 69.0438 143.18C68.1338 144.116 67.6788 145.416 67.6788 147.08C67.6788 148.744 68.1338 150.07 69.0438 151.058C69.9798 152.02 71.1108 152.501 72.4368 152.501C73.7628 152.501 74.8808 152.02 75.7908 151.058C76.7268 150.096 77.1948 148.783 77.1948 147.119ZM95.3575 139.865C96.1375 138.669 97.1125 137.733 98.2825 137.057C99.4525 136.355 100.753 136.004 102.183 136.004V143.063H100.35C98.6855 143.063 97.4375 143.427 96.6055 144.155C95.7735 144.857 95.3575 146.105 95.3575 147.899V158H88.6885V136.238H95.3575V139.865ZM115.159 151.76L119.878 136.238H126.976L119.254 158H111.025L103.303 136.238H110.44L115.159 151.76ZM150.297 146.768C150.297 147.392 150.258 148.042 150.18 148.718H135.087C135.191 150.07 135.62 151.11 136.374 151.838C137.154 152.54 138.103 152.891 139.221 152.891C140.885 152.891 142.042 152.189 142.692 150.785H149.79C149.426 152.215 148.763 153.502 147.801 154.646C146.865 155.79 145.682 156.687 144.252 157.337C142.822 157.987 141.223 158.312 139.455 158.312C137.323 158.312 135.425 157.857 133.761 156.947C132.097 156.037 130.797 154.737 129.861 153.047C128.925 151.357 128.457 149.381 128.457 147.119C128.457 144.857 128.912 142.881 129.822 141.191C130.758 139.501 132.058 138.201 133.722 137.291C135.386 136.381 137.297 135.926 139.455 135.926C141.561 135.926 143.433 136.368 145.071 137.252C146.709 138.136 147.983 139.397 148.893 141.035C149.829 142.673 150.297 144.584 150.297 146.768ZM143.472 145.013C143.472 143.869 143.082 142.959 142.302 142.283C141.522 141.607 140.547 141.269 139.377 141.269C138.259 141.269 137.31 141.594 136.53 142.244C135.776 142.894 135.308 143.817 135.126 145.013H143.472ZM160.484 129.14V158H153.815V129.14H160.484ZM171.986 129.14V158H165.317V129.14H171.986ZM197.333 146.768C197.333 147.392 197.294 148.042 197.216 148.718H182.123C182.227 150.07 182.656 151.11 183.41 151.838C184.19 152.54 185.139 152.891 186.257 152.891C187.921 152.891 189.078 152.189 189.728 150.785H196.826C196.462 152.215 195.799 153.502 194.837 154.646C193.901 155.79 192.718 156.687 191.288 157.337C189.858 157.987 188.259 158.312 186.491 158.312C184.359 158.312 182.461 157.857 180.797 156.947C179.133 156.037 177.833 154.737 176.897 153.047C175.961 151.357 175.493 149.381 175.493 147.119C175.493 144.857 175.948 142.881 176.858 141.191C177.794 139.501 179.094 138.201 180.758 137.291C182.422 136.381 184.333 135.926 186.491 135.926C188.597 135.926 190.469 136.368 192.107 137.252C193.745 138.136 195.019 139.397 195.929 141.035C196.865 142.673 197.333 144.584 197.333 146.768ZM190.508 145.013C190.508 143.869 190.118 142.959 189.338 142.283C188.558 141.607 187.583 141.269 186.413 141.269C185.295 141.269 184.346 141.594 183.566 142.244C182.812 142.894 182.344 143.817 182.162 145.013H190.508ZM213.722 158L209.549 151.955L206.039 158H198.824L206 146.885L198.629 136.238H206.117L210.29 142.244L213.8 136.238H221.015L213.722 147.197L221.21 158H213.722ZM64.092 183.622L56.955 211H48.882L44.514 192.982L39.99 211H31.917L24.975 183.622H32.112L36.051 203.551L40.926 183.622H48.258L52.938 203.551L56.916 183.622H64.092ZM80.8136 189.004C83.3096 189.004 85.3116 189.836 86.8196 191.5C88.3276 193.138 89.0816 195.4 89.0816 198.286V211H82.4516V199.183C82.4516 197.727 82.0746 196.596 81.3206 195.79C80.5666 194.984 79.5526 194.581 78.2786 194.581C77.0046 194.581 75.9906 194.984 75.2366 195.79C74.4826 196.596 74.1056 197.727 74.1056 199.183V211H67.4366V182.14H74.1056V192.163C74.7816 191.201 75.7046 190.434 76.8746 189.862C78.0446 189.29 79.3576 189.004 80.8136 189.004ZM97.0699 186.976C95.8999 186.976 94.9379 186.638 94.1839 185.962C93.4559 185.26 93.0919 184.402 93.0919 183.388C93.0919 182.348 93.4559 181.49 94.1839 180.814C94.9379 180.112 95.8999 179.761 97.0699 179.761C98.2139 179.761 99.1499 180.112 99.8779 180.814C100.632 181.49 101.009 182.348 101.009 183.388C101.009 184.402 100.632 185.26 99.8779 185.962C99.1499 186.638 98.2139 186.976 97.0699 186.976ZM100.385 189.238V211H93.7159V189.238H100.385ZM117.347 205.345V211H113.954C111.536 211 109.651 210.415 108.299 209.245C106.947 208.049 106.271 206.112 106.271 203.434V194.776H103.619V189.238H106.271V183.934H112.94V189.238H117.308V194.776H112.94V203.512C112.94 204.162 113.096 204.63 113.408 204.916C113.72 205.202 114.24 205.345 114.968 205.345H117.347ZM141.576 199.768C141.576 200.392 141.537 201.042 141.459 201.718H126.366C126.47 203.07 126.899 204.11 127.653 204.838C128.433 205.54 129.382 205.891 130.5 205.891C132.164 205.891 133.321 205.189 133.971 203.785H141.069C140.705 205.215 140.042 206.502 139.08 207.646C138.144 208.79 136.961 209.687 135.531 210.337C134.101 210.987 132.502 211.312 130.734 211.312C128.602 211.312 126.704 210.857 125.04 209.947C123.376 209.037 122.076 207.737 121.14 206.047C120.204 204.357 119.736 202.381 119.736 200.119C119.736 197.857 120.191 195.881 121.101 194.191C122.037 192.501 123.337 191.201 125.001 190.291C126.665 189.381 128.576 188.926 130.734 188.926C132.84 188.926 134.712 189.368 136.35 190.252C137.988 191.136 139.262 192.397 140.172 194.035C141.108 195.673 141.576 197.584 141.576 199.768ZM134.751 198.013C134.751 196.869 134.361 195.959 133.581 195.283C132.801 194.607 131.826 194.269 130.656 194.269C129.538 194.269 128.589 194.594 127.809 195.244C127.055 195.894 126.587 196.817 126.405 198.013H134.751ZM151.763 192.319C152.413 191.305 153.31 190.486 154.454 189.862C155.598 189.238 156.937 188.926 158.471 188.926C160.265 188.926 161.89 189.381 163.346 190.291C164.802 191.201 165.946 192.501 166.778 194.191C167.636 195.881 168.065 197.844 168.065 200.08C168.065 202.316 167.636 204.292 166.778 206.008C165.946 207.698 164.802 209.011 163.346 209.947C161.89 210.857 160.265 211.312 158.471 211.312C156.963 211.312 155.624 211 154.454 210.376C153.31 209.752 152.413 208.946 151.763 207.958V221.374H145.094V189.238H151.763V192.319ZM161.279 200.08C161.279 198.416 160.811 197.116 159.875 196.18C158.965 195.218 157.834 194.737 156.482 194.737C155.156 194.737 154.025 195.218 153.089 196.18C152.179 197.142 151.724 198.455 151.724 200.119C151.724 201.783 152.179 203.096 153.089 204.058C154.025 205.02 155.156 205.501 156.482 205.501C157.808 205.501 158.939 205.02 159.875 204.058C160.811 203.07 161.279 201.744 161.279 200.08ZM170.238 200.08C170.238 197.844 170.654 195.881 171.486 194.191C172.344 192.501 173.501 191.201 174.957 190.291C176.413 189.381 178.038 188.926 179.832 188.926C181.366 188.926 182.705 189.238 183.849 189.862C185.019 190.486 185.916 191.305 186.54 192.319V189.238H193.209V211H186.54V207.919C185.89 208.933 184.98 209.752 183.81 210.376C182.666 211 181.327 211.312 179.793 211.312C178.025 211.312 176.413 210.857 174.957 209.947C173.501 209.011 172.344 207.698 171.486 206.008C170.654 204.292 170.238 202.316 170.238 200.08ZM186.54 200.119C186.54 198.455 186.072 197.142 185.136 196.18C184.226 195.218 183.108 194.737 181.782 194.737C180.456 194.737 179.325 195.218 178.389 196.18C177.479 197.116 177.024 198.416 177.024 200.08C177.024 201.744 177.479 203.07 178.389 204.058C179.325 205.02 180.456 205.501 181.782 205.501C183.108 205.501 184.226 205.02 185.136 204.058C186.072 203.096 186.54 201.783 186.54 200.119ZM204.702 192.319C205.352 191.305 206.249 190.486 207.393 189.862C208.537 189.238 209.876 188.926 211.41 188.926C213.204 188.926 214.829 189.381 216.285 190.291C217.741 191.201 218.885 192.501 219.717 194.191C220.575 195.881 221.004 197.844 221.004 200.08C221.004 202.316 220.575 204.292 219.717 206.008C218.885 207.698 217.741 209.011 216.285 209.947C214.829 210.857 213.204 211.312 211.41 211.312C209.902 211.312 208.563 211 207.393 210.376C206.249 209.752 205.352 208.946 204.702 207.958V221.374H198.033V189.238H204.702V192.319ZM214.218 200.08C214.218 198.416 213.75 197.116 212.814 196.18C211.904 195.218 210.773 194.737 209.421 194.737C208.095 194.737 206.964 195.218 206.028 196.18C205.118 197.142 204.663 198.455 204.663 200.119C204.663 201.783 205.118 203.096 206.028 204.058C206.964 205.02 208.095 205.501 209.421 205.501C210.747 205.501 211.878 205.02 212.814 204.058C213.75 203.07 214.218 201.744 214.218 200.08ZM245.017 199.768C245.017 200.392 244.978 201.042 244.9 201.718H229.807C229.911 203.07 230.34 204.11 231.094 204.838C231.874 205.54 232.823 205.891 233.941 205.891C235.605 205.891 236.762 205.189 237.412 203.785H244.51C244.146 205.215 243.483 206.502 242.521 207.646C241.585 208.79 240.402 209.687 238.972 210.337C237.542 210.987 235.943 211.312 234.175 211.312C232.043 211.312 230.145 210.857 228.481 209.947C226.817 209.037 225.517 207.737 224.581 206.047C223.645 204.357 223.177 202.381 223.177 200.119C223.177 197.857 223.632 195.881 224.542 194.191C225.478 192.501 226.778 191.201 228.442 190.291C230.106 189.381 232.017 188.926 234.175 188.926C236.281 188.926 238.153 189.368 239.791 190.252C241.429 191.136 242.703 192.397 243.613 194.035C244.549 195.673 245.017 197.584 245.017 199.768ZM238.192 198.013C238.192 196.869 237.802 195.959 237.022 195.283C236.242 194.607 235.267 194.269 234.097 194.269C232.979 194.269 232.03 194.594 231.25 195.244C230.496 195.894 230.028 196.817 229.846 198.013H238.192ZM255.204 192.865C255.984 191.669 256.959 190.733 258.129 190.057C259.299 189.355 260.599 189.004 262.029 189.004V196.063H260.196C258.532 196.063 257.284 196.427 256.452 197.155C255.62 197.857 255.204 199.105 255.204 200.899V211H248.535V189.238H255.204V192.865Z" fill="#3A3A3A"/>
<rect x="24" y="67" width="137" height="38" fill="white"/>
<path d="M57.32 79.688L54.616 91H51.224L49.416 83.432L47.592 91H44.2L41.496 79.688H44.472L45.928 87.88L47.912 79.688H50.904L52.888 87.88L54.36 79.688H57.32ZM68.5325 79.688V91H65.7805V86.28H61.4925V91H58.7565V79.688H61.4925V84.072H65.7805V79.688H68.5325ZM73.1488 79.688V91H70.4128V79.688H73.1488ZM83.1658 79.688V81.864H80.0938V91H77.3418V81.864H74.3018V79.688H83.1658ZM87.055 81.864V84.232H90.879V86.296H87.055V88.808H91.359V91H84.319V79.688H91.359V81.864H87.055ZM95.6488 87.032V91H92.9128V79.688H97.3448C98.6888 79.688 99.7128 80.024 100.417 80.696C101.121 81.3573 101.473 82.2533 101.473 83.384C101.473 84.088 101.313 84.7173 100.993 85.272C100.683 85.816 100.219 86.248 99.6008 86.568C98.9821 86.8773 98.2301 87.032 97.3448 87.032H95.6488ZM97.0408 84.84C98.1394 84.84 98.6888 84.3547 98.6888 83.384C98.6888 82.392 98.1394 81.896 97.0408 81.896H95.6488V84.84H97.0408ZM109.827 88.936H105.587L104.883 91H102.003L106.147 79.768H109.299L113.443 91H110.531L109.827 88.936ZM109.123 86.856L107.715 82.696L106.291 86.856H109.123ZM117.243 87.032V91H114.507V79.688H118.939C120.283 79.688 121.307 80.024 122.01 80.696C122.715 81.3573 123.067 82.2533 123.067 83.384C123.067 84.088 122.907 84.7173 122.587 85.272C122.277 85.816 121.813 86.248 121.195 86.568C120.576 86.8773 119.824 87.032 118.939 87.032H117.243ZM118.635 84.84C119.733 84.84 120.283 84.3547 120.283 83.384C120.283 82.392 119.733 81.896 118.635 81.896H117.243V84.84H118.635ZM127.149 81.864V84.232H130.973V86.296H127.149V88.808H131.453V91H124.413V79.688H131.453V81.864H127.149ZM138.815 91L136.367 86.728H135.743V91H133.007V79.688H137.679C138.575 79.688 139.332 79.8427 139.951 80.152C140.569 80.4613 141.033 80.888 141.343 81.432C141.652 81.9653 141.807 82.5787 141.807 83.272C141.807 84.0933 141.577 84.792 141.119 85.368C140.671 85.944 140.015 86.3387 139.151 86.552L141.839 91H138.815ZM135.743 84.856H137.439C137.983 84.856 138.383 84.7387 138.639 84.504C138.895 84.2587 139.023 83.9013 139.023 83.432C139.023 82.984 138.889 82.632 138.623 82.376C138.367 82.12 137.972 81.992 137.439 81.992H135.743V84.856Z" fill="#3A3A3A"/>
<defs>
<linearGradient id="paint0_linear_185_2781" x1="456" y1="428" x2="456" y2="578" gradientUnits="userSpaceOnUse">
<stop stop-color="#2DC79F"/>
<stop offset="1" stop-color="#1A9071"/>
</linearGradient>
<linearGradient id="paint1_linear_185_2781" x1="296" y1="493" x2="296" y2="643" gradientUnits="userSpaceOnUse">
<stop stop-color="#2DC79F"/>
<stop offset="1" stop-color="#1A9071"/>
</linearGradient>
<linearGradient id="paint2_linear_185_2781" x1="456" y1="478" x2="456" y2="528" gradientUnits="userSpaceOnUse">
<stop stop-color="#2DC79F"/>
<stop offset="1" stop-color="#1A9071"/>
</linearGradient>
<linearGradient id="paint3_linear_185_2781" x1="431" y1="28" x2="431" y2="148" gradientUnits="userSpaceOnUse">
<stop stop-color="#2DC79F"/>
<stop offset="1" stop-color="#1A9071"/>
</linearGradient>
<linearGradient id="paint4_linear_185_2781" x1="116" y1="248" x2="116" y2="368" gradientUnits="userSpaceOnUse">
<stop stop-color="#2DC79F"/>
<stop offset="1" stop-color="#1A9071"/>
</linearGradient>
<linearGradient id="paint5_linear_185_2781" x1="61" y1="493" x2="61" y2="613" gradientUnits="userSpaceOnUse">
<stop stop-color="#2DC79F"/>
<stop offset="1" stop-color="#1A9071"/>
</linearGradient>
<linearGradient id="paint6_linear_185_2781" x1="434" y1="222" x2="434" y2="322" gradientUnits="userSpaceOnUse">
<stop stop-color="#2DC79F"/>
<stop offset="1" stop-color="#1A9071"/>
</linearGradient>
</defs>
</svg>
